<svg xmlns="http://www.w3.org/2000/svg" xmlns:xlink="http://www.w3.org/1999/xlink" width="642.67" height="644.53" viewBox="0 0 642.67 644.53">
  <defs>
    <clipPath id="clip-path">
      <path id="Path_167" data-name="Path 167" d="M1194,376.512h79.1v91.941H1194Zm0,0" transform="translate(-1194 -376.512)"/>
    </clipPath>
    <clipPath id="clip-path-2">
      <path id="Path_166" data-name="Path 166" d="M1196.17,376.605s34.971,55.324,76.563,66.006c0,0-8.1,23.081-14.359,25.719,0,0-51.165-42.688-64.311-83.868Zm0,0" transform="translate(-1194.063 -376.605)"/>
    </clipPath>
    <clipPath id="clip-path-3">
      <path id="Path_165" data-name="Path 165" d="M1196.17,376.6s34.978,55.331,76.563,66.006c0,0-8.1,23.088-14.359,25.726,0,0-51.158-42.695-64.311-83.868l2.107-7.863" transform="translate(-1194.063 -376.602)"/>
    </clipPath>
    <clipPath id="clip-path-4">
      <path id="Path_164" data-name="Path 164" d="M1248.079,524.461l90.1-78.635-79.458-91.041-90.1,78.635Zm0,0" transform="translate(-1168.621 -354.785)"/>
    </clipPath>
    <linearGradient id="linear-gradient" x1="-12.311" y1="-3.735" x2="-12.303" y2="-3.735" gradientUnits="objectBoundingBox">
      <stop offset="0" stop-color="#74767b"/>
      <stop offset="0.063" stop-color="#74767b"/>
      <stop offset="0.078" stop-color="#74767b"/>
      <stop offset="0.094" stop-color="#73757a"/>
      <stop offset="0.125" stop-color="#73757a"/>
      <stop offset="0.141" stop-color="#73757a"/>
      <stop offset="0.156" stop-color="#727479"/>
      <stop offset="0.188" stop-color="#717479"/>
      <stop offset="0.219" stop-color="#717378"/>
      <stop offset="0.234" stop-color="#717378"/>
      <stop offset="0.25" stop-color="#707277"/>
      <stop offset="0.266" stop-color="#707277"/>
      <stop offset="0.281" stop-color="#707276"/>
      <stop offset="0.313" stop-color="#6f7176"/>
      <stop offset="0.328" stop-color="#6f7176"/>
      <stop offset="0.344" stop-color="#6e7075"/>
      <stop offset="0.359" stop-color="#6e7075"/>
      <stop offset="0.375" stop-color="#6e7074"/>
      <stop offset="0.391" stop-color="#6e7074"/>
      <stop offset="0.406" stop-color="#6d6f74"/>
      <stop offset="0.438" stop-color="#6d6f74"/>
      <stop offset="0.453" stop-color="#6d6f73"/>
      <stop offset="0.469" stop-color="#6c6e72"/>
      <stop offset="0.484" stop-color="#6c6e72"/>
      <stop offset="0.5" stop-color="#6b6d72"/>
      <stop offset="0.516" stop-color="#6b6d72"/>
      <stop offset="0.531" stop-color="#6b6d71"/>
      <stop offset="0.563" stop-color="#6b6d70"/>
      <stop offset="0.594" stop-color="#6a6c70"/>
      <stop offset="0.609" stop-color="#6a6c70"/>
      <stop offset="0.625" stop-color="#696b6f"/>
      <stop offset="0.641" stop-color="#696b6f"/>
      <stop offset="0.656" stop-color="#686a6e"/>
      <stop offset="0.688" stop-color="#686a6e"/>
      <stop offset="0.703" stop-color="#686a6e"/>
      <stop offset="0.719" stop-color="#67696d"/>
      <stop offset="0.75" stop-color="#67696d"/>
      <stop offset="0.766" stop-color="#67696c"/>
      <stop offset="0.781" stop-color="#66686c"/>
      <stop offset="0.813" stop-color="#65686c"/>
      <stop offset="0.828" stop-color="#65676b"/>
      <stop offset="0.844" stop-color="#65676a"/>
      <stop offset="0.859" stop-color="#65676a"/>
      <stop offset="0.875" stop-color="#64666a"/>
      <stop offset="0.891" stop-color="#64666a"/>
      <stop offset="0.906" stop-color="#646669"/>
      <stop offset="0.938" stop-color="#636569"/>
      <stop offset="0.953" stop-color="#636568"/>
      <stop offset="0.969" stop-color="#626468"/>
      <stop offset="0.984" stop-color="#626468"/>
      <stop offset="1" stop-color="#626467"/>
    </linearGradient>
    <clipPath id="clip-path-5">
      <path id="Path_172" data-name="Path 172" d="M1239.074,513.5h28.286V634.069h-28.286Zm0,0" transform="translate(-1239.074 -513.5)"/>
    </clipPath>
    <clipPath id="clip-path-6">
      <path id="Path_171" data-name="Path 171" d="M1247.007,513.582l-1.744,10.271s5.84,59.182,6.88,82.856a18.494,18.494,0,0,1-2.742,10.536l-10.166,16.5,25.823-15.239.516-3.147-4.228-5.812,5.54-66.3A20.414,20.414,0,0,0,1264.569,532l-5.344-10.033Zm0,0" transform="translate(-1239.234 -513.582)"/>
    </clipPath>
    <clipPath id="clip-path-7">
      <path id="Path_170" data-name="Path 170" d="M1247,513.582l-1.744,10.264s5.84,59.189,6.88,82.863a18.508,18.508,0,0,1-2.742,10.536l-10.159,16.5,25.816-15.239.516-3.147-4.221-5.812,5.533-66.306A20.341,20.341,0,0,0,1264.566,532l-5.338-10.033L1247,513.582" transform="translate(-1239.238 -513.582)"/>
    </clipPath>
    <clipPath id="clip-path-8">
      <path id="Path_178" data-name="Path 178" d="M1263.223,513.9h62.231V630.184h-62.231Zm0,0" transform="translate(-1263.223 -513.898)"/>
    </clipPath>
    <clipPath id="clip-path-9">
      <path id="Path_177" data-name="Path 177" d="M1263.383,518.189s34.231,64.932,39.674,79.758a141.943,141.943,0,0,1,7.417,28.356c.118,1.835,2.393,3.586,8.666,3.586,3.238,0,4.821-1.3,5.6-2.554a3.648,3.648,0,0,0,.14-3.538c-1.982-4.012-8.268-16.815-10.592-22.621-2.777-6.943-8.757-38.362-12.036-49.288s-6.984-22.781-21.253-33.7C1281,518.189,1271.2,508.6,1263.383,518.189Zm0,0" transform="translate(-1263.383 -513.925)"/>
    </clipPath>
    <clipPath id="clip-path-10">
      <path id="Path_176" data-name="Path 176" d="M1263.387,518.189s34.224,64.932,39.667,79.758a142.773,142.773,0,0,1,7.424,28.356c.112,1.835,2.386,3.586,8.659,3.586,3.245,0,4.828-1.3,5.6-2.554a3.648,3.648,0,0,0,.14-3.538c-1.982-4.012-8.261-16.815-10.592-22.621-2.777-6.943-8.75-38.362-12.029-49.288s-6.984-22.781-21.26-33.7c0,0-9.8-9.594-17.611,0" transform="translate(-1263.387 -513.925)"/>
    </clipPath>
    <clipPath id="clip-path-11">
      <path id="Path_175" data-name="Path 175" d="M1234,553.023l67.967,117.883,99.051-57.11-67.967-117.89Zm0,0" transform="translate(-1234.004 -495.906)"/>
    </clipPath>
    <linearGradient id="linear-gradient-2" x1="-13.602" y1="-5.253" x2="-13.59" y2="-5.253" gradientUnits="objectBoundingBox">
      <stop offset="0" stop-color="#74767b"/>
      <stop offset="0.5" stop-color="#74767b"/>
      <stop offset="0.75" stop-color="#74767b"/>
      <stop offset="0.875" stop-color="#74767b"/>
      <stop offset="0.906" stop-color="#74767b"/>
      <stop offset="0.938" stop-color="#73757a"/>
      <stop offset="0.969" stop-color="#727479"/>
      <stop offset="0.984" stop-color="#727479"/>
      <stop offset="1" stop-color="#717378"/>
    </linearGradient>
    <clipPath id="clip-path-12">
      <path id="Path_185" data-name="Path 185" d="M1237.687,397.3h21.567v37.838h-21.567Zm0,0" transform="translate(-1237.687 -397.297)"/>
    </clipPath>
    <clipPath id="clip-path-13">
      <path id="Path_184" data-name="Path 184" d="M1251.652,400.432l7.173,32.242c.691,2.84-1.9,2.379-4.766,1.835-4.7-.886-10.766-2.714-12.8-6.37a3.536,3.536,0,0,1-.363-1.214l-3.091-22.362a4.03,4.03,0,0,1,2.358-4.221l5.945-2.637A4.023,4.023,0,0,1,1251.652,400.432Zm0,0" transform="translate(-1237.773 -397.356)"/>
    </clipPath>
    <clipPath id="clip-path-14">
      <path id="Path_183" data-name="Path 183" d="M1251.649,400.432l7.18,32.242c.691,2.84-1.9,2.379-4.773,1.835-4.7-.886-10.759-2.714-12.79-6.37a3.4,3.4,0,0,1-.37-1.214l-3.084-22.362a4.025,4.025,0,0,1,2.352-4.221l5.952-2.637a4.016,4.016,0,0,1,5.533,2.728" transform="translate(-1237.776 -397.356)"/>
    </clipPath>
    <clipPath id="clip-path-15">
      <path id="Path_182" data-name="Path 182" d="M1234.742,436.394l26.751,3.656,5.617-41.062-26.758-3.656Zm0,0" transform="translate(-1234.742 -395.332)"/>
    </clipPath>
    <linearGradient id="linear-gradient-3" x1="-69.494" y1="-16.202" x2="-69.437" y2="-16.202" gradientUnits="objectBoundingBox">
      <stop offset="0" stop-color="#616367"/>
      <stop offset="0.031" stop-color="#616366"/>
      <stop offset="0.063" stop-color="#606266"/>
      <stop offset="0.078" stop-color="#606265"/>
      <stop offset="0.094" stop-color="#606265"/>
      <stop offset="0.109" stop-color="#5f6164"/>
      <stop offset="0.125" stop-color="#5f6164"/>
      <stop offset="0.156" stop-color="#5e6063"/>
      <stop offset="0.188" stop-color="#5d5f62"/>
      <stop offset="0.25" stop-color="#5d5f61"/>
      <stop offset="0.5" stop-color="#5c5e61"/>
      <stop offset="1" stop-color="#5c5e61"/>
    </linearGradient>
    <clipPath id="clip-path-16">
      <path id="Path_189" data-name="Path 189" d="M1241.055,423.824h55.156v48.1h-55.156Zm0,0" transform="translate(-1241.055 -423.824)"/>
    </clipPath>
    <clipPath id="clip-path-17">
      <path id="Path_188" data-name="Path 188" d="M1272.775,423.957s69.286,68.588-31.2,41.208c0,0-1.144-8.666.349-8.519,32.584,3.251,46.211,10.71,19.725-14.973-.942-.907-.649-4.34-.042-5.491C1263.439,432.658,1267.639,425.653,1272.775,423.957Zm0,0" transform="translate(-1241.16 -423.957)"/>
    </clipPath>
    <clipPath id="clip-path-18">
      <path id="Path_187" data-name="Path 187" d="M1272.775,423.957s69.286,68.588-31.2,41.208c0,0-1.144-8.666.349-8.519,32.584,3.251,46.211,10.71,19.725-14.973-.942-.907-.656-4.333-.049-5.491,1.835-3.524,6.028-10.522,11.171-12.224" transform="translate(-1241.16 -423.957)"/>
    </clipPath>
    <clipPath id="clip-path-19">
      <path id="Path_194" data-name="Path 194" d="M1231.156,381.859h30.763v37.476h-30.763Zm0,0" transform="translate(-1231.156 -381.859)"/>
    </clipPath>
    <clipPath id="clip-path-20">
      <path id="Path_193" data-name="Path 193" d="M1243.1,383.127s-7.64,5.17-10.927,18.344,2.051,17.9,7.522,17.618,13.4-1.982,20.276-11.436S1253.108,376.805,1243.1,383.127Zm0,0" transform="translate(-1231.163 -381.978)"/>
    </clipPath>
    <clipPath id="clip-path-21">
      <path id="Path_192" data-name="Path 192" d="M1243.1,383.127s-7.647,5.17-10.927,18.344,2.051,17.9,7.522,17.618,13.41-1.982,20.276-11.436-6.852-30.847-16.871-24.526" transform="translate(-1231.163 -381.978)"/>
    </clipPath>
    <clipPath id="clip-path-22">
      <path id="Path_191" data-name="Path 191" d="M1222.844,422.466l46.867,15.343,16.257-49.665L1239.1,372.8Zm0,0" transform="translate(-1222.844 -372.801)"/>
    </clipPath>
    <linearGradient id="linear-gradient-4" x1="-41.34" y1="-12.088" x2="-41.324" y2="-12.088" gradientUnits="objectBoundingBox">
      <stop offset="0" stop-color="#727479"/>
      <stop offset="0.063" stop-color="#717378"/>
      <stop offset="0.125" stop-color="#707278"/>
      <stop offset="0.188" stop-color="#707277"/>
      <stop offset="0.25" stop-color="#707276"/>
      <stop offset="0.313" stop-color="#6f7175"/>
      <stop offset="0.375" stop-color="#6e7075"/>
      <stop offset="0.438" stop-color="#6d6f74"/>
      <stop offset="0.5" stop-color="#6c6e73"/>
      <stop offset="0.563" stop-color="#6c6e72"/>
      <stop offset="0.625" stop-color="#6c6d72"/>
      <stop offset="0.688" stop-color="#6b6d71"/>
      <stop offset="0.75" stop-color="#6a6c70"/>
      <stop offset="0.813" stop-color="#696b6f"/>
      <stop offset="0.875" stop-color="#686a6e"/>
      <stop offset="0.938" stop-color="#686a6d"/>
      <stop offset="1" stop-color="#67696d"/>
    </linearGradient>
    <clipPath id="clip-path-23">
      <path id="Path_200" data-name="Path 200" d="M1244.418,390h8.485v11.973h-8.485Zm0,0" transform="translate(-1244.418 -390)"/>
    </clipPath>
    <clipPath id="clip-path-24">
      <path id="Path_199" data-name="Path 199" d="M1244.609,397.554s1.382-9.713,6.343-6.936-1.786,9.071-4.494,11.213Zm0,0" transform="translate(-1244.609 -390.119)"/>
    </clipPath>
    <clipPath id="clip-path-25">
      <path id="Path_198" data-name="Path 198" d="M1244.605,397.561s1.389-9.719,6.343-6.943-1.786,9.071-4.487,11.22l-1.856-4.277" transform="translate(-1244.605 -390.119)"/>
    </clipPath>
    <clipPath id="clip-path-26">
      <path id="Path_197" data-name="Path 197" d="M1242.293,402.951l14.345,4.7,5.226-15.978-14.338-4.7Zm0,0" transform="translate(-1242.293 -386.973)"/>
    </clipPath>
    <linearGradient id="linear-gradient-5" x1="-145.688" y1="-41.333" x2="-145.671" y2="-41.333" gradientUnits="objectBoundingBox">
      <stop offset="0" stop-color="#6d6f73"/>
      <stop offset="0.25" stop-color="#6d6f73"/>
      <stop offset="0.375" stop-color="#6c6e73"/>
      <stop offset="0.5" stop-color="#6c6e72"/>
      <stop offset="0.75" stop-color="#6b6d71"/>
      <stop offset="0.875" stop-color="#6b6d71"/>
      <stop offset="1" stop-color="#6a6c70"/>
    </linearGradient>
    <clipPath id="clip-path-27">
      <path id="Path_205" data-name="Path 205" d="M1183.051,365.031h27.582v33.24h-27.582Zm0,0" transform="translate(-1183.051 -365.031)"/>
    </clipPath>
    <clipPath id="clip-path-28">
      <path id="Path_204" data-name="Path 204" d="M1204.982,397.062c-.112,1.144,4.138,1.933,5.484-2.937-.37-2.107-1.026-11.359-2.651-12.8-8.624-7.654-24-16.257-24-16.257a3.131,3.131,0,0,0,.537,4.347l7.675,5.184c-.8,2.651-1.968,5-2.1,8.031a8.994,8.994,0,0,0,2.268,6.273,77.972,77.972,0,0,0,5.442,5.714A8.88,8.88,0,0,0,1204.982,397.062Zm0,0" transform="translate(-1183.165 -365.07)"/>
    </clipPath>
    <clipPath id="clip-path-29">
      <path id="Path_203" data-name="Path 203" d="M1204.975,397.062c-.1,1.144,4.138,1.933,5.491-2.937-.37-2.107-1.032-11.359-2.651-12.79-8.624-7.661-24-16.264-24-16.264a3.143,3.143,0,0,0,.53,4.354l7.682,5.184c-.8,2.644-1.975,5-2.1,8.024a8.958,8.958,0,0,0,2.268,6.28c1.528,1.744,3.586,4,5.435,5.708a8.881,8.881,0,0,0,7.347,2.442" transform="translate(-1183.164 -365.07)"/>
    </clipPath>
    <clipPath id="clip-path-30">
      <path id="Path_202" data-name="Path 202" d="M1202.231,419.235l32.906-28.726-29.068-33.31-32.912,28.726Zm0,0" transform="translate(-1173.156 -357.199)"/>
    </clipPath>
    <linearGradient id="linear-gradient-6" x1="-34.712" y1="-10.568" x2="-34.704" y2="-10.568" gradientUnits="objectBoundingBox">
      <stop offset="0" stop-color="#646669"/>
      <stop offset="0.125" stop-color="#636569"/>
      <stop offset="0.25" stop-color="#626468"/>
      <stop offset="0.375" stop-color="#626467"/>
      <stop offset="0.5" stop-color="#616367"/>
      <stop offset="0.625" stop-color="#606266"/>
      <stop offset="0.75" stop-color="#606165"/>
      <stop offset="0.875" stop-color="#5f6064"/>
      <stop offset="1" stop-color="#5e6063"/>
    </linearGradient>
    <clipPath id="clip-path-31">
      <path id="Path_210" data-name="Path 210" d="M1189.188,372h12.022v16.076h-12.022Zm0,0" transform="translate(-1189.188 -372)"/>
    </clipPath>
    <clipPath id="clip-path-32">
      <path id="Path_209" data-name="Path 209" d="M1195.99,387.827l1.172-.488c-.154-.377-3.838-9.329-5.624-11.192a2.68,2.68,0,0,1-.97-1.8,1.245,1.245,0,0,1,.391-.788l6.21,3.321,2.749,4.291,1.067-.677-2.923-4.577-7.278-3.893-.328.265a2.794,2.794,0,0,0-1.158,1.982,3.778,3.778,0,0,0,1.326,2.756C1191.964,378.429,1194.951,385.294,1195.99,387.827Zm0,0" transform="translate(-1189.294 -372.023)"/>
    </clipPath>
    <clipPath id="clip-path-33">
      <path id="Path_208" data-name="Path 208" d="M1195.99,387.827l1.172-.488c-.154-.377-3.838-9.329-5.624-11.192a2.68,2.68,0,0,1-.97-1.8,1.28,1.28,0,0,1,.391-.788l6.21,3.321,2.749,4.291,1.067-.677-2.923-4.577-7.278-3.893-.321.265a2.768,2.768,0,0,0-1.165,1.975,3.791,3.791,0,0,0,1.326,2.763c1.34,1.4,4.326,8.268,5.366,10.8" transform="translate(-1189.294 -372.023)"/>
    </clipPath>
    <clipPath id="clip-path-34">
      <path id="Path_207" data-name="Path 207" d="M1200.083,368.863l-15.071,11.4,11.875,15.692,15.071-11.4Zm0,0" transform="translate(-1185.012 -368.863)"/>
    </clipPath>
    <linearGradient id="linear-gradient-7" x1="-78.549" y1="-24.306" x2="-78.48" y2="-24.306" gradientUnits="objectBoundingBox">
      <stop offset="0" stop-color="#73757a"/>
      <stop offset="0.031" stop-color="#73757a"/>
      <stop offset="0.063" stop-color="#72757a"/>
      <stop offset="0.078" stop-color="#727479"/>
      <stop offset="0.094" stop-color="#717378"/>
      <stop offset="0.109" stop-color="#717378"/>
      <stop offset="0.125" stop-color="#717377"/>
      <stop offset="0.141" stop-color="#717377"/>
      <stop offset="0.156" stop-color="#707276"/>
      <stop offset="0.188" stop-color="#6f7176"/>
      <stop offset="0.203" stop-color="#6f7176"/>
      <stop offset="0.219" stop-color="#6e7075"/>
      <stop offset="0.234" stop-color="#6e7075"/>
      <stop offset="0.25" stop-color="#6d6f74"/>
      <stop offset="0.266" stop-color="#6d6f74"/>
      <stop offset="0.281" stop-color="#6d6f73"/>
      <stop offset="0.313" stop-color="#6d6e72"/>
      <stop offset="0.328" stop-color="#6c6e72"/>
      <stop offset="0.344" stop-color="#6b6d71"/>
      <stop offset="0.359" stop-color="#6b6d71"/>
      <stop offset="0.375" stop-color="#6a6c70"/>
      <stop offset="0.406" stop-color="#6a6c70"/>
      <stop offset="0.438" stop-color="#6a6c6f"/>
      <stop offset="0.453" stop-color="#696b6f"/>
      <stop offset="0.469" stop-color="#686a6e"/>
      <stop offset="0.484" stop-color="#686a6e"/>
      <stop offset="0.5" stop-color="#67696d"/>
      <stop offset="0.516" stop-color="#67696d"/>
      <stop offset="0.531" stop-color="#66686c"/>
      <stop offset="0.563" stop-color="#66686c"/>
      <stop offset="0.578" stop-color="#66686b"/>
      <stop offset="0.594" stop-color="#65676b"/>
      <stop offset="0.609" stop-color="#65676b"/>
      <stop offset="0.625" stop-color="#64666a"/>
      <stop offset="0.641" stop-color="#64666a"/>
      <stop offset="0.656" stop-color="#636569"/>
      <stop offset="0.672" stop-color="#636569"/>
      <stop offset="0.688" stop-color="#626468"/>
      <stop offset="0.703" stop-color="#626468"/>
      <stop offset="0.719" stop-color="#626467"/>
      <stop offset="0.734" stop-color="#626467"/>
      <stop offset="0.75" stop-color="#616366"/>
      <stop offset="0.766" stop-color="#616366"/>
      <stop offset="0.781" stop-color="#606265"/>
      <stop offset="0.813" stop-color="#5f6165"/>
      <stop offset="0.828" stop-color="#5f6165"/>
      <stop offset="0.844" stop-color="#5f6164"/>
      <stop offset="0.859" stop-color="#5f6164"/>
      <stop offset="0.875" stop-color="#5e6063"/>
      <stop offset="0.891" stop-color="#5e6063"/>
      <stop offset="0.906" stop-color="#5d5f62"/>
      <stop offset="0.938" stop-color="#5d5f61"/>
      <stop offset="1" stop-color="#5c5e61"/>
    </linearGradient>
    <clipPath id="clip-path-35">
      <path id="Path_217" data-name="Path 217" d="M1229.77,435.7H1252.4V456.21H1229.77Zm0,0" transform="translate(-1229.77 -435.703)"/>
    </clipPath>
    <clipPath id="clip-path-36">
      <path id="Path_216" data-name="Path 216" d="M1250.516,455.816s2.331-9.608,1.4-13.013-2.77-7.787-8.854-6.817a89.232,89.232,0,0,0-13.264,3.538s.363,4.445,4.982,3.007l-2.868,2.219s.412,3.552,4.319,1.654l-2.665,2.944a3.1,3.1,0,0,0,4.549,1.047C1240.985,448.524,1242.366,456.974,1250.516,455.816Zm0,0" transform="translate(-1229.793 -435.849)"/>
    </clipPath>
    <clipPath id="clip-path-37">
      <path id="Path_215" data-name="Path 215" d="M1250.516,455.816s2.337-9.608,1.4-13.013-2.77-7.787-8.854-6.817a88.563,88.563,0,0,0-13.264,3.538s.363,4.438,4.982,3.007l-2.861,2.219s.4,3.552,4.319,1.654l-2.672,2.944a3.11,3.11,0,0,0,4.549,1.047c2.882-1.87,4.256,6.58,12.406,5.421" transform="translate(-1229.793 -435.849)"/>
    </clipPath>
    <clipPath id="clip-path-38">
      <path id="Path_225" data-name="Path 225" d="M1048.246,554.676h14.143v16.271h-14.143Zm0,0" transform="translate(-1048.246 -554.676)"/>
    </clipPath>
    <clipPath id="clip-path-39">
      <path id="Path_224" data-name="Path 224" d="M1052.219,554.727l-3.684,10.459a3.591,3.591,0,0,0,1.437,4.263,9.591,9.591,0,0,0,3.049,1.165,4.341,4.341,0,0,0,4.766-2.128l4.4-8.15Zm0,0" transform="translate(-1048.322 -554.727)"/>
    </clipPath>
    <clipPath id="clip-path-40">
      <path id="Path_223" data-name="Path 223" d="M1052.219,554.727l-3.684,10.459a3.591,3.591,0,0,0,1.437,4.263,9.591,9.591,0,0,0,3.049,1.165,4.341,4.341,0,0,0,4.766-2.128l4.4-8.15-9.971-5.61" transform="translate(-1048.322 -554.727)"/>
    </clipPath>
    <clipPath id="clip-path-41">
      <path id="Path_232" data-name="Path 232" d="M1042.7,562.2h13.034v14.5H1042.7Zm0,0" transform="translate(-1042.703 -562.199)"/>
    </clipPath>
    <clipPath id="clip-path-42">
      <path id="Path_231" data-name="Path 231" d="M1042.707,566.121c.056,1.34,2.847,5.938,4.479,8.519a4.245,4.245,0,0,0,3.6,1.975,10.743,10.743,0,0,0,2.972-.349,2.7,2.7,0,0,0,1.856-3.37l-3.189-10.689Zm0,0" transform="translate(-1042.707 -562.207)"/>
    </clipPath>
    <clipPath id="clip-path-43">
      <path id="Path_230" data-name="Path 230" d="M1042.707,566.121c.056,1.34,2.847,5.938,4.479,8.519a4.245,4.245,0,0,0,3.6,1.975,10.743,10.743,0,0,0,2.972-.349,2.7,2.7,0,0,0,1.856-3.37l-3.189-10.689-9.719,3.914" transform="translate(-1042.707 -562.207)"/>
    </clipPath>
    <clipPath id="clip-path-44">
      <path id="Path_238" data-name="Path 238" d="M1064.875,476.879h45.611v24.4h-45.611Zm0,0" transform="translate(-1064.875 -476.879)"/>
    </clipPath>
    <clipPath id="clip-path-45">
      <path id="Path_237" data-name="Path 237" d="M1099.209,478.851c-6.419-4.389-13.69,0-13.69,0-8.582,5.512-14.932,7.857-19.62,8.136a22.97,22.97,0,0,0,.4,14.157c9.608-2.03,16.488-8.861,19.481-12.371a3.138,3.138,0,0,1,4.3-.461c1.333,1.033,2.63,2.456,2.4,3.949-.468,2.944,3.014,3.886,3.272,2.812s-1.186-7.4-1.186-7.4,6.956,6.88,9.678,9.517,6.133,0,6.133,0S1105.629,483.24,1099.209,478.851Zm0,0" transform="translate(-1064.974 -476.9)"/>
    </clipPath>
    <clipPath id="clip-path-46">
      <path id="Path_236" data-name="Path 236" d="M1099.209,478.851c-6.419-4.389-13.69,0-13.69,0-8.582,5.512-14.932,7.857-19.62,8.136a22.97,22.97,0,0,0,.4,14.157c9.608-2.03,16.488-8.861,19.481-12.371a3.138,3.138,0,0,1,4.3-.461c1.333,1.033,2.63,2.456,2.4,3.949-.468,2.944,3.014,3.886,3.272,2.812s-1.186-7.4-1.186-7.4,6.956,6.88,9.678,9.517,6.133,0,6.133,0-4.752-13.948-11.171-18.337" transform="translate(-1064.974 -476.9)"/>
    </clipPath>
    <clipPath id="clip-path-47">
      <path id="Path_244" data-name="Path 244" d="M1040.129,440h26.165v27.686h-26.165Zm0,0" transform="translate(-1040.129 -440)"/>
    </clipPath>
    <clipPath id="clip-path-48">
      <path id="Path_243" data-name="Path 243" d="M1048.563,440.047l-7.9,17.485a4.748,4.748,0,0,0,.775,5.163c2.582,2.84,7.843,6.552,16.327,3.447a7.556,7.556,0,0,0,4.863-5.7l3.565-19.195Zm0,0" transform="translate(-1040.228 -440.047)"/>
    </clipPath>
    <clipPath id="clip-path-49">
      <path id="Path_242" data-name="Path 242" d="M1048.563,440.047l-7.9,17.485a4.748,4.748,0,0,0,.775,5.163c2.582,2.84,7.843,6.552,16.327,3.447a7.556,7.556,0,0,0,4.863-5.7l3.565-19.195-17.632-1.2" transform="translate(-1040.228 -440.047)"/>
    </clipPath>
    <clipPath id="clip-path-50">
      <path id="Path_241" data-name="Path 241" d="M1039.672,469.488l26.947.593.656-29.766-26.947-.593Zm0,0" transform="translate(-1039.672 -439.723)"/>
    </clipPath>
    <linearGradient id="linear-gradient-8" x1="-67.866" y1="-27.323" x2="-67.846" y2="-27.323" gradientUnits="objectBoundingBox">
      <stop offset="0" stop-color="#fafafb"/>
      <stop offset="0.125" stop-color="#fafafb"/>
      <stop offset="0.25" stop-color="#f9f9fb"/>
      <stop offset="0.375" stop-color="#f8f8fb"/>
      <stop offset="0.5" stop-color="#f8f8fa"/>
      <stop offset="0.625" stop-color="#f7f7fa"/>
      <stop offset="0.75" stop-color="#f7f7f9"/>
      <stop offset="0.875" stop-color="#f7f7f9"/>
      <stop offset="1" stop-color="#f6f6f8"/>
    </linearGradient>
    <clipPath id="clip-path-51">
      <path id="Path_250" data-name="Path 250" d="M999,478.266h93.267v28.1H999Zm0,0" transform="translate(-999 -478.266)"/>
    </clipPath>
    <clipPath id="clip-path-52">
      <path id="Path_249" data-name="Path 249" d="M1062.667,478.917s-34.929,13.32-43.462,3.293a5.522,5.522,0,0,1-1.165-2.3c-5.729,2.8-13.9,9.008-19.02,22.558,18.371,11.534,49.784-6.412,58.275-11.708a6.394,6.394,0,0,1,4.689-.844c3.279.663,8.938,1.647,11.987,1.186,4.466-.677,10.878,14.792,18.113,10.02C1092.084,501.126,1085.888,474.235,1062.667,478.917Zm0,0" transform="translate(-999.02 -478.369)"/>
    </clipPath>
    <clipPath id="clip-path-53">
      <path id="Path_248" data-name="Path 248" d="M1062.667,478.917s-34.929,13.32-43.462,3.293a5.522,5.522,0,0,1-1.165-2.3c-5.729,2.8-13.9,9.008-19.02,22.558,18.371,11.534,49.784-6.412,58.275-11.708a6.394,6.394,0,0,1,4.689-.844c3.279.663,8.938,1.647,11.987,1.186,4.466-.677,10.878,14.792,18.113,10.02,0,0-6.2-26.891-29.417-22.209" transform="translate(-999.02 -478.369)"/>
    </clipPath>
    <clipPath id="clip-path-54">
      <path id="Path_254" data-name="Path 254" d="M1043.5,422.637h33.589v38.9H1043.5Zm0,0" transform="translate(-1043.496 -422.637)"/>
    </clipPath>
    <clipPath id="clip-path-55">
      <path id="Path_253" data-name="Path 253" d="M1064.294,424.117c.335.356,12.72,30.142,12.72,30.142l-17.429,6.894-16.006-26.444S1058.754,418.1,1064.294,424.117Zm0,0" transform="translate(-1043.578 -422.804)"/>
    </clipPath>
    <clipPath id="clip-path-56">
      <path id="Path_252" data-name="Path 252" d="M1064.294,424.117c.335.356,12.72,30.142,12.72,30.142l-17.429,6.894-16.006-26.444s15.176-16.606,20.716-10.592" transform="translate(-1043.578 -422.804)"/>
    </clipPath>
    <clipPath id="clip-path-57">
      <path id="Path_260" data-name="Path 260" d="M1041.516,436.3h12.378V448.27h-12.378Zm0,0" transform="translate(-1041.516 -436.297)"/>
    </clipPath>
    <clipPath id="clip-path-58">
      <path id="Path_259" data-name="Path 259" d="M1053.487,445.877s-2.435-9.545-6.58-9.482-7.724,3.914-3.007,8.826C1049.768,451.333,1053.487,445.877,1053.487,445.877Zm0,0" transform="translate(-1041.66 -436.394)"/>
    </clipPath>
    <clipPath id="clip-path-59">
      <path id="Path_258" data-name="Path 258" d="M1053.487,445.877s-2.435-9.545-6.58-9.482-7.724,3.914-3.007,8.826c5.868,6.112,9.587.656,9.587.656" transform="translate(-1041.66 -436.394)"/>
    </clipPath>
    <clipPath id="clip-path-60">
      <path id="Path_257" data-name="Path 257" d="M1040.086,451.492l14.632.321.335-15.308-14.625-.321Zm0,0" transform="translate(-1040.086 -436.184)"/>
    </clipPath>
    <linearGradient id="linear-gradient-9" x1="-147.37" y1="-62.63" x2="-147.351" y2="-62.63" gradientUnits="objectBoundingBox">
      <stop offset="0" stop-color="#f6f6f9"/>
      <stop offset="0.25" stop-color="#f6f6f9"/>
      <stop offset="0.5" stop-color="#f5f5f8"/>
      <stop offset="0.75" stop-color="#f5f5f8"/>
      <stop offset="1" stop-color="#f4f4f8"/>
    </linearGradient>
  </defs>
  <g id="Group_81" data-name="Group 81" transform="translate(-3822.645 -458.926)">
    <path id="Path_85" data-name="Path 85" d="M1508.819,770.2c-13.191,13.732-25.683,22.586-35.544,29.584-115.965,82.255-260.278,59.7-289.444,53.845-43.061-8.645-119.21-26.784-179.4-96.745-91.049-105.842-76.875-272.6-6.246-382.67,12.918-20.14,81.16-131.9,219.855-149.819,83.938-10.841,181.784,11.029,252.636,69.718,148.739,123.174,138.144,372.017,38.141,476.086" transform="translate(2882 240.409)" fill="#efeff4"/>
    <path id="Path_86" data-name="Path 86" d="M982.252,354.638c-.991-.9-1.982-1.793-2.986-2.679,9.05-63.327,27.923-112,35.25-129.221a4.462,4.462,0,0,1,4.131-2.812,4.642,4.642,0,0,1,3.614,1.772,588.78,588.78,0,0,1,39.059,53.733c-37.866,26.709-63.822,58-79.068,79.207" transform="translate(2912.364 239)" fill="#eeeff2"/>
    <path id="Path_87" data-name="Path 87" d="M1205.581,745.362a545.568,545.568,0,0,1-54.835-30.631c-3.74-20.96-8.478-44.565-14.429-69.683,2.254,3.719,4.493,7.347,6.649,10.906q1.162,1.9,2.316,3.775,1.193,1.832,2.379,3.635,2.355,3.6,4.626,7.061t4.438,6.768q2.271,3.224,4.451,6.3c2.917,4.082,5.673,7.961,8.275,11.6,5.456,7.061,10.124,13.285,14.129,18.281,8.2,9.8,12.88,15.406,12.88,15.406a.745.745,0,0,0,.551.265.679.679,0,0,0,.447-.174.787.787,0,0,0,.084-1.068l-.021-.028s-4.514-5.721-12.413-15.741c-3.879-5.066-8.387-11.387-13.669-18.539q-3.757-5.526-7.975-11.736-2.114-3.1-4.326-6.349-2.114-3.328-4.326-6.8c-1.465-2.317-2.972-4.682-4.5-7.089q-1.151-1.811-2.323-3.649-1.109-1.873-2.247-3.789c-3-5.107-6.161-10.354-9.294-15.811q-1.581-2.868-3.175-5.777c-17.108-68.909-43.267-147.544-82.584-214.031q-.8-3.129-1.584-6.224-1.13-4.752-2.247-9.378c-1.507-6.168-2.77-12.217-4.1-18.037-1.2-5.854-2.449-11.492-3.482-16.927q-.806-4.092-1.563-7.989c-.474-2.61-.949-5.156-1.4-7.64-.956-4.961-1.73-9.692-2.512-14.122-1.465-8.882-2.672-16.648-3.538-23.053-.886-6.405-1.528-11.443-1.919-14.876s-.565-5.275-.565-5.275a.756.756,0,0,0-.733-.7h-.028a.718.718,0,0,0-.67.788v.007s.1,1.856.4,5.317.747,8.54,1.507,14.973c.719,6.454,1.751,14.255,3.021,23.2,1.326,8.938,2.882,19.013,4.933,29.947.963,5.484,2.142,11.15,3.265,17.046,1.263,5.861,2.435,11.952,3.872,18.162q.482,2.135.963,4.3c-18.295-29.256-39.3-55.847-63.376-77.763,15.246-21.211,41.2-52.5,79.068-79.207,135.564,209.782,145.576,494.362,145.576,494.362" transform="translate(2913.679 263.431)" fill="#e5e6ec"/>
    <path id="Path_88" data-name="Path 88" d="M1177.027,710.016a.745.745,0,0,1-.551-.265s-4.682-5.6-12.88-15.406c-4.005-5-8.673-11.22-14.129-18.281q-3.893-5.463-8.275-11.6-2.177-3.077-4.452-6.3-2.177-3.307-4.438-6.768t-4.626-7.061q-1.183-1.8-2.379-3.635-1.151-1.873-2.317-3.775c-2.156-3.565-4.4-7.187-6.642-10.906q-1.476-6.227-3.049-12.559,1.6,2.91,3.175,5.777c3.133,5.456,6.294,10.7,9.294,15.811q1.141,1.915,2.247,3.789,1.172,1.842,2.323,3.649,2.292,3.611,4.507,7.089,2.2,3.475,4.319,6.8,2.219,3.245,4.326,6.349,4.207,6.2,7.975,11.736c5.282,7.152,9.789,13.473,13.669,18.539,7.9,10.02,12.413,15.741,12.413,15.741l.021.028a.78.78,0,0,1-.084,1.068.678.678,0,0,1-.447.174M1030.7,399.432c-2.093-3.538-4.207-7.019-6.377-10.487q-.481-2.167-.963-4.3c-1.43-6.21-2.609-12.3-3.865-18.169-1.13-5.889-2.31-11.562-3.265-17.039-2.058-10.934-3.614-21.009-4.94-29.947-1.27-8.945-2.3-16.753-3.021-23.2-.761-6.44-1.207-11.513-1.507-14.973s-.4-5.317-.4-5.317v-.014a.726.726,0,0,1,.67-.788h.028a.762.762,0,0,1,.733.712s.167,1.828.565,5.268,1.033,8.478,1.919,14.883c.865,6.405,2.072,14.164,3.538,23.053.781,4.431,1.556,9.161,2.512,14.122.453,2.484.928,5.031,1.4,7.64q.764,3.9,1.563,7.982c1.033,5.449,2.282,11.08,3.489,16.934,1.333,5.819,2.589,11.869,4.1,18.03q1.109,4.637,2.247,9.385.785,3.088,1.584,6.224" transform="translate(2933.704 281.266)" fill="#edeef2"/>
    <path id="Path_89" data-name="Path 89" d="M950.36,447.307c-17.792-83.833-5.435-147.544-.146-168.567A6.271,6.271,0,0,1,956.3,274a6.189,6.189,0,0,1,2.861.7,248.13,248.13,0,0,1,50.119,34.74c-.4,2.819-.788,5.687-1.151,8.568-4.849,7.04-8.268,12.517-10.306,15.713q-6.834,10.7-12.957,22.083c-.781-2.3-1.444-4.249-1.968-5.847-1.089-3.314-1.675-5.08-1.675-5.08v-.014a.926.926,0,0,0-.872-.635.873.873,0,0,0-.293.056.914.914,0,0,0-.586,1.158s.586,1.765,1.682,5.086c.649,1.975,1.5,4.479,2.533,7.48a377.252,377.252,0,0,0-33.324,89.3" transform="translate(2882.352 281.511)" fill="#d4d6de"/>
    <path id="Path_90" data-name="Path 90" d="M1190.594,767.468c-161.8-116.69-223.555-241.787-244.313-339.534a377.252,377.252,0,0,1,33.324-89.3q1.068,3.087,2.379,6.852c1.054,3.091,2.317,6.468,3.642,10.173,1.347,3.691,2.742,7.71,4.361,11.945,3.2,8.505,6.761,18.113,10.85,28.517q.659,1.737,1.347,3.5c7.026,72.425,34.189,150.391,101.465,218.218q1.685,3.108,3.356,6.182c6.51,12.392,13.543,23.939,20.011,35.013,3.237,5.533,6.412,10.906,9.517,16.069q4.856,7.64,9.371,14.729c6.07,9.406,11.569,18.064,16.676,25.586,5.24,7.431,9.733,13.962,13.564,19.251,3.8,5.3,6.782,9.468,8.819,12.308s3.154,4.333,3.154,4.333a.919.919,0,0,0,.747.377.6.6,0,0,0,.112-.007c1.151,10.138,1.619,15.79,1.619,15.79m-1.975-18.811c-.453-.733-1.074-1.723-1.842-2.944-1.884-2.937-4.633-7.257-8.143-12.748-3.475-5.505-7.857-12.085-12.8-19.683-4.759-7.724-10.124-16.425-15.978-25.928q-4.417-7.1-9.189-14.771-4.542-7.8-9.461-16.041-4.9-8.237-10.047-16.906c-.858-1.444-1.716-2.9-2.589-4.347-.823-1.479-1.661-2.972-2.491-4.466-.4-.7-.8-1.4-1.2-2.107a442.037,442.037,0,0,0,63.11,48.563c5.456,30.589,8.778,55.533,10.627,71.379m-187.043-355.8c-1.682-4.27-3.328-8.373-4.821-12.343q-2.679-7.148-5.073-13.536c-1.612-4.235-3.007-8.247-4.347-11.931-1.319-3.705-2.582-7.082-3.628-10.159-1.1-3.182-2.086-6.014-2.924-8.464q6.112-11.366,12.957-22.076c2.037-3.189,5.456-8.673,10.306-15.713a461.024,461.024,0,0,0-2.47,94.223" transform="translate(2886.432 298.324)" fill="#d0d2db"/>
    <path id="Path_91" data-name="Path 91" d="M978.621,302.408q.544-4.323,1.151-8.568c1,.886,2,1.779,2.986,2.686-1.479,2.058-2.861,4.026-4.138,5.882" transform="translate(2911.857 296.583)" fill="#d0d2db"/>
    <path id="Path_92" data-name="Path 92" d="M1154.253,679.864a441.5,441.5,0,0,1-63.11-48.556q-1.947-3.433-3.921-6.908c-6.873-12.141-14.122-24.6-20.946-37.566q-5.2-9.681-10.473-19.488c-1.779-3.251-3.4-6.594-5.086-9.908l-5.038-9.964c-3.342-6.642-6.747-13.271-9.971-19.948q-4.762-10.037-9.475-19.983-2.355-4.971-4.689-9.894c-1.556-3.286-2.993-6.594-4.486-9.859q-4.427-9.828-8.743-19.383c-2.9-6.349-5.505-12.7-8.191-18.853-2.624-6.182-5.317-12.182-7.717-18.106-4.856-11.841-9.531-23-13.55-33.422-.342-.865-.677-1.723-1.012-2.575a460.533,460.533,0,0,1,2.463-94.223q1.926-2.794,4.138-5.889c24.079,21.923,45.081,48.514,63.376,77.763.384,1.709.774,3.426,1.158,5.156q1.151,4.773,2.317,9.657c1.514,6.517,3.335,13.111,5.094,19.844.851,3.37,1.863,6.726,2.8,10.131.963,3.4,1.9,6.824,2.909,10.257q1.559,5.139,3.119,10.333.785,2.6,1.57,5.212.837,2.585,1.675,5.2,1.674,5.212,3.37,10.452c1.124,3.5,2.379,6.97,3.565,10.466,1.214,3.482,2.379,7,3.649,10.473l3.852,10.424,1.947,5.205c.649,1.73,1.361,3.44,2.037,5.163q2.062,5.16,4.117,10.3c1.333,3.44,2.819,6.8,4.249,10.18s2.875,6.74,4.3,10.089c2.958,6.663,6.008,13.208,8.959,19.7q4.7,9.618,9.273,18.965,4.835,9.189,9.5,18.044,4.93,8.687,9.629,16.969c.97,1.633,1.947,3.258,2.917,4.863,5.945,25.119,10.682,48.723,14.422,69.676m-74.344-59.44C1012.64,552.6,985.47,474.631,978.444,402.212c3.656,9.44,7.78,19.46,12.05,30.024,2.372,5.952,5.038,11.966,7.633,18.176,2.658,6.175,5.24,12.538,8.108,18.916q4.26,9.576,8.652,19.439c1.472,3.286,2.9,6.608,4.438,9.9s3.091,6.608,4.647,9.929q4.658,9.964,9.385,20.067,4.877,10.016,9.782,20.074l4.891,10.054c1.646,3.342,3.217,6.712,4.954,10q5.065,9.911,10.082,19.739,2.5,4.9,4.975,9.768c.83,1.612,1.633,3.244,2.491,4.842s1.717,3.175,2.575,4.759c2.289,4.207,4.556,8.394,6.8,12.524m56.873-22.8q-3.035-5.526-6.168-11.227-4.563-8.833-9.3-18.023-4.5-9.3-9.14-18.888c-2.9-6.482-5.9-13-8.812-19.634q-2.114-5-4.235-10.054c-1.409-3.363-2.875-6.712-4.186-10.138q-2.02-5.128-4.04-10.257c-.67-1.716-1.367-3.419-2.01-5.149l-1.912-5.184q-1.926-5.181-3.852-10.354c-1.284-3.447-2.449-6.943-3.677-10.4-1.193-3.468-2.456-6.908-3.593-10.382s-2.275-6.943-3.4-10.389q-.848-2.585-1.688-5.163-.8-2.6-1.591-5.177-1.581-5.16-3.147-10.271c-1.026-3.4-1.968-6.817-2.944-10.194-.956-3.384-1.975-6.719-2.84-10.068-1.793-6.684-3.586-13.257-5.191-19.725-.286-1.116-.572-2.24-.858-3.356,39.324,66.495,65.476,145.13,82.584,214.038" transform="translate(2910.172 296.978)" fill="#cdd0d9"/>
    <path id="Path_93" data-name="Path 93" d="M1108.429,575.957q-1.465-2.407-2.917-4.863-4.7-8.268-9.629-16.962l-9.5-18.051q-4.563-9.336-9.273-18.958c-2.951-6.5-6-13.048-8.959-19.711q-2.146-5.024-4.305-10.082c-1.43-3.377-2.923-6.747-4.256-10.187q-2.052-5.139-4.11-10.3c-.677-1.716-1.389-3.426-2.038-5.163l-1.947-5.205q-1.926-5.212-3.859-10.424c-1.27-3.475-2.428-6.991-3.642-10.473-1.186-3.5-2.442-6.963-3.565-10.459s-2.254-6.984-3.37-10.459q-.837-2.606-1.675-5.2c-.523-1.744-1.047-3.475-1.57-5.212q-1.57-5.191-3.119-10.333c-1.012-3.433-1.947-6.859-2.917-10.257-.942-3.4-1.947-6.761-2.8-10.131-1.751-6.733-3.573-13.32-5.087-19.844q-1.172-4.888-2.317-9.657c-.384-1.73-.774-3.44-1.158-5.149,2.17,3.468,4.284,6.949,6.377,10.48.286,1.123.565,2.24.851,3.363,1.612,6.468,3.405,13.034,5.2,19.718.865,3.349,1.884,6.684,2.84,10.068.977,3.377,1.919,6.789,2.945,10.2q1.57,5.107,3.147,10.264c.53,1.723,1.054,3.447,1.584,5.177q.848,2.575,1.7,5.163,1.685,5.181,3.4,10.389c1.137,3.475,2.4,6.915,3.593,10.382,1.228,3.468,2.393,6.956,3.677,10.4l3.852,10.361,1.912,5.184c.642,1.723,1.34,3.426,2.01,5.142q2.02,5.139,4.04,10.257c1.312,3.426,2.777,6.782,4.179,10.145q2.135,5.045,4.242,10.054c2.9,6.628,5.91,13.152,8.812,19.627q4.637,9.576,9.14,18.888,4.731,9.179,9.3,18.023,3.129,5.694,6.168,11.227,1.58,6.342,3.049,12.559" transform="translate(2941.612 331.196)" fill="#cfd2da"/>
    <path id="Path_94" data-name="Path 94" d="M1082.309,553.6c-.112-.97-.23-1.968-.356-3.021.663,1.047,1,1.591,1,1.591l.021.028a.931.931,0,0,1-.293,1.27.874.874,0,0,1-.377.133" transform="translate(2993.16 496.403)" fill="#f5f5f8"/>
    <path id="Path_95" data-name="Path 95" d="M966.813,327.1c-1.033-3-1.884-5.505-2.533-7.48-1.1-3.321-1.682-5.086-1.682-5.086a.925.925,0,0,1,.586-1.165.861.861,0,0,1,.293-.049.926.926,0,0,1,.872.635l.007.014s.579,1.765,1.668,5.08c.523,1.6,1.186,3.552,1.968,5.84l-1.179,2.212" transform="translate(2899.224 311.75)" fill="#eaebee"/>
    <path id="Path_96" data-name="Path 96" d="M1174.2,735.052a.916.916,0,0,1-.747-.384s-1.1-1.5-3.154-4.326c-2.03-2.84-5.024-7.005-8.819-12.308-3.831-5.3-8.324-11.82-13.564-19.251-5.107-7.522-10.606-16.181-16.676-25.586q-4.5-7.075-9.371-14.729-4.657-7.755-9.517-16.069c-6.461-11.073-13.5-22.621-20.011-35.013q-1.664-3.066-3.356-6.182,5.442,5.484,11.234,10.878c.4.7.8,1.4,1.2,2.107.83,1.493,1.668,2.986,2.491,4.459.872,1.458,1.73,2.91,2.589,4.354q5.139,8.655,10.047,16.906T1126,655.949q4.762,7.661,9.189,14.771c5.854,9.5,11.227,18.2,15.985,25.928,4.94,7.6,9.315,14.178,12.8,19.683,3.5,5.491,6.252,9.81,8.136,12.748.768,1.221,1.389,2.2,1.849,2.944.119,1.047.237,2.051.349,3.021a.6.6,0,0,1-.112.007M987.516,382.987q-.691-1.758-1.347-3.5c-4.089-10.4-7.654-20.011-10.85-28.517-1.619-4.242-3.014-8.254-4.361-11.945-1.326-3.705-2.589-7.089-3.642-10.173q-1.308-3.768-2.379-6.852c.391-.74.788-1.479,1.179-2.212.837,2.449,1.821,5.282,2.931,8.457,1.04,3.084,2.3,6.461,3.621,10.159,1.34,3.691,2.735,7.7,4.354,11.938q2.386,6.374,5.066,13.536c1.493,3.97,3.147,8.073,4.828,12.343.181,2.247.377,4.493.6,6.761" transform="translate(2901.099 314.957)" fill="#e6e7ec"/>
    <path id="Path_97" data-name="Path 97" d="M1090.544,587.243q-5.8-5.4-11.234-10.878-3.37-6.207-6.8-12.531-1.287-2.376-2.582-4.759c-.851-1.6-1.654-3.224-2.484-4.842q-2.481-4.867-4.975-9.768-5.013-9.807-10.082-19.739c-1.737-3.286-3.307-6.656-4.954-10l-4.891-10.047q-4.9-10.058-9.782-20.074-4.72-10.089-9.392-20.074-2.323-4.982-4.64-9.929c-1.542-3.293-2.965-6.615-4.445-9.894q-4.375-9.859-8.645-19.446c-2.868-6.37-5.449-12.741-8.108-18.916-2.6-6.2-5.261-12.224-7.633-18.176-4.27-10.564-8.4-20.583-12.05-30.024-.223-2.261-.426-4.507-.607-6.761.342.851.677,1.716,1.019,2.582,4.019,10.417,8.694,21.574,13.55,33.415,2.4,5.931,5.094,11.924,7.717,18.106,2.686,6.161,5.3,12.5,8.191,18.86q4.3,9.535,8.743,19.376c1.493,3.265,2.923,6.58,4.486,9.859s3.119,6.58,4.689,9.894q4.7,9.922,9.475,19.99c3.224,6.677,6.629,13.3,9.971,19.948l5.038,9.957c1.688,3.314,3.307,6.656,5.086,9.908q5.264,9.8,10.473,19.488c6.824,12.964,14.073,25.426,20.946,37.566q1.978,3.475,3.921,6.908" transform="translate(2910.77 340.894)" fill="#e3e4ea"/>
    <path id="Path_98" data-name="Path 98" d="M1147.351,267.016a.833.833,0,0,1-.956-1.144c.447-1.019.914-2.037,1.4-3.042a.829.829,0,0,1,1.493.719c-.468.984-.935,1.989-1.368,2.993a.851.851,0,0,1-.565.474" transform="translate(3043.797 272.366)" fill="#b9bcc5"/>
    <path id="Path_99" data-name="Path 99" d="M1192.046,242.519a.828.828,0,0,1-.5-1.577c2.121-.844,4.3-1.619,6.489-2.289a.835.835,0,0,1,1.04.551.824.824,0,0,1-.544,1.033c-2.149.663-4.284,1.416-6.37,2.247A.594.594,0,0,1,1192.046,242.519Zm23.967-5.756a.684.684,0,0,1-.119.014c-2.233.216-4.486.516-6.7.9a.823.823,0,0,1-.956-.677.843.843,0,0,1,.677-.956c2.254-.4,4.549-.7,6.817-.914a.826.826,0,0,1,.907.747A.838.838,0,0,1,1216.013,236.763Zm17.862.133a.771.771,0,0,1-.286.021c-2.226-.244-4.494-.4-6.733-.474a.833.833,0,0,1-.8-.858.824.824,0,0,1,.858-.8c2.282.07,4.591.237,6.859.488a.825.825,0,0,1,.1,1.626Zm-57.668,13.9a.829.829,0,0,1-.649-1.5c1.9-1.263,3.879-2.463,5.882-3.572a.831.831,0,0,1,.81,1.451c-1.961,1.088-3.907,2.268-5.777,3.5A1.113,1.113,0,0,1,1176.208,250.795Zm75.132-10.131a.777.777,0,0,1-.453-.021c-2.121-.691-4.305-1.3-6.5-1.835a.83.83,0,0,1,.4-1.612c2.226.537,4.452,1.172,6.615,1.87a.832.832,0,0,1-.063,1.6ZM1162.4,262.14a.829.829,0,0,1-.781-.223.813.813,0,0,1,0-1.165c1.612-1.633,3.3-3.21,5.031-4.7a.816.816,0,0,1,1.165.084.828.828,0,0,1-.084,1.165c-1.688,1.465-3.356,3.014-4.94,4.612A.855.855,0,0,1,1162.4,262.14Zm105.268-14.22a.83.83,0,0,1-.614-.084c-1.94-1.116-3.949-2.17-5.973-3.133a.827.827,0,1,1,.712-1.493c2.065.977,4.11,2.051,6.091,3.189a.828.828,0,0,1,.3,1.137A.794.794,0,0,1,1267.667,247.92Zm-116.5,28.119a.8.8,0,0,1-.649-.112.831.831,0,0,1-.244-1.144c1.242-1.912,2.582-3.8,3.977-5.617a.831.831,0,0,1,1.319,1.012c-1.368,1.779-2.686,3.635-3.907,5.512A.83.83,0,0,1,1151.166,276.039Zm130.987-17.66a.807.807,0,0,1-.747-.188c-1.675-1.493-3.433-2.937-5.212-4.284a.834.834,0,0,1-.154-1.172.823.823,0,0,1,1.158-.154c1.814,1.375,3.6,2.847,5.317,4.375a.826.826,0,0,1,.063,1.165A.8.8,0,0,1,1282.152,258.379Zm12.085,13.173a.827.827,0,0,1-.865-.314c-1.333-1.793-2.756-3.558-4.235-5.254a.826.826,0,1,1,1.242-1.088c1.514,1.723,2.965,3.524,4.326,5.359a.824.824,0,0,1-.468,1.3Zm9.126,15.357a.815.815,0,0,1-.942-.461c-.942-2.03-1.975-4.054-3.07-6.008a.83.83,0,1,1,1.444-.816c1.123,2,2.17,4.054,3.133,6.133a.826.826,0,0,1-.4,1.1.613.613,0,0,1-.161.049" transform="translate(3046.829 250.679)" fill="#b9bcc5"/>
    <path id="Path_100" data-name="Path 100" d="M1239.553,273.67a.837.837,0,0,1-.991-.593c-.293-1.047-.6-2.107-.928-3.147a.826.826,0,0,1,.544-1.04.842.842,0,0,1,1.04.537c.335,1.061.649,2.149.942,3.217a.832.832,0,0,1-.579,1.019l-.028.007" transform="translate(3115.623 277.469)" fill="#b9bcc5"/>
    <path id="Path_101" data-name="Path 101" d="M1234.1,311.268a.828.828,0,0,1-.907-1.228c.558-.942,1.1-1.9,1.619-2.861a.842.842,0,0,1,1.13-.335.825.825,0,0,1,.328,1.123c-.523.977-1.074,1.954-1.647,2.917a.824.824,0,0,1-.523.384" transform="translate(3112.073 306.641)" fill="#b9bcc5"/>
    <path id="Path_102" data-name="Path 102" d="M1149.613,309.627a.83.83,0,0,1-.935-.44c-1-2.01-1.94-4.089-2.784-6.175a.83.83,0,0,1,.46-1.082.844.844,0,0,1,1.081.461c.823,2.044,1.744,4.082,2.721,6.056a.828.828,0,0,1-.37,1.116ZM1159,324.489a.82.82,0,0,1-.844-.293c-1.388-1.772-2.721-3.614-3.97-5.491a.827.827,0,0,1,1.375-.921c1.235,1.842,2.54,3.649,3.907,5.387a.837.837,0,0,1-.14,1.165A.783.783,0,0,1,1159,324.489Zm12.2,12.678a.806.806,0,0,1-.733-.174c-1.354-1.144-2.686-2.351-3.963-3.579q-.523-.5-1.026-1a.829.829,0,0,1,1.165-1.179c.335.328.67.663,1.012.984,1.256,1.214,2.561,2.393,3.88,3.524a.816.816,0,0,1,.1,1.165A.793.793,0,0,1,1171.2,337.167Zm14.464,10a.842.842,0,0,1-.593-.077c-1.968-1.081-3.921-2.261-5.805-3.5a.829.829,0,0,1,.907-1.388c1.849,1.214,3.768,2.365,5.694,3.426a.832.832,0,0,1-.2,1.535Zm106.594-17.911a.82.82,0,0,1-.754-.2.835.835,0,0,1-.056-1.172c1.479-1.633,2.917-3.342,4.27-5.086a.83.83,0,1,1,1.312,1.019c-1.381,1.772-2.847,3.517-4.354,5.184A.9.9,0,0,1,1292.259,329.254Zm-90.42,24.777a.765.765,0,0,1-.433-.014c-2.142-.663-4.3-1.416-6.384-2.247a.829.829,0,1,1,.607-1.542c2.058.809,4.166,1.556,6.266,2.2a.828.828,0,0,1,.551,1.033A.839.839,0,0,1,1201.839,354.031Zm77.372-12.985a.833.833,0,0,1-.691-1.479c1.772-1.3,3.524-2.686,5.2-4.138a.83.83,0,0,1,1.172.091.822.822,0,0,1-.091,1.165c-1.709,1.472-3.489,2.9-5.3,4.221A.869.869,0,0,1,1279.211,341.046ZM1219.08,357.5a.88.88,0,0,1-.272.021c-2.247-.216-4.5-.53-6.712-.921a.829.829,0,0,1,.293-1.633c2.163.384,4.375.684,6.58.907a.825.825,0,0,1,.112,1.626Zm44.969-7.522a.831.831,0,0,1-.537-1.563c2.01-.921,4-1.933,5.931-3.007a.834.834,0,0,1,1.13.321.825.825,0,0,1-.328,1.123c-1.961,1.1-3.991,2.135-6.035,3.07A1.092,1.092,0,0,1,1264.049,349.977Zm-27.379,7.48c-.035.007-.077.007-.112.014-2.24.23-4.507.377-6.761.44a.831.831,0,0,1-.042-1.661c2.2-.056,4.438-.2,6.628-.433a.834.834,0,0,1,.286,1.64Zm11.471-1.968-.733.167a.828.828,0,0,1-.384-1.612l.007-.007.719-.167c1.9-.454,3.817-.984,5.694-1.577a.83.83,0,0,1,.5,1.584c-1.912.6-3.858,1.144-5.8,1.612" transform="translate(3043.439 302.795)" fill="#b9bcc5"/>
    <path id="Path_103" data-name="Path 103" d="M1145.267,299.118a.827.827,0,0,1-.991-.593c-.286-1.068-.551-2.163-.8-3.251a.857.857,0,0,1,.628-.991.821.821,0,0,1,.991.621c.237,1.075.5,2.142.775,3.2a.823.823,0,0,1-.586,1.012l-.021.007" transform="translate(3041.547 296.914)" fill="#b9bcc5"/>
    <path id="Path_104" data-name="Path 104" d="M1154.215,320.127a1.037,1.037,0,0,0,.7,1l11.98,4.291a55.417,55.417,0,0,0,6.677,16.683l-5.708,11.373a1.037,1.037,0,0,0,.181,1.193l10.675,10.927a1.042,1.042,0,0,0,1.193.216l11.5-5.435a55.7,55.7,0,0,0,16.522,7.068l4.005,12.085a1.051,1.051,0,0,0,.977.712l15.273.181a1.047,1.047,0,0,0,1-.691l4.291-11.987a55.311,55.311,0,0,0,16.683-6.677l11.366,5.707a1.039,1.039,0,0,0,1.2-.188l10.92-10.668a1.021,1.021,0,0,0,.216-1.193l-5.428-11.5A55.5,55.5,0,0,0,1275.5,326.7l12.085-4.005a1.077,1.077,0,0,0,.719-.984l.181-15.267a1.063,1.063,0,0,0-.7-1l-11.987-4.291a55.287,55.287,0,0,0-6.67-16.683l5.708-11.373a1.064,1.064,0,0,0-.188-1.2l-10.668-10.927a1.041,1.041,0,0,0-1.193-.209l-11.506,5.435a55.587,55.587,0,0,0-16.515-7.068l-4.005-12.078a1.048,1.048,0,0,0-.984-.719l-15.274-.181a1.045,1.045,0,0,0-.991.691l-4.291,11.987a55.582,55.582,0,0,0-16.683,6.67l-11.373-5.7a1.026,1.026,0,0,0-1.193.181l-10.927,10.675a1.044,1.044,0,0,0-.216,1.193l5.435,11.5a55.5,55.5,0,0,0-7.061,16.522l-12.085,4.005a1.05,1.05,0,0,0-.719.984l-.181,15.267" transform="translate(3050.029 259.62)" fill="#b9bcc5"/>
    <path id="Path_105" data-name="Path 105" d="M1195.437,278.275a12.313,12.313,0,1,0,5.749,23.946h.014a12.314,12.314,0,0,0-5.756-23.946Zm6.343,26.368h-.007a9.637,9.637,0,1,1,.007,0" transform="translate(3073.055 282.653)" fill="#d7d9e0"/>
    <path id="Path_106" data-name="Path 106" d="M1217.173,337.49a38.127,38.127,0,0,1-41.25-16.767l2.107-1.319a35.653,35.653,0,0,0,45,13.445l.077-.035.077-.042a35.606,35.606,0,0,0,20.611-31.873,36.047,36.047,0,0,0-.984-8.826,35.614,35.614,0,0,0-69.041-.677l-2.407-.635a38.094,38.094,0,1,1,45.814,46.728" transform="translate(3063.505 272.399)" fill="#d7d9e0"/>
    <path id="Path_107" data-name="Path 107" d="M1231.256,280.257a.949.949,0,0,1-1.088-1.3c.509-1.172,1.067-2.344,1.654-3.482a.947.947,0,0,1,1.682.872c-.565,1.1-1.1,2.233-1.6,3.363a.954.954,0,0,1-.649.544" transform="translate(3109.721 282.276)" fill="#b9bcc5"/>
    <path id="Path_108" data-name="Path 108" d="M1279.312,258.929a.587.587,0,0,1-.188.028,60.07,60.07,0,0,0-7.752.809.94.94,0,0,1-1.1-.767.965.965,0,0,1,.774-1.1,61.392,61.392,0,0,1,8-.844.955.955,0,0,1,.984.914A.936.936,0,0,1,1279.312,258.929Zm-27.351,7.891a.95.95,0,0,1-.7-1.744,62.386,62.386,0,0,1,7.222-3.552.948.948,0,1,1,.726,1.751,57.466,57.466,0,0,0-6.991,3.44A.912.912,0,0,1,1251.961,266.82Zm47.858-5.045a.91.91,0,0,1-.509-.021,57.4,57.4,0,0,0-7.563-1.9.947.947,0,0,1,.342-1.863,60.3,60.3,0,0,1,7.808,1.968.947.947,0,0,1-.077,1.821Zm-63.669,18.413a.962.962,0,0,1-.837-.188.949.949,0,0,1-.119-1.333c.914-1.1,1.877-2.177,2.882-3.224.858-.893,1.758-1.772,2.672-2.61a.928.928,0,0,1,1.333.056.949.949,0,0,1-.056,1.34c-.879.809-1.751,1.661-2.589,2.526-.963,1.012-1.9,2.058-2.784,3.119A.907.907,0,0,1,1236.15,280.189Zm81.928-8.652a.947.947,0,0,1-.816-.174,57.563,57.563,0,0,0-6.426-4.41.945.945,0,0,1-.335-1.291.955.955,0,0,1,1.3-.335,60.053,60.053,0,0,1,6.635,4.549.939.939,0,0,1-.363,1.661Zm13.781,15.469a.943.943,0,0,1-1.033-.426,57.635,57.635,0,0,0-4.528-6.349.95.95,0,0,1,.133-1.333.965.965,0,0,1,1.34.133,60.061,60.061,0,0,1,4.668,6.559.942.942,0,0,1-.314,1.3,1,1,0,0,1-.265.119" transform="translate(3113.563 268.194)" fill="#b9bcc5"/>
    <path id="Path_109" data-name="Path 109" d="M1293.932,284.808a.951.951,0,0,1-1.13-.677c-.328-1.193-.7-2.393-1.1-3.558a.937.937,0,0,1,.586-1.2.921.921,0,0,1,1.207.586c.412,1.207.8,2.442,1.13,3.67a.946.946,0,0,1-.656,1.165l-.035.014" transform="translate(3158.118 285.687)" fill="#b9bcc5"/>
    <path id="Path_110" data-name="Path 110" d="M1289.575,310.936a.93.93,0,0,1-.726-.119.946.946,0,0,1-.293-1.3c.656-1.047,1.291-2.128,1.877-3.217a.944.944,0,1,1,1.661.9c-.6,1.123-1.256,2.24-1.933,3.328a1,1,0,0,1-.586.412" transform="translate(3155.574 305.904)" fill="#b9bcc5"/>
    <path id="Path_111" data-name="Path 111" d="M1236.763,314.4a.945.945,0,0,1-.984-.363,60.043,60.043,0,0,1-4.263-6.67.951.951,0,0,1,1.668-.914,57.578,57.578,0,0,0,4.124,6.468.946.946,0,0,1-.2,1.319A.85.85,0,0,1,1236.763,314.4Zm14.708,14.1a.978.978,0,0,1-.753-.14,59.611,59.611,0,0,1-6.259-4.835.949.949,0,1,1,1.256-1.423,57.615,57.615,0,0,0,6.063,4.689.939.939,0,0,1,.258,1.312A.948.948,0,0,1,1251.471,328.5Zm18.623,8.261a.966.966,0,0,1-.447,0,61.7,61.7,0,0,1-7.55-2.414.953.953,0,0,1-.53-1.228.941.941,0,0,1,1.228-.53,59.3,59.3,0,0,0,7.305,2.33.942.942,0,0,1,.691,1.144A.958.958,0,0,1,1270.094,336.765Zm50.663-10.808a.95.95,0,0,1-.809-1.668,60.108,60.108,0,0,0,5.715-5.121.947.947,0,1,1,1.354,1.326,60.364,60.364,0,0,1-5.9,5.282A.988.988,0,0,1,1320.756,325.957ZM1290.419,338.2a.77.77,0,0,1-.125.014,60,60,0,0,1-7.912.293.949.949,0,1,1,.056-1.9,56.215,56.215,0,0,0,7.661-.279.951.951,0,0,1,.321,1.87Zm12.371-2.637a.939.939,0,0,1-1.116-.621.95.95,0,0,1,.6-1.2,57.42,57.42,0,0,0,7.117-2.861.946.946,0,1,1,.823,1.7,59.659,59.659,0,0,1-7.347,2.965l-.077.014" transform="translate(3110.752 306.003)" fill="#b9bcc5"/>
    <path id="Path_112" data-name="Path 112" d="M1230.267,302.877a.944.944,0,0,1-1.13-.656c-.363-1.228-.684-2.477-.963-3.719a.949.949,0,0,1,.7-1.13l.014-.007a.953.953,0,0,1,1.13.719c.272,1.207.579,2.421.928,3.607a.954.954,0,0,1-.642,1.179l-.042.007" transform="translate(3108.167 299.315)" fill="#b9bcc5"/>
    <path id="Path_113" data-name="Path 113" d="M1235.652,315.084a.7.7,0,0,0,.468.67l8.115,2.91a37.958,37.958,0,0,0,4.521,11.3l-3.858,7.7a.71.71,0,0,0,.125.816l7.222,7.4a.7.7,0,0,0,.809.146l7.794-3.684a37.363,37.363,0,0,0,11.185,4.786l2.721,8.191a.707.707,0,0,0,.663.481l10.341.126a.739.739,0,0,0,.684-.474l2.9-8.115a37.845,37.845,0,0,0,11.3-4.521l7.7,3.865a.71.71,0,0,0,.809-.126l7.4-7.229a.714.714,0,0,0,.146-.809l-3.684-7.794a37.5,37.5,0,0,0,4.787-11.192l8.185-2.714a.7.7,0,0,0,.481-.663l.125-10.34a.706.706,0,0,0-.474-.677l-8.115-2.91a37.646,37.646,0,0,0-4.514-11.3l3.865-7.7a.714.714,0,0,0-.133-.809l-7.222-7.4a.716.716,0,0,0-.809-.147l-7.794,3.684a37.614,37.614,0,0,0-11.185-4.786l-2.721-8.184a.706.706,0,0,0-.663-.488l-10.341-.119a.722.722,0,0,0-.684.467l-2.9,8.122a37.585,37.585,0,0,0-11.3,4.521l-7.7-3.865a.7.7,0,0,0-.816.126l-7.4,7.222a.716.716,0,0,0-.146.809l3.684,7.794a37.575,37.575,0,0,0-4.787,11.192l-8.184,2.714a.72.72,0,0,0-.489.663l-.119,10.347" transform="translate(3114.095 274.416)" fill="#b9bcc5"/>
    <path id="Path_114" data-name="Path 114" d="M1263.964,287.554a7.761,7.761,0,1,0,3.628,15.092h.007a7.762,7.762,0,1,0-3.635-15.092Zm4.3,17.848-.007.007a10.6,10.6,0,0,1-11.513-15.86,10.616,10.616,0,0,1,14.583-3.5,10.6,10.6,0,0,1-3.063,19.348" transform="translate(3129.441 289.292)" fill="#d7d9e0"/>
    <path id="Path_115" data-name="Path 115" d="M1278.679,327.663a26.42,26.42,0,0,1-28.224-11.073c-.119-.174-.23-.356-.349-.53l2.414-1.514a23.846,23.846,0,0,0,7.333,7.375h.014l.021.021a23.563,23.563,0,0,0,27.568-1.765c.049-.042.1-.084.154-.133l.125-.1c.112-.091.216-.188.321-.279.293-.258.572-.516.851-.788A23.4,23.4,0,0,0,1296,302.307a23.89,23.89,0,0,0-.656-5.833,23.553,23.553,0,0,0-45.646-.454l-2.742-.719a26.385,26.385,0,1,1,31.726,32.361" transform="translate(3122.98 282.383)" fill="#d7d9e0"/>
    <path id="Path_116" data-name="Path 116" d="M1055.5,273.681,997.8,520.115c-2.917,12.455,2.8,24.5,12.845,27.051l405.686,101.542c9.957,2.526,20.471-5.491,23.4-17.841L1497.6,386.805c2.093-8.826-1.905-17.395-9-19.286l-414.408-108c-7.94-2.107-16.383,4.291-18.693,14.164" transform="translate(2926.495 269.811)" fill="#a8abb2"/>
    <path id="Path_117" data-name="Path 117" d="M1159.249,326.9l-39.931-9.678a1.573,1.573,0,0,1-1-1.961l1.549-6.419a1.55,1.55,0,0,1,1.779-1.277l39.931,9.671a1.571,1.571,0,0,1,1,1.968l-1.542,6.412a1.567,1.567,0,0,1-1.786,1.284" transform="translate(3021.726 307.241)" fill="#e8e8ef"/>
    <path id="Path_118" data-name="Path 118" d="M1228.841,343.707l-79.94-19.369a2.493,2.493,0,0,1-1.6-3.119l1.082-4.5a2.478,2.478,0,0,1,2.84-2.037l79.94,19.376a2.485,2.485,0,0,1,1.6,3.112l-1.088,4.5a2.475,2.475,0,0,1-2.833,2.037" transform="translate(3044.514 312.752)" fill="#e8e8ef"/>
    <path id="Path_119" data-name="Path 119" d="M1157.153,336.463l-39.938-9.678a1.571,1.571,0,0,1-1-1.961l1.549-6.412a1.559,1.559,0,0,1,1.779-1.284l39.932,9.678a1.573,1.573,0,0,1,1.012,1.961l-1.549,6.419a1.55,1.55,0,0,1-1.779,1.277" transform="translate(3020.074 314.686)" fill="#e8e8ef"/>
    <path id="Path_120" data-name="Path 120" d="M1282.493,366.78,1163.319,337.9a2.5,2.5,0,0,1-1.6-3.119l1.089-4.5a2.475,2.475,0,0,1,2.833-2.037l119.174,28.879a2.491,2.491,0,0,1,1.6,3.112l-1.088,4.507a2.48,2.48,0,0,1-2.833,2.037" transform="translate(3055.865 323.302)" fill="#e8e8ef"/>
    <path id="Path_121" data-name="Path 121" d="M1154.847,345.962l-39.932-9.678a1.567,1.567,0,0,1-1-1.961l1.542-6.419a1.567,1.567,0,0,1,1.786-1.284l39.932,9.678a1.573,1.573,0,0,1,1,1.961l-1.549,6.419a1.564,1.564,0,0,1-1.779,1.284" transform="translate(3018.262 322.081)" fill="#e8e8ef"/>
    <path id="Path_122" data-name="Path 122" d="M1326.134,387.408,1169.5,349.451a2.5,2.5,0,0,1-1.6-3.119l1.082-4.5a2.485,2.485,0,0,1,2.84-2.037l156.635,37.957a2.5,2.5,0,0,1,1.6,3.119l-1.089,4.5a2.468,2.468,0,0,1-2.833,2.037" transform="translate(3060.761 332.283)" fill="#e8e8ef"/>
    <path id="Path_123" data-name="Path 123" d="M1152.751,355.518l-39.938-9.678a1.578,1.578,0,0,1-1-1.961l1.549-6.412a1.553,1.553,0,0,1,1.779-1.284l39.938,9.678a1.562,1.562,0,0,1,1,1.954l-1.549,6.419a1.564,1.564,0,0,1-1.779,1.284" transform="translate(3016.61 329.528)" fill="#e8e8ef"/>
    <path id="Path_124" data-name="Path 124" d="M1324.318,397.039l-156.635-37.957a2.5,2.5,0,0,1-1.6-3.119l1.089-4.507a2.486,2.486,0,0,1,2.833-2.037l156.635,37.957a2.493,2.493,0,0,1,1.591,3.119l-1.082,4.5a2.48,2.48,0,0,1-2.833,2.044" transform="translate(3059.333 339.778)" fill="#e8e8ef"/>
    <path id="Path_125" data-name="Path 125" d="M1150.3,365.37l-39.925-9.678a1.57,1.57,0,0,1-1.012-1.961l1.549-6.412a1.553,1.553,0,0,1,1.786-1.284l39.925,9.678a1.567,1.567,0,0,1,1.012,1.961l-1.549,6.412a1.557,1.557,0,0,1-1.786,1.284" transform="translate(3014.683 337.202)" fill="#e8e8ef"/>
    <path id="Path_126" data-name="Path 126" d="M1321.763,406.861,1165.128,368.9a2.493,2.493,0,0,1-1.6-3.119l1.088-4.5a2.48,2.48,0,0,1,2.833-2.037L1324.087,397.2a2.486,2.486,0,0,1,1.591,3.119l-1.082,4.5a2.475,2.475,0,0,1-2.833,2.037" transform="translate(3057.324 347.429)" fill="#e8e8ef"/>
    <path id="Path_127" data-name="Path 127" d="M1148.2,374.928l-39.931-9.678a1.569,1.569,0,0,1-1-1.961l1.542-6.412a1.56,1.56,0,0,1,1.786-1.284l39.931,9.678a1.567,1.567,0,0,1,1.012,1.961l-1.549,6.412a1.562,1.562,0,0,1-1.786,1.284" transform="translate(3013.032 344.648)" fill="#e8e8ef"/>
    <path id="Path_128" data-name="Path 128" d="M1231.612,395.081l-94.25-22.837a2.5,2.5,0,0,1-1.6-3.112l1.088-4.507a2.475,2.475,0,0,1,2.833-2.037l94.244,22.837a2.5,2.5,0,0,1,1.6,3.119l-1.089,4.5a2.475,2.475,0,0,1-2.833,2.037" transform="translate(3035.439 350.056)" fill="#e8e8ef"/>
    <path id="Path_129" data-name="Path 129" d="M1145.894,384.424l-39.932-9.678a1.573,1.573,0,0,1-1-1.961l1.542-6.419a1.564,1.564,0,0,1,1.786-1.277l39.931,9.671a1.567,1.567,0,0,1,1,1.961l-1.542,6.419a1.562,1.562,0,0,1-1.786,1.284" transform="translate(3011.219 352.044)" fill="#e8e8ef"/>
    <path id="Path_130" data-name="Path 130" d="M1266.121,413.5l-118.594-28.74a2.485,2.485,0,0,1-1.6-3.112l1.088-4.507a2.473,2.473,0,0,1,2.833-2.037l118.595,28.74a2.49,2.49,0,0,1,1.6,3.119l-1.089,4.5a2.475,2.475,0,0,1-2.833,2.037" transform="translate(3043.44 359.793)" fill="#e8e8ef"/>
    <path id="Path_131" data-name="Path 131" d="M1143.8,393.979l-39.932-9.671a1.567,1.567,0,0,1-1-1.961l1.542-6.419a1.566,1.566,0,0,1,1.786-1.284l39.932,9.678a1.567,1.567,0,0,1,1,1.961l-1.542,6.419a1.557,1.557,0,0,1-1.786,1.277" transform="translate(3009.569 359.487)" fill="#e8e8ef"/>
    <path id="Path_132" data-name="Path 132" d="M1317.9,436.113,1155.792,396.83a2.5,2.5,0,0,1-1.6-3.119l1.088-4.5a2.468,2.468,0,0,1,2.833-2.037l162.106,39.276a2.5,2.5,0,0,1,1.6,3.119l-1.089,4.507a2.485,2.485,0,0,1-2.833,2.037" transform="translate(3049.985 369.169)" fill="#e8e8ef"/>
    <path id="Path_133" data-name="Path 133" d="M1136.538,422.264l-39.925-9.671a1.575,1.575,0,0,1-1.012-1.968l1.549-6.412a1.558,1.558,0,0,1,1.786-1.284l39.932,9.678a1.572,1.572,0,0,1,1,1.961l-1.549,6.419a1.557,1.557,0,0,1-1.786,1.277" transform="translate(3003.859 381.519)" fill="#e8e8ef"/>
    <path id="Path_134" data-name="Path 134" d="M1219.95,442.424l-94.244-22.837a2.49,2.49,0,0,1-1.6-3.119l1.082-4.5a2.475,2.475,0,0,1,2.833-2.044l94.25,22.837a2.5,2.5,0,0,1,1.6,3.119l-1.088,4.5a2.482,2.482,0,0,1-2.833,2.044" transform="translate(3026.267 386.92)" fill="#e8e8ef"/>
    <path id="Path_135" data-name="Path 135" d="M1134.24,431.76l-39.939-9.678a1.573,1.573,0,0,1-1-1.961l1.549-6.412a1.557,1.557,0,0,1,1.786-1.284l39.925,9.678a1.568,1.568,0,0,1,1.012,1.954l-1.549,6.419a1.55,1.55,0,0,1-1.779,1.284" transform="translate(3002.046 388.916)" fill="#e8e8ef"/>
    <path id="Path_136" data-name="Path 136" d="M1254.426,460.828l-118.595-28.74a2.489,2.489,0,0,1-1.6-3.112l1.082-4.507a2.478,2.478,0,0,1,2.84-2.037l118.588,28.74a2.485,2.485,0,0,1,1.6,3.112l-1.082,4.507a2.475,2.475,0,0,1-2.833,2.037" transform="translate(3034.239 396.646)" fill="#e8e8ef"/>
    <path id="Path_137" data-name="Path 137" d="M1132.136,441.319l-39.931-9.678a1.569,1.569,0,0,1-1-1.961l1.542-6.419a1.56,1.56,0,0,1,1.786-1.277l39.931,9.678a1.564,1.564,0,0,1,1,1.961l-1.542,6.412a1.562,1.562,0,0,1-1.786,1.284" transform="translate(3000.396 396.361)" fill="#e8e8ef"/>
    <path id="Path_138" data-name="Path 138" d="M1306.2,483.441,1144.1,444.158a2.493,2.493,0,0,1-1.6-3.119l1.082-4.5a2.482,2.482,0,0,1,2.84-2.037l162.1,39.276a2.491,2.491,0,0,1,1.6,3.119l-1.082,4.507a2.475,2.475,0,0,1-2.833,2.037" transform="translate(3040.752 406.017)" fill="#e8e8ef"/>
    <path id="Path_139" data-name="Path 139" d="M1141.187,403.588l-39.932-9.678a1.567,1.567,0,0,1-1-1.961l1.542-6.412a1.562,1.562,0,0,1,1.786-1.284l39.932,9.678a1.564,1.564,0,0,1,1,1.961l-1.542,6.412a1.56,1.56,0,0,1-1.786,1.284" transform="translate(3007.516 366.972)" fill="#e8e8ef"/>
    <path id="Path_140" data-name="Path 140" d="M1314.854,445.619l-162.106-39.29a2.494,2.494,0,0,1-1.6-3.112l1.089-4.507a2.48,2.48,0,0,1,2.833-2.037l162.106,39.283a2.5,2.5,0,0,1,1.6,3.119l-1.088,4.5a2.491,2.491,0,0,1-2.833,2.044" transform="translate(3047.56 376.566)" fill="#e8e8ef"/>
    <path id="Path_141" data-name="Path 141" d="M1139.089,413.147l-39.931-9.678a1.567,1.567,0,0,1-1-1.961l1.542-6.419a1.557,1.557,0,0,1,1.786-1.277l39.932,9.678a1.564,1.564,0,0,1,1,1.961l-1.549,6.412a1.555,1.555,0,0,1-1.779,1.284" transform="translate(3005.866 374.417)" fill="#e8e8ef"/>
    <path id="Path_142" data-name="Path 142" d="M1313.053,455.248l-162.106-39.29a2.491,2.491,0,0,1-1.6-3.112l1.089-4.5a2.482,2.482,0,0,1,2.833-2.044l162.106,39.283a2.5,2.5,0,0,1,1.6,3.119l-1.081,4.5a2.49,2.49,0,0,1-2.84,2.044" transform="translate(3046.143 384.063)" fill="#e8e8ef"/>
    <path id="Path_143" data-name="Path 143" d="M1154.163,426.393,1028.8,397.039c-4.891-1.144-8.338-4.284-7.7-7.005l24.065-102.791c.649-2.763,5.233-4.04,10.173-2.826l125.551,30.791c4.821,1.179,8.17,4.291,7.529,6.984l-24.253,101.347c-.649,2.721-5.128,4-10.006,2.854" transform="translate(2945.245 288.762)" fill="#e8e8ef"/>
    <path id="Path_144" data-name="Path 144" d="M1138.175,493.33l-125.363-29.354c-4.891-1.144-8.338-4.284-7.7-7.012l24.065-102.791c.649-2.763,5.233-4.04,10.173-2.826l125.551,30.791c4.821,1.186,8.171,4.291,7.529,6.984L1148.18,490.476c-.649,2.714-5.121,3.991-10.005,2.854" transform="translate(2932.666 340.776)" fill="#e8e8ef"/>
    <path id="Path_145" data-name="Path 145" d="M1471.6,395.753l2.226-9.378c2.058-8.687-1.968-17.136-9.071-19.02L1050.324,259.519c-7.94-2.107-16.341,4.165-18.616,13.885l-4.3,18.344,444.187,104" transform="translate(2950.373 269.808)" fill="#5c5e61"/>
    <path id="Path_146" data-name="Path 146" d="M1055.7,276.778c-1.1,4.661-5.142,7.7-9.05,6.775s-6.182-5.428-5.094-10.082,5.135-7.7,9.043-6.782,6.189,5.435,5.1,10.089" transform="translate(2961.173 275.638)" fill="#c6c9d3"/>
    <path id="Path_147" data-name="Path 147" d="M1079.782,282.419c-1.089,4.654-5.142,7.689-9.043,6.775s-6.189-5.428-5.1-10.082,5.142-7.7,9.05-6.782,6.182,5.435,5.094,10.089" transform="translate(2980.115 280.073)" fill="#c6c9d3"/>
    <path id="Path_148" data-name="Path 148" d="M1067.579,279.564c-1.1,4.654-5.142,7.682-9.05,6.768s-6.182-5.428-5.094-10.082,5.135-7.7,9.043-6.775,6.189,5.428,5.1,10.089" transform="translate(2970.515 277.827)" fill="#c6c9d3"/>
    <path id="Path_149" data-name="Path 149" d="M1048.4,344.354a43.514,43.514,0,1,1-43.511-43.518,43.517,43.517,0,0,1,43.511,43.518" transform="translate(2898.295 301.952)" fill="#f7e057"/>
    <path id="Path_150" data-name="Path 150" d="M985.9,341.4l-18.357-9.343v-3.007L985.9,318.418v5.121l-12.7,6.782,12.7,5.98v5.1" transform="translate(2903.151 315.714)" fill="#fff"/>
    <path id="Path_151" data-name="Path 151" d="M995.662,316.1l-10.445,31.545-5.24-.056,10.354-31.419,5.331-.07" transform="translate(2912.923 313.897)" fill="#fff"/>
    <path id="Path_152" data-name="Path 152" d="M990.926,336.478l13.417-6.119-13.417-6.866v-5.212l19.565,10.724v3.147l-19.565,9.517v-5.191" transform="translate(2921.531 315.607)" fill="#fff"/>
    <path id="Path_153" data-name="Path 153" d="M1081.677,270.909a43.514,43.514,0,1,1-43.518-43.518,43.519,43.519,0,0,1,43.518,43.518" transform="translate(2924.486 244.869)" fill="#f3d33f"/>
    <path id="Path_154" data-name="Path 154" d="M1011.125,243.631V280.29c0,2.351,2,3.824,3.719,2.742l30.694-19.279c1.919-1.2,1.919-4.6,0-5.687l-30.694-17.409c-1.723-.97-3.719.614-3.719,2.972" transform="translate(2937.445 255.073)" fill="#fff"/>
    <path id="Path_155" data-name="Path 155" d="M1175.137,286.979a43.518,43.518,0,1,1-43.518-43.518,43.519,43.519,0,0,1,43.518,43.518" transform="translate(2998.007 257.504)" fill="#f7e057"/>
    <path id="Path_156" data-name="Path 156" d="M1130.181,284.8a11.326,11.326,0,0,1-11.171-10.487,9.709,9.709,0,0,1,10.117-10.243A11.336,11.336,0,0,1,1140.18,274.6,9.71,9.71,0,0,1,1130.181,284.8Zm17.988-13-1.472-.021a17.633,17.633,0,0,0-1.144-3.475l1.284-.733a1.306,1.306,0,0,0,.412-1.856l-1.4-2.254a1.449,1.449,0,0,0-1.912-.537l-1.354.768a18.958,18.958,0,0,0-2.693-2.54l.76-1.388a1.432,1.432,0,0,0-.6-1.891l-2.344-1.354a1.348,1.348,0,0,0-1.884.468l-.774,1.43a18.307,18.307,0,0,0-3.524-.984l-.084-1.7a1.533,1.533,0,0,0-1.479-1.416l-2.651-.063a1.287,1.287,0,0,0-1.347,1.354l.091,1.7a16.548,16.548,0,0,0-3.468.823l-.935-1.479a1.515,1.515,0,0,0-1.975-.551l-2.254,1.256a1.321,1.321,0,0,0-.426,1.891l.928,1.451a16.446,16.446,0,0,0-2.512,2.463l-1.472-.83a1.39,1.39,0,0,0-1.926.467l-1.228,2.247a1.443,1.443,0,0,0,.628,1.919l1.409.788a16.245,16.245,0,0,0-.837,3.5l-1.521-.021a1.3,1.3,0,0,0-1.361,1.368l.146,2.624a1.531,1.531,0,0,0,1.507,1.4l1.437.014a18.34,18.34,0,0,0,1.13,3.621l-1.151.649a1.316,1.316,0,0,0-.419,1.891l1.465,2.261a1.514,1.514,0,0,0,1.975.523l1.1-.628a18.615,18.615,0,0,0,2.847,2.7l-.572,1.054a1.4,1.4,0,0,0,.621,1.877l2.372,1.3a1.39,1.39,0,0,0,1.9-.488l.544-1a18.69,18.69,0,0,0,3.789,1l.056,1.151a1.473,1.473,0,0,0,1.472,1.368l2.637.014a1.3,1.3,0,0,0,1.326-1.361l-.063-1.151a16.514,16.514,0,0,0,3.649-.963l.642,1a1.456,1.456,0,0,0,1.926.509l2.191-1.27a1.316,1.316,0,0,0,.419-1.856l-.663-1.04a16.3,16.3,0,0,0,2.512-2.63l1.116.628a1.347,1.347,0,0,0,1.856-.481l1.193-2.2a1.4,1.4,0,0,0-.593-1.856l-1.179-.663a16.279,16.279,0,0,0,.74-3.531l1.381.014a1.275,1.275,0,0,0,1.312-1.34l-.119-2.561a1.473,1.473,0,0,0-1.437-1.382" transform="translate(3014.521 265.995)" fill="#fff"/>
    <path id="Path_157" data-name="Path 157" d="M1108.917,286.852a8.216,8.216,0,0,1-8.219-7.473,7.034,7.034,0,0,1,7.347-7.4,8.214,8.214,0,0,1,8.164,7.494A7.045,7.045,0,0,1,1108.917,286.852Zm13.152-9.433-1.082-.007a12.372,12.372,0,0,0-.858-2.491l.935-.537a.93.93,0,0,0,.3-1.34l-1.047-1.612a1.071,1.071,0,0,0-1.409-.37l-.991.558a13.6,13.6,0,0,0-1.989-1.807l.551-1a1.02,1.02,0,0,0-.454-1.354l-1.723-.949a1,1,0,0,0-1.382.342l-.565,1.033a13.377,13.377,0,0,0-2.582-.677l-.07-1.221a1.1,1.1,0,0,0-1.088-1l-1.947-.028a.926.926,0,0,0-.977.977l.07,1.214a12.983,12.983,0,0,0-2.526.621l-.691-1.054a1.116,1.116,0,0,0-1.444-.377l-1.64.914a.932.932,0,0,0-.3,1.354l.677,1.026a11.872,11.872,0,0,0-1.814,1.786l-1.082-.586a1.025,1.025,0,0,0-1.4.349l-.886,1.612a1.021,1.021,0,0,0,.468,1.368l1.026.558a11.485,11.485,0,0,0-.593,2.512l-1.109-.007a.934.934,0,0,0-.984.984l.112,1.877a1.11,1.11,0,0,0,1.11,1l1.047.007a12.268,12.268,0,0,0,.844,2.582l-.844.474a.928.928,0,0,0-.293,1.354l1.074,1.619a1.112,1.112,0,0,0,1.444.363l.8-.447a13.722,13.722,0,0,0,2.093,1.926l-.412.754a1,1,0,0,0,.46,1.347l1.738.928a1.017,1.017,0,0,0,1.388-.363l.4-.726a13.361,13.361,0,0,0,2.784.712l.042.823a1.082,1.082,0,0,0,1.089.984h1.933a.949.949,0,0,0,.97-.984l-.049-.823a12.76,12.76,0,0,0,2.672-.712l.481.726a1.085,1.085,0,0,0,1.409.356l1.6-.921a.931.931,0,0,0,.3-1.34l-.5-.747a11.021,11.021,0,0,0,1.835-1.9l.83.447a1,1,0,0,0,1.368-.356l.872-1.584a1,1,0,0,0-.447-1.34l-.879-.474a11,11,0,0,0,.523-2.547l1.026.007a.925.925,0,0,0,.956-.977l-.1-1.842a1.067,1.067,0,0,0-1.067-.984" transform="translate(3002.215 274.404)" fill="#fff"/>
    <path id="Path_158" data-name="Path 158" d="M995.641,442.906l34.8,232.682,291.39,9.789,15.225-269.662L995.641,442.906" transform="translate(2925.29 390.372)" fill="#f3d33f"/>
    <path id="Path_159" data-name="Path 159" d="M1335.915,459.209l-142.437-43.49-15.225,269.655h96.769l60.892-226.165" transform="translate(3068.968 390.375)" fill="#f7e057"/>
    <path id="Path_160" data-name="Path 160" d="M1260.908,344.591l94.048,131.873-341.411,27.191-38.822-69.711a14.652,14.652,0,0,1,8.826-21.225L1245.006,339a14.659,14.659,0,0,1,15.9,5.6" transform="translate(2907.333 331.058)" fill="#f7e057"/>
    <path id="Path_161" data-name="Path 161" d="M1186.777,415.715l58.366,95.96a26.57,26.57,0,0,0,16.627,12.057l99.77,23.423a6.854,6.854,0,0,0,7.675-9.8l-40-78.147-142.437-43.5" transform="translate(3075.669 391.195)" fill="#f3d33f"/>
    <path id="Path_162" data-name="Path 162" d="M1254.123,383.82s7.926,3.859,9.385,8.282c1.165,3.552,9.929,4.012,10.794,11a8.02,8.02,0,0,0,6.705,7.04c8.945,1.368,22.739,6.015,24.944,21.553,1.681,11.855-4.361,16.355-10.7,17.911a8.989,8.989,0,0,0-6.817,10.382c.907,4.507-.44,9.726-8.254,13.85-17.513,9.245-35.012-21.9-35.012-21.9l-3.586-54.375,12.545-13.745" transform="translate(3118.754 366.506)" fill="#333435"/>
    <g id="Group_23" data-name="Group 23" transform="translate(4275.317 737.332)" clip-path="url(#clip-path)">
      <g id="Group_22" data-name="Group 22" transform="translate(0.112 0.167)" clip-path="url(#clip-path-2)">
        <g id="Group_21" data-name="Group 21" transform="translate(0 -0.007)" clip-path="url(#clip-path-3)">
          <g id="Group_20" data-name="Group 20" transform="translate(-45.444 -38.969)" clip-path="url(#clip-path-4)">
            <path id="Path_163" data-name="Path 163" d="M1248.079,524.461l90.1-78.635-79.458-91.041-90.1,78.635Zm0,0" transform="translate(-1168.621 -354.785)" fill="url(#linear-gradient)"/>
          </g>
        </g>
      </g>
    </g>
    <path id="Path_168" data-name="Path 168" d="M1288.924,576.272l1.123,9.315a3.861,3.861,0,0,0,3.384,3.37,60.041,60.041,0,0,0,12.469.2,3.294,3.294,0,0,0,2.77-4.277c-1.144-3.593-3.238-8.994-6.252-12.176h-10.333a3.183,3.183,0,0,0-3.161,3.572" transform="translate(3155.96 513.795)" fill="#333435"/>
    <g id="Group_26" data-name="Group 26" transform="translate(4355.86 980.751)" clip-path="url(#clip-path-5)">
      <g id="Group_25" data-name="Group 25" transform="translate(0.286 0.147)" clip-path="url(#clip-path-6)">
        <g id="Group_24" data-name="Group 24" transform="translate(0.007)" clip-path="url(#clip-path-7)">
          <path id="Path_169" data-name="Path 169" d="M1280.437,633.982l-9.35-121.595-36.994,2.847,9.35,121.595Zm0,0" transform="translate(-1243.283 -514.522)" fill="#74767b"/>
        </g>
      </g>
    </g>
    <path id="Path_173" data-name="Path 173" d="M1239.245,592.978h8.233a4.978,4.978,0,0,0,3.942-1.933c2.568-3.335,7.885-9.852,10.431-10.02,3.433-.223,2.993,11.952,2.993,11.952h1.919l2.435-15.134a8.962,8.962,0,0,0-4.7-9.364s-.781,5.791-5.031,8.352-17.283,11.736-17.283,11.736a11.579,11.579,0,0,0-3.342.091,2.178,2.178,0,0,0,.4,4.319" transform="translate(3115.206 510.478)" fill="#333435"/>
    <g id="Group_30" data-name="Group 30" transform="translate(4398.994 981.463)" clip-path="url(#clip-path-8)">
      <g id="Group_29" data-name="Group 29" transform="translate(0.286 0.048)" clip-path="url(#clip-path-9)">
        <g id="Group_28" data-name="Group 28" transform="translate(0.007)" clip-path="url(#clip-path-10)">
          <g id="Group_27" data-name="Group 27" transform="translate(-52.484 -32.186)" clip-path="url(#clip-path-11)">
            <path id="Path_174" data-name="Path 174" d="M1235.281,554.64l65.657,113.878,96.686-55.749-65.65-113.878Zm0,0" transform="translate(-1233 -493.56)" fill="url(#linear-gradient-2)"/>
          </g>
        </g>
      </g>
    </g>
    <path id="Path_179" data-name="Path 179" d="M1272.475,491.208c-8.826-37.413,13.543-58.575,13.543-58.575-14.122-13.55-39.834-19.711-39.834-19.711s-24.54,17.939-21.63,31.977c1.709,8.233,17.248,49.3,17.248,49.3s14.373,6.8,30.673-2.986" transform="translate(3105.182 389.17)" fill="#b9bcc5"/>
    <path id="Path_180" data-name="Path 180" d="M1285.136,475.275c-3.594-10.829-19.572-18.525-19.572-18.525-16.3,9.789-30.673,2.986-30.673,2.986s-3.217,12.315-1,23.765,16.18,85.026,16.18,85.026c21.993,4.459,55.812-4.479,55.812-4.479-14.011-24.867-17.157-77.951-20.751-88.773" transform="translate(3112.1 423.166)" fill="#48494b"/>
    <g id="Group_34" data-name="Group 34" transform="translate(4353.383 774.417)" clip-path="url(#clip-path-12)">
      <g id="Group_33" data-name="Group 33" transform="translate(0.152 0.106)" clip-path="url(#clip-path-13)">
        <g id="Group_32" data-name="Group 32" transform="translate(0.005)" clip-path="url(#clip-path-14)">
          <g id="Group_31" data-name="Group 31" transform="translate(-5.419 -3.615)" clip-path="url(#clip-path-15)">
            <path id="Path_181" data-name="Path 181" d="M1234.848,435.716,1261.1,439.3l5.47-40.036-26.249-3.586Zm0,0" transform="translate(-1234.659 -395.059)" fill="url(#linear-gradient-3)"/>
          </g>
        </g>
      </g>
    </g>
    <g id="Group_37" data-name="Group 37" transform="translate(4359.397 821.575)" clip-path="url(#clip-path-16)">
      <g id="Group_36" data-name="Group 36" transform="translate(0.188 0.237)" clip-path="url(#clip-path-17)">
        <g id="Group_35" data-name="Group 35" clip-path="url(#clip-path-18)">
          <path id="Path_186" data-name="Path 186" d="M1223.109,465.274l62.28,94.516,102.372-67.457-62.28-94.516Zm0,0" transform="translate(-1255.351 -444.509)" fill="#74767b"/>
        </g>
      </g>
    </g>
    <g id="Group_41" data-name="Group 41" transform="translate(4341.717 746.959)" clip-path="url(#clip-path-19)">
      <g id="Group_40" data-name="Group 40" transform="translate(0.013 0.212)" clip-path="url(#clip-path-20)">
        <g id="Group_39" data-name="Group 39" clip-path="url(#clip-path-21)">
          <g id="Group_38" data-name="Group 38" transform="translate(-14.861 -16.392)" clip-path="url(#clip-path-22)">
            <path id="Path_190" data-name="Path 190" d="M1224.953,419.711l38.864,12.727,14.059-42.946-38.864-12.727Zm0,0" transform="translate(-1221.185 -369.684)" fill="url(#linear-gradient-4)"/>
          </g>
        </g>
      </g>
    </g>
    <path id="Path_195" data-name="Path 195" d="M1251.872,407.309s2.8-18.881-12.873-16l-3.175,3.307s-7.668-8.645.823-15.176,20.269-4.856,26.786,7.033,8.882,20.241,3.419,27.63-9.566,1.054-9.566,1.054,2.5-6.4.426-9.14-4.766,1.6-4.766,1.6l-1.074-.307" transform="translate(3111.733 360.264)" fill="#333435"/>
    <g id="Group_45" data-name="Group 45" transform="translate(4365.405 761.49)" clip-path="url(#clip-path-23)">
      <g id="Group_44" data-name="Group 44" transform="translate(0.342 0.212)" clip-path="url(#clip-path-24)">
        <g id="Group_43" data-name="Group 43" transform="translate(-0.007 0)" clip-path="url(#clip-path-25)">
          <g id="Group_42" data-name="Group 42" transform="translate(-4.131 -5.62)" clip-path="url(#clip-path-26)">
            <path id="Path_196" data-name="Path 196" d="M1242.625,401.847l10.9,3.572,4.333-13.229-10.9-3.565Zm0,0" transform="translate(-1242.032 -385.674)" fill="url(#linear-gradient-5)"/>
          </g>
        </g>
      </g>
    </g>
    <g id="Group_49" data-name="Group 49" transform="translate(4255.744 717.034)" clip-path="url(#clip-path-27)">
      <g id="Group_48" data-name="Group 48" transform="translate(0.203 0.07)" clip-path="url(#clip-path-28)">
        <g id="Group_47" data-name="Group 47" transform="translate(-0.001)" clip-path="url(#clip-path-29)">
          <g id="Group_46" data-name="Group 46" transform="translate(-17.876 -14.059)" clip-path="url(#clip-path-30)">
            <path id="Path_201" data-name="Path 201" d="M1202.18,417.859l32.04-27.965L1205.9,357.441l-32.047,27.965Zm0,0" transform="translate(-1172.61 -357.009)" fill="url(#linear-gradient-6)"/>
          </g>
        </g>
      </g>
    </g>
    <g id="Group_53" data-name="Group 53" transform="translate(4266.706 729.461)" clip-path="url(#clip-path-31)">
      <g id="Group_52" data-name="Group 52" transform="translate(0.191 0.042)" clip-path="url(#clip-path-32)">
        <g id="Group_51" data-name="Group 51" clip-path="url(#clip-path-33)">
          <g id="Group_50" data-name="Group 50" transform="translate(-7.649 -5.645)" clip-path="url(#clip-path-34)">
            <path id="Path_206" data-name="Path 206" d="M1200.083,368.859l-15.071,11.408,11.875,15.7,15.071-11.408Zm0,0" transform="translate(-1185.012 -368.866)" fill="url(#linear-gradient-7)"/>
          </g>
        </g>
      </g>
    </g>
    <path id="Path_211" data-name="Path 211" d="M1277.45,482.869,1260.677,424.3a1.689,1.689,0,0,0-1.437-1.221c-3.049-.363-11.847-1.354-22.007-2.212-12.252-1.04-26.465-1.877-34.964-1.165a1.721,1.721,0,0,0-1.4,2.47c4.835,9.775,24.707,49.539,34.664,62.559a1.708,1.708,0,0,0,1.381.684l38.906-.363a1.718,1.718,0,0,0,1.633-2.184" transform="translate(3086.58 394.289)" fill="#333435"/>
    <path id="Path_212" data-name="Path 212" d="M1225.972,418.29l-12.162-2.023a.872.872,0,0,0-.97,1.137l1.2,3.642a.867.867,0,0,0,.719.593l11.694,1.563a.867.867,0,0,0,.963-1.061l-.74-3.189a.892.892,0,0,0-.7-.663" transform="translate(3096.089 391.954)" fill="#fff"/>
    <path id="Path_213" data-name="Path 213" d="M1237.568,426.986l-1-5.219a1.215,1.215,0,0,0-1.061-.977l-24.561-2.491a1.212,1.212,0,0,0-1.3,1.486l1.563,6.5a1.2,1.2,0,0,0,1.116.921l24,1.214a1.205,1.205,0,0,0,1.242-1.43" transform="translate(3093.593 393.535)" fill="#fff"/>
    <g id="Group_56" data-name="Group 56" transform="translate(4339.24 842.775)" clip-path="url(#clip-path-35)">
      <g id="Group_55" data-name="Group 55" transform="translate(0.042 0.261)" clip-path="url(#clip-path-36)">
        <g id="Group_54" data-name="Group 54" clip-path="url(#clip-path-37)">
          <path id="Path_214" data-name="Path 214" d="M1224.144,446.694l17.067,25.9,26.165-17.241-17.067-25.9Zm0,0" transform="translate(-1234.234 -440.878)" fill="#74767b"/>
        </g>
      </g>
    </g>
    <path id="Path_218" data-name="Path 218" d="M1025.6,607.4h7.884V523.609H1025.6V607.4" transform="translate(2948.829 475.2)" fill="#a8abb2"/>
    <path id="Path_219" data-name="Path 219" d="M1008.469,573.639h69.076v-3.328a1.714,1.714,0,0,0-1.716-1.709h-65.643a1.714,1.714,0,0,0-1.716,1.709v3.328" transform="translate(2935.357 510.573)" fill="#a8abb2"/>
    <path id="Path_220" data-name="Path 220" d="M1001.156,529.3a8.96,8.96,0,0,0,9.015,8.854h74.274a8.964,8.964,0,0,0,9.015-8.854v-8a8.966,8.966,0,0,0-9.015-8.861h-74.274a8.961,8.961,0,0,0-9.015,8.861v8" transform="translate(2929.606 466.416)" fill="#a8abb2"/>
    <path id="Path_221" data-name="Path 221" d="M1056.894,563.908s22.516,15.95,18.609,26.661c0,0-24.637-10.438-27.616-18.664s.5-11.862.5-11.862l8.505,3.865" transform="translate(2965.415 503.844)" fill="#48494b"/>
    <g id="Group_59" data-name="Group 59" transform="translate(4014.892 1054.3)" clip-path="url(#clip-path-38)">
      <g id="Group_58" data-name="Group 58" transform="translate(0.136 0.091)" clip-path="url(#clip-path-39)">
        <g id="Group_57" data-name="Group 57" clip-path="url(#clip-path-40)">
          <path id="Path_222" data-name="Path 222" d="M1044.078,561.9l11.073,18.218,17.611-10.7L1061.7,551.2Zm0,0" transform="translate(-1051.659 -557.503)" fill="#fff"/>
        </g>
      </g>
    </g>
    <path id="Path_226" data-name="Path 226" d="M1034.775,502.027s46.253,7.871,66.1,25.879-18.211,75.453-18.211,75.453-6.238-.042-13.794-6.405c0,0,22.565-43.2,3.119-55.8-21.86-14.164-47.055-17.353-47.055-17.353l9.4-20.395.447-1.382" transform="translate(2948.308 458.232)" fill="#48494b"/>
    <path id="Path_227" data-name="Path 227" d="M1073.05,579.266c-4.954-2.254-18.979-11.9-21.337-12.329s-6.468,2.31-6.468,2.31-1,1.758.07,4.835c3.293,3.914,10.6,11.366,20.43,14.15,7.222,2.044,12.28.14,15.427-2.093a20.714,20.714,0,0,0-8.122-6.873" transform="translate(2963.953 509.23)" fill="#333435"/>
    <path id="Path_228" data-name="Path 228" d="M1065.527,585.068c-9.831-2.784-17.136-10.236-20.43-14.15.726,2.079,2.386,4.752,5.938,7.884,8.805,7.78,25.628,10.585,29.214,10.04,2.868-.433,2.6-3.035.7-5.868-3.147,2.233-8.205,4.138-15.427,2.093" transform="translate(2964.171 512.394)" fill="#74767b"/>
    <g id="Group_62" data-name="Group 62" transform="translate(4004.988 1067.739)" clip-path="url(#clip-path-41)">
      <g id="Group_61" data-name="Group 61" transform="translate(0.007 0.014)" clip-path="url(#clip-path-42)">
        <g id="Group_60" data-name="Group 60" clip-path="url(#clip-path-43)">
          <path id="Path_229" data-name="Path 229" d="M1038.965,574.829l15.846,10.7,10.857-16.083-15.846-10.7Zm0,0" transform="translate(-1045.649 -564.928)" fill="#fff"/>
        </g>
      </g>
    </g>
    <path id="Path_233" data-name="Path 233" d="M1007.521,494.387s-10.271,26.989,0,35.194,34.782,17.443,40.253,33.792,14.764,48.116,27.2,59.364c0,0,8.736-.83,12.008-4.249,0,0-7.082-47.425-11.75-59.594-4.047-10.536-10.006-25.747-21.421-34.245-3.272-2.435-2.7-6.294-1.186-10.033l2.756-6.817-47.858-13.411" transform="translate(2931.021 452.224)" fill="#333435"/>
    <path id="Path_234" data-name="Path 234" d="M1082.079,494.472c-17.22,1.019-11.854-26.019-11.541-27.093l-26.144,18.148s1.381,14.457,23.116,22.042a27.578,27.578,0,0,0,14.973,1.061,22.97,22.97,0,0,1-.4-14.157" transform="translate(2963.617 431.681)" fill="#74767b"/>
    <g id="Group_65" data-name="Group 65" transform="translate(4044.605 916.011)" clip-path="url(#clip-path-44)">
      <g id="Group_64" data-name="Group 64" transform="translate(0.177 0.038)" clip-path="url(#clip-path-45)">
        <g id="Group_63" data-name="Group 63" clip-path="url(#clip-path-46)">
          <path id="Path_235" data-name="Path 235" d="M1057.32,496.306l31.768,38.424,40.413-33.408L1097.733,462.9Zm0,0" transform="translate(-1070.992 -487.908)" fill="#fff"/>
        </g>
      </g>
    </g>
    <path id="Path_239" data-name="Path 239" d="M1032.871,444.517s25.056-9.859,71.693,27.972c0,0,3.893,7.919-.356,14.966s-44.739,41.4-50.307,60.459c0,0-24.121,7.7-49.065-10.564,0,0,2.2-53.021,28.035-92.834" transform="translate(2932.501 412.778)" fill="#74767b"/>
    <g id="Group_69" data-name="Group 69" transform="translate(4000.39 850.4)" clip-path="url(#clip-path-47)">
      <g id="Group_68" data-name="Group 68" transform="translate(0.178 0.084)" clip-path="url(#clip-path-48)">
        <g id="Group_67" data-name="Group 67" clip-path="url(#clip-path-49)">
          <g id="Group_66" data-name="Group 66" transform="translate(-0.994 -0.579)" clip-path="url(#clip-path-50)">
            <path id="Path_240" data-name="Path 240" d="M1039.789,467.887l26.737.586.621-28.161-26.737-.586Zm0,0" transform="translate(-1039.58 -439.72)" fill="url(#linear-gradient-8)"/>
          </g>
        </g>
      </g>
    </g>
    <path id="Path_245" data-name="Path 245" d="M1023.16,506.93c-2.91-11.638,26.556-37.587,26.556-37.587l-7.152-25.335s-63.627,41.613-47.411,75.077a24.453,24.453,0,0,0,8.987,10.4c5.121-13.55,13.292-19.76,19.02-22.558" transform="translate(2922.775 413.351)" fill="#74767b"/>
    <path id="Path_246" data-name="Path 246" d="M1010.05,495.432a.7.7,0,0,1-.677-.523c-2.972-11.9,25.558-37.182,26.772-38.257a.709.709,0,0,1,.984.049.685.685,0,0,1-.056.97c-.293.258-29.124,25.8-26.347,36.917a.676.676,0,0,1-.509.823.69.69,0,0,1-.167.021" transform="translate(2935.896 423.2)" fill="#979aa0"/>
    <g id="Group_72" data-name="Group 72" transform="translate(3926.909 918.467)" clip-path="url(#clip-path-51)">
      <g id="Group_71" data-name="Group 71" transform="translate(0.035 0.185)" clip-path="url(#clip-path-52)">
        <g id="Group_70" data-name="Group 70" clip-path="url(#clip-path-53)">
          <path id="Path_247" data-name="Path 247" d="M993.578,488.606l15.657,59.978,96.846-25.286-15.657-59.978Zm0,0" transform="translate(-1003.298 -490.201)" fill="#fff"/>
        </g>
      </g>
    </g>
    <g id="Group_75" data-name="Group 75" transform="translate(4006.406 819.486)" clip-path="url(#clip-path-54)">
      <g id="Group_74" data-name="Group 74" transform="translate(0.147 0.299)" clip-path="url(#clip-path-55)">
        <g id="Group_73" data-name="Group 73" clip-path="url(#clip-path-56)">
          <path id="Path_251" data-name="Path 251" d="M1033.086,458.681l43.671,25.509L1104,437.526l-43.672-25.5Zm0,0" transform="translate(-1051.827 -431.28)" fill="#fff"/>
        </g>
      </g>
    </g>
    <path id="Path_255" data-name="Path 255" d="M1055.063,443.388l7.312,14.59a2.276,2.276,0,0,0,.349.509c.872.942,4.1,3.97,7.075.46,2.7-3.175,5.212-6.042,7.759-6.838a2.285,2.285,0,0,1,2.8,1.284,96.709,96.709,0,0,1,4.814,14.52,2.313,2.313,0,0,1-1.563,2.686c-3.433,1.123-10.738,3.293-17,3.684a2.292,2.292,0,0,1-2.093-1.061c-2.156-3.475-8.75-14-11.052-16.648-2.163-2.477-6.642-1.814-8.505-1.4a2.289,2.289,0,0,1-1.758-.321c-1.821-1.214-5.394-4.438-1.507-9.385a2.265,2.265,0,0,0-.447-3.265c-2.107-1.507-4.507-4.361-1.814-8.652,2.735-4.361,7.04-4.291,9.747-3.7a2.356,2.356,0,0,0,2.644-1.382,1.874,1.874,0,0,1,1.765-1.109,2.29,2.29,0,0,0,2.135-2.609c-.349-2.512.182-5.819,4.445-7.766,7.563-3.454,13.362,3.4,14.52,8.924s-7.25,8.812-12.392,9.112c-3.907.223-6.328,4.4-7.263,6.391a2.263,2.263,0,0,0,.028,1.968" transform="translate(2958.773 391.68)" fill="#333435"/>
    <g id="Group_79" data-name="Group 79" transform="translate(4002.866 843.852)" clip-path="url(#clip-path-57)">
      <g id="Group_78" data-name="Group 78" transform="translate(0.258 0.174)" clip-path="url(#clip-path-58)">
        <g id="Group_77" data-name="Group 77" clip-path="url(#clip-path-59)">
          <g id="Group_76" data-name="Group 76" transform="translate(-2.812 -0.376)" clip-path="url(#clip-path-60)">
            <path id="Path_256" data-name="Path 256" d="M1041.367,448.379l12.343.272.272-12.176-12.343-.265Zm0,0" transform="translate(-1039.079 -436.162)" fill="url(#linear-gradient-9)"/>
          </g>
        </g>
      </g>
    </g>
    <path id="Path_261" data-name="Path 261" d="M1046.049,496.258h.167l73.3-.077a3.224,3.224,0,1,0-.007-6.447l-73.3.077a3.225,3.225,0,0,0-.16,6.447" transform="translate(2962.469 449.2)" fill="#333435"/>
    <path id="Path_262" data-name="Path 262" d="M1166.619,456.781h-61.045a11.647,11.647,0,0,0-10.522,6.552l-28.224,58.791h75.865a7.075,7.075,0,0,0,6.573-4.4l21.881-54.4a4.8,4.8,0,0,0-4.528-6.552" transform="translate(2981.273 423.357)" fill="#333435"/>
    <path id="Path_263" data-name="Path 263" d="M1098.877,476.3c-1.326,4.04-.349,7.961,2.184,8.757s5.652-1.821,6.97-5.861.349-7.961-2.184-8.757-5.652,1.821-6.97,5.861" transform="translate(3006.01 434.032)" fill="#74767b"/>
    <path id="Path_264" data-name="Path 264" d="M1146.942,645.3a3.248,3.248,0,0,0,1.221-.237,2.88,2.88,0,0,0,1.612-3.851l-64.6-142.827a3.149,3.149,0,0,0-4.047-1.542,2.885,2.885,0,0,0-1.612,3.852l64.6,142.834a3.1,3.1,0,0,0,2.833,1.772" transform="translate(2991.051 453.969)" fill="#a8abb2"/>
    <path id="Path_265" data-name="Path 265" d="M1077.766,645.3a3.093,3.093,0,0,0,2.833-1.772l64.6-142.834a2.883,2.883,0,0,0-1.619-3.852,3.154,3.154,0,0,0-4.047,1.542l-64.6,142.827a2.875,2.875,0,0,0,1.612,3.851,3.24,3.24,0,0,0,1.214.237" transform="translate(2987.451 453.969)" fill="#a8abb2"/>
    <path id="Path_266" data-name="Path 266" d="M1035,645.3a3.24,3.24,0,0,0,1.214-.237,2.88,2.88,0,0,0,1.612-3.851l-64.6-142.827a3.146,3.146,0,0,0-4.047-1.542,2.885,2.885,0,0,0-1.612,3.852l64.6,142.834A3.086,3.086,0,0,0,1035,645.3" transform="translate(2902.967 453.969)" fill="#a8abb2"/>
    <path id="Path_267" data-name="Path 267" d="M965.815,645.3a3.086,3.086,0,0,0,2.833-1.772l64.6-142.834a2.89,2.89,0,0,0-1.612-3.852,3.149,3.149,0,0,0-4.047,1.542l-64.6,142.827a2.88,2.88,0,0,0,1.612,3.851,3.239,3.239,0,0,0,1.214.237" transform="translate(2899.37 453.969)" fill="#a8abb2"/>
    <path id="Path_268" data-name="Path 268" d="M960.241,496.81a3.455,3.455,0,0,1,.614-2.644,2.8,2.8,0,0,1,2.24-1.165h293.887a3.3,3.3,0,0,1,2.819,1.7,4.026,4.026,0,0,1,.216,3.531l-3.189,7.577a4.44,4.44,0,0,1-4.047,2.847H965.111a3.481,3.481,0,0,1-3.314-3.007l-1.556-8.833" transform="translate(2897.367 451.717)" fill="#a8abb2"/>
  </g>
</svg>
