<svg xmlns="http://www.w3.org/2000/svg" width="642.67" height="644.53" viewBox="0 0 642.67 644.53">
  <g id="Group_21" data-name="Group 21" transform="translate(-1197.186 -362.241)">
    <path id="Path_85" data-name="Path 85" d="M1522.333,780.412c-13.125,13.82-25.547,22.737-35.358,29.774-115.349,82.778-251.84,58.648-280.844,52.757-42.832-8.706-125.633-25.522-185.5-95.93C930.071,660.5,944.171,492.685,1014.422,381.9c12.845-20.263,80.722-132.727,218.684-150.763,83.49-10.911,180.815,11.1,251.3,70.154,147.938,123.963,137.41,374.378,37.933,479.116" transform="translate(240 136.009)" fill="#efeff4"/>
    <path id="Path_86" data-name="Path 86" d="M1092.9,241.155c-1.248-4.346-3.981-7.488-7.373-8.5s-7.072.208-9.955,3.314c-105.841,114-72.3,256.056-55.936,305.473,1.463,4.418,4.468,7.416,8.076,8.069s7.359-1.133,10.092-4.791c93.784-125.686,68.366-257.476,55.1-303.565" transform="translate(276.942 139.234)" fill="#979aa0"/>
    <path id="Path_87" data-name="Path 87" d="M1066.042,242.69c-6.749,23.138-12.6,46.562-17.945,70.073-5.314,23.525-10.077,47.179-14.129,70.948l-2.9,17.844c-.932,5.96-1.7,11.935-2.561,17.9l-1.248,8.951-1.04,8.98-1.04,8.972c-.323,2.991-.746,5.975-.968,8.98q-3.593,35.965-3.708,72.1v.057a2.091,2.091,0,1,1-4.182-.014v-.05l.538-18.16.136-4.54.072-2.266.151-2.266.617-9.051.6-9.051.294-4.526.445-4.519L1020.95,455c.258-3.012.717-6,1.076-9l1.133-8.994,1.14-8.994,1.349-8.958c.925-5.974,1.757-11.963,2.754-17.916l3.091-17.852c4.346-23.769,9.188-47.437,14.7-70.955q4.142-17.633,8.7-35.165l2.288-8.757,2.374-8.743q2.388-8.736,4.956-17.429a.8.8,0,1,1,1.535.452v.007" transform="translate(289.442 147.051)" fill="#c6c9d3"/>
    <path id="Path_88" data-name="Path 88" d="M1032.552,292.419a.884.884,0,0,1,.495-1.528c12.932-1.42,33.946-24.027,34.154-24.257a.888.888,0,0,1,1.241-.05l.007.007a.876.876,0,0,1,.05,1.241c-.882.954-21.682,23.324-35.259,24.809a.876.876,0,0,1-.688-.222" transform="translate(302.77 167.704)" fill="#c6c9d3"/>
    <path id="Path_89" data-name="Path 89" d="M1039.939,295.452a1.335,1.335,0,0,1-.1-.108c-.516-.645-12.623-16.023-16.374-31.529a.882.882,0,0,1,1.714-.416c3.658,15.126,15.915,30.7,16.037,30.848a.881.881,0,0,1-1.277,1.2" transform="translate(295.391 164.671)" fill="#c6c9d3"/>
    <path id="Path_90" data-name="Path 90" d="M1025.7,328.912a.823.823,0,0,1-.251-.409.871.871,0,0,1,.6-1.083c20.584-5.824,37.955-27.29,38.127-27.506a.88.88,0,0,1,1.241-.143.893.893,0,0,1,.136,1.241c-.179.215-17.895,22.126-39.024,28.1a.877.877,0,0,1-.832-.2" transform="translate(297.045 197.08)" fill="#c6c9d3"/>
    <path id="Path_91" data-name="Path 91" d="M1031.813,329.649c-5.845-5.315-15.191-16.13-20.391-34.334a.882.882,0,0,1,.6-1.09.892.892,0,0,1,1.09.61c7.6,26.587,24.629,37.267,24.8,37.375a.879.879,0,0,1-.918,1.5,36.957,36.957,0,0,1-5.186-4.059" transform="translate(285.317 192.483)" fill="#c6c9d3"/>
    <path id="Path_92" data-name="Path 92" d="M1031.239,383.141l-.022-.014c-.186-.179-18.4-17.967-27.111-41.513a.879.879,0,1,1,1.65-.61c8.564,23.159,26.5,40.681,26.681,40.853a.878.878,0,0,1-1.2,1.284" transform="translate(279.185 232.192)" fill="#c6c9d3"/>
    <path id="Path_93" data-name="Path 93" d="M1018.992,378.953a.783.783,0,0,1-.23-.33.878.878,0,0,1,.495-1.14c.237-.093,23.468-9.439,39.906-31.687a.879.879,0,1,1,1.413,1.047c-16.747,22.671-40.437,32.182-40.674,32.275a.858.858,0,0,1-.911-.165" transform="translate(291.429 236.453)" fill="#c6c9d3"/>
    <path id="Path_94" data-name="Path 94" d="M1010.939,263.018c-2.195-3.027-5.193-4.7-8.119-4.54s-5.444,2.152-6.821,5.379c-50.356,118.457,15.614,219.564,42.223,253.41,2.374,3.027,5.558,4.518,8.55,4.009s5.408-2.948,6.505-6.562c37.7-124.166-19.078-219.564-42.338-251.7" transform="translate(257.046 161.108)" fill="#a8abb2"/>
    <path id="Path_95" data-name="Path 95" d="M991.877,267.46c1.248,19.9,3.278,39.763,5.731,59.558,2.482,19.8,5.429,39.526,8.965,59.157l2.776,14.689c.947,4.891,2.03,9.761,3.041,14.639l1.549,7.316,1.721,7.266,1.714,7.28c.6,2.417,1.1,4.856,1.779,7.251q7.327,28.972,17.414,57.084l.022.057a2.091,2.091,0,1,1-3.938,1.406l-.014-.05-4.662-14.294-1.169-3.579-.574-1.786-.516-1.8-2.059-7.222-2.066-7.222-1.033-3.615-.918-3.636-3.672-14.552c-.638-2.417-1.126-4.877-1.686-7.309l-1.635-7.323-1.628-7.323-1.456-7.359c-.954-4.906-1.98-9.8-2.869-14.717l-2.589-14.768c-3.263-19.724-6.139-39.5-8.442-59.357-1.14-9.926-2.187-19.86-3.077-29.808-.932-9.955-1.721-19.91-2.31-29.894a.8.8,0,0,1,1.6-.093v.007" transform="translate(267.667 167.99)" fill="#c6c9d3"/>
    <path id="Path_96" data-name="Path 96" d="M993.248,313.849a.928.928,0,0,1-.2-.265.894.894,0,0,1,.409-1.183c9.611-4.712,19.595-28.158,19.7-28.395a.881.881,0,0,1,1.621.689c-.416.99-10.35,24.292-20.541,29.291a.892.892,0,0,1-.983-.136" transform="translate(269.911 183.258)" fill="#c6c9d3"/>
    <path id="Path_97" data-name="Path 97" d="M990.862,300.438a58.338,58.338,0,0,1-9.388-10.629.88.88,0,1,1,1.47-.968c7.072,10.715,20.95,19.358,21.086,19.444a.9.9,0,0,1,.287,1.212.877.877,0,0,1-1.212.287,92.436,92.436,0,0,1-12.243-9.345" transform="translate(260.183 187.506)" fill="#c6c9d3"/>
    <path id="Path_98" data-name="Path 98" d="M997.75,344.669a.811.811,0,0,1-.129-.143.888.888,0,0,1,.2-1.226c14.352-10.292,21.818-31.83,21.89-32.046a.882.882,0,1,1,1.671.567c-.308.9-7.732,22.291-22.535,32.913a.875.875,0,0,1-1.1-.065" transform="translate(273.671 206.598)" fill="#c6c9d3"/>
    <path id="Path_99" data-name="Path 99" d="M990.373,328.33a68.511,68.511,0,0,1-9.432-10.615.891.891,0,0,1,.2-1.234.881.881,0,0,1,1.226.2,61.577,61.577,0,0,0,19.9,18.024,39.39,39.39,0,0,0,9.8,4.024.881.881,0,0,1,.681,1.04.871.871,0,0,1-1.033.681c-.538-.108-10.493-2.266-21.344-12.121" transform="translate(259.725 211.426)" fill="#c6c9d3"/>
    <path id="Path_100" data-name="Path 100" d="M995.734,363.516a80.241,80.241,0,0,1-7.473-7.71.88.88,0,1,1,1.341-1.14c13.139,15.585,31.988,24.163,32.175,24.242a.884.884,0,0,1-.724,1.614,109.767,109.767,0,0,1-25.318-17.005" transform="translate(265.804 244.071)" fill="#c6c9d3"/>
    <path id="Path_101" data-name="Path 101" d="M1006.028,385.708l-.065-.072a.876.876,0,0,1,.079-1.241,85,85,0,0,0,22.1-35.8.888.888,0,0,1,1.1-.6.875.875,0,0,1,.588,1.1,86.843,86.843,0,0,1-22.628,36.629.886.886,0,0,1-1.176-.014" transform="translate(280.598 238.638)" fill="#c6c9d3"/>
    <path id="Path_102" data-name="Path 102" d="M1290.344,269.3a1.046,1.046,0,0,1-1.018-1.018c-.1-5.716-1.879-34.111-26.867-40.043-27.807-6.606-40.545,21.7-40.545,21.7s-34.412-13.218-41.011,22.169c-21.581,5.185-27.183,33.394-13.147,47.172a12.046,12.046,0,0,0,8.342,3.457l135.139,1.219a8.9,8.9,0,0,0,8.607-6.369c4.225-14.258,9.755-47.365-29.5-48.291" transform="translate(409.607 135)" fill="#888b8f"/>
    <path id="Path_103" data-name="Path 103" d="M1285.461,268.365a1.041,1.041,0,0,1-1.018-1.018c-.108-5.487-1.872-31.809-25.4-37.331-26.3-6.168-38.336,20.269-38.336,20.269s-32.548-12.336-38.78,20.713c-20.211,4.791-25.6,30.676-12.81,43.672a12.007,12.007,0,0,0,8.485,3.6l127.221,1.133a8.9,8.9,0,0,0,8.614-6.39c3.966-13.541,8.678-43.765-27.972-44.647" transform="translate(411.406 136.539)" fill="#c6c9d3"/>
    <path id="Path_104" data-name="Path 104" d="M1349.789,334.368a1.064,1.064,0,0,1-1.04-1.04c-.108-5.845-1.93-34.864-27.463-40.925-28.424-6.756-41.434,22.177-41.434,22.177s-35.172-13.5-41.922,22.664c-22.047,5.3-27.778,34.126-13.434,48.212a12.3,12.3,0,0,0,8.528,3.529l138.109,1.248a9.094,9.094,0,0,0,8.8-6.505c4.318-14.581,9.976-48.413-30.145-49.359" transform="translate(456.903 190.226)" fill="#888b8f"/>
    <path id="Path_105" data-name="Path 105" d="M1344.8,333.416a1.076,1.076,0,0,1-1.04-1.047c-.108-5.6-1.915-32.512-25.963-38.149-26.882-6.3-39.182,20.713-39.182,20.713s-33.258-12.609-39.634,21.165c-20.649,4.9-26.171,31.35-13.1,44.64a12.357,12.357,0,0,0,8.678,3.679l130.018,1.155a9.083,9.083,0,0,0,8.807-6.534c4.052-13.842,8.865-44.733-28.588-45.623" transform="translate(458.741 191.83)" fill="#c6c9d3"/>
    <path id="Path_106" data-name="Path 106" d="M1350.6,435.04a1.12,1.12,0,0,1-1.09-1.1c-.107-6.125-2.022-36.557-28.8-42.911-29.808-7.086-43.449,23.252-43.449,23.252s-36.887-14.158-43.959,23.769c-23.123,5.559-29.133,35.782-14.093,50.55a12.894,12.894,0,0,0,8.937,3.708l144.836,1.305a9.539,9.539,0,0,0,9.224-6.821c4.526-15.284,10.457-50.772-31.608-51.755" transform="translate(452.167 275.141)" fill="#888b8f"/>
    <path id="Path_107" data-name="Path 107" d="M1345.367,434.033a1.108,1.108,0,0,1-1.09-1.09c-.122-5.881-2.016-34.1-27.233-40.007-28.187-6.613-41.082,21.725-41.082,21.725s-34.879-13.226-41.57,22.191c-21.653,5.135-27.434,32.878-13.721,46.806a12.914,12.914,0,0,0,9.094,3.859l136.337,1.212a9.524,9.524,0,0,0,9.238-6.842c4.246-14.517,9.3-46.914-29.973-47.853" transform="translate(454.095 276.791)" fill="#c6c9d3"/>
    <path id="Path_108" data-name="Path 108" d="M1214.738,364.208h-3.471a2.313,2.313,0,0,1,0-4.626h3.471a2.313,2.313,0,0,1,0,4.626" transform="translate(450.493 248.458)" fill="#fff"/>
    <path id="Path_109" data-name="Path 109" d="M1307.483,355.9a2.308,2.308,0,0,1-2.309-2.309v-6.857a2.313,2.313,0,0,1,4.626,0v6.857A2.314,2.314,0,0,1,1307.483,355.9Zm0,13.7a2.309,2.309,0,0,1-2.309-2.317v-6.842a2.313,2.313,0,1,1,4.626,0v6.842A2.316,2.316,0,0,1,1307.483,369.6Zm-83.757,7.28h-6.842a2.313,2.313,0,0,1,0-4.626h6.842a2.313,2.313,0,0,1,0,4.626Zm13.685,0h-6.842a2.313,2.313,0,0,1,0-4.626h6.842a2.313,2.313,0,1,1,0,4.626Zm13.685,0h-6.842a2.313,2.313,0,0,1,0-4.626h6.842a2.313,2.313,0,1,1,0,4.626Zm13.692,0h-6.842a2.313,2.313,0,0,1,0-4.626h6.842a2.313,2.313,0,1,1,0,4.626Zm13.692,0h-6.849a2.313,2.313,0,0,1,0-4.626h6.849a2.313,2.313,0,0,1,0,4.626Zm13.685,0h-6.842a2.313,2.313,0,0,1,0-4.626h6.842a2.313,2.313,0,1,1,0,4.626Zm10.507,0h-3.665a2.313,2.313,0,0,1,0-4.626h3.665a2.469,2.469,0,0,0,1.535-.524,2.313,2.313,0,0,1,2.84,3.651,7.057,7.057,0,0,1-4.375,1.5" transform="translate(455.185 235.579)" fill="#fff"/>
    <path id="Path_110" data-name="Path 110" d="M1266.228,346.891a2.308,2.308,0,0,1-2.309-2.309V341.11a2.313,2.313,0,0,1,4.626,0v3.471a2.314,2.314,0,0,1-2.317,2.309" transform="translate(496.441 230.655)" fill="#fff"/>
    <path id="Path_111" data-name="Path 111" d="M1156,293.56h-3.464a2.313,2.313,0,0,1,0-4.626H1156a2.313,2.313,0,0,1,0,4.626" transform="translate(401.388 186.581)" fill="#fff"/>
    <path id="Path_112" data-name="Path 112" d="M1248.752,285.246a2.313,2.313,0,0,1-2.31-2.309v-6.849a2.309,2.309,0,1,1,4.619,0v6.849A2.308,2.308,0,0,1,1248.752,285.246Zm0,13.706a2.319,2.319,0,0,1-2.31-2.317v-6.849a2.309,2.309,0,0,1,4.619,0v6.849A2.314,2.314,0,0,1,1248.752,298.952Zm-83.757,7.28h-6.843a2.313,2.313,0,1,1,0-4.626h6.843a2.313,2.313,0,0,1,0,4.626Zm13.692,0h-6.842a2.313,2.313,0,1,1,0-4.626h6.842a2.313,2.313,0,0,1,0,4.626Zm13.685,0h-6.842a2.313,2.313,0,1,1,0-4.626h6.842a2.313,2.313,0,0,1,0,4.626Zm13.692,0h-6.849a2.313,2.313,0,0,1,0-4.626h6.849a2.313,2.313,0,0,1,0,4.626Zm13.685,0h-6.842a2.313,2.313,0,1,1,0-4.626h6.842a2.313,2.313,0,0,1,0,4.626Zm13.692,0h-6.849a2.313,2.313,0,0,1,0-4.626h6.849a2.313,2.313,0,0,1,0,4.626Zm10.5,0h-3.658a2.313,2.313,0,1,1,0-4.626h3.658a2.476,2.476,0,0,0,1.535-.531,2.313,2.313,0,0,1,2.84,3.651,7.065,7.065,0,0,1-4.375,1.506" transform="translate(406.08 173.909)" fill="#fff"/>
    <path id="Path_113" data-name="Path 113" d="M1207.493,276.246a2.313,2.313,0,0,1-2.31-2.309v-3.479a2.309,2.309,0,1,1,4.619,0v3.479a2.312,2.312,0,0,1-2.309,2.309" transform="translate(447.338 169.202)" fill="#fff"/>
    <path id="Path_114" data-name="Path 114" d="M1215.16,385.728h-3.471a2.313,2.313,0,0,1,0-4.626h3.471a2.313,2.313,0,0,1,0,4.626" transform="translate(450.846 266.907)" fill="#fff"/>
    <path id="Path_115" data-name="Path 115" d="M1224.151,385.728h-6.842a2.313,2.313,0,1,1,0-4.626h6.842a2.313,2.313,0,0,1,0,4.626Zm13.685,0h-6.842a2.313,2.313,0,0,1,0-4.626h6.842a2.313,2.313,0,0,1,0,4.626Zm13.692,0h-6.842a2.313,2.313,0,0,1,0-4.626h6.842a2.313,2.313,0,0,1,0,4.626Zm13.685,0h-6.842a2.313,2.313,0,0,1,0-4.626h6.842a2.313,2.313,0,0,1,0,4.626Zm13.685,0h-6.842a2.313,2.313,0,0,1,0-4.626h6.842a2.313,2.313,0,0,1,0,4.626Zm13.692,0h-6.842a2.313,2.313,0,1,1,0-4.626h6.842a2.313,2.313,0,0,1,0,4.626Zm13.455,1.018a2.277,2.277,0,0,1-1.413-.495,2.489,2.489,0,0,0-1.542-.524h-3.651a2.313,2.313,0,1,1,0-4.626h3.651a7.072,7.072,0,0,1,4.375,1.5,2.317,2.317,0,0,1-1.42,4.146Zm1.865,13.111a2.308,2.308,0,0,1-2.309-2.309V390.7a2.309,2.309,0,1,1,4.619,0v6.849A2.308,2.308,0,0,1,1307.908,399.857Zm0,13.7a2.308,2.308,0,0,1-2.309-2.309V404.4a2.309,2.309,0,1,1,4.619,0v6.849a2.308,2.308,0,0,1-2.31,2.309" transform="translate(455.535 267.057)" fill="#fff"/>
    <path id="Path_116" data-name="Path 116" d="M1266.649,408.1a2.314,2.314,0,0,1-2.309-2.317v-3.471a2.309,2.309,0,1,1,4.619,0v3.471a2.314,2.314,0,0,1-2.309,2.317" transform="translate(496.794 283.129)" fill="#fff"/>
    <path id="Path_117" data-name="Path 117" d="M1343.3,382.941a2.974,2.974,0,0,1-2.912-2.926c-.294-16.381-5.4-97.736-76.987-114.734-79.7-18.928-116.169,62.183-116.169,62.183s-98.611-37.855-117.525,63.546c-61.825,14.847-77.89,95.663-37.676,135.154a34.57,34.57,0,0,0,23.905,9.9l387.215,3.493a25.513,25.513,0,0,0,24.672-18.246c12.092-40.86,27.943-135.727-84.525-138.367" transform="translate(250.69 164.411)" fill="#74767b"/>
    <path id="Path_118" data-name="Path 118" d="M1329.292,380.263a2.981,2.981,0,0,1-2.9-2.919c-.323-15.714-5.379-91.152-72.8-106.967-75.359-17.672-109.85,58.074-109.85,58.074s-93.239-35.345-111.12,59.336c-57.9,13.742-73.358,87.9-36.707,125.141a34.575,34.575,0,0,0,24.328,10.328l364.515,3.242a25.492,25.492,0,0,0,24.687-18.318c11.368-38.8,24.859-125.407-80.15-127.917" transform="translate(255.843 168.831)" fill="#c6c9d3"/>
    <path id="Path_119" data-name="Path 119" d="M1094.588,318.344l-8.915,15.463-15.22-8.1,2.675,10,15.212,8.1,8.915-15.456-2.668-10" transform="translate(334.697 213.17)" fill="#fff"/>
    <path id="Path_120" data-name="Path 120" d="M1191.635,319.753l-11.712-4.719a49.229,49.229,0,0,0-12.322-11.382c-23.934-15.571-57.163-8.341-74.053,16.116a53.434,53.434,0,0,0-9.647,33.638,52.021,52.021,0,0,0,.861,6.864,3.826,3.826,0,0,1-2.926,4.382,3.493,3.493,0,0,1-4.3-2.69q-.473-2.485-.746-4.978a60.707,60.707,0,0,1,10.751-41.133c19.229-27.835,57.048-36.069,84.31-18.339a56.786,56.786,0,0,1,9.223,7.473,55.84,55.84,0,0,1,10.565,14.768" transform="translate(339.709 187.394)" fill="#fff"/>
    <path id="Path_121" data-name="Path 121" d="M1137.395,337.842l8.922-15.456,15.212,8.1-2.676-10-15.212-8.1-8.915,15.456,2.668,9.991" transform="translate(388.432 208.065)" fill="#fff"/>
    <path id="Path_122" data-name="Path 122" d="M1184.6,363.627c-19.229,27.843-57.055,36.069-84.31,18.339a56.8,56.8,0,0,1-9.224-7.466,55.8,55.8,0,0,1-10.371-14.388l12.394,5.444a49.257,49.257,0,0,0,11.44,10.271c23.948,15.571,57.163,8.349,74.06-16.109a53.466,53.466,0,0,0,9.647-33.645,51.842,51.842,0,0,0-.868-6.857,3.844,3.844,0,0,1,2.933-4.389,3.493,3.493,0,0,1,4.3,2.69q.473,2.485.753,4.978a60.7,60.7,0,0,1-10.751,41.133" transform="translate(343.262 210.241)" fill="#fff"/>
    <path id="Path_123" data-name="Path 123" d="M1290.27,420.5a7.375,7.375,0,0,1,6.4-2.962,6.12,6.12,0,0,1,4.841,4.461c31.178,92.386-24.5,164.918-46.555,188.945-1.972,2.145-4.461,3.084-6.692,2.532s-3.909-2.546-4.533-5.336c-21.28-95.964,27.118-164.725,46.541-187.64" transform="translate(475.131 301.378)" fill="#979aa0"/>
    <path id="Path_124" data-name="Path 124" d="M1292.589,424.447q-1.538,11.275-3.479,22.442-1.872,11.2-4.052,22.342c-2.883,14.854-6.2,29.628-9.812,44.339l-2.8,11c-.961,3.665-2.016,7.294-3.02,10.952l-1.528,5.465-3.313,10.873c-.567,1.807-1.076,3.636-1.7,5.422l-3.615,10.78-.9,2.7-.99,2.661-1.979,5.336-1.972,5.336-.495,1.334-.538,1.32-1.083,2.625-4.353,10.529a1.569,1.569,0,0,1-2.9-1.2l.015-.029.029-.05q9.2-20.624,16.453-42.1c.645-1.772,1.169-3.586,1.757-5.379l1.714-5.394,1.721-5.393,1.592-5.429c1.047-3.629,2.145-7.244,3.149-10.888l2.941-10.93c3.808-14.624,7.172-29.356,10.192-44.16,3-14.811,5.688-29.7,7.782-44.647v-.007a.6.6,0,0,1,.674-.516.607.607,0,0,1,.516.674" transform="translate(479.734 305.047)" fill="#c6c9d3"/>
    <path id="Path_125" data-name="Path 125" d="M1273.1,459.717a.659.659,0,0,1-.8.108c-7.409-4.368-13.556-22.542-13.814-23.31a.652.652,0,0,1,.416-.839.658.658,0,0,1,.832.416c.057.186,6.247,18.476,13.233,22.593a.656.656,0,0,1,.237.9.448.448,0,0,1-.1.129" transform="translate(491.862 313.807)" fill="#c6c9d3"/>
    <path id="Path_126" data-name="Path 126" d="M1281.6,444.8A65.7,65.7,0,0,1,1266.77,455.6a.655.655,0,0,1-.89-.28.666.666,0,0,1,.287-.9c.108-.05,11.1-5.788,17.056-13.462a.642.642,0,0,1,.925-.115.654.654,0,0,1,.115.925,35.131,35.131,0,0,1-2.661,3.02" transform="translate(498.022 318.082)" fill="#c6c9d3"/>
    <path id="Path_127" data-name="Path 127" d="M1268.632,482.787a.662.662,0,0,1-.9.043c-10.558-8.879-14.926-25.454-15.1-26.157a.653.653,0,0,1,.473-.8.66.66,0,0,1,.8.473c.043.165,4.447,16.876,14.682,25.476a.66.66,0,0,1,.079.932l-.036.036" transform="translate(486.986 331.167)" fill="#c6c9d3"/>
    <path id="Path_128" data-name="Path 128" d="M1283.42,465.9c-10.644,10.837-21.316,12.308-21.8,12.365a.658.658,0,1,1-.172-1.305c.122-.022,12.58-1.75,23.712-14.933a.66.66,0,0,1,.932-.079.666.666,0,0,1,.072.932c-.911,1.076-1.829,2.087-2.747,3.02" transform="translate(493.895 336.177)" fill="#c6c9d3"/>
    <path id="Path_129" data-name="Path 129" d="M1279.276,491.219c-11.045,11.232-26.05,16.711-26.207,16.769a.662.662,0,0,1-.444-1.248c.15-.05,14.882-5.437,25.705-16.446a.66.66,0,0,1,.94-.007.672.672,0,0,1,.007.932" transform="translate(486.634 360.468)" fill="#c6c9d3"/>
    <path id="Path_130" data-name="Path 130" d="M1260.06,513.307l-.007.014a.667.667,0,0,1-.94-.014,65.719,65.719,0,0,1-14.969-28.969.653.653,0,0,1,.5-.789.669.669,0,0,1,.789.509,64.3,64.3,0,0,0,14.624,28.323.662.662,0,0,1,0,.925" transform="translate(479.894 354.952)" fill="#c6c9d3"/>
    <path id="Path_131" data-name="Path 131" d="M1359.635,450.819c3.127-1.936,6.484-2.338,9.08-1.1s4.146,3.988,4.182,7.438c1.607,126.454-96.036,193.7-132.837,214.522-3.292,1.858-6.735,2.023-9.259.452s-3.823-4.7-3.479-8.392c12.042-126.92,99.2-192.41,132.313-212.922" transform="translate(465.798 327.733)" fill="#a8abb2"/>
    <path id="Path_132" data-name="Path 132" d="M1360.874,458.059c-2.13,4.432-4.31,8.822-6.527,13.2l-3.328,6.563-3.4,6.52q-6.788,13.071-13.936,25.935c-9.5,17.17-19.494,34.068-29.829,50.751l-7.875,12.444c-2.646,4.131-5.4,8.191-8.1,12.293l-4.074,6.14-4.217,6.032-4.217,6.039c-1.42,2-2.783,4.052-4.267,6l-8.772,11.841-2.195,2.962-2.288,2.883-9.145,11.569-1.14,1.449-1.191,1.406-2.4,2.811-9.575,11.225a1.681,1.681,0,1,1-2.554-2.187l.014-.029.043-.043q19.58-21.807,37.066-45.443c1.506-1.929,2.876-3.959,4.318-5.939l4.26-5.974,4.267-5.975,4.131-6.075c2.733-4.059,5.53-8.083,8.212-12.178l7.983-12.329q15.772-24.8,30.173-50.442c9.589-17.084,18.834-34.391,27.391-52.006V457.5a.643.643,0,0,1,.861-.3.65.65,0,0,1,.308.861" transform="translate(469.285 334.522)" fill="#c6c9d3"/>
    <path id="Path_133" data-name="Path 133" d="M1290.85,502.406a.725.725,0,0,1-.624-.229c-7.366-8.313-7.7-33.143-7.7-34.19a.706.706,0,1,1,1.413-.014c0,.251.337,25.347,7.352,33.258a.713.713,0,0,1-.057,1,.734.734,0,0,1-.38.172" transform="translate(511.997 341.038)" fill="#c6c9d3"/>
    <path id="Path_134" data-name="Path 134" d="M1287.426,491.572a.712.712,0,0,1-.8-.588.721.721,0,0,1,.588-.818c.158-.021,16.023-2.7,26.473-9.819a.726.726,0,0,1,.99.186.714.714,0,0,1-.194.99c-10.708,7.287-26.881,10.02-27.039,10.048h-.022" transform="translate(515.422 351.947)" fill="#c6c9d3"/>
    <path id="Path_135" data-name="Path 135" d="M1276.167,529.089a.705.705,0,0,1-.7-.323c-9.467-15.133-8.191-38.006-8.176-38.235a.7.7,0,1,1,1.406.093c-.014.215-1.248,22.643,7.976,37.389a.71.71,0,0,1-.23.975.771.771,0,0,1-.28.1" transform="translate(499.211 360.479)" fill="#c6c9d3"/>
    <path id="Path_136" data-name="Path 136" d="M1284.214,516.129c-.359.05-.7.093-1.047.129a39.311,39.311,0,0,1-10.794-.029.711.711,0,0,1-.567-.832.7.7,0,0,1,.825-.567c.165.029,16.274,2.883,35.316-8.965a.71.71,0,1,1,.753,1.2,62.3,62.3,0,0,1-24.486,9.058" transform="translate(503.026 375.177)" fill="#c6c9d3"/>
    <path id="Path_137" data-name="Path 137" d="M1257.677,548.424c-4.519.61-7.409.717-7.481.717a.707.707,0,1,1-.043-1.413c.2-.007,20.555-.767,38.343-10.034a.7.7,0,0,1,.954.3.714.714,0,0,1-.294.954c-11.39,5.931-23.79,8.434-31.479,9.474" transform="translate(484.357 401.81)" fill="#c6c9d3"/>
    <path id="Path_138" data-name="Path 138" d="M1253.543,563.318a.7.7,0,0,1-.724-.387,85.114,85.114,0,0,1-6.907-41.649.714.714,0,0,1,1.42.143,83.539,83.539,0,0,0,6.749,40.875.71.71,0,0,1-.316.954.611.611,0,0,1-.222.065" transform="translate(481.083 387.626)" fill="#c6c9d3"/>
    <path id="Path_139" data-name="Path 139" d="M1066.566,500.2l-9.417,84.5h109.219l-14.23-84.5h-85.572" transform="translate(323.573 370.527)" fill="#48494b"/>
    <path id="Path_140" data-name="Path 140" d="M958.773,393.634v199.13a30.191,30.191,0,0,0,29.4,30.2c72.676,1.879,326.853,6.426,396.029,5.408a22.223,22.223,0,0,0,21.868-21.6c1.334-46.268,3.5-157.51-4.519-209.15a22.857,22.857,0,0,0-21.854-19.365c-60.892-1.951-330.332-8.141-399.479-6.584a21.944,21.944,0,0,0-21.445,21.954" transform="translate(241.327 260.649)" fill="#333435"/>
    <path id="Path_141" data-name="Path 141" d="M965.57,389.137v189.2a17.5,17.5,0,0,0,17.228,17.5l385.766,4.77a17.03,17.03,0,0,0,17.278-16.97l.645-187.5a12.453,12.453,0,0,0-12.143-12.5l-394.96-7.99a13.5,13.5,0,0,0-13.814,13.491" transform="translate(247.01 263.91)" fill="#f3d33f"/>
    <path id="Path_142" data-name="Path 142" d="M1389.028,506.284h-.014l-423.169-7.215a.621.621,0,0,1,.022-1.241l423.169,7.215a.619.619,0,0,1,.609.631.611.611,0,0,1-.617.61" transform="translate(246.729 367.013)" fill="#5c5e61"/>
    <path id="Path_143" data-name="Path 143" d="M1205.375,566.419H1045.527c-4.339,0-7.6-3.1-6.763-6.419l2.051-8.119c.617-2.439,3.3-4.232,6.491-4.332l154.1-4.812c3.328-.108,6.276,1.664,7.007,4.2l3.694,12.931c.961,3.357-2.317,6.548-6.728,6.548" transform="translate(308.091 406.091)" fill="#333435"/>
    <path id="Path_144" data-name="Path 144" d="M1386.776,403.58l.022-7.387a12.494,12.494,0,0,0-12.143-12.537l-395.3-8A13.772,13.772,0,0,0,965.2,389.128V403.58h421.577" transform="translate(246.699 262.357)" fill="#f3d33f"/>
    <path id="Path_145" data-name="Path 145" d="M985.889,386.62a6.573,6.573,0,1,1-6.57-6.577,6.575,6.575,0,0,1,6.57,6.577" transform="translate(253.006 266.044)" fill="#f7f0cd"/>
    <path id="Path_146" data-name="Path 146" d="M1007.666,386.62a6.573,6.573,0,1,1-6.577-6.577,6.581,6.581,0,0,1,6.577,6.577" transform="translate(271.214 266.044)" fill="#f7f0cd"/>
    <path id="Path_147" data-name="Path 147" d="M996.627,386.62a6.573,6.573,0,1,1-6.57-6.577,6.575,6.575,0,0,1,6.57,6.577" transform="translate(261.984 266.044)" fill="#f7f0cd"/>
    <path id="Path_148" data-name="Path 148" d="M1217.381,477.715H976.817a6.038,6.038,0,0,1-6.032-6.039V403.152a6.038,6.038,0,0,1,6.032-6.039h240.564a6.033,6.033,0,0,1,6.032,6.039v68.524a6.033,6.033,0,0,1-6.032,6.039" transform="translate(251.37 281.126)" fill="#faecac"/>
    <path id="Path_149" data-name="Path 149" d="M1245.848,450.789H1120.671a7.187,7.187,0,0,1-7.187-7.194V404.163a7.187,7.187,0,0,1,7.187-7.194h125.177a7.192,7.192,0,0,1,7.187,7.194V443.6a7.192,7.192,0,0,1-7.187,7.194" transform="translate(370.671 280.814)" fill="#faecac"/>
    <path id="Path_150" data-name="Path 150" d="M1252.8,478.548l-139.013-3.6V436.612a7.314,7.314,0,0,1,7.309-7.323H1246.02a7.32,7.32,0,0,1,7.316,7.323v39.182a7.338,7.338,0,0,1-.538,2.754" transform="translate(370.923 308.544)" fill="#faecac"/>
    <path id="Path_151" data-name="Path 151" d="M1161.409,526.875H977.42a6.936,6.936,0,0,1-6.936-6.936V453.216a6.938,6.938,0,0,1,6.936-6.943h238.764a6.938,6.938,0,0,1,6.936,6.943v7.258l-47.688-1.234c-.129,0-.258-.007-.387-.007a14.884,14.884,0,0,0-14.876,15.234l1.241,52.407" transform="translate(251.118 323.414)" fill="#faecac"/>
    <path id="Path_152" data-name="Path 152" d="M1078.177,654.075a5.92,5.92,0,0,0,5.9,5.9h319.136a5.915,5.915,0,0,0,5.9-5.9l2.654-183.559c0-3.242-3.816-9.575-10.823-9.1l-311.892-8.076a14.879,14.879,0,0,0-15.263,15.22l4.382,185.517" transform="translate(337.478 331.346)" fill="#333435"/>
    <path id="Path_153" data-name="Path 153" d="M1066.439,581.521h367.535a4.371,4.371,0,0,0,4.353-4.361v-7.409a4.371,4.371,0,0,0-4.353-4.361H1066.439a4.377,4.377,0,0,0-4.361,4.361v7.409a4.377,4.377,0,0,0,4.361,4.361" transform="translate(327.685 425.036)" fill="#48494b"/>
    <path id="Path_154" data-name="Path 154" d="M1081.378,645.221a5.609,5.609,0,0,0,5.587,5.594H1392.9a5.608,5.608,0,0,0,5.58-5.594l2.51-166.626c-.294-10.027-9.08-13.634-14.409-13.419l-298.917-8.026a10.455,10.455,0,0,0-10.73,10.7l4.447,177.369" transform="translate(340.105 334.534)" fill="#f3d33f"/>
    <path id="Path_155" data-name="Path 155" d="M1265.467,547H1091.024a6.039,6.039,0,0,1-6.039-6.039V490.067a6.033,6.033,0,0,1,6.039-6.032h174.443a6.033,6.033,0,0,1,6.039,6.032v50.894a6.039,6.039,0,0,1-6.039,6.039" transform="translate(346.843 355.707)" fill="#faecac"/>
    <path id="Path_156" data-name="Path 156" d="M1286.182,525.962h-88.656a7.185,7.185,0,0,1-7.187-7.187V491.112a7.192,7.192,0,0,1,7.187-7.194h88.656a7.192,7.192,0,0,1,7.187,7.194v27.663a7.186,7.186,0,0,1-7.187,7.187" transform="translate(434.926 355.396)" fill="#faecac"/>
    <path id="Path_157" data-name="Path 157" d="M1286.276,551.216h-88.4a7.313,7.313,0,0,1-7.308-7.316V516.488a7.312,7.312,0,0,1,7.308-7.316h88.4a7.319,7.319,0,0,1,7.316,7.316V543.9a7.319,7.319,0,0,1-7.316,7.316" transform="translate(435.112 378.032)" fill="#faecac"/>
    <path id="Path_158" data-name="Path 158" d="M1285.082,576.473H1199.5a8.728,8.728,0,0,1-8.721-8.729V543.158a8.73,8.73,0,0,1,8.721-8.736h85.579a8.731,8.731,0,0,1,8.729,8.736v24.586a8.73,8.73,0,0,1-8.729,8.729" transform="translate(435.295 399.143)" fill="#faecac"/>
    <path id="Path_159" data-name="Path 159" d="M1264.344,585.41h-172.65a6.931,6.931,0,0,1-6.928-6.943V529.38a6.931,6.931,0,0,1,6.928-6.943h172.65a6.938,6.938,0,0,1,6.935,6.943v49.087a6.938,6.938,0,0,1-6.935,6.943" transform="translate(346.66 389.123)" fill="#faecac"/>
    <path id="Path_160" data-name="Path 160" d="M1400.757,491.96l.23-14.359c-.294-9.568-9.08-13-14.409-12.8l-298.917-7.66a10.739,10.739,0,0,0-7.66,2.912,9.753,9.753,0,0,0-3.07,7.287l.653,24.615h323.174" transform="translate(340.105 332.343)" fill="#f3d33f"/>
    <path id="Path_161" data-name="Path 161" d="M1095.077,470.288a6.57,6.57,0,1,1-6.57-6.577,6.57,6.57,0,0,1,6.57,6.577" transform="translate(344.298 337.798)" fill="#f7f0cd"/>
    <path id="Path_162" data-name="Path 162" d="M1116.858,470.288a6.573,6.573,0,1,1-6.57-6.577,6.57,6.57,0,0,1,6.57,6.577" transform="translate(362.502 337.798)" fill="#f7f0cd"/>
    <path id="Path_163" data-name="Path 163" d="M1105.823,470.288a6.573,6.573,0,1,1-6.577-6.577,6.572,6.572,0,0,1,6.577,6.577" transform="translate(353.276 337.798)" fill="#f7f0cd"/>
  </g>
</svg>
