<svg xmlns="http://www.w3.org/2000/svg" xmlns:xlink="http://www.w3.org/1999/xlink" width="642.665" height="644.534" viewBox="0 0 642.665 644.534">
  <defs>
    <clipPath id="clip-path">
      <path id="Path_57" data-name="Path 57" d="M784.152,617.625h91.309v49.539H784.152Zm0,0"/>
    </clipPath>
    <clipPath id="clip-path-2">
      <path id="Path_56" data-name="Path 56" d="M852.816,621.684c-12.828-8.93-27.363,0-27.363,0-17.156,11.227-29.848,16-39.207,16.563a47.579,47.579,0,0,0,.793,28.816c19.223-4.133,32.969-18.043,38.945-25.184a6.2,6.2,0,0,1,8.59-.941c2.668,2.109,5.262,5,4.793,8.043-.93,6,6.031,7.9,6.555,5.73s-2.379-15.074-2.379-15.074,13.914,14,19.344,19.379,12.262,0,12.262,0S865.648,630.609,852.816,621.684Zm0,0"/>
    </clipPath>
    <clipPath id="clip-path-3">
      <path id="Path_55" data-name="Path 55" d="M852.816,621.684c-12.828-8.93-27.363,0-27.363,0-17.156,11.227-29.848,16-39.207,16.563a47.579,47.579,0,0,0,.793,28.816c19.223-4.133,32.969-18.043,38.945-25.184a6.2,6.2,0,0,1,8.59-.941c2.668,2.109,5.262,5,4.793,8.043-.93,6,6.031,7.9,6.555,5.73s-2.379-15.074-2.379-15.074,13.914,14,19.344,19.379,12.262,0,12.262,0-9.5-28.406-22.332-37.332"/>
    </clipPath>
    <clipPath id="clip-path-4">
      <path id="Path_54" data-name="Path 54" d="M891.766,661.379l-26.234-76.766-98.895,33.824,26.234,76.77Zm0,0"/>
    </clipPath>
    <linearGradient id="linear-gradient" x1="-6.343" y1="-5.608" x2="-6.334" y2="-5.608" gradientUnits="objectBoundingBox">
      <stop offset="0" stop-color="#fff"/>
      <stop offset="0.063" stop-color="#fff"/>
      <stop offset="0.125" stop-color="#fefefe"/>
      <stop offset="0.156" stop-color="#fdfdfe"/>
      <stop offset="0.188" stop-color="#fdfdfd"/>
      <stop offset="0.25" stop-color="#fcfcfd"/>
      <stop offset="0.313" stop-color="#fbfbfc"/>
      <stop offset="0.344" stop-color="#fafafc"/>
      <stop offset="0.375" stop-color="#fafafb"/>
      <stop offset="0.438" stop-color="#f9f9fb"/>
      <stop offset="0.5" stop-color="#f8f8fa"/>
      <stop offset="0.531" stop-color="#f8f8fa"/>
      <stop offset="0.563" stop-color="#f7f7f9"/>
      <stop offset="0.578" stop-color="#f7f7f9"/>
      <stop offset="0.594" stop-color="#f6f6f9"/>
      <stop offset="0.625" stop-color="#f6f6f8"/>
      <stop offset="0.688" stop-color="#f5f5f8"/>
      <stop offset="0.719" stop-color="#f4f4f8"/>
      <stop offset="0.75" stop-color="#f4f4f7"/>
      <stop offset="0.813" stop-color="#f3f3f7"/>
      <stop offset="0.875" stop-color="#f2f2f6"/>
      <stop offset="0.906" stop-color="#f1f1f6"/>
      <stop offset="0.938" stop-color="#f1f1f5"/>
      <stop offset="1" stop-color="#f0f0f5"/>
    </linearGradient>
    <clipPath id="clip-path-5">
      <path id="Path_63" data-name="Path 63" d="M697.762,480h60.4v56.816h-60.4Zm0,0"/>
    </clipPath>
    <clipPath id="clip-path-6">
      <path id="Path_62" data-name="Path 62" d="M724.727,480.215,700.07,510.121a9.816,9.816,0,0,0-1.3,10.555c3.422,6.984,11.543,17.156,29.551,15.746a15.136,15.136,0,0,0,12.445-8.492l17.242-35.652Zm0,0"/>
    </clipPath>
    <clipPath id="clip-path-7">
      <path id="Path_61" data-name="Path 61" d="M724.727,480.215,700.07,510.121a9.816,9.816,0,0,0-1.3,10.555c3.422,6.984,11.543,17.156,29.551,15.746a15.136,15.136,0,0,0,12.445-8.492l17.242-35.652-33.285-12.062"/>
    </clipPath>
    <clipPath id="clip-path-8">
      <path id="Path_60" data-name="Path 60" d="M676.09,528.746l72.313,31.3L779,489.3,706.688,458Zm0,0"/>
    </clipPath>
    <linearGradient id="linear-gradient-2" x1="-6.671" y1="-4.558" x2="-6.663" y2="-4.558" gradientUnits="objectBoundingBox">
      <stop offset="0" stop-color="#fdfdfd"/>
      <stop offset="0.031" stop-color="#fcfcfd"/>
      <stop offset="0.063" stop-color="#fcfcfd"/>
      <stop offset="0.125" stop-color="#fbfbfd"/>
      <stop offset="0.156" stop-color="#fbfbfc"/>
      <stop offset="0.188" stop-color="#fbfbfc"/>
      <stop offset="0.219" stop-color="#fafafb"/>
      <stop offset="0.25" stop-color="#fafafb"/>
      <stop offset="0.313" stop-color="#f9f9fb"/>
      <stop offset="0.375" stop-color="#f8f8fa"/>
      <stop offset="0.438" stop-color="#f7f7fa"/>
      <stop offset="0.5" stop-color="#f7f7f9"/>
      <stop offset="0.563" stop-color="#f6f6f9"/>
      <stop offset="0.594" stop-color="#f6f6f9"/>
      <stop offset="0.625" stop-color="#f5f5f8"/>
      <stop offset="0.656" stop-color="#f5f5f8"/>
      <stop offset="0.688" stop-color="#f4f4f7"/>
      <stop offset="0.719" stop-color="#f4f4f7"/>
      <stop offset="0.75" stop-color="#f3f3f7"/>
      <stop offset="0.813" stop-color="#f2f2f7"/>
      <stop offset="0.875" stop-color="#f1f1f6"/>
      <stop offset="0.938" stop-color="#f1f1f6"/>
      <stop offset="0.969" stop-color="#f1f1f5"/>
      <stop offset="1" stop-color="#f0f0f5"/>
    </linearGradient>
    <clipPath id="clip-path-9">
      <path id="Path_69" data-name="Path 69" d="M548.859,623H734.988v57H548.859Zm0,0"/>
    </clipPath>
    <clipPath id="clip-path-10">
      <path id="Path_68" data-name="Path 68" d="M676.137,624.164s-69.836,27.121-86.879,6.719a11.418,11.418,0,0,1-2.332-4.68c-11.457,5.691-27.777,18.34-38.02,45.918,36.727,23.477,99.5-13.062,116.48-23.836a12.657,12.657,0,0,1,9.379-1.723c6.547,1.359,17.859,3.359,23.953,2.418,8.926-1.379,21.742,30.117,36.207,20.4C734.926,669.383,722.539,614.645,676.137,624.164Zm0,0"/>
    </clipPath>
    <clipPath id="clip-path-11">
      <path id="Path_67" data-name="Path 67" d="M676.137,624.164s-69.836,27.121-86.879,6.719a11.418,11.418,0,0,1-2.332-4.68c-11.457,5.691-27.777,18.34-38.02,45.918,36.727,23.477,99.5-13.062,116.48-23.836a12.657,12.657,0,0,1,9.379-1.723c6.547,1.359,17.859,3.359,23.953,2.418,8.926-1.379,21.742,30.117,36.207,20.4,0,0-12.387-54.738-58.789-45.219"/>
    </clipPath>
    <clipPath id="clip-path-12">
      <path id="Path_74" data-name="Path 74" d="M731.828,428.6h46.707v74.133H731.828Zm0,0"/>
    </clipPath>
    <clipPath id="clip-path-13">
      <path id="Path_73" data-name="Path 73" d="M778.375,436.289c.25.961-5.773,66.332-5.773,66.332l-37.242-4.234-3.488-62.812S774.227,420.2,778.375,436.289Zm0,0"/>
    </clipPath>
    <clipPath id="clip-path-14">
      <path id="Path_72" data-name="Path 72" d="M778.375,436.289c.25.961-5.773,66.332-5.773,66.332l-37.242-4.234-3.488-62.812s42.355-15.379,46.5.715"/>
    </clipPath>
    <clipPath id="clip-path-15">
      <path id="Path_71" data-name="Path 71" d="M691.895,471.352l69,53.969,57.715-73.855-69-53.969Zm0,0"/>
    </clipPath>
    <linearGradient id="linear-gradient-3" x1="-5.881" y1="-3.402" x2="-5.874" y2="-3.402" gradientUnits="objectBoundingBox">
      <stop offset="0" stop-color="#fff"/>
      <stop offset="0.5" stop-color="#fff"/>
      <stop offset="1" stop-color="#fff"/>
    </linearGradient>
    <clipPath id="clip-path-16">
      <path id="Path_80" data-name="Path 80" d="M709,458h18.965v26.113H709Zm0,0"/>
    </clipPath>
    <clipPath id="clip-path-17">
      <path id="Path_79" data-name="Path 79" d="M726.238,482.879s4.637-19.484-2.746-23.324-17.3-.336-13.57,13.008C714.566,489.152,726.238,482.879,726.238,482.879Zm0,0"/>
    </clipPath>
    <clipPath id="clip-path-18">
      <path id="Path_78" data-name="Path 78" d="M726.238,482.879s4.637-19.484-2.746-23.324-17.3-.336-13.57,13.008c4.645,16.59,16.316,10.316,16.316,10.316"/>
    </clipPath>
    <clipPath id="clip-path-19">
      <path id="Path_77" data-name="Path 77" d="M694.008,483.879l32.977,14.273,16.07-37.16-32.973-14.273Zm0,0"/>
    </clipPath>
    <linearGradient id="linear-gradient-4" x1="-18.307" y1="-11.221" x2="-18.298" y2="-11.221" gradientUnits="objectBoundingBox">
      <stop offset="0" stop-color="#f4f4f7"/>
      <stop offset="0.125" stop-color="#f3f3f7"/>
      <stop offset="0.25" stop-color="#f3f3f7"/>
      <stop offset="0.375" stop-color="#f2f2f6"/>
      <stop offset="0.5" stop-color="#f1f1f6"/>
      <stop offset="0.625" stop-color="#f0f0f5"/>
      <stop offset="0.75" stop-color="#f0f0f5"/>
      <stop offset="1" stop-color="#f0f0f4"/>
    </linearGradient>
  </defs>
  <g id="Group_20" data-name="Group 20" transform="translate(-437.182 -67.334)">
    <path id="Path_4" data-name="Path 4" d="M1047.539,501.977c-61.809,145.6-226.449,227.168-369.23,205.164-23.234-3.586-86.93-14.246-143.32-64.559-108.559-96.855-131.773-288.645-44.2-423.8C554.52,120.41,668.773,64.648,777.34,67.434c23.383.605,113,4.3,191.766,69.277a295.455,295.455,0,0,1,60.074,68.2c54,84.48,58.641,202.176,18.359,297.066" fill="#efeff4"/>
    <path id="Path_5" data-name="Path 5" d="M974.543,214.75a2.772,2.772,0,0,1-.5-.047,2.586,2.586,0,0,1-.277-.066,2.719,2.719,0,0,1-1.82-3.375c.832-2.785,1.559-5.652,2.148-8.516a2.718,2.718,0,0,1,2.652-2.16,3.173,3.173,0,0,1,.5.043l.051.012a2.716,2.716,0,0,1,2.1,3.207c-.625,3.016-1.383,6.031-2.262,8.969a2.715,2.715,0,0,1-2.6,1.934m4.2-23.25c-.062,0-.125,0-.18,0a2.83,2.83,0,0,1-.324-.039,2.723,2.723,0,0,1-2.2-2.852c.2-2.914.277-5.867.227-8.777a2.716,2.716,0,0,1,2.668-2.758h.031a2.714,2.714,0,0,1,2.723,2.668c.047,3.063-.027,6.168-.238,9.238a2.713,2.713,0,0,1-2.7,2.523M977.7,167.91a2.323,2.323,0,0,1-.5-.047,2.708,2.708,0,0,1-2.18-2.238c-.449-2.887-1.035-5.781-1.738-8.609a2.718,2.718,0,0,1,1.984-3.285,2.62,2.62,0,0,1,.645-.078,2.708,2.708,0,0,1,2.633,2.063c.738,2.98,1.355,6.031,1.836,9.063a2.712,2.712,0,0,1-2.258,3.1,2.291,2.291,0,0,1-.426.035" fill="#e3e4ea"/>
    <path id="Path_6" data-name="Path 6" d="M973.539,140.453c-1.641-1.414-3.129-2.664-4.437-3.742-1.328-1.1-2.668-2.18-4-3.246a2.706,2.706,0,0,1,5.02-.477c1.23,2.438,2.379,4.941,3.418,7.465" fill="#eeeff2"/>
    <path id="Path_7" data-name="Path 7" d="M971.418,145.137a2.408,2.408,0,0,1-.5-.047,2.705,2.705,0,0,1-2.016-1.652c-1.086-2.707-2.3-5.4-3.617-8a2.691,2.691,0,0,1-.184-1.969c1.332,1.063,2.672,2.145,4,3.246,1.313,1.082,2.8,2.324,4.441,3.742.129.32.262.641.391.965a2.709,2.709,0,0,1-1.5,3.523,2.661,2.661,0,0,1-1.012.2" fill="#e3e4ea"/>
    <path id="Path_8" data-name="Path 8" d="M960.227,124.34a2.71,2.71,0,0,1-2.23-1.168c-1.66-2.395-3.441-4.75-5.3-7a2.71,2.71,0,0,1,.367-3.816,2.676,2.676,0,0,1,1.723-.625,2.714,2.714,0,0,1,2.09.984c1.957,2.375,3.836,4.855,5.578,7.371a2.71,2.71,0,0,1-2.223,4.258m-15.523-17.8a2.347,2.347,0,0,1-.5-.047,2.661,2.661,0,0,1-1.332-.664c-2.148-1.973-4.406-3.871-6.715-5.656a2.708,2.708,0,0,1,1.656-4.855,2.676,2.676,0,0,1,1.652.563c2.43,1.875,4.813,3.879,7.074,5.953a2.713,2.713,0,0,1-1.84,4.707M925.641,92.629a2.966,2.966,0,0,1-.5-.047,2.773,2.773,0,0,1-.848-.309c-2.527-1.445-5.156-2.793-7.8-4.016a2.71,2.71,0,0,1,1.133-5.172,2.737,2.737,0,0,1,1.133.25c2.785,1.281,5.551,2.7,8.215,4.223a2.713,2.713,0,0,1-1.34,5.07m-21.691-9.3a2.433,2.433,0,0,1-.5-.047,2.265,2.265,0,0,1-.281-.066c-2.789-.84-5.652-1.57-8.5-2.168a2.713,2.713,0,0,1,.551-5.367,3.183,3.183,0,0,1,.5.047l.055.016c3,.629,6.016,1.4,8.953,2.277a2.712,2.712,0,0,1-.777,5.309m-45.3-3.719q-5.818-1.629-11.4-2.98a2.533,2.533,0,0,1,.391-.125c2.98-.73,6.031-1.344,9.07-1.816a2.5,2.5,0,0,1,.414-.035,2.715,2.715,0,0,1,1.527,4.957" fill="#eeeff2"/>
    <path id="Path_9" data-name="Path 9" d="M848.289,81.844a2.738,2.738,0,0,1-2.629-2.066,2.712,2.712,0,0,1,1.59-3.152q5.578,1.354,11.4,2.977a2.659,2.659,0,0,1-1.109.438c-2.879.449-5.781,1.031-8.609,1.723a2.6,2.6,0,0,1-.645.082" fill="#e3e4ea"/>
    <path id="Path_10" data-name="Path 10" d="M880.719,79.082c-.062,0-.125,0-.191,0-2.4-.168-4.828-.254-7.242-.254-.516,0-1.023,0-1.535.012h-.043a3.134,3.134,0,0,1-.5-.043,2.714,2.714,0,0,1,.465-5.379c.531-.008,1.059-.012,1.594-.012,2.543,0,5.113.086,7.641.27a2.708,2.708,0,0,1-.184,5.41" fill="#eeeff2"/>
    <path id="Path_11" data-name="Path 11" d="M830.293,88.043a3.005,3.005,0,0,1-.5-.047,2.715,2.715,0,0,1-.613-5.145c1.34-.6,2.711-1.184,4.09-1.734a2.707,2.707,0,0,1,3.523,1.508,2.718,2.718,0,0,1-1.508,3.527c-1.309.523-2.613,1.078-3.883,1.652a2.746,2.746,0,0,1-1.113.238" fill="#e3e4ea"/>
    <path id="Path_12" data-name="Path 12" d="M774.105,148.656a3.163,3.163,0,0,1-.5-.043,2.923,2.923,0,0,1-.418-.117,2.711,2.711,0,0,1-1.633-3.469c.5-1.383,1.027-2.785,1.586-4.152a2.713,2.713,0,0,1,2.508-1.7,2.757,2.757,0,0,1,1.023.2,2.717,2.717,0,0,1,1.492,3.535c-.531,1.3-1.035,2.629-1.5,3.945a2.717,2.717,0,0,1-2.555,1.8" fill="#e3e4ea"/>
    <path id="Path_13" data-name="Path 13" d="M768.344,194.508a2.639,2.639,0,0,1-.5-.051,2.72,2.72,0,0,1-2.2-2.406c-.281-3-.441-6.062-.473-9.082a2.711,2.711,0,0,1,2.684-2.742h.023a2.715,2.715,0,0,1,2.715,2.684c.027,2.871.18,5.773.453,8.625a2.713,2.713,0,0,1-2.441,2.957,1.981,1.981,0,0,1-.266.016m.375-23.238a3.241,3.241,0,0,1-.34-.02c-.059-.008-.113-.02-.172-.027a2.713,2.713,0,0,1-2.184-3c.277-2.2.621-4.43,1.031-6.609.152-.793.3-1.574.473-2.355a2.7,2.7,0,0,1,2.617-2.164,2.415,2.415,0,0,1,.594.07,2.71,2.71,0,0,1,2.094,3.211c-.16.738-.309,1.488-.449,2.238-.391,2.074-.719,4.188-.984,6.285a2.708,2.708,0,0,1-2.68,2.375" fill="#e3e4ea"/>
    <path id="Path_14" data-name="Path 14" d="M932.93,237.012a1.261,1.261,0,0,0,.363-1.422L927.738,221.2a67.231,67.231,0,0,0,10.008-19.332l14.934-3.773a1.26,1.26,0,0,0,.953-1.117l1.566-18.437a1.268,1.268,0,0,0-.746-1.266l-14.09-6.238a67.2,67.2,0,0,0-6.6-20.746l7.9-13.242a1.26,1.26,0,0,0-.121-1.465l-11.918-14.145a1.285,1.285,0,0,0-1.43-.367l-14.379,5.559a67.04,67.04,0,0,0-19.324-10.008l-3.77-14.945a1.269,1.269,0,0,0-1.121-.953l-18.422-1.57a1.276,1.276,0,0,0-1.27.754L863.676,114a67.056,67.056,0,0,0-20.738,6.605L829.7,112.7a1.273,1.273,0,0,0-1.465.117L814.1,124.746a1.256,1.256,0,0,0-.363,1.422l5.547,14.391a67.513,67.513,0,0,0-10,19.332l-14.941,3.77a1.267,1.267,0,0,0-.945,1.125l-1.57,18.434a1.275,1.275,0,0,0,.754,1.266l14.086,6.242a67.286,67.286,0,0,0,6.6,20.738l-7.9,13.246a1.266,1.266,0,0,0,.121,1.469l11.922,14.141a1.257,1.257,0,0,0,1.426.363l14.379-5.555a67.14,67.14,0,0,0,19.324,10.008l3.773,14.949a1.266,1.266,0,0,0,1.117.953l18.426,1.563a1.266,1.266,0,0,0,1.27-.75l6.234-14.09a67.073,67.073,0,0,0,20.734-6.609l13.234,7.906a1.272,1.272,0,0,0,1.473-.121l14.133-11.926" fill="#c6c9d3"/>
    <path id="Path_15" data-name="Path 15" d="M867.27,168.059a14.165,14.165,0,1,0,8.852-1.2A14.16,14.16,0,0,0,867.27,168.059Zm.188,30.4a18.6,18.6,0,0,1-2.078-34.3,18.426,18.426,0,0,1,14.191-.863,18.594,18.594,0,1,1-12.113,35.16" fill="#e8e8ef"/>
    <path id="Path_16" data-name="Path 16" d="M864.766,225.484a45.558,45.558,0,0,0,4.656.633c.492.043.988.078,1.48.1a45.776,45.776,0,0,0,7.32-.2.761.761,0,0,1,.1-.008l.281-.035c.184-.02.363-.043.547-.066a1.074,1.074,0,0,0,.926-.875,1.2,1.2,0,0,0,.012-.336,1.081,1.081,0,0,0-1.215-.937A43.588,43.588,0,0,1,834.7,200.707a43.312,43.312,0,0,1-4.8-23.84c.129-1.5.332-2.984.605-4.441a43.54,43.54,0,1,1,78.117,33.582,1.182,1.182,0,0,0-.187.434,1.088,1.088,0,0,0,1.949.836,45.62,45.62,0,0,0,7.816-18.246,46.356,46.356,0,0,0,.625-4.6,45.7,45.7,0,1,0-54.066,41.055" fill="#e8e8ef"/>
    <path id="Path_17" data-name="Path 17" d="M1052.063,302.047a2.11,2.11,0,0,1-.312-.027,1.639,1.639,0,0,1-.445-.156,1.679,1.679,0,0,1-.738-2.254c.621-1.207,1.207-2.449,1.75-3.691a1.674,1.674,0,0,1,1.535-1.008,1.678,1.678,0,0,1,1.531,2.344c-.57,1.309-1.184,2.609-1.828,3.879a1.678,1.678,0,0,1-1.492.914" fill="#e3e4ea"/>
    <path id="Path_18" data-name="Path 18" d="M1056.828,290.082a1.357,1.357,0,0,1-.309-.031c-.055-.008-.113-.023-.168-.035a1.681,1.681,0,0,1-1.129-2.086,68.988,68.988,0,0,0,1.641-6.832c.1-.48.176-.969.266-1.457a1.664,1.664,0,0,1,1.645-1.4,1.353,1.353,0,0,1,.277.023,1.737,1.737,0,0,1,1.379,1.922c-.09.516-.18,1.027-.273,1.531a72.675,72.675,0,0,1-1.723,7.164,1.68,1.68,0,0,1-1.605,1.2" fill="#e3e4ea"/>
    <path id="Path_19" data-name="Path 19" d="M1060.254,272.824c-.715-2.32-1.457-4.645-2.227-6.949-.031-1.062-.094-2.133-.18-3.2a1.683,1.683,0,0,1,1.531-1.8c.047,0,.09,0,.137,0a1.682,1.682,0,0,1,1.672,1.539,73.748,73.748,0,0,1,.164,8.914,1.674,1.674,0,0,1-1.1,1.5" fill="#eeeff2"/>
    <path id="Path_20" data-name="Path 20" d="M1059.676,272.93c-.02,0-.047,0-.066,0a1.529,1.529,0,0,1-.242-.027A1.682,1.682,0,0,1,1058,271.18c.078-1.762.086-3.535.027-5.3.766,2.3,1.508,4.625,2.223,6.945a1.582,1.582,0,0,1-.578.105" fill="#e3e4ea"/>
    <path id="Path_21" data-name="Path 21" d="M1058.277,255.6a1.921,1.921,0,0,1-.3-.027,1.681,1.681,0,0,1-1.332-1.312,70.506,70.506,0,0,0-2.242-8.2,1.673,1.673,0,0,1,1.043-2.125,1.574,1.574,0,0,1,.543-.094,1.676,1.676,0,0,1,1.582,1.137,72.569,72.569,0,0,1,2.352,8.605,1.694,1.694,0,0,1-1.641,2.016m-5.609-16.461a1.592,1.592,0,0,1-.309-.027,1.674,1.674,0,0,1-1.2-.918,67.474,67.474,0,0,0-4.18-7.4,1.672,1.672,0,0,1,1.41-2.586,1.667,1.667,0,0,1,1.4.758,72.064,72.064,0,0,1,4.379,7.762,1.676,1.676,0,0,1-.77,2.242,1.7,1.7,0,0,1-.73.168m-9.461-14.586a2.066,2.066,0,0,1-.309-.031,1.653,1.653,0,0,1-.973-.57c-1.293-1.543-2.668-3.043-4.1-4.473q-1.031-1.869-2.086-3.711a1.538,1.538,0,0,1,.25-.348,1.673,1.673,0,0,1,2.367-.086,73.731,73.731,0,0,1,6.129,6.465,1.68,1.68,0,0,1-.2,2.359,1.7,1.7,0,0,1-1.082.395" fill="#eeeff2"/>
    <path id="Path_22" data-name="Path 22" d="M1037.828,219.477c-.574-.578-1.16-1.141-1.75-1.691a1.682,1.682,0,0,1-.332-2.023c.7,1.234,1.395,2.469,2.082,3.715M1030.5,212.7a1.688,1.688,0,0,1-.309-.031,1.559,1.559,0,0,1-.668-.289,68.575,68.575,0,0,0-7.176-4.547,1.674,1.674,0,0,1,.813-3.141,1.626,1.626,0,0,1,.8.207,72.2,72.2,0,0,1,7.52,4.77,1.674,1.674,0,0,1-.984,3.031m-15.215-8.375a1.613,1.613,0,0,1-.3-.031,1.766,1.766,0,0,1-.312-.086,67.817,67.817,0,0,0-8.078-2.652,1.674,1.674,0,0,1,.434-3.293,1.7,1.7,0,0,1,.418.051,72.694,72.694,0,0,1,8.465,2.781,1.676,1.676,0,0,1-.621,3.23m-16.816-4.387a1.471,1.471,0,0,1-.223-.02c-.363-.047-.73-.09-1.1-.133a69.129,69.129,0,0,0-7.383-.473,1.488,1.488,0,0,1-.293-.027,1.675,1.675,0,0,1,.309-3.32h.02a73.47,73.47,0,0,1,7.73.488c.387.047.773.094,1.16.148a1.652,1.652,0,0,1,1.434,1.879,1.671,1.671,0,0,1-1.656,1.457" fill="#e3e4ea"/>
    <path id="Path_23" data-name="Path 23" d="M992.176,340.566c-.254-1.109-.508-2.219-.773-3.32.223-.012.453-.02.684-.027a.4.4,0,0,1,.066,0,1.675,1.675,0,0,1,.074,3.348c-.02,0-.035,0-.051,0m8.5-.883a2.014,2.014,0,0,1-.309-.023,1.678,1.678,0,0,1,.035-3.3,68.58,68.58,0,0,0,8.152-1.863,1.77,1.77,0,0,1,.473-.066,1.672,1.672,0,0,1,.473,3.277,72.063,72.063,0,0,1-8.551,1.961,1.639,1.639,0,0,1-.273.02" fill="#e3e4ea"/>
    <path id="Path_24" data-name="Path 24" d="M1017.152,334.824a1.375,1.375,0,0,1-.309-.027,1.661,1.661,0,0,1-1.227-.977,1.679,1.679,0,0,1,.867-2.2c1.258-.547,2.5-1.133,3.7-1.734a1.675,1.675,0,0,1,1.508,2.992c-1.254.633-2.559,1.246-3.875,1.816a1.653,1.653,0,0,1-.664.133" fill="#e3e4ea"/>
    <path id="Path_25" data-name="Path 25" d="M1028.934,305.3a.864.864,0,0,0,.238-.957l-3.715-9.629a44.846,44.846,0,0,0,6.691-12.934l10-2.523a.854.854,0,0,0,.637-.75l1.047-12.34a.844.844,0,0,0-.5-.844l-9.43-4.172a45.021,45.021,0,0,0-4.418-13.883l5.289-8.863a.848.848,0,0,0-.082-.98l-7.977-9.465a.842.842,0,0,0-.953-.242l-9.629,3.715a44.92,44.92,0,0,0-12.926-6.7l-2.523-10a.854.854,0,0,0-.75-.637l-12.332-1.047a.845.845,0,0,0-.844.5l-4.172,9.43a45.031,45.031,0,0,0-13.879,4.418l-8.855-5.289a.861.861,0,0,0-.984.078l-9.457,7.98a.854.854,0,0,0-.246.957l3.719,9.629a44.857,44.857,0,0,0-6.7,12.934l-10,2.523a.854.854,0,0,0-.641.754L934.512,269.3a.845.845,0,0,0,.5.844l9.422,4.176a45.1,45.1,0,0,0,4.418,13.879l-5.289,8.863a.868.868,0,0,0,.082.984l7.98,9.465a.856.856,0,0,0,.953.238l9.625-3.715a44.96,44.96,0,0,0,12.926,6.7l2.523,10a.84.84,0,0,0,.75.633l12.328,1.055a.852.852,0,0,0,.848-.5l4.18-9.437a44.857,44.857,0,0,0,13.867-4.418l8.859,5.289a.848.848,0,0,0,.984-.082l9.461-7.977" fill="#c6c9d3"/>
    <path id="Path_26" data-name="Path 26" d="M980.363,264.7a9.314,9.314,0,1,0,11.844-5.77,9.466,9.466,0,0,0-1.324-.352A9.324,9.324,0,0,0,980.363,264.7Zm4.68,15.016a12.538,12.538,0,1,1,1.813.484,13.977,13.977,0,0,1-1.812-.484" fill="#e8e8ef"/>
    <path id="Path_27" data-name="Path 27" d="M983.168,298.527a31.589,31.589,0,0,0,3.18.43,32.067,32.067,0,0,0,6.422-.1c.1-.012.2-.027.289-.039a1.674,1.674,0,0,0-.426-3.32,28.266,28.266,0,0,1-6,.125c-.113-.008-.223-.023-.332-.031a27.918,27.918,0,0,1-13-4.641,28.547,28.547,0,0,1-5.668-5.051l-.043-.051c-.039-.047-.082-.094-.125-.145a28.035,28.035,0,0,1-6.539-20.566,28.341,28.341,0,0,1,.4-2.879,28.183,28.183,0,0,1,55.77,7.652,27.414,27.414,0,0,1-.383,2.84,28.175,28.175,0,0,1-4.82,11.25,1.831,1.831,0,0,0-.289.668,1.675,1.675,0,0,0,3,1.289A31.439,31.439,0,0,0,1020,273.375a30.935,30.935,0,0,0,.43-3.18,31.533,31.533,0,0,0-62.4-8.559q-.3,1.588-.441,3.215a31.6,31.6,0,0,0,25.574,33.676" fill="#e8e8ef"/>
    <path id="Path_28" data-name="Path 28" d="M440.824,421.289a116.491,116.491,0,0,1,85.891-85.9c29.148-7,57.117-3.242,80.754,8.105a13.763,13.763,0,0,0,19.328-8.926c20.9-81.027,94.441-140.891,181.965-140.891,103.781,0,187.91,84.168,187.91,187.992,0,2.758-.055,6.523-.1,10.137.367,7.762,3.754,11.063,8.816,11.887a83.214,83.214,0,0,1,74.383,79.133c2.039,47.5-36.6,86.848-84.113,86.848H556.137c-75.238,0-134.148-69.945-115.312-148.383" fill="#5c5e61"/>
    <path id="Path_29" data-name="Path 29" d="M474.867,437.18a104,104,0,0,1,76.688-76.7c26.027-6.25,51-2.895,72.1,7.234a12.286,12.286,0,0,0,17.258-7.965,167.866,167.866,0,0,1,162.473-125.8c92.664,0,167.781,75.156,167.781,167.859,0,2.461-.047,5.824-.094,9.047.332,6.934,3.352,9.879,7.871,10.617a74.3,74.3,0,0,1,66.422,70.656c1.816,42.406-32.684,77.539-75.109,77.539H577.828c-67.18,0-119.777-62.449-102.961-132.488" fill="#888b8f"/>
    <path id="Path_30" data-name="Path 30" d="M980.543,357.031a1.158,1.158,0,0,1-1.133-.9c-16.887-74.043-59.883-110.1-92.977-127.316C850.566,210.164,818.34,209,818.02,208.984a1.161,1.161,0,1,1,.066-2.32c.324.008,33.09,1.191,69.414,20.086a172.615,172.615,0,0,1,54.684,44.434c18.664,22.961,31.953,51.371,39.492,84.43a1.167,1.167,0,0,1-.875,1.395,1.152,1.152,0,0,1-.258.023" fill="#888b8f"/>
    <path id="Path_31" data-name="Path 31" d="M852.891,654.711s155.4-251.582,79.32-325.207c-42.512-41.145-130.57-29.875-167.051,5.277V300.395a3.855,3.855,0,0,0-7.484-1.3l-26.328,73.52,60.91,21.582a3.856,3.856,0,0,0,4.262-6.09l-25.328-30.641s215.6-65.934-50.984,267.926l132.684,29.32" fill="#d7d9e0"/>
    <path id="Path_32" data-name="Path 32" d="M713.109,310.328l-83.84-4.363a11.389,11.389,0,0,0-12.117,11.887l2.168,77.137a11.314,11.314,0,0,0,12.1,10.8l79.609-3.934c5.395-.27,9.852-5.059,10.016-10.73l1.938-69.1c.176-6.152-4.219-11.4-9.875-11.7" fill="#f3d33f"/>
    <path id="Path_33" data-name="Path 33" d="M668.664,387.191A31.594,31.594,0,1,1,700.242,355.6a31.62,31.62,0,0,1-31.578,31.594m0-57.891a26.3,26.3,0,1,0,26.285,26.3,26.323,26.323,0,0,0-26.285-26.3" fill="#fdf9e6"/>
    <path id="Path_34" data-name="Path 34" d="M661.906,370.9a3.135,3.135,0,0,1-3.137-3.133V345.051a3.132,3.132,0,0,1,3.137-3.133,3.091,3.091,0,0,1,1.59.441l19.129,11.355a3.133,3.133,0,0,1,0,5.387L663.5,370.457a3.091,3.091,0,0,1-1.59.441" fill="#fdf9e6"/>
    <path id="Path_35" data-name="Path 35" d="M525.6,102.371l-76.484-3.988a10.4,10.4,0,0,0-11.055,10.844l1.977,70.375a10.321,10.321,0,0,0,11.035,9.852l72.629-3.586a10,10,0,0,0,9.137-9.789l1.77-63.035c.156-5.613-3.848-10.41-9.008-10.672" fill="#f3d33f"/>
    <path id="Path_36" data-name="Path 36" d="M512.7,170.934H459.086a7.5,7.5,0,0,1-7.48-7.488V124.367a7.5,7.5,0,0,1,7.48-7.488H512.7a7.494,7.494,0,0,1,7.484,7.488v39.078a7.494,7.494,0,0,1-7.484,7.488m-.781-5.2c2.207,3.809,2.367,3.836,3.434,4.008l.406-2.57,2.18-1.414c-.172-.277-1.285-2.207-2.949-5.109V125.324l2.078-1.484a2.6,2.6,0,1,0-3.008-4.234l-3.48,2.473H461.2l-3.812-2.7a2.6,2.6,0,1,0-3.008,4.234l2.422,1.723v35.055c-1.746,3.051-2.918,5.086-3.1,5.371l2.18,1.414-.359-2.578.766,5.148c1.066-.172,1.227-.2,3.434-4.008h52.2" fill="#fefaea"/>
    <path id="Path_37" data-name="Path 37" d="M485.91,145.4a2.616,2.616,0,0,1-1.5-.48l-9.086-6.445c.887-1.555,1.418-2.492,1.418-2.492a2.6,2.6,0,0,0-.742-3.4l9.91,7.031,9.234-6.562a2.6,2.6,0,0,0-.242,2.93s.555.969,1.469,2.574l-8.953,6.363a2.616,2.616,0,0,1-1.5.48m14.715-9.871c-.414-.723-.82-1.434-1.215-2.125a2.578,2.578,0,0,0-3.141-1.152l14.309-10.172,3.48-2.473a2.6,2.6,0,0,1,3.008,4.238l-2.078,1.48-14.363,10.2m-29.562-.078L456.8,125.332l-2.422-1.719a2.6,2.6,0,1,1,3.008-4.238l3.813,2.7,14.781,10.488c-.066-.043-.137-.09-.207-.129a2.587,2.587,0,0,0-3.547.965c-.379.668-.77,1.352-1.164,2.047" fill="#fefaea"/>
    <path id="Path_38" data-name="Path 38" d="M456.289,169.738l-.766-5.141.359,2.578-2.18-1.418c.18-.285,1.352-2.32,3.1-5.367,3.563-6.211,9.5-16.609,14.262-24.941.395-.7.785-1.379,1.164-2.047a2.6,2.6,0,0,1,3.547-.969c.07.043.141.09.207.137a.02.02,0,0,1,.016.008,2.6,2.6,0,0,1,.742,3.4s-.531.938-1.418,2.488c-1.727,3.027-4.789,8.387-7.855,13.75-2.32,4.059-4.645,8.121-6.391,11.168-.523.91-.969,1.688-1.355,2.352-2.2,3.809-2.363,3.832-3.43,4" fill="#fefaea"/>
    <path id="Path_39" data-name="Path 39" d="M515.352,169.738c-1.066-.168-1.227-.191-3.43-4-.387-.664-.832-1.441-1.355-2.352-1.746-3.047-4.07-7.109-6.391-11.168-3.039-5.316-6.074-10.633-7.809-13.664-.914-1.609-1.469-2.574-1.469-2.574a2.611,2.611,0,0,1,.242-2.934,2.707,2.707,0,0,1,.727-.613,2.324,2.324,0,0,1,.4-.184,2.482,2.482,0,0,1,.883-.16,2.6,2.6,0,0,1,2.262,1.313c.391.688.8,1.4,1.211,2.125,4.813,8.438,10.832,18.965,14.363,25.121,1.664,2.9,2.777,4.832,2.949,5.109l-2.18,1.41-.406,2.57" fill="#fefaea"/>
    <path id="Path_40" data-name="Path 40" d="M620.441,156.023l-73.52-3.828A9.989,9.989,0,0,0,536.3,162.617l1.9,67.641A9.925,9.925,0,0,0,548.8,239.73l69.813-3.453a9.6,9.6,0,0,0,8.781-9.4l1.7-60.59c.152-5.4-3.7-10-8.656-10.262" fill="#f3d33f"/>
    <path id="Path_41" data-name="Path 41" d="M575.371,223.336c-7.773,0-14.074-5.043-14.074-11.266s6.3-11.262,14.074-11.262a15.883,15.883,0,0,1,10.082,3.418v-33.75a1.889,1.889,0,0,1,1.879-1.887,1.866,1.866,0,0,1,.625.109c4.953,1.762,15.586,6.742,16.141,17.2a1.68,1.68,0,0,1-1.691,1.785,1.618,1.618,0,0,1-1.383-.781c-2.219-3.457-6-7.691-11.578-8.535V211.91h-.012c0,.059.012.109.012.16,0,6.223-6.3,11.266-14.074,11.266" fill="#fdf9e6"/>
    <path id="Path_42" data-name="Path 42" d="M599.84,253.637l-61.75-3.211a8.394,8.394,0,0,0-8.926,8.754l1.6,56.816a8.331,8.331,0,0,0,8.91,7.953l58.637-2.9a8.073,8.073,0,0,0,7.375-7.9l1.43-50.891c.129-4.535-3.109-8.4-7.273-8.621" fill="#f3d33f"/>
    <path id="Path_43" data-name="Path 43" d="M588.918,311.707H544.625a8.9,8.9,0,0,1-8.887-8.895V273.605a8.9,8.9,0,0,1,8.887-8.895h31.656a2.938,2.938,0,0,0,2.652,1.676h7.551a2.933,2.933,0,0,0,2.652-1.676,8.906,8.906,0,0,1,8.672,8.895v29.207a8.9,8.9,0,0,1-8.891,8.895m-44.293-42.8a4.7,4.7,0,0,0-4.7,4.7v29.207a4.7,4.7,0,0,0,4.7,4.7h44.293a4.706,4.706,0,0,0,4.7-4.7V273.605a4.706,4.706,0,0,0-4.7-4.7H544.625" fill="#fdf9e6"/>
    <path id="Path_44" data-name="Path 44" d="M586.484,266.387h-7.551a2.936,2.936,0,0,1,0-5.871h7.551a2.936,2.936,0,0,1,2.938,2.934,2.89,2.89,0,0,1-.285,1.262,2.933,2.933,0,0,1-2.652,1.676" fill="#fdf9e6"/>
    <path id="Path_45" data-name="Path 45" d="M584.609,279.816h-7.992a2.3,2.3,0,0,1-2.3-2.293v-.445a2.3,2.3,0,0,1,2.3-2.3h7.992a2.3,2.3,0,0,1,2.3,2.3v.445a2.3,2.3,0,0,1-2.3,2.293" fill="#fdf9e6"/>
    <path id="Path_46" data-name="Path 46" d="M561.012,302.477h-1.062a13.328,13.328,0,0,1-13.309-13.316V288.1a13.328,13.328,0,0,1,13.309-13.316h1.063A13.326,13.326,0,0,1,574.32,288.1v1.063a13.326,13.326,0,0,1-13.309,13.316m-1.062-23.5a9.13,9.13,0,0,0-9.113,9.121v1.063a9.13,9.13,0,0,0,9.113,9.121h1.063a9.131,9.131,0,0,0,9.117-9.121V288.1a9.131,9.131,0,0,0-9.117-9.121h-1.062" fill="#fdf9e6"/>
    <path id="Path_47" data-name="Path 47" d="M700.391,225.023l-58.8-3.062a7.989,7.989,0,0,0-8.5,8.336l1.52,54.1a7.93,7.93,0,0,0,8.484,7.57l55.828-2.758a7.687,7.687,0,0,0,7.027-7.523l1.359-48.457c.121-4.312-2.957-8-6.926-8.2" fill="#f3d33f"/>
    <path id="Path_48" data-name="Path 48" d="M684.918,277.035a2.772,2.772,0,0,1-1.582-.578c-.691-.234-2.086-.754-2.086-2.16v-3.418c0-.984-.555-2.145-1.539-2.145H651.117c-3.809,0-8.207-3.824-8.207-7.637V237.969c0-3.977,4.359-5.988,8.207-5.988h41.57c3.777,0,5.336,2.2,5.336,5.988V261.1c0,3.813-1.566,7.914-5.457,8l-6.141,7.262a1.985,1.985,0,0,1-1.508.676m-33.8-41.062c-1.785,0-5.012.363-5.012,2.949V261.1c0,1.77,3.242,3.645,5.012,3.645H683.4c.98,0,1.043,1.461,1.043,2.445v5.023l6.684-7.469h1.559c1.441,0,1.34-1.855,1.34-3.645V237.969c0-1.758.414-2-1.34-2h-41.57" fill="#fefaea"/>
    <path id="Path_49" data-name="Path 49" d="M688.648,244.762H651.492a1.386,1.386,0,0,1-1.391-1.391v-.414a1.391,1.391,0,0,1,1.391-1.391h37.156a1.39,1.39,0,0,1,1.387,1.391v.414a1.385,1.385,0,0,1-1.387,1.391" fill="#fefaea"/>
    <path id="Path_50" data-name="Path 50" d="M688.652,252.75h-37.16a1.389,1.389,0,0,1-1.391-1.391v-.414a1.391,1.391,0,0,1,1.391-1.391h37.16a1.39,1.39,0,0,1,1.383,1.391v.414a1.387,1.387,0,0,1-1.383,1.391" fill="#fefaea"/>
    <path id="Path_51" data-name="Path 51" d="M688.648,260.746h-37.16a1.388,1.388,0,0,1-1.387-1.391v-.414a1.391,1.391,0,0,1,1.387-1.395h37.16a1.391,1.391,0,0,1,1.387,1.395v.414a1.388,1.388,0,0,1-1.387,1.391" fill="#fefaea"/>
    <path id="Path_52" data-name="Path 52" d="M786.246,638.246c-34.43,2.078-23.7-52.953-23.082-55.141L710.91,620.031s2.762,29.43,46.207,44.863a53.97,53.97,0,0,0,29.922,2.168,47.579,47.579,0,0,1-.793-28.816" fill="#f3d33f"/>
    <g id="Group_4" data-name="Group 4" clip-path="url(#clip-path)">
      <g id="Group_3" data-name="Group 3" clip-path="url(#clip-path-2)">
        <g id="Group_2" data-name="Group 2" clip-path="url(#clip-path-3)">
          <g id="Group_1" data-name="Group 1" clip-path="url(#clip-path-4)">
            <path id="Path_53" data-name="Path 53" d="M890.277,661.891l-24.652-72.133-96.6,33.043,24.648,72.129Zm0,0" fill="url(#linear-gradient)"/>
          </g>
        </g>
      </g>
    </g>
    <path id="Path_58" data-name="Path 58" d="M625.7,498.121s50.09-20.062,143.309,56.93c0,0,7.785,16.121-.707,30.477s-89.43,84.281-100.555,123.059c0,0-48.215,15.676-98.082-21.492,0,0,4.4-107.93,56.035-188.973" fill="#f7e057"/>
    <g id="Group_8" data-name="Group 8" clip-path="url(#clip-path-5)">
      <g id="Group_7" data-name="Group 7" clip-path="url(#clip-path-6)">
        <g id="Group_6" data-name="Group 6" clip-path="url(#clip-path-7)">
          <g id="Group_5" data-name="Group 5" clip-path="url(#clip-path-8)">
            <path id="Path_59" data-name="Path 59" d="M677.141,527.891l71.367,30.895,30.121-69.645-71.367-30.895Zm0,0" fill="url(#linear-gradient-2)"/>
          </g>
        </g>
      </g>
    </g>
    <path id="Path_64" data-name="Path 64" d="M586.926,626.2c-5.816-23.691,53.082-76.516,53.082-76.516l-14.3-51.566s-127.18,84.7-94.77,152.82c4.648,9.766,10.816,16.6,17.973,21.18,10.242-27.578,26.563-40.227,38.02-45.918" fill="#f7e057"/>
    <path id="Path_65" data-name="Path 65" d="M586.883,622.75a1.384,1.384,0,0,1-1.348-1.059c-5.949-24.223,51.074-75.7,53.5-77.875a1.391,1.391,0,1,1,1.859,2.07c-.582.52-58.215,52.527-52.66,75.145a1.391,1.391,0,0,1-1.02,1.68,1.432,1.432,0,0,1-.336.039" fill="#ecc538"/>
    <g id="Group_11" data-name="Group 11" clip-path="url(#clip-path-9)">
      <g id="Group_10" data-name="Group 10" clip-path="url(#clip-path-10)">
        <g id="Group_9" data-name="Group 9" clip-path="url(#clip-path-11)">
          <path id="Path_66" data-name="Path 66" d="M525.3,622.25,566.383,749.9l192.156-61.906L717.449,560.34Zm0,0" fill="#fff"/>
        </g>
      </g>
    </g>
    <g id="Group_15" data-name="Group 15" clip-path="url(#clip-path-12)">
      <g id="Group_14" data-name="Group 14" clip-path="url(#clip-path-13)">
        <g id="Group_13" data-name="Group 13" clip-path="url(#clip-path-14)">
          <g id="Group_12" data-name="Group 12" clip-path="url(#clip-path-15)">
            <path id="Path_70" data-name="Path 70" d="M695.973,474.543l64.859,50.73,53.605-68.59-64.863-50.734Zm0,0" fill="url(#linear-gradient-3)"/>
          </g>
        </g>
      </g>
    </g>
    <path id="Path_75" data-name="Path 75" d="M741.57,448.594l-.75,33.207a4.528,4.528,0,0,0,.141,1.254c.648,2.523,3.516,11.051,12.051,7.582,7.754-3.145,14.871-5.9,20.105-4.9a4.637,4.637,0,0,1,3.754,4.98c-.551,5.941-2.035,19.3-5.094,30.715a4.623,4.623,0,0,1-5.285,3.332c-7.109-1.254-22.035-4.316-33.465-9.6a4.635,4.635,0,0,1-2.7-3.9c-.559-8.3-2.348-33.523-3.934-40.473-1.484-6.527-10.031-9.6-13.707-10.629a4.558,4.558,0,0,1-2.8-2.258c-2.078-3.906-5.363-13.125,6.129-18.312a4.644,4.644,0,0,0,2.27-6.289c-2.309-4.723-3.875-12.148,4.891-17.3,8.914-5.227,16.461-1,20.688,2.652a4.648,4.648,0,0,0,5.953.047,3.67,3.67,0,0,1,4.168-.316,4.567,4.567,0,0,0,6.215-2.656c1.738-4.855,5.77-10.293,15.117-9.727,16.586,1,20.414,18.848,17.281,29.9s-21.059,8.938-30.414,4.566c-7.113-3.32-15.293,1.879-18.809,4.563a4.614,4.614,0,0,0-1.8,3.563" fill="#333435"/>
    <g id="Group_19" data-name="Group 19" clip-path="url(#clip-path-16)">
      <g id="Group_18" data-name="Group 18" clip-path="url(#clip-path-17)">
        <g id="Group_17" data-name="Group 17" clip-path="url(#clip-path-18)">
          <g id="Group_16" data-name="Group 16" clip-path="url(#clip-path-19)">
            <path id="Path_76" data-name="Path 76" d="M699.4,479.957l25.574,11.07,12.59-29.109-25.574-11.07Zm0,0" fill="url(#linear-gradient-4)"/>
          </g>
        </g>
      </g>
    </g>
    <path id="Path_81" data-name="Path 81" d="M711.91,677.648c.109.008.223.012.332.012l146.52-.164a6.561,6.561,0,0,0-.012-13.121l-146.52.16a6.561,6.561,0,0,0-.32,13.113" fill="#333435"/>
    <path id="Path_82" data-name="Path 82" d="M990.473,544.563H868.457a23.246,23.246,0,0,0-21.035,13.344L791.012,677.57H942.648a14.127,14.127,0,0,0,13.145-8.941l43.746-110.734a9.753,9.753,0,0,0-9.066-13.332" fill="#333435"/>
    <path id="Path_83" data-name="Path 83" d="M904.512,605.922c-2.645,8.219-.691,16.2,4.359,17.828s11.293-3.719,13.941-11.937.691-16.2-4.363-17.828-11.293,3.715-13.937,11.938" fill="#74767b"/>
    <path id="Path_84" data-name="Path 84" d="M461.719,687.051a7.742,7.742,0,0,1,1.094-5.379,4.877,4.877,0,0,1,4.012-2.363H992.676a5.81,5.81,0,0,1,5.043,3.453,9.111,9.111,0,0,1,.391,7.172l-5.7,15.438c-1.3,3.531-4.129,5.793-7.242,5.793H470.43c-2.891,0-5.379-2.566-5.93-6.121l-2.781-17.992" fill="#a8abb2"/>
  </g>
</svg>
