<svg xmlns="http://www.w3.org/2000/svg" xmlns:xlink="http://www.w3.org/1999/xlink" width="18.75" height="27.75" viewBox="0 0 18.75 27.75">
  <defs>
    <clipPath id="clip-path">
      <path id="Path_2" data-name="Path 2" d="M710.891,213h18.75v18.793h-18.75Zm0,0"/>
    </clipPath>
    <clipPath id="clip-path-2">
      <path id="Path_4" data-name="Path 4" d="M713,204.043h14V214H713Zm0,0"/>
    </clipPath>
  </defs>
  <g id="Group_3" data-name="Group 3" transform="translate(-1443.891 -2192.043)">
    <g id="Group_1" data-name="Group 1" transform="translate(733 1988)" clip-path="url(#clip-path)">
      <path id="Path_1" data-name="Path 1" d="M729.207,228.754h-.4A2.234,2.234,0,0,1,726.57,231H713.953a2.241,2.241,0,0,1-2.238-2.242V216.121a2.241,2.241,0,0,1,2.238-2.242H726.57a2.241,2.241,0,0,1,2.238,2.242v12.633h.793V216.121a3.034,3.034,0,0,0-3.031-3.035H713.953a3.034,3.034,0,0,0-3.031,3.035v12.633a3.034,3.034,0,0,0,3.031,3.035H726.57a3.034,3.034,0,0,0,3.031-3.035h-.395" fill="#ffb68e"/>
    </g>
    <g id="Group_2" data-name="Group 2" transform="translate(733 1988)" clip-path="url(#clip-path-2)">
      <path id="Path_3" data-name="Path 3" d="M726.164,213.484h.395v-3.141a6.3,6.3,0,1,0-12.594,0v3.535h12.594v-.395h-.395v-.4H714.758v-2.742a5.5,5.5,0,1,1,11.008,0v3.141h.4v0" fill="#ffb68e"/>
    </g>
    <path id="Path_5" data-name="Path 5" d="M724.676,213.484h.4V210.5a4.813,4.813,0,1,0-9.625,0v3.383h9.625v-.395h-.4v-.4h-8.434V210.5a4.02,4.02,0,0,1,8.039,0v2.988h.395v0" transform="translate(733 1988)" fill="#ffb68e"/>
    <path id="Path_6" data-name="Path 6" d="M722.063,225.8l.387-.086-.941-4.223-.387.086.246.309a1.777,1.777,0,0,0,.492-.609,1.8,1.8,0,0,0-.344-2.066,1.8,1.8,0,0,0-3.066,1.273,1.819,1.819,0,0,0,.184.793,1.777,1.777,0,0,0,.492.609l.246-.309-.387-.086-1.016,4.707h4.59l-.109-.484-.387.086V225.4h-3.113l.863-3.984-.2-.156a1.011,1.011,0,0,1-.273-.34.978.978,0,0,1-.1-.441,1.005,1.005,0,0,1,1.715-.711,1.007,1.007,0,0,1,.293.711,1.032,1.032,0,0,1-.1.441.977.977,0,0,1-.277.34l-.191.156,1,4.469.387-.09v0" transform="translate(733 1988)" fill="#ffb68e"/>
  </g>
</svg>
