<svg xmlns="http://www.w3.org/2000/svg" xmlns:xlink="http://www.w3.org/1999/xlink" width="642.67" height="644.53" viewBox="0 0 642.67 644.53">
  <defs>
    <clipPath id="clip-path">
      <path id="Path_113" data-name="Path 113" d="M1107,221.551h48.68v9.474H1107Zm0,0" transform="translate(-1107 -221.551)"/>
    </clipPath>
    <clipPath id="clip-path-2">
      <path id="Path_198" data-name="Path 198" d="M1074.1,417.012h64.429v74.935H1074.1Zm0,0" transform="translate(-1074.098 -417.012)"/>
    </clipPath>
    <clipPath id="clip-path-3">
      <path id="Path_197" data-name="Path 197" d="M1075.993,417.184s28.483,45.006,62.338,53.7c0,0-6.594,18.778-11.688,20.931,0,0-41.658-34.738-52.361-68.232Zm0,0" transform="translate(-1074.281 -417.184)"/>
    </clipPath>
    <clipPath id="clip-path-4">
      <path id="Path_196" data-name="Path 196" d="M1075.993,417.184s28.483,45.006,62.338,53.7c0,0-6.594,18.778-11.688,20.931,0,0-41.658-34.738-52.361-68.232l1.711-6.4" transform="translate(-1074.281 -417.184)"/>
    </clipPath>
    <clipPath id="clip-path-5">
      <path id="Path_204" data-name="Path 204" d="M1112,531.551h22.833v98.141H1112Zm0,0" transform="translate(-1112 -531.551)"/>
    </clipPath>
    <clipPath id="clip-path-6">
      <path id="Path_203" data-name="Path 203" d="M1118.393,531.676l-1.419,8.347s4.754,48.151,5.6,67.411a15.087,15.087,0,0,1-2.241,8.577l-8.265,13.42,21.019-12.394.421-2.567-3.443-4.727,4.509-53.937a16.512,16.512,0,0,0-1.888-9.155l-4.346-8.163Zm0,0" transform="translate(-1112.07 -531.676)"/>
    </clipPath>
    <clipPath id="clip-path-7">
      <path id="Path_202" data-name="Path 202" d="M1118.393,531.676l-1.419,8.347s4.754,48.151,5.6,67.411a15.087,15.087,0,0,1-2.241,8.577l-8.265,13.42,21.019-12.394.421-2.567-3.443-4.727,4.509-53.937a16.512,16.512,0,0,0-1.888-9.155l-4.346-8.163-9.949-6.812" transform="translate(-1112.07 -531.676)"/>
    </clipPath>
    <clipPath id="clip-path-8">
      <path id="Path_201" data-name="Path 201" d="M1146.938,642.493l44.049-87L1133.451,526.4l-44.049,87Zm0,0" transform="translate(-1089.402 -526.402)"/>
    </clipPath>
    <linearGradient id="linear-gradient" x1="-18.667" y1="-7.887" x2="-18.651" y2="-7.887" gradientUnits="objectBoundingBox">
      <stop offset="0" stop-color="#fff"/>
      <stop offset="0.5" stop-color="#fff"/>
      <stop offset="0.625" stop-color="#fff"/>
      <stop offset="0.688" stop-color="#fff"/>
      <stop offset="0.719" stop-color="#fff"/>
      <stop offset="0.75" stop-color="#fefeff"/>
      <stop offset="0.781" stop-color="#fefeff"/>
      <stop offset="0.813" stop-color="#fdfdfe"/>
      <stop offset="0.844" stop-color="#fdfdfe"/>
      <stop offset="0.875" stop-color="#fcfcfd"/>
      <stop offset="0.938" stop-color="#fcfcfd"/>
      <stop offset="0.969" stop-color="#fcfcfd"/>
      <stop offset="1" stop-color="#fbfbfc"/>
    </linearGradient>
    <clipPath id="clip-path-9">
      <path id="Path_210" data-name="Path 210" d="M1132.219,531.953h50.7V626.6h-50.7Zm0,0" transform="translate(-1132.219 -531.953)"/>
    </clipPath>
    <clipPath id="clip-path-10">
      <path id="Path_209" data-name="Path 209" d="M1132.27,535.432s27.865,52.823,32.3,64.884a115.98,115.98,0,0,1,6.037,23.07c.1,1.494,1.942,2.92,7.056,2.92,2.635,0,3.925-1.059,4.557-2.078a2.988,2.988,0,0,0,.115-2.886c-1.616-3.253-6.73-13.671-8.625-18.4-2.262-5.644-7.124-31.213-9.793-40.1s-5.691-18.527-17.311-27.41C1146.606,535.432,1138.633,527.622,1132.27,535.432Zm0,0" transform="translate(-1132.27 -531.961)"/>
    </clipPath>
    <clipPath id="clip-path-11">
      <path id="Path_208" data-name="Path 208" d="M1132.27,535.432s27.865,52.823,32.3,64.884a115.98,115.98,0,0,1,6.037,23.07c.1,1.494,1.942,2.92,7.056,2.92,2.635,0,3.925-1.059,4.557-2.078a2.988,2.988,0,0,0,.115-2.886c-1.616-3.253-6.73-13.671-8.625-18.4-2.262-5.644-7.124-31.213-9.793-40.1s-5.691-18.527-17.311-27.41c0,0-7.973-7.81-14.336,0" transform="translate(-1132.27 -531.961)"/>
    </clipPath>
    <clipPath id="clip-path-12">
      <path id="Path_207" data-name="Path 207" d="M1112.586,550.667l41.271,102.4,77.686-31.26-41.264-102.4Zm0,0" transform="translate(-1112.586 -519.406)"/>
    </clipPath>
    <linearGradient id="linear-gradient-2" x1="-16.715" y1="-7.016" x2="-16.693" y2="-7.016" gradientUnits="objectBoundingBox">
      <stop offset="0" stop-color="#fff"/>
      <stop offset="0.5" stop-color="#fff"/>
      <stop offset="0.75" stop-color="#fff"/>
      <stop offset="0.875" stop-color="#fff"/>
      <stop offset="0.938" stop-color="#fff"/>
      <stop offset="0.969" stop-color="#fff"/>
      <stop offset="0.984" stop-color="#fefefe"/>
      <stop offset="1" stop-color="#fefefe"/>
    </linearGradient>
    <clipPath id="clip-path-13">
      <path id="Path_217" data-name="Path 217" d="M1110.754,434.414h17.6v30.962h-17.6Zm0,0" transform="translate(-1110.754 -434.414)"/>
    </clipPath>
    <clipPath id="clip-path-14">
      <path id="Path_216" data-name="Path 216" d="M1122.143,437.032l5.841,26.228c.564,2.316-1.548,1.935-3.885,1.494-3.83-.72-8.761-2.207-10.411-5.182a2.808,2.808,0,0,1-.3-.985l-2.513-18.194a3.274,3.274,0,0,1,1.915-3.436l4.842-2.146A3.275,3.275,0,0,1,1122.143,437.032Zm0,0" transform="translate(-1110.846 -434.529)"/>
    </clipPath>
    <clipPath id="clip-path-15">
      <path id="Path_215" data-name="Path 215" d="M1122.143,437.032l5.841,26.228c.564,2.316-1.548,1.935-3.885,1.494-3.83-.72-8.761-2.207-10.411-5.182a2.808,2.808,0,0,1-.3-.985l-2.513-18.194a3.274,3.274,0,0,1,1.915-3.436l4.842-2.146a3.275,3.275,0,0,1,4.509,2.221" transform="translate(-1110.846 -434.529)"/>
    </clipPath>
    <clipPath id="clip-path-16">
      <path id="Path_214" data-name="Path 214" d="M1114.393,471.15l23.688-5.209-7.47-33.882-23.681,5.209Zm0,0" transform="translate(-1106.93 -432.059)"/>
    </clipPath>
    <linearGradient id="linear-gradient-3" x1="-62.839" y1="-19.597" x2="-62.811" y2="-19.597" gradientUnits="objectBoundingBox">
      <stop offset="0" stop-color="#fcfcfd"/>
      <stop offset="0.063" stop-color="#fcfcfd"/>
      <stop offset="0.094" stop-color="#fcfcfd"/>
      <stop offset="0.125" stop-color="#fbfbfc"/>
      <stop offset="0.25" stop-color="#fafafc"/>
      <stop offset="0.375" stop-color="#f9f9fb"/>
      <stop offset="0.5" stop-color="#f8f8fa"/>
      <stop offset="0.563" stop-color="#f8f8fa"/>
      <stop offset="0.625" stop-color="#f7f7f9"/>
      <stop offset="0.688" stop-color="#f7f7f9"/>
      <stop offset="0.75" stop-color="#f6f6f9"/>
      <stop offset="0.813" stop-color="#f6f6f9"/>
      <stop offset="0.875" stop-color="#f5f5f8"/>
      <stop offset="0.938" stop-color="#f5f5f8"/>
      <stop offset="1" stop-color="#f4f4f8"/>
    </linearGradient>
    <clipPath id="clip-path-17">
      <path id="Path_221" data-name="Path 221" d="M1113.59,456.676h45.067v39.05H1113.59Zm0,0" transform="translate(-1113.59 -456.676)"/>
    </clipPath>
    <clipPath id="clip-path-18">
      <path id="Path_220" data-name="Path 220" d="M1139.415,456.762s56.416,55.8-25.4,33.529c0,0-.93-7.056.285-6.934,26.534,2.642,37.631,8.713,16.061-12.184-.761-.733-.53-3.525-.034-4.469C1131.816,463.838,1135.232,458.147,1139.415,456.762Zm0,0" transform="translate(-1113.675 -456.762)"/>
    </clipPath>
    <clipPath id="clip-path-19">
      <path id="Path_219" data-name="Path 219" d="M1139.415,456.762s56.416,55.8-25.4,33.529c0,0-.93-7.056.285-6.934,26.534,2.642,37.631,8.713,16.061-12.184-.761-.733-.53-3.525-.034-4.469,1.487-2.866,4.9-8.557,9.087-9.943" transform="translate(-1113.675 -456.762)"/>
    </clipPath>
    <clipPath id="clip-path-20">
      <path id="Path_225" data-name="Path 225" d="M1105.285,421.664h25.352v30.255h-25.352Zm0,0" transform="translate(-1105.285 -421.664)"/>
    </clipPath>
    <clipPath id="clip-path-21">
      <path id="Path_224" data-name="Path 224" d="M1115.029,422.613s-6.221,4.2-8.9,14.927,1.677,14.561,6.126,14.323,10.914-1.61,16.51-9.3S1123.186,417.465,1115.029,422.613Zm0,0" transform="translate(-1105.315 -421.676)"/>
    </clipPath>
    <clipPath id="clip-path-22">
      <path id="Path_223" data-name="Path 223" d="M1115.029,422.613s-6.221,4.2-8.9,14.927,1.677,14.561,6.126,14.323,10.914-1.61,16.51-9.3-5.582-25.1-13.739-19.953" transform="translate(-1105.315 -421.676)"/>
    </clipPath>
    <clipPath id="clip-path-23">
      <path id="Path_230" data-name="Path 230" d="M1116.422,428.344h7.043v9.834h-7.043Zm0,0" transform="translate(-1116.422 -428.344)"/>
    </clipPath>
    <clipPath id="clip-path-24">
      <path id="Path_229" data-name="Path 229" d="M1116.563,434.533s1.121-7.905,5.161-5.65-1.453,7.382-3.654,9.128Zm0,0" transform="translate(-1116.563 -428.478)"/>
    </clipPath>
    <clipPath id="clip-path-25">
      <path id="Path_228" data-name="Path 228" d="M1116.563,434.533s1.121-7.905,5.161-5.65-1.453,7.382-3.654,9.128l-1.508-3.477" transform="translate(-1116.563 -428.478)"/>
    </clipPath>
    <clipPath id="clip-path-26">
      <path id="Path_234" data-name="Path 234" d="M1065,407.5h22.6v26.948H1065Zm0,0" transform="translate(-1065 -407.5)"/>
    </clipPath>
    <clipPath id="clip-path-27">
      <path id="Path_233" data-name="Path 233" d="M1082.922,433.574c-.081.924,3.375,1.569,4.469-2.391-.3-1.718-.835-9.243-2.16-10.411-7.016-6.228-19.539-13.229-19.539-13.229a2.554,2.554,0,0,0,.435,3.538l6.255,4.217c-.659,2.16-1.609,4.068-1.711,6.526a7.306,7.306,0,0,0,1.84,5.114c1.25,1.419,2.92,3.253,4.435,4.645A7.225,7.225,0,0,0,1082.922,433.574Zm0,0" transform="translate(-1065.166 -407.543)"/>
    </clipPath>
    <clipPath id="clip-path-28">
      <path id="Path_232" data-name="Path 232" d="M1082.922,433.574c-.081.924,3.375,1.569,4.469-2.391-.3-1.718-.835-9.243-2.16-10.411-7.016-6.228-19.539-13.229-19.539-13.229a2.554,2.554,0,0,0,.435,3.538l6.255,4.217c-.659,2.16-1.609,4.068-1.711,6.526a7.306,7.306,0,0,0,1.84,5.114c1.25,1.419,2.92,3.253,4.435,4.645a7.225,7.225,0,0,0,5.976,1.99" transform="translate(-1065.166 -407.543)"/>
    </clipPath>
    <clipPath id="clip-path-29">
      <path id="Path_239" data-name="Path 239" d="M1070.25,413.164h9.854v13.372h-9.854Zm0,0" transform="translate(-1070.25 -413.164)"/>
    </clipPath>
    <clipPath id="clip-path-30">
      <path id="Path_238" data-name="Path 238" d="M1075.745,426.211l.951-.394c-.129-.312-3.124-7.593-4.577-9.107a2.224,2.224,0,0,1-.795-1.467,1.053,1.053,0,0,1,.326-.638l5.053,2.7,2.234,3.491.869-.557-2.377-3.722-5.922-3.165-.272.217a2.236,2.236,0,0,0-.937,1.61,3.047,3.047,0,0,0,1.073,2.241C1072.465,418.564,1074.9,424.154,1075.745,426.211Zm0,0" transform="translate(-1070.295 -413.355)"/>
    </clipPath>
    <clipPath id="clip-path-31">
      <path id="Path_237" data-name="Path 237" d="M1075.745,426.211l.951-.394c-.129-.312-3.124-7.593-4.577-9.107a2.224,2.224,0,0,1-.795-1.467,1.053,1.053,0,0,1,.326-.638l5.053,2.7,2.234,3.491.869-.557-2.377-3.722-5.922-3.165-.272.217a2.236,2.236,0,0,0-.937,1.61,3.047,3.047,0,0,0,1.073,2.241c1.093,1.141,3.525,6.73,4.374,8.788" transform="translate(-1070.295 -413.355)"/>
    </clipPath>
    <clipPath id="clip-path-32">
      <path id="Path_236" data-name="Path 236" d="M1077.695,433.014l11.294-11.09-11.124-11.314L1066.57,421.7Zm0,0" transform="translate(-1066.57 -410.609)"/>
    </clipPath>
    <linearGradient id="linear-gradient-4" x1="-82.736" y1="-31.863" x2="-82.659" y2="-31.863" gradientUnits="objectBoundingBox">
      <stop offset="0" stop-color="#fff"/>
      <stop offset="0.25" stop-color="#fff"/>
      <stop offset="0.313" stop-color="#fff"/>
      <stop offset="0.344" stop-color="#fff"/>
      <stop offset="0.375" stop-color="#fefefe"/>
      <stop offset="0.406" stop-color="#fefefe"/>
      <stop offset="0.438" stop-color="#fdfdfe"/>
      <stop offset="0.469" stop-color="#fdfdfe"/>
      <stop offset="0.5" stop-color="#fcfcfd"/>
      <stop offset="0.531" stop-color="#fcfcfd"/>
      <stop offset="0.563" stop-color="#fbfbfc"/>
      <stop offset="0.594" stop-color="#fbfbfc"/>
      <stop offset="0.625" stop-color="#fafafb"/>
      <stop offset="0.656" stop-color="#fafafb"/>
      <stop offset="0.688" stop-color="#f9f9fb"/>
      <stop offset="0.719" stop-color="#f9f9fb"/>
      <stop offset="0.75" stop-color="#f8f8fa"/>
      <stop offset="0.781" stop-color="#f8f8fa"/>
      <stop offset="0.813" stop-color="#f7f7f9"/>
      <stop offset="0.844" stop-color="#f7f7f9"/>
      <stop offset="0.875" stop-color="#f6f6f9"/>
      <stop offset="0.906" stop-color="#f6f6f9"/>
      <stop offset="0.938" stop-color="#f5f5f8"/>
      <stop offset="0.969" stop-color="#f5f5f8"/>
      <stop offset="1" stop-color="#f4f4f7"/>
    </linearGradient>
    <clipPath id="clip-path-33">
      <path id="Path_246" data-name="Path 246" d="M1104.07,466.59h18.663v16.537H1104.07Zm0,0" transform="translate(-1104.07 -466.59)"/>
    </clipPath>
    <clipPath id="clip-path-34">
      <path id="Path_245" data-name="Path 245" d="M1121.038,482.947s1.908-7.817,1.141-10.588-2.255-6.336-7.212-5.542a72.092,72.092,0,0,0-10.8,2.873s.292,3.613,4.061,2.452l-2.336,1.8s.333,2.893,3.518,1.352l-2.173,2.391a2.53,2.53,0,0,0,3.708.849C1113.282,477.011,1114.4,483.884,1121.038,482.947Zm0,0" transform="translate(-1104.168 -466.705)"/>
    </clipPath>
    <clipPath id="clip-path-35">
      <path id="Path_244" data-name="Path 244" d="M1121.038,482.947s1.908-7.817,1.141-10.588-2.255-6.336-7.212-5.542a72.092,72.092,0,0,0-10.8,2.873s.292,3.613,4.061,2.452l-2.336,1.8s.333,2.893,3.518,1.352l-2.173,2.391a2.53,2.53,0,0,0,3.708.849c2.336-1.521,3.457,5.352,10.092,4.414" transform="translate(-1104.168 -466.705)"/>
    </clipPath>
  </defs>
  <g id="Group_56" data-name="Group 56" transform="translate(-1153.004 72.449)">
    <path id="Path_85" data-name="Path 85" d="M1462.779,773.047c-13.019,13.686-25.338,22.52-35.073,29.492-114.4,81.985-249.766,58.086-278.537,52.249-42.476-8.616-124.594-25.279-183.964-95.012-89.827-105.5-75.836-271.71-6.166-381.434,12.747-20.066,80.065-131.455,216.882-149.32,82.8-10.811,179.328,10.995,249.229,69.482,146.723,122.778,136.274,370.806,37.629,474.543" transform="translate(252.939 -290.454)" fill="#efeff4"/>
    <path id="Path_86" data-name="Path 86" d="M1314.714,265.29a3.619,3.619,0,0,0-7.009.326c-7.036,35.627-28.415,128.451-68.518,179.97-65.292,83.893-102.827,214.721-51.859,276.937,0,0,244.841-65.237,127.385-457.233" transform="translate(446.602 -263.592)" fill="#c6c9d3"/>
    <path id="Path_87" data-name="Path 87" d="M1242.943,389.646l-3.24-.088.224-1.141q4.553-23.593,8.177-47.363,1.854-11.878,3.45-23.79l1.494-11.926.686-5.97.306-2.981c.088-.978.2-2.031.238-2.886v-.143a.637.637,0,0,1,.625-.6h.034a.628.628,0,0,1,.6.632c0,1.141-.088,2.085-.136,3.11l-.224,3.009-.5,6c-.374,4-.795,7.993-1.222,11.98q-1.314,11.98-2.907,23.912c-2.126,15.919-4.693,31.783-7.491,47.594-.041.217-.082.435-.115.652" transform="translate(502.815 -241.327)" fill="#dfe0e6"/>
    <path id="Path_88" data-name="Path 88" d="M1196.349,224.813a3.46,3.46,0,0,0-6.336,2.207c3.273,34.588,9.005,125.538-13.7,183.719-36.972,94.725-35.675,224.935,28.048,268.108,0,0,206.721-126.57-8.014-454.034" transform="translate(437.867 -292.746)" fill="#d7d9e0"/>
    <path id="Path_89" data-name="Path 89" d="M1204.681,418.5l-3.661-.1c-.856-25.264-2.73-50.5-5.175-75.683q-2.261-22.87-5.419-45.665-1.548-11.389-3.328-22.751l-1.881-11.348-1-5.657-.536-2.818c-.19-.924-.374-1.915-.571-2.71l-.034-.136a.614.614,0,0,1,.448-.74.528.528,0,0,1,.149-.02.624.624,0,0,1,.584.435c.313,1.053.489,1.949.72,2.9l.625,2.818,1.175,5.637c.761,3.769,1.46,7.545,2.16,11.328q2.068,11.328,3.864,22.717c2.4,15.179,4.374,30.418,6.126,45.685,1.78,15.267,3.124,30.581,4.143,45.923.666,10.051,1.222,20.116,1.61,30.181" transform="translate(460.841 -272.342)" fill="#e8e9ed"/>
    <path id="Path_90" data-name="Path 90" d="M1079.19,382.8l-9.026-.231a2.88,2.88,0,0,1,.992-1.093c2.547-1.61,5.046-3.341,7.437-5.155a2.791,2.791,0,0,1,1.684-.564,3.322,3.322,0,0,1,.367.02,2.791,2.791,0,0,1,1.324,4.992c-.91.686-1.841,1.365-2.778,2.031m12.442-11.382a2.788,2.788,0,0,1-1.976-4.754c2.119-2.132,4.17-4.374,6.1-6.676a2.787,2.787,0,0,1,2.146-1,3.211,3.211,0,0,1,.36.027,2.79,2.79,0,0,1,1.773,4.564c-2.031,2.418-4.19,4.781-6.418,7.015a2.8,2.8,0,0,1-1.983.822m15.124-19.043a2.736,2.736,0,0,1-1.474-.421,2.787,2.787,0,0,1-.89-3.844c1.589-2.547,3.09-5.189,4.455-7.858a2.783,2.783,0,0,1,2.486-1.528,3.22,3.22,0,0,1,.36.027,2.784,2.784,0,0,1,2.126,4.041c-1.433,2.812-3.015,5.6-4.693,8.272a2.785,2.785,0,0,1-2.37,1.311m10.479-21.922a2.882,2.882,0,0,1-.91-.156,2.787,2.787,0,0,1-1.725-3.545c.978-2.832,1.847-5.745,2.587-8.666a2.788,2.788,0,0,1,2.7-2.1,3.119,3.119,0,0,1,.36.02,3.157,3.157,0,0,1,.333.061,2.786,2.786,0,0,1,2.017,3.389c-.774,3.07-1.691,6.133-2.723,9.114a2.79,2.79,0,0,1-2.642,1.881m5.358-23.709a2.515,2.515,0,0,1-.319-.02l-.054-.007a2.792,2.792,0,0,1-2.411-3.076c.339-2.988.543-6.024.618-9.012a2.8,2.8,0,0,1,2.791-2.723h.075c.1.007.2.014.292.027a2.783,2.783,0,0,1,2.425,2.832c-.082,3.151-.3,6.35-.652,9.494a2.79,2.79,0,0,1-2.764,2.486" transform="translate(377.269 -241.957)" fill="#e3e4ea"/>
    <path id="Path_91" data-name="Path 91" d="M1000.669,345.169a2.768,2.768,0,0,1-1.793-.652c-1.168-.978-2.329-1.99-3.45-3.009a2.794,2.794,0,0,1,1.881-4.856,3.325,3.325,0,0,1,.367.027,2.8,2.8,0,0,1,1.514.7c1.059.971,2.166,1.929,3.273,2.859a2.788,2.788,0,0,1-1.793,4.93" transform="translate(321.234 -208.871)" fill="#e3e4ea"/>
    <path id="Path_92" data-name="Path 92" d="M977.033,302.256a2.785,2.785,0,0,1-2.784-2.594c-.109-1.514-.183-3.056-.224-4.571a2.792,2.792,0,0,1,2.71-2.873h.081a2.094,2.094,0,0,1,.36.027,2.8,2.8,0,0,1,2.431,2.683c.041,1.44.109,2.9.211,4.34a2.787,2.787,0,0,1-2.588,2.981,1.962,1.962,0,0,1-.2.007" transform="translate(306.061 -241.734)" fill="#e3e4ea"/>
    <path id="Path_93" data-name="Path 93" d="M977.156,302.812c-.1,0-.2-.007-.306-.014a2.754,2.754,0,0,1-2.472-3.076c.088-.815.183-1.637.292-2.458.3-2.262.672-4.543,1.107-6.791a2.782,2.782,0,0,1,2.737-2.262,3.3,3.3,0,0,1,.36.02c.054.007.115.02.17.027a2.8,2.8,0,0,1,2.214,3.273c-.414,2.132-.767,4.306-1.053,6.459-.1.781-.19,1.562-.278,2.336a2.791,2.791,0,0,1-2.771,2.486m5.148-23.355a2.681,2.681,0,0,1-.89-.143,2.786,2.786,0,0,1-1.752-3.538c1-2.947,2.132-5.881,3.369-8.727a2.8,2.8,0,0,1,2.567-1.677,3.3,3.3,0,0,1,.36.02,2.517,2.517,0,0,1,.747.211,2.782,2.782,0,0,1,1.447,3.674c-1.175,2.7-2.255,5.487-3.2,8.292a2.8,2.8,0,0,1-2.649,1.888" transform="translate(306.314 -261.635)" fill="#e3e4ea"/>
    <path id="Path_94" data-name="Path 94" d="M983.193,264.3a2.825,2.825,0,0,1,.367-1.942c1.623-2.649,3.375-5.263,5.223-7.776a2.777,2.777,0,0,1,2.255-1.141,3.284,3.284,0,0,1,.36.02,2.809,2.809,0,0,1,2.4,3.11q-5.46,3.8-10.608,7.729" transform="translate(312.822 -270.449)" fill="#eeeff2"/>
    <path id="Path_95" data-name="Path 95" d="M985.923,265.272a2.78,2.78,0,0,1-1.453-.414,2.741,2.741,0,0,1-1.29-1.888q5.134-3.922,10.608-7.735a2.843,2.843,0,0,1-.523,1.311c-1.752,2.384-3.416,4.869-4.958,7.389a2.787,2.787,0,0,1-2.384,1.338" transform="translate(312.842 -269.122)" fill="#e3e4ea"/>
    <path id="Path_96" data-name="Path 96" d="M994.378,255.173a2.791,2.791,0,0,1-2-4.734c2.16-2.228,4.442-4.4,6.791-6.445a2.776,2.776,0,0,1,1.834-.686,3.318,3.318,0,0,1,.367.02,2.795,2.795,0,0,1,1.474,4.869c-2.234,1.949-4.4,4.007-6.458,6.126a2.794,2.794,0,0,1-2,.849" transform="translate(319.066 -277.93)" fill="#eeeff2"/>
    <path id="Path_97" data-name="Path 97" d="M1078.2,246.6a2.746,2.746,0,0,1-1.589-.5c-2.425-1.677-4.958-3.273-7.525-4.74a2.794,2.794,0,0,1,1.392-5.216,3.1,3.1,0,0,1,.36.027,2.742,2.742,0,0,1,1.025.346c2.7,1.548,5.365,3.233,7.926,5a2.788,2.788,0,0,1-1.589,5.08" transform="translate(375.408 -283.216)" fill="#e3e4ea"/>
    <path id="Path_98" data-name="Path 98" d="M1004.989,245.725a2.79,2.79,0,0,1-1.535-5.121c2.594-1.7,5.3-3.328,8.027-4.815a2.8,2.8,0,0,1,1.338-.34,3.334,3.334,0,0,1,.36.027,2.788,2.788,0,0,1,.971,5.216c-2.594,1.413-5.168,2.954-7.633,4.571a2.757,2.757,0,0,1-1.528.462" transform="translate(326.92 -283.735)" fill="#eeeff2"/>
    <path id="Path_99" data-name="Path 99" d="M1066.452,239.31a2.68,2.68,0,0,1-1.039-.211c-2.737-1.1-5.562-2.1-8.394-2.975a2.789,2.789,0,0,1,.828-5.453,3.294,3.294,0,0,1,.36.02,4.033,4.033,0,0,1,.462.1c2.975.917,5.942,1.976,8.829,3.138a2.79,2.79,0,0,1-1.046,5.379" transform="translate(366.059 -287.263)" fill="#e3e4ea"/>
    <path id="Path_100" data-name="Path 100" d="M1017.246,240.3a2.786,2.786,0,0,1-.992-5.392c2.914-1.107,5.9-2.1,8.89-2.947a2.755,2.755,0,0,1,.767-.109,3.109,3.109,0,0,1,.36.02,2.793,2.793,0,0,1,.407,5.453c-2.839.808-5.677,1.745-8.448,2.8a2.794,2.794,0,0,1-.985.177m45.76-6.981a2.791,2.791,0,0,1,1.318-5.25c.081,0,.149,0,.231.007,1.807.149,3.647.34,5.467.577,1.277.17,2.547.36,3.83.57a2.774,2.774,0,0,1,1.922,1.29q-6.5,1.263-12.768,2.8" transform="translate(336.013 -289.185)" fill="#eeeff2"/>
    <path id="Path_101" data-name="Path 101" d="M1052.77,233.735a2.712,2.712,0,0,1-.462-.041c-2.947-.489-5.908-.856-8.835-1.093a2.8,2.8,0,0,1-1.093-.319q6.265-1.538,12.768-2.8a2.8,2.8,0,0,1-2.377,4.258" transform="translate(356.674 -288.146)" fill="#e3e4ea"/>
    <path id="Path_102" data-name="Path 102" d="M1030.565,234.437a2.791,2.791,0,0,1-.387-5.555c3.083-.435,6.221-.74,9.324-.917h.149a3.141,3.141,0,0,1,.367.02,2.788,2.788,0,0,1-.21,5.549c-2.941.17-5.922.462-8.849.876a2.558,2.558,0,0,1-.394.027" transform="translate(345.86 -289.263)" fill="#eeeff2"/>
    <path id="Path_103" data-name="Path 103" d="M1084.837,252.974a2.776,2.776,0,0,1-1.969-.815c-1.025-1.025-2.085-2.037-3.144-3.009a2.791,2.791,0,0,1,1.895-4.842,3.293,3.293,0,0,1,.36.02,2.8,2.8,0,0,1,1.521.713c1.114,1.019,2.228,2.085,3.307,3.158a2.795,2.795,0,0,1-1.969,4.774" transform="translate(383.654 -277.192)" fill="#e3e4ea"/>
    <path id="Path_104" data-name="Path 104" d="M1139.694,275.872a1.308,1.308,0,0,0-1.4-.584l-15.491,3.5A69.155,69.155,0,0,0,1104.61,265.7l-1.6-15.783a1.3,1.3,0,0,0-1-1.141l-18.547-4.353a1.3,1.3,0,0,0-1.4.57l-8.469,13.406a69.187,69.187,0,0,0-22.126,3.62l-12.306-10.038a1.309,1.309,0,0,0-1.515-.1l-16.2,10.017a1.3,1.3,0,0,0-.584,1.4l3.5,15.477a69.365,69.365,0,0,0-13.1,18.174l-15.79,1.6a1.308,1.308,0,0,0-1.141,1l-4.36,18.527a1.309,1.309,0,0,0,.57,1.406l13.427,8.469a69.046,69.046,0,0,0,3.613,22.1l-10.038,12.3a1.309,1.309,0,0,0-.1,1.514l10.031,16.184a1.293,1.293,0,0,0,1.392.584l15.491-3.5a69.155,69.155,0,0,0,18.194,13.087l1.6,15.783a1.308,1.308,0,0,0,1.005,1.134l18.54,4.36a1.309,1.309,0,0,0,1.406-.57l8.476-13.406a69.55,69.55,0,0,0,22.119-3.613L1108,403.943a1.3,1.3,0,0,0,1.508.1l16.2-10.024a1.308,1.308,0,0,0,.584-1.392l-3.5-15.484a69.518,69.518,0,0,0,13.1-18.174l15.79-1.6a1.293,1.293,0,0,0,1.134-1l4.367-18.527a1.313,1.313,0,0,0-.577-1.406l-13.42-8.469a69.118,69.118,0,0,0-3.613-22.106l10.044-12.292a1.319,1.319,0,0,0,.1-1.514l-10.024-16.184" transform="translate(317.898 -277.134)" fill="#c6c9d3"/>
    <path id="Path_105" data-name="Path 105" d="M1044.246,315.132a14.428,14.428,0,0,0,2.173.122,14.617,14.617,0,1,0-2.173-.122Zm4.435-33.522a19.179,19.179,0,1,1-2.812-.156,20.234,20.234,0,0,1,2.812.156" transform="translate(345.322 -249.694)" fill="#c6c9d3"/>
    <path id="Path_106" data-name="Path 106" d="M1063.893,265.919a46.1,46.1,0,0,1,4.761.869c.5.115.992.238,1.487.374a47.237,47.237,0,0,1,7.1,2.533l.1.041.265.122c.17.082.34.163.509.238a1.109,1.109,0,0,1,.632,1.155.99.99,0,0,1-.1.333,1.114,1.114,0,0,1-1.487.53,44.894,44.894,0,0,0-62.949,30.215,45.112,45.112,0,0,0-.829,4.537,44.843,44.843,0,0,0,34.222,49.353,44.909,44.909,0,0,0,53.937-33.359c.346-1.487.618-2.988.815-4.482A44.693,44.693,0,0,0,1100.621,299a1.105,1.105,0,0,1-.048-.489,1.133,1.133,0,0,1,.767-.917,1.118,1.118,0,0,1,1.406.727,47.085,47.085,0,1,1-91.581,8.258,46.22,46.22,0,0,1,.869-4.767,47.1,47.1,0,0,1,51.859-35.892" transform="translate(333.298 -261.525)" fill="#e8e8ef"/>
    <path id="Path_107" data-name="Path 107" d="M1161.861,264.8a1.722,1.722,0,0,1-1.7-1.555c-.136-1.392-.319-2.8-.53-4.177a1.715,1.715,0,0,1,1.44-1.963,1.168,1.168,0,0,1,.265-.027c.075,0,.149.007.224.014a1.736,1.736,0,0,1,1.481,1.447c.224,1.447.414,2.913.557,4.374a1.733,1.733,0,0,1-1.555,1.881c-.061,0-.115.007-.177.007" transform="translate(443.461 -267.76)" fill="#e3e4ea"/>
    <path id="Path_108" data-name="Path 108" d="M1129.361,338.873c-1.5,0-3.009-.048-4.509-.136a1.738,1.738,0,0,1-1.616-1.827,1.719,1.719,0,0,1,1.718-1.616h.109c1.426.088,2.866.129,4.306.129,1.487,0,2.975-.048,4.442-.143h.115c.075,0,.149.007.224.014a1.724,1.724,0,0,1-.115,3.43c-1.548.1-3.11.149-4.672.149m-13.284-1.229a1.833,1.833,0,0,1-.333-.027c-.4-.081-.795-.156-1.188-.238a76.252,76.252,0,0,1-7.729-1.983,1.725,1.725,0,0,1,.523-3.368,1.283,1.283,0,0,1,.224.014,2.244,2.244,0,0,1,.292.061,70.721,70.721,0,0,0,7.375,1.9c.38.075.754.149,1.121.217a1.726,1.726,0,0,1-.285,3.423m26.744-.034a1.722,1.722,0,0,1-.319-3.416,71.711,71.711,0,0,0,8.476-2.153,1.6,1.6,0,0,1,.523-.088,2.216,2.216,0,0,1,.224.014,1.724,1.724,0,0,1,.312,3.348,73.28,73.28,0,0,1-8.9,2.262,1.646,1.646,0,0,1-.319.034m17.033-5.474a1.724,1.724,0,0,1-.727-3.287,72.518,72.518,0,0,0,7.7-4.156,1.741,1.741,0,0,1,.91-.265c.075,0,.149.007.224.014a1.741,1.741,0,0,1,1.243.8,1.717,1.717,0,0,1-.55,2.37,74.064,74.064,0,0,1-8.075,4.36,1.641,1.641,0,0,1-.727.163m15.2-9.454a1.724,1.724,0,0,1-1.087-3.063,71.919,71.919,0,0,0,6.465-5.908,1.725,1.725,0,0,1,1.236-.53c.082,0,.149.014.224.02a1.76,1.76,0,0,1,.978.469,1.732,1.732,0,0,1,.041,2.438,74.007,74.007,0,0,1-6.778,6.194,1.705,1.705,0,0,1-1.08.38m12.442-12.87a1.722,1.722,0,0,1-1.379-2.757,70.66,70.66,0,0,0,4.815-7.307,1.737,1.737,0,0,1,1.5-.863c.075,0,.149,0,.224.007a1.889,1.889,0,0,1,.632.217,1.724,1.724,0,0,1,.638,2.357,75.341,75.341,0,0,1-5.053,7.661,1.727,1.727,0,0,1-1.379.686m8.9-15.525a1.733,1.733,0,0,1-1.589-2.391,71.184,71.184,0,0,0,2.88-8.265,1.718,1.718,0,0,1,1.657-1.256c.068,0,.143.007.217.014a1.291,1.291,0,0,1,.245.054,1.715,1.715,0,0,1,1.2,2.119,74.242,74.242,0,0,1-3.009,8.666,1.728,1.728,0,0,1-1.6,1.059m4.767-17.236a1.776,1.776,0,0,1-.19-.007,1.724,1.724,0,0,1-1.447-1.963c.075-.5.143-1.005.211-1.514.312-2.377.5-4.8.577-7.206a1.721,1.721,0,0,1,1.725-1.671h.048a1.543,1.543,0,0,1,.177.014,1.716,1.716,0,0,1,1.494,1.759,73.983,73.983,0,0,1-.6,7.552c-.068.53-.143,1.053-.224,1.582a1.778,1.778,0,0,1-1.773,1.453" transform="translate(403.559 -262.137)" fill="#e3e4ea"/>
    <path id="Path_109" data-name="Path 109" d="M1085.314,251.509a1.72,1.72,0,0,1-1.426-2.689,74.718,74.718,0,0,1,5.514-7.151,1.714,1.714,0,0,1,1.3-.591c.068,0,.143.007.224.014a1.727,1.727,0,0,1,1.073,2.846,69.853,69.853,0,0,0-5.263,6.818,1.724,1.724,0,0,1-1.426.754m11.586-13.27a1.722,1.722,0,0,1-1.155-3,74.365,74.365,0,0,1,7.07-5.616,1.71,1.71,0,0,1,.985-.312c.075,0,.149.007.231.014a1.73,1.73,0,0,1,.767,3.124,72.513,72.513,0,0,0-6.75,5.352,1.693,1.693,0,0,1-1.148.441" transform="translate(387.192 -288.27)" fill="#e3e4ea"/>
    <path id="Path_110" data-name="Path 110" d="M1175.508,235.851a1.688,1.688,0,0,1-.971-.3,70.681,70.681,0,0,0-7.389-4.435,1.724,1.724,0,0,1,.8-3.253c.068,0,.143.007.217.014a1.789,1.789,0,0,1,.577.183,73.287,73.287,0,0,1,7.742,4.652,1.719,1.719,0,0,1-.978,3.138m-70.25-6.533c-2.153-.211-4.292-.4-6.438-.57a1.869,1.869,0,0,1,.435-.326,74.489,74.489,0,0,1,8.2-3.762,1.694,1.694,0,0,1,.625-.115c.075,0,.156.007.224.014a1.722,1.722,0,0,1,.4,3.314q-1.742.672-3.45,1.447" transform="translate(398.505 -291.79)" fill="#eeeff2"/>
    <path id="Path_111" data-name="Path 111" d="M1100.271,229.881a1.728,1.728,0,0,1-1.243-2.92c2.139.17,4.278.353,6.431.57-1.487.659-2.948,1.385-4.374,2.146a1.766,1.766,0,0,1-.815.2" transform="translate(398.258 -290.004)" fill="#e3e4ea"/>
    <g id="Group_20" data-name="Group 20" transform="translate(1511.542 -72.449)" clip-path="url(#clip-path)">
      <path id="Path_112" data-name="Path 112" d="M1153.1,229.808a1.714,1.714,0,0,1-.6-.109,72.5,72.5,0,0,0-8.238-2.52,1.726,1.726,0,0,1,.407-3.4,1.309,1.309,0,0,1,.224.02,1.591,1.591,0,0,1,.177.027,76.376,76.376,0,0,1,8.639,2.642,1.725,1.725,0,0,1-.611,3.341m-43.39-2.418a1.725,1.725,0,0,1-.428-3.4,75.195,75.195,0,0,1,8.876-1.684c.075-.007.149-.014.217-.014s.149.007.224.014a1.722,1.722,0,0,1-.007,3.416,71.6,71.6,0,0,0-8.469,1.61,1.735,1.735,0,0,1-.414.054m26.276-1.718c-.068,0-.136-.007-.2-.014a72.4,72.4,0,0,0-8.313-.482h-.285a1.742,1.742,0,0,1-1.732-1.725,1.722,1.722,0,0,1,1.718-1.725h.265a75.467,75.467,0,0,1,8.747.509h.027a1.726,1.726,0,0,1-.224,3.436" transform="translate(-1106.27 -221.421)" fill="#eeeff2"/>
    </g>
    <path id="Path_114" data-name="Path 114" d="M1150.841,238.609a1.738,1.738,0,0,1-1.223-.5c-.978-.985-2.01-1.949-3.063-2.886a1.721,1.721,0,0,1-.149-2.431,1.74,1.74,0,0,1,1.29-.577,1.17,1.17,0,0,1,.224.014,1.7,1.7,0,0,1,.917.421c1.114.978,2.187,1.99,3.219,3.015a1.719,1.719,0,0,1,0,2.438,1.7,1.7,0,0,1-1.216.5" transform="translate(433.371 -286.121)" fill="#eeeff2"/>
    <path id="Path_115" data-name="Path 115" d="M1187.188,253.768a.878.878,0,0,0-.937-.394l-10.37,2.343a46.282,46.282,0,0,0-12.17-8.761l-1.073-10.56a.875.875,0,0,0-.666-.761l-12.408-2.913a.865.865,0,0,0-.937.38l-5.678,8.971a46.418,46.418,0,0,0-14.8,2.418l-8.231-6.717a.89.89,0,0,0-1.019-.061l-10.832,6.7a.888.888,0,0,0-.4.937l2.35,10.357a46.39,46.39,0,0,0-8.768,12.163l-10.567,1.073a.867.867,0,0,0-.761.666l-2.92,12.4a.865.865,0,0,0,.38.937l8.985,5.664a46.193,46.193,0,0,0,2.418,14.8l-6.717,8.224a.859.859,0,0,0-.068,1.005l6.71,10.839a.894.894,0,0,0,.937.394l10.37-2.343a46.118,46.118,0,0,0,12.163,8.754l1.073,10.561a.884.884,0,0,0,.666.767l12.415,2.914a.87.87,0,0,0,.937-.38l5.671-8.978a46.354,46.354,0,0,0,14.8-2.418l8.238,6.717a.88.88,0,0,0,1.012.068l10.839-6.71a.873.873,0,0,0,.394-.937l-2.343-10.35a46.242,46.242,0,0,0,8.761-12.17l10.574-1.066a.875.875,0,0,0,.761-.672l2.92-12.4a.874.874,0,0,0-.387-.93l-8.985-5.671a46.177,46.177,0,0,0-2.411-14.792l6.717-8.224a.869.869,0,0,0,.068-1.012l-6.71-10.832" transform="translate(389.758 -285.768)" fill="#c6c9d3"/>
    <path id="Path_116" data-name="Path 116" d="M1123.459,279.915a9.7,9.7,0,0,0,1.413.075,9.6,9.6,0,0,0,9.433-9.739,9.594,9.594,0,1,0-19.186.306A9.617,9.617,0,0,0,1123.459,279.915Zm2.975-22.432a13.017,13.017,0,1,1-1.929-.115,14.078,14.078,0,0,1,1.929.115" transform="translate(407.983 -267.547)" fill="#e8e8ef"/>
    <path id="Path_117" data-name="Path 117" d="M1137.037,246.557c1.08.143,2.166.34,3.253.591a33.063,33.063,0,0,1,6.255,2.16c.088.048.183.081.272.129a1.716,1.716,0,0,1,.971,1.779,2.03,2.03,0,0,1-.149.516,1.727,1.727,0,0,1-2.3.815,29.43,29.43,0,0,0-5.834-2.044c-.109-.027-.224-.048-.326-.075a28.853,28.853,0,0,0-14.221.387,29.236,29.236,0,0,0-7.165,3.124l-.054.041c-.054.034-.115.061-.17.1a28.817,28.817,0,0,0-12.978,18.024,29.594,29.594,0,0,0-.536,2.934,29.036,29.036,0,0,0,57.061,10.357,26.521,26.521,0,0,0,.53-2.9,28.754,28.754,0,0,0-1.121-12.544,1.656,1.656,0,0,1-.061-.747,1.726,1.726,0,0,1,3.355-.306,32.34,32.34,0,0,1,1.25,14.038,30.971,30.971,0,0,1-.591,3.246,32.488,32.488,0,0,1-63.845-11.586c.143-1.093.346-2.194.6-3.287a32.529,32.529,0,0,1,35.811-24.754" transform="translate(399.631 -275.732)" fill="#e8e8ef"/>
    <path id="Path_118" data-name="Path 118" d="M919.629,698.29a10.57,10.57,0,0,0,10.552,10.527h570.584a10.566,10.566,0,0,0,10.552-10.527L1516.061,371c0-5.786-6.833-17.087-19.349-16.238l-557.632-14.4A26.557,26.557,0,0,0,911.8,367.512l7.832,330.778" transform="translate(259.965 -205.879)" fill="#333435"/>
    <path id="Path_119" data-name="Path 119" d="M925.662,682.9a10,10,0,0,0,9.988,9.963h547a10,10,0,0,0,9.981-9.963l4.481-297.121c-.53-17.875-16.236-24.3-25.755-23.919L936.887,347.542a18.662,18.662,0,0,0-19.173,19.09L925.662,682.9" transform="translate(264.337 -200.578)" fill="#a8abb2"/>
    <path id="Path_120" data-name="Path 120" d="M1245.242,444.615h-.021a1.318,1.318,0,0,1-1.44-1.148l.353-18.588a1.328,1.328,0,0,1,1.46-1.114h.021a1.313,1.313,0,0,1,1.44,1.141L1246.7,443.5a1.328,1.328,0,0,1-1.46,1.114" transform="translate(505.827 -144.438)" fill="#c6c9d3"/>
    <path id="Path_121" data-name="Path 121" d="M1327.215,448.8h-.014a1.308,1.308,0,0,1-1.44-1.141l1.351-71.207a11.922,11.922,0,0,0-4.951-10.024c-6.085-4.489-15.742-4.265-16.143-4.245l-170.639-3.525c-.8-.02-1.447-.537-1.419-1.161a1.286,1.286,0,0,1,1.5-1.093l170.53,3.531c1.066-.054,11.348-.19,18.194,4.869a13.879,13.879,0,0,1,5.847,11.654l-1.352,71.234a1.335,1.335,0,0,1-1.467,1.107" transform="translate(424.715 -194.245)" fill="#c6c9d3"/>
    <path id="Path_122" data-name="Path 122" d="M905.382,580.13H1539.3a4.385,4.385,0,0,0,4.378-4.367V555.742a4.385,4.385,0,0,0-4.378-4.367H905.382A4.38,4.38,0,0,0,901,555.742v20.021a4.38,4.38,0,0,0,4.378,4.367" transform="translate(252 -50.026)" fill="#48494b"/>
    <path id="Path_123" data-name="Path 123" d="M1088.2,379.544h-.014L943.2,378.525a1.911,1.911,0,0,1-1.9-1.922l.068-9.291a1.907,1.907,0,0,1,1.908-1.895h.014l144.988,1.012a1.91,1.91,0,0,1,1.895,1.922l-.061,9.291a1.914,1.914,0,0,1-1.915,1.9" transform="translate(281.762 -187.595)" fill="#dcdde0"/>
    <path id="Path_124" data-name="Path 124" d="M1100.816,379.791h-.014l-48.544-.333a1.83,1.83,0,0,1-1.82-1.847l.061-9.447a1.838,1.838,0,0,1,1.84-1.82h.014l48.544.34a1.82,1.82,0,0,1,1.813,1.847l-.061,9.447a1.831,1.831,0,0,1-1.834,1.813" transform="translate(362.658 -186.91)" fill="#dcdde0"/>
    <path id="Path_125" data-name="Path 125" d="M1186.863,380.395h-.014l-97.292-.679a2.919,2.919,0,0,1-2.893-2.941l.048-7.28a2.917,2.917,0,0,1,2.913-2.893h.02l97.292.679a2.913,2.913,0,0,1,2.893,2.934l-.048,7.287a2.919,2.919,0,0,1-2.92,2.893" transform="translate(389.519 -186.719)" fill="#dcdde0"/>
    <path id="Path_126" data-name="Path 126" d="M978.061,392.024h-.02l-34.059-.238a2.923,2.923,0,0,1-2.9-2.934l.054-7.287a2.922,2.922,0,0,1,2.913-2.893h.02l34.065.238a2.917,2.917,0,0,1,2.893,2.934l-.054,7.287a2.909,2.909,0,0,1-2.913,2.893" transform="translate(281.601 -177.792)" fill="#dcdde0"/>
    <path id="Path_127" data-name="Path 127" d="M1071.034,392.688h-.014l-104.4-.727a1.913,1.913,0,0,1-1.9-1.929l.068-9.291a1.907,1.907,0,0,1,1.908-1.895h.014l104.4.733a1.912,1.912,0,0,1,1.9,1.922l-.068,9.291a1.907,1.907,0,0,1-1.908,1.895" transform="translate(299.198 -177.662)" fill="#dcdde0"/>
    <path id="Path_128" data-name="Path 128" d="M1100.964,393.06h-.014l-48.544-.333a1.835,1.835,0,0,1-1.82-1.847l.061-9.447a1.836,1.836,0,0,1,1.834-1.82h.014l48.551.34a1.83,1.83,0,0,1,1.82,1.847l-.068,9.447a1.83,1.83,0,0,1-1.833,1.813" transform="translate(362.769 -177.096)" fill="#dcdde0"/>
    <path id="Path_129" data-name="Path 129" d="M1255.7,394.142h-.02l-145.233-1.019a2.907,2.907,0,0,1-2.893-2.927l.048-7.294a2.916,2.916,0,0,1,2.914-2.886h.02l145.239,1.012a2.915,2.915,0,0,1,2.893,2.941l-.048,7.28a2.919,2.919,0,0,1-2.92,2.893" transform="translate(405.036 -176.798)" fill="#dcdde0"/>
    <path id="Path_130" data-name="Path 130" d="M977.951,405.274h-.02l-34.058-.244a2.919,2.919,0,0,1-2.9-2.934l.054-7.28a2.913,2.913,0,0,1,2.913-2.893h.02l34.058.238a2.914,2.914,0,0,1,2.9,2.934l-.054,7.28a2.91,2.91,0,0,1-2.913,2.9" transform="translate(281.52 -167.992)" fill="#dcdde0"/>
    <path id="Path_131" data-name="Path 131" d="M1070.913,405.938h-.014L966.5,405.2a1.906,1.906,0,0,1-1.895-1.922l.061-9.291a1.909,1.909,0,0,1,1.915-1.895h.014l104.4.727a1.916,1.916,0,0,1,1.9,1.922l-.068,9.3a1.912,1.912,0,0,1-1.908,1.895" transform="translate(299.108 -167.862)" fill="#dcdde0"/>
    <path id="Path_132" data-name="Path 132" d="M1100.854,406.313h-.014l-48.551-.34a1.835,1.835,0,0,1-1.82-1.847l.068-9.447a1.836,1.836,0,0,1,1.834-1.82h.014l48.544.34a1.835,1.835,0,0,1,1.82,1.847l-.068,9.447a1.83,1.83,0,0,1-1.827,1.82" transform="translate(362.682 -167.299)" fill="#dcdde0"/>
    <path id="Path_133" data-name="Path 133" d="M1312.034,407.788h-.027l-191.02-1.338a2.913,2.913,0,0,1-2.893-2.934l.048-7.28a2.92,2.92,0,0,1,2.92-2.9h.021l191.02,1.338a2.913,2.913,0,0,1,2.893,2.934l-.048,7.287a2.917,2.917,0,0,1-2.914,2.893" transform="translate(412.997 -166.946)" fill="#dcdde0"/>
    <path id="Path_134" data-name="Path 134" d="M978.038,418.543h-.02L943.96,418.3a2.909,2.909,0,0,1-2.893-2.934l.047-7.287a2.918,2.918,0,0,1,2.92-2.886h.02l34.058.238a2.909,2.909,0,0,1,2.893,2.934l-.048,7.28a2.92,2.92,0,0,1-2.92,2.9" transform="translate(281.589 -158.178)" fill="#dcdde0"/>
    <path id="Path_135" data-name="Path 135" d="M1071.141,419.208h-.014l-104.4-.733a1.906,1.906,0,0,1-1.895-1.922l.061-9.291a1.913,1.913,0,0,1,1.915-1.895h.014l104.4.727a1.906,1.906,0,0,1,1.895,1.922l-.061,9.291a1.915,1.915,0,0,1-1.915,1.9" transform="translate(299.282 -158.048)" fill="#dcdde0"/>
    <path id="Path_136" data-name="Path 136" d="M1101,419.583h-.013l-48.551-.34a1.835,1.835,0,0,1-1.82-1.847l.068-9.447a1.836,1.836,0,0,1,1.834-1.82h.014l48.544.34a1.831,1.831,0,0,1,1.82,1.847l-.068,9.447a1.83,1.83,0,0,1-1.827,1.82" transform="translate(362.792 -157.485)" fill="#dcdde0"/>
    <path id="Path_137" data-name="Path 137" d="M1312.534,421.055h-.021l-191.02-1.338a2.913,2.913,0,0,1-2.9-2.927l.054-7.287a2.913,2.913,0,0,1,2.913-2.893h.021l191.02,1.338a2.923,2.923,0,0,1,2.9,2.934l-.054,7.287a2.912,2.912,0,0,1-2.914,2.886" transform="translate(413.366 -157.129)" fill="#dcdde0"/>
    <path id="Path_138" data-name="Path 138" d="M977.877,432.3h-.02l-34.058-.238a2.91,2.91,0,0,1-2.9-2.934l.054-7.28a2.908,2.908,0,0,1,2.913-2.893h.02l34.058.238a2.923,2.923,0,0,1,2.9,2.934l-.054,7.287a2.911,2.911,0,0,1-2.913,2.886" transform="translate(281.465 -147.997)" fill="#dcdde0"/>
    <path id="Path_139" data-name="Path 139" d="M1070.925,432.974h-.014l-104.4-.733a1.911,1.911,0,0,1-1.9-1.922l.068-9.291a1.907,1.907,0,0,1,1.908-1.895h.014l104.4.727a1.912,1.912,0,0,1,1.895,1.929l-.068,9.291a1.907,1.907,0,0,1-1.908,1.895" transform="translate(299.117 -147.867)" fill="#dcdde0"/>
    <path id="Path_140" data-name="Path 140" d="M1100.815,433.348h-.014l-48.544-.34a1.836,1.836,0,0,1-1.827-1.847l.068-9.447a1.836,1.836,0,0,1,1.834-1.82h.014l48.544.346a1.829,1.829,0,0,1,1.82,1.84l-.061,9.447a1.836,1.836,0,0,1-1.834,1.82" transform="translate(362.653 -147.304)" fill="#dcdde0"/>
    <path id="Path_141" data-name="Path 141" d="M1312.207,434.82h-.02l-191.02-1.338a2.9,2.9,0,0,1-2.893-2.927l.054-7.287a2.909,2.909,0,0,1,2.913-2.893h.021l191.02,1.338a2.914,2.914,0,0,1,2.9,2.934l-.054,7.28a2.914,2.914,0,0,1-2.92,2.893" transform="translate(413.129 -146.948)" fill="#dcdde0"/>
    <path id="Path_142" data-name="Path 142" d="M977.964,445.574h-.02l-34.058-.238a2.909,2.909,0,0,1-2.893-2.934l.047-7.28a2.923,2.923,0,0,1,2.914-2.9h.02l34.065.245a2.909,2.909,0,0,1,2.893,2.934l-.054,7.287a2.907,2.907,0,0,1-2.914,2.886" transform="translate(281.534 -138.186)" fill="#dcdde0"/>
    <path id="Path_143" data-name="Path 143" d="M1071.159,446.243h-.014l-104.4-.727a1.917,1.917,0,0,1-1.9-1.929l.068-9.291a1.907,1.907,0,0,1,1.908-1.895h.014l104.4.727a1.916,1.916,0,0,1,1.895,1.929l-.068,9.291a1.9,1.9,0,0,1-1.908,1.895" transform="translate(299.291 -138.053)" fill="#dcdde0"/>
    <path id="Path_144" data-name="Path 144" d="M1100.956,446.618h-.007l-48.551-.34a1.835,1.835,0,0,1-1.82-1.847l.068-9.447a1.836,1.836,0,0,1,1.834-1.82h.014l48.544.34a1.839,1.839,0,0,1,1.82,1.847l-.061,9.447a1.842,1.842,0,0,1-1.84,1.82" transform="translate(362.763 -137.489)" fill="#dcdde0"/>
    <path id="Path_145" data-name="Path 145" d="M1203.882,447.333h-.02l-114.773-.8a2.917,2.917,0,0,1-2.893-2.934l.048-7.287a2.917,2.917,0,0,1,2.913-2.893h.02l114.78.8a2.917,2.917,0,0,1,2.893,2.934l-.054,7.287a2.908,2.908,0,0,1-2.913,2.893" transform="translate(389.185 -137.301)" fill="#dcdde0"/>
    <path id="Path_146" data-name="Path 146" d="M1088.666,459.617h-.014l-145.789-1.026a1.907,1.907,0,0,1-1.9-1.922l.068-9.291a1.907,1.907,0,0,1,1.908-1.895h.014l145.8,1.019a1.906,1.906,0,0,1,1.895,1.922l-.061,9.3a1.913,1.913,0,0,1-1.915,1.895" transform="translate(281.511 -128.377)" fill="#dcdde0"/>
    <path id="Path_147" data-name="Path 147" d="M1100.843,459.871h-.014l-48.544-.346a1.829,1.829,0,0,1-1.82-1.84l.068-9.447a1.838,1.838,0,0,1,1.834-1.827.007.007,0,0,1,.007.007l48.551.34a1.831,1.831,0,0,1,1.82,1.847l-.068,9.447a1.832,1.832,0,0,1-1.833,1.82" transform="translate(362.679 -127.693)" fill="#dcdde0"/>
    <path id="Path_148" data-name="Path 148" d="M1249.181,460.9h-.027l-144.519-1.005a2.919,2.919,0,0,1-2.9-2.934l.054-7.287a2.908,2.908,0,0,1,2.913-2.893h.02l144.526,1.012a2.919,2.919,0,0,1,2.9,2.934l-.054,7.28a2.913,2.913,0,0,1-2.913,2.893" transform="translate(400.723 -127.421)" fill="#dcdde0"/>
    <path id="Path_149" data-name="Path 149" d="M976.41,472.08h-.027l-32.463-.224a2.917,2.917,0,0,1-2.893-2.934l.047-7.287a2.917,2.917,0,0,1,2.913-2.893h.027l32.463.231a2.9,2.9,0,0,1,2.893,2.927l-.047,7.287a2.917,2.917,0,0,1-2.913,2.893" transform="translate(281.56 -118.572)" fill="#dcdde0"/>
    <path id="Path_150" data-name="Path 150" d="M1071.266,472.763h-.007l-104.4-.733a1.91,1.91,0,0,1-1.895-1.922l.061-9.291a1.909,1.909,0,0,1,1.915-1.895h.014l104.4.727a1.9,1.9,0,0,1,1.895,1.922l-.061,9.291a1.914,1.914,0,0,1-1.915,1.9" transform="translate(299.375 -118.439)" fill="#dcdde0"/>
    <path id="Path_151" data-name="Path 151" d="M1100.991,473.14h-.014l-48.544-.346a1.829,1.829,0,0,1-1.82-1.84l.068-9.447a1.833,1.833,0,0,1,1.834-1.827h.014l48.544.346a1.83,1.83,0,0,1,1.82,1.847l-.068,9.44a1.838,1.838,0,0,1-1.834,1.827" transform="translate(362.789 -117.878)" fill="#dcdde0"/>
    <path id="Path_152" data-name="Path 152" d="M1315.514,474.629h-.02l-197.7-1.379a2.919,2.919,0,0,1-2.893-2.941l.048-7.28a2.909,2.909,0,0,1,2.914-2.893h.02l197.7,1.379a2.918,2.918,0,0,1,2.9,2.934l-.047,7.287a2.919,2.919,0,0,1-2.92,2.893" transform="translate(410.637 -117.54)" fill="#dcdde0"/>
    <path id="Path_153" data-name="Path 153" d="M977.2,511.677h-.02l-34.065-.231a2.917,2.917,0,0,1-2.893-2.934l.054-7.287a2.909,2.909,0,0,1,2.914-2.893h.02l34.059.238a2.923,2.923,0,0,1,2.9,2.934l-.054,7.287a2.916,2.916,0,0,1-2.914,2.886" transform="translate(280.963 -89.291)" fill="#dcdde0"/>
    <path id="Path_154" data-name="Path 154" d="M1070.417,512.355h-.014l-104.4-.733a1.916,1.916,0,0,1-1.9-1.922l.068-9.3a1.913,1.913,0,0,1,1.915-1.895h.007l104.4.733a1.91,1.91,0,0,1,1.895,1.922l-.061,9.291a1.914,1.914,0,0,1-1.915,1.9" transform="translate(298.741 -89.161)" fill="#dcdde0"/>
    <path id="Path_155" data-name="Path 155" d="M1100.187,512.723h-.014l-48.544-.339a1.833,1.833,0,0,1-1.82-1.84l.068-9.447a1.832,1.832,0,0,1,1.827-1.827h.014l48.551.346a1.83,1.83,0,0,1,1.82,1.847l-.068,9.44a1.832,1.832,0,0,1-1.834,1.82" transform="translate(362.193 -88.597)" fill="#dcdde0"/>
    <path id="Path_156" data-name="Path 156" d="M1203.109,513.443h-.02l-114.773-.808a2.913,2.913,0,0,1-2.893-2.934l.054-7.287a2.907,2.907,0,0,1,2.913-2.886h.02l114.773.8a2.909,2.909,0,0,1,2.893,2.934l-.054,7.28a2.914,2.914,0,0,1-2.913,2.9" transform="translate(388.612 -88.406)" fill="#dcdde0"/>
    <path id="Path_157" data-name="Path 157" d="M1087.93,525.723h-.02L942.12,524.7a1.916,1.916,0,0,1-1.9-1.922l.068-9.291a1.913,1.913,0,0,1,1.908-1.9h.014l145.8,1.019a1.913,1.913,0,0,1,1.9,1.929l-.068,9.291a1.912,1.912,0,0,1-1.908,1.895" transform="translate(280.963 -79.485)" fill="#dcdde0"/>
    <path id="Path_158" data-name="Path 158" d="M1100.076,525.973h-.014l-48.551-.34a1.839,1.839,0,0,1-1.82-1.847l.068-9.447a1.836,1.836,0,0,1,1.834-1.82h.014l48.544.34a1.826,1.826,0,0,1,1.82,1.847l-.068,9.447a1.826,1.826,0,0,1-1.827,1.82" transform="translate(362.106 -78.798)" fill="#dcdde0"/>
    <path id="Path_159" data-name="Path 159" d="M1248.365,527h-.021l-144.533-1.012a2.909,2.909,0,0,1-2.893-2.934l.054-7.287a2.907,2.907,0,0,1,2.913-2.886h.021l144.533,1.012a2.911,2.911,0,0,1,2.893,2.927l-.054,7.287a2.917,2.917,0,0,1-2.913,2.893" transform="translate(400.118 -78.529)" fill="#dcdde0"/>
    <path id="Path_160" data-name="Path 160" d="M975.637,538.193h-.02l-32.463-.231a2.919,2.919,0,0,1-2.9-2.934l.054-7.287a2.909,2.909,0,0,1,2.913-2.893h.02l32.463.231a2.914,2.914,0,0,1,2.9,2.934l-.054,7.28a2.914,2.914,0,0,1-2.913,2.9" transform="translate(280.989 -69.619)" fill="#dcdde0"/>
    <path id="Path_161" data-name="Path 161" d="M1070.53,538.868h-.014l-104.4-.727a1.92,1.92,0,0,1-1.895-1.929l.068-9.291a1.907,1.907,0,0,1,1.908-1.895h.014l104.4.727a1.913,1.913,0,0,1,1.9,1.929l-.068,9.291a1.911,1.911,0,0,1-1.908,1.895" transform="translate(298.825 -69.486)" fill="#dcdde0"/>
    <path id="Path_162" data-name="Path 162" d="M1100.225,539.243h-.014l-48.544-.34a1.836,1.836,0,0,1-1.827-1.847l.068-9.447a1.836,1.836,0,0,1,1.834-1.82h.014l48.544.34a1.832,1.832,0,0,1,1.827,1.847l-.068,9.447a1.836,1.836,0,0,1-1.834,1.82" transform="translate(362.216 -68.923)" fill="#dcdde0"/>
    <path id="Path_163" data-name="Path 163" d="M1314.7,540.735h-.02l-197.709-1.379a2.917,2.917,0,0,1-2.893-2.934l.054-7.287a2.909,2.909,0,0,1,2.913-2.893h.02l197.7,1.385a2.923,2.923,0,0,1,2.9,2.934l-.054,7.287a2.912,2.912,0,0,1-2.914,2.886" transform="translate(410.031 -68.589)" fill="#dcdde0"/>
    <path id="Path_164" data-name="Path 164" d="M976.052,485.573h-.02l-32.463-.224a2.913,2.913,0,0,1-2.893-2.934l.047-7.287a2.917,2.917,0,0,1,2.913-2.893h.02l32.469.231a2.9,2.9,0,0,1,2.893,2.927l-.047,7.287a2.919,2.919,0,0,1-2.92,2.893" transform="translate(281.301 -108.593)" fill="#dcdde0"/>
    <path id="Path_165" data-name="Path 165" d="M1070.7,486.251h-.014l-104.4-.727a1.912,1.912,0,0,1-1.895-1.929l.061-9.291a1.909,1.909,0,0,1,1.915-1.895h.014l104.4.733a1.907,1.907,0,0,1,1.9,1.922l-.068,9.291a1.907,1.907,0,0,1-1.908,1.895" transform="translate(298.952 -108.463)" fill="#dcdde0"/>
    <path id="Path_166" data-name="Path 166" d="M1100.546,486.625h-.014l-48.544-.34a1.835,1.835,0,0,1-1.82-1.847l.061-9.447a1.84,1.84,0,0,1,1.833-1.82h.021l48.538.346a1.831,1.831,0,0,1,1.827,1.84l-.068,9.447a1.832,1.832,0,0,1-1.833,1.82" transform="translate(362.459 -107.899)" fill="#dcdde0"/>
    <path id="Path_167" data-name="Path 167" d="M1314.526,488.118h-.02L1116.8,486.732a2.912,2.912,0,0,1-2.886-2.934l.041-7.28a2.919,2.919,0,0,1,2.92-2.893h.02L1314.6,475a2.922,2.922,0,0,1,2.893,2.934l-.054,7.287a2.909,2.909,0,0,1-2.914,2.893" transform="translate(409.907 -107.564)" fill="#dcdde0"/>
    <path id="Path_168" data-name="Path 168" d="M976.141,498.842h-.02l-32.463-.231a2.909,2.909,0,0,1-2.9-2.927l.054-7.287a2.909,2.909,0,0,1,2.913-2.893h.02l32.463.224a2.923,2.923,0,0,1,2.9,2.934l-.054,7.287a2.913,2.913,0,0,1-2.913,2.893" transform="translate(281.361 -98.779)" fill="#dcdde0"/>
    <path id="Path_169" data-name="Path 169" d="M1070.937,499.527h-.014l-104.4-.734a1.912,1.912,0,0,1-1.895-1.929l.061-9.291a1.913,1.913,0,0,1,1.915-1.895h.014l104.4.733a1.906,1.906,0,0,1,1.895,1.922l-.061,9.291a1.913,1.913,0,0,1-1.908,1.9" transform="translate(299.126 -98.648)" fill="#dcdde0"/>
    <path id="Path_170" data-name="Path 170" d="M1100.695,499.9h-.014l-48.544-.34a1.835,1.835,0,0,1-1.82-1.847l.061-9.447a1.836,1.836,0,0,1,1.833-1.82h.021l48.538.346a1.831,1.831,0,0,1,1.827,1.84l-.068,9.447a1.832,1.832,0,0,1-1.833,1.82" transform="translate(362.569 -98.085)" fill="#dcdde0"/>
    <path id="Path_171" data-name="Path 171" d="M1315.046,501.394h-.014l-197.709-1.385a2.913,2.913,0,0,1-2.893-2.934l.047-7.287a2.917,2.917,0,0,1,2.913-2.893h.027l197.709,1.385a2.917,2.917,0,0,1,2.893,2.934l-.054,7.287a2.919,2.919,0,0,1-2.92,2.893" transform="translate(410.29 -97.75)" fill="#dcdde0"/>
    <path id="Path_172" data-name="Path 172" d="M1040.393,679.293h-.007l-2.676-.02a1.078,1.078,0,0,1-1.066-1.073l2.255-320.985a1.068,1.068,0,0,1,1.066-1.066h.007l2.676.027a1.069,1.069,0,0,1,1.066,1.073l-2.248,320.978a1.074,1.074,0,0,1-1.073,1.066" transform="translate(352.426 -194.216)" fill="#dcdde0"/>
    <path id="Path_173" data-name="Path 173" d="M996.212,673.717a1.932,1.932,0,0,1-1.936-1.922l-1.718-398.271a1.925,1.925,0,0,1,1.922-1.942h.007a1.932,1.932,0,0,1,1.936,1.922l1.725,398.277a1.925,1.925,0,0,1-1.929,1.936h-.007" transform="translate(319.785 -257.048)" fill="#fff"/>
    <path id="Path_174" data-name="Path 174" d="M1107.534,355.772H962.01a19.467,19.467,0,0,1-19.471-19.457V282.27a19.467,19.467,0,0,1,19.471-19.457h145.525a19.468,19.468,0,0,1,19.478,19.457v54.045a19.468,19.468,0,0,1-19.478,19.457" transform="translate(282.677 -263.525)" fill="#e5b731"/>
    <path id="Path_175" data-name="Path 175" d="M1101.206,351.555H964.225A19.463,19.463,0,0,1,944.754,332.1V284.43a19.463,19.463,0,0,1,19.471-19.457h136.981a19.467,19.467,0,0,1,19.471,19.457V332.1a19.467,19.467,0,0,1-19.471,19.457" transform="translate(284.313 -261.93)" fill="#f3d33f"/>
    <path id="Path_176" data-name="Path 176" d="M1092.061,287.412h-132.6a5.372,5.372,0,1,1,0-10.744h132.6a5.372,5.372,0,1,1,0,10.744" transform="translate(291.202 -253.292)" fill="#fff"/>
    <path id="Path_177" data-name="Path 177" d="M1091.448,298.538h-132.6a5.369,5.369,0,1,1,0-10.737h132.6a5.369,5.369,0,1,1,0,10.737" transform="translate(290.749 -245.069)" fill="#fff"/>
    <path id="Path_178" data-name="Path 178" d="M1040.349,308.943H958.758a5.372,5.372,0,1,1,0-10.744h81.591a5.372,5.372,0,1,1,0,10.744" transform="translate(290.683 -237.311)" fill="#fff"/>
    <path id="Path_179" data-name="Path 179" d="M1107.534,425.257H962.01A19.467,19.467,0,0,1,942.539,405.8V351.754A19.467,19.467,0,0,1,962.01,332.3h145.525a19.468,19.468,0,0,1,19.478,19.457V405.8a19.468,19.468,0,0,1-19.478,19.457" transform="translate(282.677 -212.075)" fill="#e5b731"/>
    <path id="Path_180" data-name="Path 180" d="M1101.209,421.04H964.228a19.47,19.47,0,0,1-19.478-19.464V353.914a19.468,19.468,0,0,1,19.478-19.457h136.981a19.467,19.467,0,0,1,19.471,19.457v47.661a19.468,19.468,0,0,1-19.471,19.464" transform="translate(284.31 -210.479)" fill="#f3d33f"/>
    <path id="Path_181" data-name="Path 181" d="M1092.061,356.9h-132.6a5.372,5.372,0,1,1,0-10.744h132.6a5.372,5.372,0,1,1,0,10.744" transform="translate(291.202 -201.844)" fill="#fff"/>
    <path id="Path_182" data-name="Path 182" d="M1091.448,368.029h-132.6a5.372,5.372,0,1,1,0-10.744h132.6a5.372,5.372,0,1,1,0,10.744" transform="translate(290.749 -193.611)" fill="#fff"/>
    <path id="Path_183" data-name="Path 183" d="M1040.346,378.427H958.755a5.372,5.372,0,1,1,0-10.744h81.591a5.372,5.372,0,1,1,0,10.744" transform="translate(290.686 -185.92)" fill="#fff"/>
    <path id="Path_184" data-name="Path 184" d="M1107.534,490.569H962.01a19.468,19.468,0,0,1-19.471-19.464V417.067a19.467,19.467,0,0,1,19.471-19.457h145.525a19.468,19.468,0,0,1,19.478,19.457v54.039a19.47,19.47,0,0,1-19.478,19.464" transform="translate(282.677 -163.76)" fill="#e5b731"/>
    <path id="Path_185" data-name="Path 185" d="M1101.209,486.352H964.228a19.47,19.47,0,0,1-19.478-19.464V419.227a19.464,19.464,0,0,1,19.478-19.457h136.981a19.463,19.463,0,0,1,19.471,19.457v47.661a19.468,19.468,0,0,1-19.471,19.464" transform="translate(284.31 -162.164)" fill="#f3d33f"/>
    <path id="Path_186" data-name="Path 186" d="M1092.061,422.209h-132.6a5.372,5.372,0,1,1,0-10.744h132.6a5.372,5.372,0,1,1,0,10.744" transform="translate(291.202 -153.539)" fill="#fff"/>
    <path id="Path_187" data-name="Path 187" d="M1091.448,433.342h-132.6a5.372,5.372,0,1,1,0-10.744h132.6a5.372,5.372,0,1,1,0,10.744" transform="translate(290.749 -145.305)" fill="#fff"/>
    <path id="Path_188" data-name="Path 188" d="M1040.346,443.736H958.755a5.372,5.372,0,0,1,0-10.744h81.591a5.372,5.372,0,1,1,0,10.744" transform="translate(290.686 -137.617)" fill="#fff"/>
    <path id="Path_189" data-name="Path 189" d="M1107.968,554.995H962.443a19.468,19.468,0,0,1-19.471-19.464V481.492a19.467,19.467,0,0,1,19.471-19.457h145.525a19.468,19.468,0,0,1,19.478,19.457v54.039a19.47,19.47,0,0,1-19.478,19.464" transform="translate(282.997 -116.101)" fill="#e5b731"/>
    <path id="Path_190" data-name="Path 190" d="M1101.635,550.778H964.661a19.47,19.47,0,0,1-19.478-19.464V483.652A19.468,19.468,0,0,1,964.661,464.2h136.974a19.469,19.469,0,0,1,19.478,19.457v47.661a19.47,19.47,0,0,1-19.478,19.464" transform="translate(284.63 -114.506)" fill="#f3d33f"/>
    <path id="Path_191" data-name="Path 191" d="M1092.5,486.635h-132.6a5.372,5.372,0,1,1,0-10.744h132.6a5.372,5.372,0,1,1,0,10.744" transform="translate(291.523 -105.89)" fill="#fff"/>
    <path id="Path_192" data-name="Path 192" d="M1091.882,497.77H959.274a5.375,5.375,0,0,1,0-10.751h132.607a5.375,5.375,0,1,1,0,10.751" transform="translate(291.07 -97.659)" fill="#fff"/>
    <path id="Path_193" data-name="Path 193" d="M1040.779,508.162H959.188a5.372,5.372,0,0,1,0-10.744h81.591a5.372,5.372,0,1,1,0,10.744" transform="translate(291.006 -89.968)" fill="#fff"/>
    <path id="Path_194" data-name="Path 194" d="M1124.242,423.219s6.458,3.131,7.64,6.737c.951,2.886,8.082,3.26,8.788,8.937a6.531,6.531,0,0,0,5.46,5.739c7.287,1.114,18.513,4.9,20.313,17.535,1.372,9.644-3.552,13.3-8.72,14.567a7.318,7.318,0,0,0-5.548,8.448c.74,3.667-.36,7.912-6.724,11.267-14.262,7.525-28.5-17.814-28.5-17.814l-2.92-44.239,10.214-11.179" transform="translate(409.749 -144.823)" fill="#333435"/>
    <g id="Group_23" data-name="Group 23" transform="translate(1454.284 267.598)" clip-path="url(#clip-path-2)">
      <g id="Group_22" data-name="Group 22" transform="translate(0.319 0.299)" clip-path="url(#clip-path-3)">
        <g id="Group_21" data-name="Group 21" clip-path="url(#clip-path-4)">
          <path id="Path_195" data-name="Path 195" d="M1117.956,537.041l73.149-64.3-64.979-73.815-73.149,64.3Zm0,0" transform="translate(-1090.016 -430.668)" fill="#fff"/>
        </g>
      </g>
    </g>
    <path id="Path_199" data-name="Path 199" d="M1153.63,583.993l.924,7.579a3.125,3.125,0,0,0,2.75,2.737,48.636,48.636,0,0,0,10.153.163,2.678,2.678,0,0,0,2.248-3.477c-.924-2.927-2.628-7.321-5.08-9.909H1156.2a2.594,2.594,0,0,0-2.574,2.907" transform="translate(439.032 -28.082)" fill="#333435"/>
    <g id="Group_27" data-name="Group 27" transform="translate(1520.228 466.883)" clip-path="url(#clip-path-5)">
      <g id="Group_26" data-name="Group 26" transform="translate(0.122 0.217)" clip-path="url(#clip-path-6)">
        <g id="Group_25" data-name="Group 25" clip-path="url(#clip-path-7)">
          <g id="Group_24" data-name="Group 24" transform="translate(-39.41 -9.168)" clip-path="url(#clip-path-8)">
            <path id="Path_200" data-name="Path 200" d="M1146.891,642.455l44.035-86.977-57.489-29.06L1089.4,613.394Zm0,0" transform="translate(-1089.402 -526.391)" fill="url(#linear-gradient)"/>
          </g>
        </g>
      </g>
    </g>
    <path id="Path_205" data-name="Path 205" d="M1112.027,597.491h6.71a4.034,4.034,0,0,0,3.205-1.576c2.092-2.71,6.425-8.007,8.5-8.15,2.791-.183,2.431,9.725,2.431,9.725h1.562l1.983-12.313a7.3,7.3,0,0,0-3.83-7.62s-.638,4.713-4.1,6.8-14.065,9.542-14.065,9.542a9.962,9.962,0,0,0-2.73.075,1.775,1.775,0,0,0,.333,3.518" transform="translate(406.936 -30.687)" fill="#333435"/>
    <g id="Group_31" data-name="Group 31" transform="translate(1555.437 467.583)" clip-path="url(#clip-path-9)">
      <g id="Group_30" data-name="Group 30" transform="translate(0.088 0.013)" clip-path="url(#clip-path-10)">
        <g id="Group_29" data-name="Group 29" clip-path="url(#clip-path-11)">
          <g id="Group_28" data-name="Group 28" transform="translate(-34.221 -21.827)" clip-path="url(#clip-path-12)">
            <path id="Path_206" data-name="Path 206" d="M1113.449,552.551l39.77,98.678,76.185-30.656-39.763-98.678Zm0,0" transform="translate(-1111.948 -517.569)" fill="url(#linear-gradient-2)"/>
          </g>
        </g>
      </g>
    </g>
    <path id="Path_211" data-name="Path 211" d="M1138.8,511.228c-7.185-30.439,11.022-47.655,11.022-47.655-11.484-11.022-32.422-16.034-32.422-16.034s-19.98,14.588-17.61,26.018c1.385,6.689,14.044,40.1,14.044,40.1s11.695,5.535,24.965-2.431" transform="translate(399.056 -126.836)" fill="#f7e057"/>
    <path id="Path_212" data-name="Path 212" d="M1149.3,499.242c-2.92-8.808-15.939-15.07-15.939-15.07-13.27,7.966-24.965,2.431-24.965,2.431s-2.628,10.017-.815,19.335,13.175,69.17,13.175,69.17c17.9,3.627,45.441-3.64,45.441-3.64-11.409-20.238-13.97-63.424-16.9-72.226" transform="translate(404.509 -99.661)" fill="#5c5e61"/>
    <g id="Group_35" data-name="Group 35" transform="translate(1518.056 297.855)" clip-path="url(#clip-path-13)">
      <g id="Group_34" data-name="Group 34" transform="translate(0.16 0.199)" clip-path="url(#clip-path-14)">
        <g id="Group_33" data-name="Group 33" clip-path="url(#clip-path-15)">
          <g id="Group_32" data-name="Group 32" transform="translate(-6.809 -4.294)" clip-path="url(#clip-path-16)">
            <path id="Path_213" data-name="Path 213" d="M1114.336,470.64l23.294-5.128-7.321-33.223-23.3,5.127Zm0,0" transform="translate(-1106.872 -431.888)" fill="url(#linear-gradient-3)"/>
          </g>
        </g>
      </g>
    </g>
    <g id="Group_38" data-name="Group 38" transform="translate(1523.009 336.586)" clip-path="url(#clip-path-17)">
      <g id="Group_37" data-name="Group 37" transform="translate(0.149 0.149)" clip-path="url(#clip-path-18)">
        <g id="Group_36" data-name="Group 36" clip-path="url(#clip-path-19)">
          <path id="Path_218" data-name="Path 218" d="M1194.438,549.32l26.473-75.5-91.133-31.9-26.466,75.506Zm0,0" transform="translate(-1121.329 -467.722)" fill="#fff"/>
        </g>
      </g>
    </g>
    <g id="Group_41" data-name="Group 41" transform="translate(1508.542 275.675)" clip-path="url(#clip-path-20)">
      <g id="Group_40" data-name="Group 40" transform="translate(0.052 0.021)" clip-path="url(#clip-path-21)">
        <g id="Group_39" data-name="Group 39" clip-path="url(#clip-path-22)">
          <path id="Path_222" data-name="Path 222" d="M1096.359,452.346l38.609,18.961,19.729-40.123-38.609-18.961Zm0,0" transform="translate(-1111.929 -428.659)" fill="#fff"/>
        </g>
      </g>
    </g>
    <path id="Path_226" data-name="Path 226" d="M1122.207,442.14s2.282-15.362-10.479-13.012l-2.581,2.689s-6.248-7.029.666-12.347,16.5-3.953,21.807,5.725,7.24,16.469,2.784,22.479-7.79.849-7.79.849,2.037-5.2.346-7.43-3.878,1.3-3.878,1.3l-.876-.251" transform="translate(404.202 -149.885)" fill="#333435"/>
    <g id="Group_44" data-name="Group 44" transform="translate(1527.914 287.288)" clip-path="url(#clip-path-23)">
      <g id="Group_43" data-name="Group 43" transform="translate(0.244 0.234)" clip-path="url(#clip-path-24)">
        <g id="Group_42" data-name="Group 42" clip-path="url(#clip-path-25)">
          <path id="Path_227" data-name="Path 227" d="M1113.969,438.129l11.919,5.854,6.3-12.808-11.919-5.854Zm0,0" transform="translate(-1118.478 -430.811)" fill="#fff"/>
        </g>
      </g>
    </g>
    <g id="Group_47" data-name="Group 47" transform="translate(1438.427 251.033)" clip-path="url(#clip-path-26)">
      <g id="Group_46" data-name="Group 46" transform="translate(0.289 0.075)" clip-path="url(#clip-path-27)">
        <g id="Group_45" data-name="Group 45" clip-path="url(#clip-path-28)">
          <path id="Path_231" data-name="Path 231" d="M1080.562,451.451l26.717-23.484L1083.5,400.957l-26.717,23.491Zm0,0" transform="translate(-1071.356 -412.407)" fill="#fff"/>
        </g>
      </g>
    </g>
    <g id="Group_51" data-name="Group 51" transform="translate(1447.558 260.883)" clip-path="url(#clip-path-29)">
      <g id="Group_50" data-name="Group 50" transform="translate(0.077 0.333)" clip-path="url(#clip-path-30)">
        <g id="Group_49" data-name="Group 49" clip-path="url(#clip-path-31)">
          <g id="Group_48" data-name="Group 48" transform="translate(-6.475 -4.774)" clip-path="url(#clip-path-32)">
            <path id="Path_235" data-name="Path 235" d="M1077.695,433.014l11.294-11.09-11.124-11.314L1066.57,421.7Zm0,0" transform="translate(-1066.57 -410.609)" fill="url(#linear-gradient-4)"/>
          </g>
        </g>
      </g>
    </g>
    <path id="Path_240" data-name="Path 240" d="M1142.318,504.59l-13.651-47.641a1.4,1.4,0,0,0-1.175-1.005c-2.479-.285-9.644-1.093-17.922-1.793-9.963-.849-21.542-1.528-28.456-.951a1.393,1.393,0,0,0-1.141,2.01c3.932,7.953,20.109,40.3,28.218,50.894a1.4,1.4,0,0,0,1.121.557l31.675-.292a1.4,1.4,0,0,0,1.331-1.779" transform="translate(384.427 -122.813)" fill="#333435"/>
    <path id="Path_241" data-name="Path 241" d="M1100.678,451.98l-9.9-1.643a.71.71,0,0,0-.795.924l.978,2.961a.706.706,0,0,0,.584.482l9.521,1.277a.717.717,0,0,0,.788-.869l-.611-2.587a.712.712,0,0,0-.57-.543" transform="translate(391.896 -124.799)" fill="#74767b"/>
    <path id="Path_242" data-name="Path 242" d="M1110.049,459.094l-.815-4.238a.98.98,0,0,0-.863-.795l-19.994-2.024a.971.971,0,0,0-1.052,1.2l1.27,5.284a.976.976,0,0,0,.9.754l19.539.985a.977.977,0,0,0,1.012-1.168" transform="translate(389.935 -123.537)" fill="#74767b"/>
    <g id="Group_54" data-name="Group 54" transform="translate(1506.424 353.824)" clip-path="url(#clip-path-33)">
      <g id="Group_53" data-name="Group 53" transform="translate(0.17 0.2)" clip-path="url(#clip-path-34)">
        <g id="Group_52" data-name="Group 52" clip-path="url(#clip-path-35)">
          <path id="Path_243" data-name="Path 243" d="M1123.264,492.515l7.627-21.759-22.3-7.81-7.627,21.766Zm0,0" transform="translate(-1106.537 -469.481)" fill="#fff"/>
        </g>
      </g>
    </g>
    <path id="Path_247" data-name="Path 247" d="M1206.548,631.233s-33.99-78.474-8.258-161.145a.647.647,0,0,1,1.2.129c6.2,50,8.048,104.159,7.056,161.015" transform="translate(464.986 -110.325)" fill="#74767b"/>
    <path id="Path_248" data-name="Path 248" d="M1203.2,620.606a.428.428,0,0,1-.414-.319c-6.038-21.406-8.333-57.787-9.189-84.538-.937-28.965-.441-53.2-.435-53.434a.416.416,0,0,1,.448-.428.434.434,0,0,1,.421.448c-.007.238-.5,24.442.435,53.387.862,26.7,3.144,63,9.155,84.328a.436.436,0,0,1-.305.543.6.6,0,0,1-.115.014" transform="translate(468.208 -101.349)" fill="#979aa0"/>
    <path id="Path_249" data-name="Path 249" d="M1205.784,637.73s-21-96.281,18.7-193.716a.607.607,0,0,1,1.175.231c-2.139,60.348-9.352,125.388-19.871,193.485" transform="translate(473.663 -129.61)" fill="#74767b"/>
    <path id="Path_250" data-name="Path 250" d="M1204.076,624.911a.436.436,0,0,1-.435-.394c-4.733-49.821,13.257-164.826,13.44-165.98a.432.432,0,0,1,.5-.367.447.447,0,0,1,.367.5c-.183,1.154-18.153,116.05-13.433,165.769a.434.434,0,0,1-.4.469h-.034" transform="translate(475.595 -118.869)" fill="#979aa0"/>
    <path id="Path_251" data-name="Path 251" d="M1205.7,638.185s-10.065-84,39.919-159.583c.326-.5,1.236-.19,1.134.38-8.8,50.276-23.125,103.717-41.053,159.2" transform="translate(477.088 -103.959)" fill="#74767b"/>
    <path id="Path_252" data-name="Path 252" d="M1205.817,627.931h-.014a.438.438,0,0,1-.428-.441c.448-22.235,9.039-58.358,16.163-84.735,7.722-28.571,15.437-52.2,15.511-52.436a.439.439,0,0,1,.55-.278.434.434,0,0,1,.278.55c-.075.238-7.783,23.844-15.491,52.4-7.117,26.33-15.688,62.372-16.136,84.525a.44.44,0,0,1-.435.421" transform="translate(477.461 -95.342)" fill="#979aa0"/>
    <path id="Path_253" data-name="Path 253" d="M1192.67,543.551h46.2a5.581,5.581,0,0,1,5.4,6.642c-2.75,14.595-8.34,27.484-14.153,38.269a7.452,7.452,0,0,1-6.54,3.946H1208.5a7.592,7.592,0,0,1-6.669-3.946c-7.253-13.182-10.8-26.262-13.752-39.057a4.78,4.78,0,0,1,4.591-5.854" transform="translate(464.596 -55.805)" fill="#d7d9e0"/>
  </g>
</svg>
