<svg xmlns="http://www.w3.org/2000/svg" xmlns:xlink="http://www.w3.org/1999/xlink" width="26.207" height="21.75" viewBox="0 0 26.207 21.75">
  <defs>
    <clipPath id="clip-path">
      <path id="Path_5" data-name="Path 5" d="M450.137,46.211h26.207V65.293H450.137Zm0,0"/>
    </clipPath>
    <clipPath id="clip-path-2">
      <path id="Path_7" data-name="Path 7" d="M460.445,64.352h5.613v3.609h-5.613Zm0,0"/>
    </clipPath>
    <clipPath id="clip-path-3">
      <path id="Path_9" data-name="Path 9" d="M456.461,67.1H470v.863H456.461Zm0,0"/>
    </clipPath>
  </defs>
  <g id="Group_4" data-name="Group 4" transform="translate(-450.137 -46.211)">
    <g id="Group_1" data-name="Group 1" clip-path="url(#clip-path)">
      <path id="Path_4" data-name="Path 4" d="M450.547,46.211h25.387a.411.411,0,0,1,.41.414V64.816a.414.414,0,0,1-.41.418H450.547a.414.414,0,0,1-.41-.418V46.625A.411.411,0,0,1,450.547,46.211Zm24.977.832h-24.57V64.4h24.57V47.043" fill="#82b1ff"/>
    </g>
    <g id="Group_2" data-name="Group 2" clip-path="url(#clip-path-2)">
      <path id="Path_6" data-name="Path 6" d="M460.855,64.4h4.77a.414.414,0,0,1,.41.418v2.73a.413.413,0,0,1-.41.414h-4.77a.413.413,0,0,1-.41-.414v-2.73A.414.414,0,0,1,460.855,64.4Zm4.359.836h-3.953v1.895h3.953V65.234" fill="#82b1ff"/>
    </g>
    <g id="Group_3" data-name="Group 3" clip-path="url(#clip-path-3)">
      <path id="Path_8" data-name="Path 8" d="M456.9,67.129a.416.416,0,0,0,0,.832h12.676a.416.416,0,0,0,0-.832H456.9" fill="#82b1ff"/>
    </g>
    <path id="Path_10" data-name="Path 10" d="M468.3,49.375a6.167,6.167,0,0,1,4.414,1.859,6.414,6.414,0,0,1,0,8.977,6.169,6.169,0,0,1-8.828,0,6.424,6.424,0,0,1,0-8.977A6.18,6.18,0,0,1,468.3,49.375Zm3.836,2.445a5.362,5.362,0,0,0-7.668,0,5.579,5.579,0,0,0,0,7.8,5.362,5.362,0,0,0,7.668,0,5.579,5.579,0,0,0,0-7.8" fill="#82b1ff"/>
    <path id="Path_11" data-name="Path 11" d="M468.3,49.375a3.115,3.115,0,0,1,2.582,1.957,10.434,10.434,0,0,1,0,8.781,2.679,2.679,0,0,1-5.16,0,10.4,10.4,0,0,1,0-8.781A3.115,3.115,0,0,1,468.3,49.375Zm1.863,2.348c-.5-.937-1.156-1.516-1.863-1.516s-1.363.578-1.859,1.516a9.61,9.61,0,0,0,0,8c.5.938,1.156,1.516,1.859,1.516s1.367-.578,1.863-1.516a9.61,9.61,0,0,0,0-8" fill="#82b1ff"/>
    <path id="Path_12" data-name="Path 12" d="M463.211,52.586a.416.416,0,0,0,0,.832H473.4a.416.416,0,0,0,0-.832H463.211" fill="#82b1ff"/>
    <path id="Path_13" data-name="Path 13" d="M462.715,55.3a.416.416,0,0,0,0,.832h11.426a.416.416,0,0,0,0-.832H462.715" fill="#82b1ff"/>
    <path id="Path_14" data-name="Path 14" d="M463.211,58.023a.416.416,0,0,0,0,.832H473.4a.416.416,0,0,0,0-.832H463.211" fill="#82b1ff"/>
    <path id="Path_15" data-name="Path 15" d="M452.34,52.324a.416.416,0,0,0,0,.832h8.668a.416.416,0,0,0,0-.832H452.34" fill="#82b1ff"/>
    <path id="Path_16" data-name="Path 16" d="M452.34,55.3a.416.416,0,0,0,0,.832h8.668a.416.416,0,0,0,0-.832H452.34" fill="#82b1ff"/>
    <path id="Path_17" data-name="Path 17" d="M452.34,58.285a.416.416,0,0,0,0,.832h8.668a.416.416,0,0,0,0-.832H452.34" fill="#82b1ff"/>
  </g>
</svg>