<svg xmlns="http://www.w3.org/2000/svg" xmlns:xlink="http://www.w3.org/1999/xlink" width="642.67" height="644.53" viewBox="0 0 642.67 644.53">
  <defs>
    <clipPath id="clip-path">
      <path id="Path_140" data-name="Path 140" d="M1138.578,342.254h35.38v72.559h-35.38Zm0,0" transform="translate(-1138.578 -342.254)"/>
    </clipPath>
    <clipPath id="clip-path-2">
      <path id="Path_139" data-name="Path 139" d="M1143.583,343.263a1.186,1.186,0,0,1,2.295-.19l3.721,11a10.964,10.964,0,0,1,.142,6.572l-2.41,5.886a10.557,10.557,0,0,0,1.2,8.6c3.87,6.131,12.3,17.483,25.311,24.686a66.494,66.494,0,0,1-12.649,14.93,66.526,66.526,0,0,1-19.445-34.579,5.163,5.163,0,0,1-3.048-5.513Zm0,0" transform="translate(-1138.642 -342.267)"/>
    </clipPath>
    <clipPath id="clip-path-3">
      <path id="Path_138" data-name="Path 138" d="M1143.585,343.269a1.182,1.182,0,0,1,2.288-.2l3.721,11a10.935,10.935,0,0,1,.143,6.579l-2.4,5.88a10.576,10.576,0,0,0,1.195,8.6c3.87,6.131,12.3,17.49,25.311,24.693a66.258,66.258,0,0,1-12.649,14.923,66.619,66.619,0,0,1-19.445-34.579,5.158,5.158,0,0,1-3.048-5.506l4.888-31.387" transform="translate(-1138.638 -342.267)"/>
    </clipPath>
    <clipPath id="clip-path-4">
      <path id="Path_137" data-name="Path 137" d="M1185.529,344.646l-8.562,75.872-43.167-4.861,8.562-75.872Zm0,0" transform="translate(-1133.801 -339.785)"/>
    </clipPath>
    <linearGradient id="linear-gradient" x1="-38.303" y1="-7.355" x2="-38.264" y2="-7.355" gradientUnits="objectBoundingBox">
      <stop offset="0" stop-color="#fff"/>
      <stop offset="0.063" stop-color="#fff"/>
      <stop offset="0.078" stop-color="#fff"/>
      <stop offset="0.094" stop-color="#fefefe"/>
      <stop offset="0.125" stop-color="#fefefe"/>
      <stop offset="0.141" stop-color="#fefefe"/>
      <stop offset="0.156" stop-color="#fdfdfe"/>
      <stop offset="0.188" stop-color="#fdfdfd"/>
      <stop offset="0.219" stop-color="#fcfcfd"/>
      <stop offset="0.234" stop-color="#fcfcfd"/>
      <stop offset="0.25" stop-color="#fbfbfd"/>
      <stop offset="0.266" stop-color="#fbfbfd"/>
      <stop offset="0.281" stop-color="#fbfbfc"/>
      <stop offset="0.313" stop-color="#fafafc"/>
      <stop offset="0.344" stop-color="#fafafb"/>
      <stop offset="0.375" stop-color="#f9f9fb"/>
      <stop offset="0.438" stop-color="#f9f9fa"/>
      <stop offset="0.453" stop-color="#f8f8fa"/>
      <stop offset="0.469" stop-color="#f7f7fa"/>
      <stop offset="0.5" stop-color="#f7f7f9"/>
      <stop offset="0.531" stop-color="#f7f7f9"/>
      <stop offset="0.563" stop-color="#f6f6f9"/>
      <stop offset="0.594" stop-color="#f6f6f9"/>
      <stop offset="0.609" stop-color="#f5f5f8"/>
      <stop offset="0.625" stop-color="#f4f4f8"/>
      <stop offset="0.656" stop-color="#f4f4f8"/>
      <stop offset="0.688" stop-color="#f4f4f7"/>
      <stop offset="0.719" stop-color="#f3f3f7"/>
      <stop offset="0.75" stop-color="#f3f3f7"/>
      <stop offset="0.781" stop-color="#f2f2f6"/>
      <stop offset="0.813" stop-color="#f2f2f6"/>
      <stop offset="0.828" stop-color="#f1f1f5"/>
      <stop offset="0.844" stop-color="#f0f0f5"/>
      <stop offset="0.875" stop-color="#f0f0f5"/>
      <stop offset="1" stop-color="#efeff5"/>
    </linearGradient>
    <clipPath id="clip-path-5">
      <path id="Path_153" data-name="Path 153" d="M1202.863,536.73h11.556v14.346h-11.556Zm0,0" transform="translate(-1202.863 -536.73)"/>
    </clipPath>
    <clipPath id="clip-path-6">
      <path id="Path_152" data-name="Path 152" d="M1214.106,539.163l-2.4,10.164a1.951,1.951,0,0,1-1.887,1.514,17.3,17.3,0,0,1-4.59-.563,3.2,3.2,0,0,1-2.275-3.449l1.127-9.953Zm0,0" transform="translate(-1202.937 -536.875)"/>
    </clipPath>
    <clipPath id="clip-path-7">
      <path id="Path_151" data-name="Path 151" d="M1214.1,539.163l-2.4,10.164a1.944,1.944,0,0,1-1.88,1.514,17.314,17.314,0,0,1-4.6-.563,3.181,3.181,0,0,1-2.268-3.449l1.12-9.953,10.021,2.288" transform="translate(-1202.94 -536.875)"/>
    </clipPath>
    <clipPath id="clip-path-8">
      <path id="Path_150" data-name="Path 150" d="M1216.388,537.585l-1.7,15.052-12.737-1.439,1.7-15.045Zm0,0" transform="translate(-1201.953 -536.152)"/>
    </clipPath>
    <linearGradient id="linear-gradient-2" x1="-145.022" y1="-56.553" x2="-144.871" y2="-56.553" gradientUnits="objectBoundingBox">
      <stop offset="0" stop-color="#fff"/>
      <stop offset="0.125" stop-color="#fff"/>
      <stop offset="0.156" stop-color="#fefefe"/>
      <stop offset="0.188" stop-color="#fefefe"/>
      <stop offset="0.203" stop-color="#fefefe"/>
      <stop offset="0.219" stop-color="#fdfdfe"/>
      <stop offset="0.25" stop-color="#fcfcfd"/>
      <stop offset="0.281" stop-color="#fcfcfd"/>
      <stop offset="0.313" stop-color="#fbfbfc"/>
      <stop offset="0.344" stop-color="#fafafc"/>
      <stop offset="0.375" stop-color="#fafafb"/>
      <stop offset="0.438" stop-color="#f9f9fb"/>
      <stop offset="0.469" stop-color="#f8f8fa"/>
      <stop offset="0.5" stop-color="#f8f8fa"/>
      <stop offset="0.531" stop-color="#f7f7f9"/>
      <stop offset="0.563" stop-color="#f7f7f9"/>
      <stop offset="0.594" stop-color="#f6f6f8"/>
      <stop offset="0.625" stop-color="#f5f5f8"/>
      <stop offset="0.656" stop-color="#f5f5f8"/>
      <stop offset="0.688" stop-color="#f4f4f8"/>
      <stop offset="0.703" stop-color="#f4f4f7"/>
      <stop offset="0.719" stop-color="#f3f3f7"/>
      <stop offset="0.75" stop-color="#f2f2f7"/>
      <stop offset="0.781" stop-color="#f2f2f6"/>
      <stop offset="0.813" stop-color="#f1f1f6"/>
      <stop offset="0.844" stop-color="#f0f0f5"/>
      <stop offset="0.875" stop-color="#f0f0f5"/>
      <stop offset="0.938" stop-color="#f0f0f5"/>
      <stop offset="1" stop-color="#efeff4"/>
    </linearGradient>
    <clipPath id="clip-path-9">
      <path id="Path_159" data-name="Path 159" d="M1174.449,533.91h8.758V553.5h-8.758Zm0,0" transform="translate(-1174.449 -533.91)"/>
    </clipPath>
    <clipPath id="clip-path-10">
      <path id="Path_158" data-name="Path 158" d="M1183.067,537.9l-.869,13.049a2.64,2.64,0,0,1-2.811,2.478,9.592,9.592,0,0,1-3.137-.828,3.039,3.039,0,0,1-1.765-2.879l.6-15.745Zm0,0" transform="translate(-1174.483 -533.977)"/>
    </clipPath>
    <clipPath id="clip-path-11">
      <path id="Path_157" data-name="Path 157" d="M1183.067,537.9l-.869,13.049a2.642,2.642,0,0,1-2.818,2.478,9.517,9.517,0,0,1-3.13-.828,3.028,3.028,0,0,1-1.765-2.879l.591-15.745,7.991,3.924" transform="translate(-1174.483 -533.977)"/>
    </clipPath>
    <clipPath id="clip-path-12">
      <path id="Path_156" data-name="Path 156" d="M1184.045,533.309l2.811,20.375-11.114,1.521-2.8-20.375Zm0,0" transform="translate(-1172.938 -533.309)"/>
    </clipPath>
    <linearGradient id="linear-gradient-3" x1="-146.768" y1="-42.505" x2="-146.63" y2="-42.505" gradientUnits="objectBoundingBox">
      <stop offset="0" stop-color="#fff"/>
      <stop offset="0.063" stop-color="#fff"/>
      <stop offset="0.078" stop-color="#fff"/>
      <stop offset="0.094" stop-color="#fefeff"/>
      <stop offset="0.109" stop-color="#fefeff"/>
      <stop offset="0.125" stop-color="#fefefe"/>
      <stop offset="0.141" stop-color="#fefefe"/>
      <stop offset="0.156" stop-color="#fdfdfe"/>
      <stop offset="0.188" stop-color="#fdfdfd"/>
      <stop offset="0.203" stop-color="#fdfdfd"/>
      <stop offset="0.219" stop-color="#fcfcfd"/>
      <stop offset="0.25" stop-color="#fcfcfd"/>
      <stop offset="0.266" stop-color="#fcfcfd"/>
      <stop offset="0.281" stop-color="#fbfbfc"/>
      <stop offset="0.313" stop-color="#fbfbfc"/>
      <stop offset="0.328" stop-color="#fbfbfc"/>
      <stop offset="0.344" stop-color="#fafafc"/>
      <stop offset="0.359" stop-color="#fafafc"/>
      <stop offset="0.375" stop-color="#f9f9fb"/>
      <stop offset="0.406" stop-color="#f9f9fb"/>
      <stop offset="0.438" stop-color="#f9f9fa"/>
      <stop offset="0.469" stop-color="#f8f8fa"/>
      <stop offset="0.484" stop-color="#f8f8fa"/>
      <stop offset="0.5" stop-color="#f7f7fa"/>
      <stop offset="0.516" stop-color="#f7f7fa"/>
      <stop offset="0.531" stop-color="#f7f7f9"/>
      <stop offset="0.563" stop-color="#f7f7f9"/>
      <stop offset="0.594" stop-color="#f6f6f9"/>
      <stop offset="0.609" stop-color="#f6f6f9"/>
      <stop offset="0.625" stop-color="#f5f5f8"/>
      <stop offset="0.656" stop-color="#f5f5f8"/>
      <stop offset="0.688" stop-color="#f5f5f8"/>
      <stop offset="0.703" stop-color="#f4f4f7"/>
      <stop offset="0.719" stop-color="#f3f3f7"/>
      <stop offset="0.75" stop-color="#f3f3f7"/>
      <stop offset="0.766" stop-color="#f3f3f7"/>
      <stop offset="0.781" stop-color="#f2f2f6"/>
      <stop offset="0.813" stop-color="#f2f2f6"/>
      <stop offset="0.844" stop-color="#f1f1f6"/>
      <stop offset="0.859" stop-color="#f1f1f6"/>
      <stop offset="0.875" stop-color="#f1f1f5"/>
      <stop offset="0.891" stop-color="#f1f1f5"/>
      <stop offset="0.906" stop-color="#f0f0f5"/>
      <stop offset="0.938" stop-color="#f0f0f5"/>
      <stop offset="0.969" stop-color="#f0f0f4"/>
      <stop offset="1" stop-color="#efeff4"/>
    </linearGradient>
    <clipPath id="clip-path-13">
      <path id="Path_167" data-name="Path 167" d="M1124.07,395.4h35.373v35.346H1124.07Zm0,0" transform="translate(-1124.07 -395.402)"/>
    </clipPath>
    <clipPath id="clip-path-14">
      <path id="Path_166" data-name="Path 166" d="M1124.152,400.293l4.454-4.719c11.569,10.014,21.828,13.239,30.58,12.73a110.093,110.093,0,0,1-7.373,22.14C1133.447,421.388,1124.152,400.293,1124.152,400.293Zm0,0" transform="translate(-1124.152 -395.574)"/>
    </clipPath>
    <clipPath id="clip-path-15">
      <path id="Path_165" data-name="Path 165" d="M1124.152,400.293l4.454-4.719c11.569,10.014,21.828,13.239,30.58,12.73a110.093,110.093,0,0,1-7.373,22.14c-18.365-9.057-27.66-30.152-27.66-30.152" transform="translate(-1124.152 -395.574)"/>
    </clipPath>
    <clipPath id="clip-path-16">
      <path id="Path_164" data-name="Path 164" d="M1115.07,412.282l40.777-25.813,25.82,40.7-40.777,25.813Zm0,0" transform="translate(-1115.07 -386.469)"/>
    </clipPath>
    <linearGradient id="linear-gradient-4" x1="-29.09" y1="-10.098" x2="-29.08" y2="-10.098" gradientUnits="objectBoundingBox">
      <stop offset="0" stop-color="#f8f8fa"/>
      <stop offset="0.063" stop-color="#f8f8fa"/>
      <stop offset="0.125" stop-color="#f7f7fa"/>
      <stop offset="0.188" stop-color="#f7f7fa"/>
      <stop offset="0.25" stop-color="#f7f7f9"/>
      <stop offset="0.313" stop-color="#f7f7f9"/>
      <stop offset="0.375" stop-color="#f6f6f9"/>
      <stop offset="0.438" stop-color="#f6f6f9"/>
      <stop offset="0.5" stop-color="#f5f5f8"/>
      <stop offset="0.563" stop-color="#f5f5f8"/>
      <stop offset="0.625" stop-color="#f4f4f8"/>
      <stop offset="0.688" stop-color="#f4f4f8"/>
      <stop offset="0.75" stop-color="#f4f4f7"/>
      <stop offset="0.813" stop-color="#f4f4f7"/>
      <stop offset="0.875" stop-color="#f3f3f7"/>
      <stop offset="0.938" stop-color="#f3f3f7"/>
      <stop offset="1" stop-color="#f2f2f6"/>
    </linearGradient>
    <clipPath id="clip-path-17">
      <path id="Path_172" data-name="Path 172" d="M1102.508,391.379h44.83V407.47h-44.83Zm0,0" transform="translate(-1102.508 -391.379)"/>
    </clipPath>
    <clipPath id="clip-path-18">
      <path id="Path_171" data-name="Path 171" d="M1145.968,402.283l-21.407,4.99-21.991-7.258c2.505-2.336,19.329-1.792,19.329-1.792s16.356-5.785,20.918-6.667c3.788-.74,4.3,4.807,4.359,6.715.014.38.007.618.007.618Zm0,0" transform="translate(-1102.57 -391.488)"/>
    </clipPath>
    <clipPath id="clip-path-19">
      <path id="Path_170" data-name="Path 170" d="M1145.968,402.283l-21.407,4.99-21.991-7.258c2.505-2.336,19.329-1.792,19.329-1.792s16.356-5.785,20.918-6.667c3.788-.74,4.3,4.807,4.359,6.715.014.38.007.618.007.618l-1.215,3.395" transform="translate(-1102.57 -391.488)"/>
    </clipPath>
    <clipPath id="clip-path-20">
      <path id="Path_169" data-name="Path 169" d="M1097.895,410.013l26.791-31.564,34.083,28.882-26.791,31.557Zm0,0" transform="translate(-1097.895 -378.449)"/>
    </clipPath>
    <linearGradient id="linear-gradient-5" x1="-31.585" y1="-10.977" x2="-31.576" y2="-10.977" gradientUnits="objectBoundingBox">
      <stop offset="0" stop-color="#fcfcfd"/>
      <stop offset="0.125" stop-color="#fcfcfd"/>
      <stop offset="0.188" stop-color="#fcfcfd"/>
      <stop offset="0.25" stop-color="#fbfbfc"/>
      <stop offset="0.375" stop-color="#fafafc"/>
      <stop offset="0.5" stop-color="#fafafb"/>
      <stop offset="0.563" stop-color="#fafafb"/>
      <stop offset="0.625" stop-color="#f9f9fb"/>
      <stop offset="0.688" stop-color="#f9f9fb"/>
      <stop offset="0.75" stop-color="#f8f8fa"/>
      <stop offset="0.875" stop-color="#f8f8fa"/>
      <stop offset="0.938" stop-color="#f8f8fa"/>
      <stop offset="1" stop-color="#f7f7f9"/>
    </linearGradient>
    <clipPath id="clip-path-21">
      <path id="Path_177" data-name="Path 177" d="M1175.457,361h28.02v35.651h-28.02Zm0,0" transform="translate(-1175.457 -361)"/>
    </clipPath>
    <clipPath id="clip-path-22">
      <path id="Path_176" data-name="Path 176" d="M1194.942,361.125l8.351,29.378s-14.265,7.658-24.815,5.588l-2.9-25.895Zm0,0" transform="translate(-1175.578 -361.125)"/>
    </clipPath>
    <clipPath id="clip-path-23">
      <path id="Path_175" data-name="Path 175" d="M1194.942,361.125l8.351,29.378s-14.265,7.658-24.815,5.588l-2.9-25.888,19.363-9.077" transform="translate(-1175.578 -361.125)"/>
    </clipPath>
    <clipPath id="clip-path-24">
      <path id="Path_174" data-name="Path 174" d="M1168.137,370.483l36.717-14.916,16.865,41.443-36.71,14.91Zm0,0" transform="translate(-1168.137 -355.566)"/>
    </clipPath>
    <linearGradient id="linear-gradient-6" x1="-38.702" y1="-11.286" x2="-38.693" y2="-11.286" gradientUnits="objectBoundingBox">
      <stop offset="0" stop-color="#fafafc"/>
      <stop offset="0.25" stop-color="#fafafb"/>
      <stop offset="0.375" stop-color="#f9f9fb"/>
      <stop offset="0.5" stop-color="#f9f9fa"/>
      <stop offset="0.75" stop-color="#f8f8fa"/>
      <stop offset="0.875" stop-color="#f7f7f9"/>
      <stop offset="1" stop-color="#f7f7f9"/>
    </linearGradient>
    <clipPath id="clip-path-25">
      <path id="Path_182" data-name="Path 182" d="M1170.016,348.094h31.17v36.038h-31.17Zm0,0" transform="translate(-1170.016 -348.094)"/>
    </clipPath>
    <clipPath id="clip-path-26">
      <path id="Path_181" data-name="Path 181" d="M1181.723,349.4c-.305.346-11.664,28.556-11.664,28.556l16.267,6.131,14.74-25.134S1186.849,343.65,1181.723,349.4Zm0,0" transform="translate(-1170.059 -348.108)"/>
    </clipPath>
    <clipPath id="clip-path-27">
      <path id="Path_180" data-name="Path 180" d="M1181.72,349.4c-.306.346-11.657,28.556-11.657,28.556l16.261,6.131,14.74-25.141s-14.217-15.3-19.343-9.546" transform="translate(-1170.063 -348.108)"/>
    </clipPath>
    <clipPath id="clip-path-28">
      <path id="Path_179" data-name="Path 179" d="M1171.626,344.129l34.015,2.716-3.408,42.638-34.022-2.716Zm0,0" transform="translate(-1168.211 -344.129)"/>
    </clipPath>
    <linearGradient id="linear-gradient-7" x1="-55.305" y1="-14.725" x2="-55.274" y2="-14.725" gradientUnits="objectBoundingBox">
      <stop offset="0" stop-color="#fff"/>
      <stop offset="0.25" stop-color="#fff"/>
      <stop offset="0.313" stop-color="#fefefe"/>
      <stop offset="0.375" stop-color="#fdfdfe"/>
      <stop offset="0.438" stop-color="#fdfdfd"/>
      <stop offset="0.5" stop-color="#fdfdfd"/>
      <stop offset="0.563" stop-color="#fcfcfd"/>
      <stop offset="0.625" stop-color="#fbfbfc"/>
      <stop offset="0.688" stop-color="#fafafc"/>
      <stop offset="0.75" stop-color="#fafafb"/>
      <stop offset="0.813" stop-color="#f9f9fb"/>
      <stop offset="0.875" stop-color="#f8f8fa"/>
      <stop offset="0.938" stop-color="#f8f8fa"/>
      <stop offset="1" stop-color="#f7f7f9"/>
    </linearGradient>
    <clipPath id="clip-path-29">
      <path id="Path_188" data-name="Path 188" d="M1183.316,361h11.556v11.162h-11.556Zm0,0" transform="translate(-1183.316 -361)"/>
    </clipPath>
    <clipPath id="clip-path-30">
      <path id="Path_187" data-name="Path 187" d="M1183.473,370.081s2.213-9.01,6.07-9.03,7.21,3.524,2.845,8.229C1186.963,375.132,1183.473,370.081,1183.473,370.081Zm0,0" transform="translate(-1183.473 -361.051)"/>
    </clipPath>
    <clipPath id="clip-path-31">
      <path id="Path_186" data-name="Path 186" d="M1183.473,370.084s2.213-9.01,6.07-9.037,7.21,3.524,2.852,8.236c-5.432,5.852-8.921.8-8.921.8" transform="translate(-1183.473 -361.047)"/>
    </clipPath>
    <clipPath id="clip-path-32">
      <path id="Path_185" data-name="Path 185" d="M1197.672,375.37l-13.9.631-.672-14.672,13.9-.638Zm0,0" transform="translate(-1183.102 -360.691)"/>
    </clipPath>
    <linearGradient id="linear-gradient-8" x1="-167.135" y1="-51.766" x2="-167.094" y2="-51.766" gradientUnits="objectBoundingBox">
      <stop offset="0" stop-color="#f2f2f6"/>
      <stop offset="0.125" stop-color="#f2f2f6"/>
      <stop offset="0.25" stop-color="#f1f1f5"/>
      <stop offset="0.5" stop-color="#f0f0f5"/>
      <stop offset="1" stop-color="#efeff4"/>
    </linearGradient>
  </defs>
  <g id="Group_53" data-name="Group 53" transform="translate(-3909.71 -523.252)">
    <path id="Path_85" data-name="Path 85" d="M935.792,387.649c83.687-142.477,259.484-184.591,388.857-155.667,35.325,7.894,106.4,23.784,155.207,85.676,93.741,118.871,47.73,334.326-72.784,448.426-15.523,14.694-122.456,112.741-265.605,91.7-104.807-15.412-170.295-86.032-178.23-94.8a296.353,296.353,0,0,1-49.571-76.142c-41.446-91.656-30.169-210.165,22.126-299.2" transform="translate(3022.56 307.049)" fill="#efeff4"/>
    <path id="Path_86" data-name="Path 86" d="M988.677,220.688a3.051,3.051,0,0,1,5.628,1.82c-2.22,30.559-5.54,110.864,15.6,161.737,34.422,82.817,35.767,197.654-19.608,236.93,0,0-184.733-107.653-1.616-400.487" transform="translate(3036.76 304)" fill="#d7d9e0"/>
    <path id="Path_87" data-name="Path 87" d="M943.9,355.335l-2.173-.054q.835-15.3,2.22-30.566c1.222-13.491,2.655-26.961,4.44-40.4q1.344-10.062,2.906-20.11c.536-3.34,1.073-6.688,1.657-10.021l.9-5,.482-2.5c.183-.842.319-1.643.564-2.546a.391.391,0,0,1,.373-.285.525.525,0,0,1,.1.014.388.388,0,0,1,.272.462l-.02.081c-.17.74-.319,1.609-.475,2.431l-.421,2.492-.794,5.011q-.774,5.011-1.48,10.035-1.405,10.042-2.573,20.124-2.383,20.144-4,40.377Q944.7,340.1,943.9,355.335" transform="translate(3061.866 322.163)" fill="#e8e9ed"/>
    <path id="Path_88" data-name="Path 88" d="M1004.732,601.075s15.5-41.1-9.03-98.806c-22.751-53.541-80.909-179.614-82.831-237.3a2.36,2.36,0,0,0-4.542-.842c-10.476,25.352-31.713,90.9-13.131,171.956,23.953,104.53,109.534,164.99,109.534,164.99" transform="translate(3022.098 336.043)" fill="#d7d9e0"/>
    <path id="Path_89" data-name="Path 89" d="M902.653,365.3a214.868,214.868,0,0,1-4.2-35.461c-.1-1.521-.054-3.042-.061-4.563l.007-4.556.2-4.549.1-2.281c.047-.754.129-1.507.19-2.268a99.613,99.613,0,0,1,2.784-17.965l.054-.041.034.061a88.934,88.934,0,0,0-1.351,8.962l-.4,4.515c-.122,1.5-.156,3.014-.238,4.522-.034.754-.081,1.507-.1,2.261l-.014,2.261-.027,4.529.163,4.522c.075,1.507.061,3.014.2,4.522q.652,10.693,2.336,21.285l.333,14.244" transform="translate(3029.878 359.839)" fill="#e9eaee"/>
    <path id="Path_90" data-name="Path 90" d="M908.21,657.125A10.323,10.323,0,0,0,918.516,667.4h557.522a10.319,10.319,0,0,0,10.306-10.279l4.647-319.883c0-5.656-6.678-16.7-18.907-15.86L927.212,307.3a25.952,25.952,0,0,0-26.658,26.533l7.656,323.292" transform="translate(3031.474 371.273)" fill="#333435"/>
    <path id="Path_91" data-name="Path 91" d="M914.108,642.081a9.777,9.777,0,0,0,9.756,9.736h534.465a9.777,9.777,0,0,0,9.756-9.736l4.382-290.39c-.516-17.476-15.864-23.756-25.164-23.383L925.059,314.315a18.223,18.223,0,0,0-18.717,18.657l7.765,309.109" transform="translate(3035.748 376.45)" fill="#888b8f"/>
    <path id="Path_92" data-name="Path 92" d="M1226.566,434.58h-.021a1.335,1.335,0,0,1-1.3-1.344l.346-23.546a1.358,1.358,0,0,1,1.344-1.3,1.324,1.324,0,0,1,1.3,1.338l-.346,23.552a1.326,1.326,0,0,1-1.324,1.3" transform="translate(3271.498 445.845)" fill="#a8abb2"/>
    <path id="Path_93" data-name="Path 93" d="M1306.676,439.865h-.027a1.329,1.329,0,0,1-1.3-1.344l1.324-90.191c-.027-5.391-1.663-9.7-4.868-12.764-5.981-5.723-15.459-5.425-15.867-5.418l-166.8-4.467a1.321,1.321,0,0,1,.034-2.641h.041l166.707,4.474c1.032-.054,11.053-.238,17.714,6.144,3.741,3.585,5.662,8.527,5.683,14.686l-1.324,90.225a1.314,1.314,0,0,1-1.317,1.3" transform="translate(3192.237 382.05)" fill="#a8abb2"/>
    <path id="Path_94" data-name="Path 94" d="M894.338,541.7h627.82a5.162,5.162,0,0,0,5.149-5.146V518.729a5.161,5.161,0,0,0-5.149-5.14H894.338a5.155,5.155,0,0,0-5.143,5.14v17.822a5.156,5.156,0,0,0,5.143,5.146" transform="translate(3023.096 524.755)" fill="#48494b"/>
    <path id="Path_95" data-name="Path 95" d="M1192.421,635.743c-51.525.014-229.245-.149-292.169-3.014-6.667-.305-11.929-4.766-12.044-10.2-.543-26.879-1.31-125.394,1.826-169.274.659-9.145,9.906-16.24,21.149-16.206,54.084.163,206.174,1.175,275.732,7.353,8.331.74,14.869,6.206,15.568,13.009,3.014,29.317,9.824,128.374,6.043,166.266-.686,6.837-7.672,12.065-16.1,12.065" transform="translate(3022 468.952)" fill="#48494b"/>
    <path id="Path_96" data-name="Path 96" d="M1158.788,617.662c-41.6.625-179.988,2.424-231.1-.034-7.468-.36-13.416-5.282-13.735-11.365-1.3-25.067-3.564-110.545.781-147.181.781-6.6,7.455-11.657,15.6-11.854,42.447-1.012,171.324-3.8,221.865-1.4,8.059.38,14.55,5.6,15.14,12.16,2.444,27.137,7.74,118.02,5.031,149.177-.509,5.846-6.375,10.395-13.579,10.5" transform="translate(3040.072 474.731)" fill="#a8abb2"/>
    <path id="Path_97" data-name="Path 97" d="M1069.68,529.009h-.075a2.769,2.769,0,0,1-2.919-2.349c-.278-6.348-1.079-24.245-1.494-32.243a2.685,2.685,0,0,1,2.94-2.5,3.51,3.51,0,0,1,.645.061l.319.054a2.679,2.679,0,0,1,2.356,2.2c.5,5.411,1.86,21.733,1.168,32.521a2.743,2.743,0,0,1-2.94,2.254" transform="translate(3153.176 508.549)" fill="#a4a4a5"/>
    <path id="Path_98" data-name="Path 98" d="M1044.337,438.034c-.788,37.22-3.347,165.607-2.125,211.1.129,4.827,3.436,8.69,7.564,8.847,20.4.781,95.174,2.757,128.53,1.127,6.953-.346,12.479-6.925,12.622-15.045.693-39.073,2.227-148.953-1.412-199.29-.435-6.036-4.488-10.836-9.641-11.44-22.208-2.594-97.306-8.942-126.134-6.762-5.2.4-9.268,5.37-9.4,11.461" transform="translate(3135.997 460.888)" fill="#333435"/>
    <path id="Path_99" data-name="Path 99" d="M1050.1,443.763c-1.1,30.043-4.562,129.99-3.463,166.945.163,5.4,3.8,9.77,8.426,10.082,19,1.3,83.863,4.169,111.74,1.562,5.024-.468,8.962-5.214,9.234-11.094,1.412-30.647,5.472-123.71,4.413-160.257-.163-5.825-4.033-10.591-9-11.114-20.558-2.152-89.478-7.292-113.173-5.778-4.447.285-7.984,4.454-8.175,9.655" transform="translate(3139.343 466.577)" fill="#b9bcc5"/>
    <path id="Path_100" data-name="Path 100" d="M1037.38,509.634a38.622,38.622,0,1,1-38.618-38.591,38.606,38.606,0,0,1,38.618,38.591" transform="translate(3075.54 493.106)" fill="#fff"/>
    <path id="Path_101" data-name="Path 101" d="M990.585,533.482a5.421,5.421,0,0,1-5.017-2.519l-17.809-28.57a6.091,6.091,0,0,1,2.01-8.188,5.661,5.661,0,0,1,8.039,1.507l12.357,19.832,16.295-33.16a6.117,6.117,0,0,1,7.849-3.055,5.627,5.627,0,0,1,2.546,7.726l-21.061,42.882a6.337,6.337,0,0,1-5,3.524,1.039,1.039,0,0,1-.2.02" transform="translate(3080.55 498.838)" fill="#f3d33f"/>
    <path id="Path_102" data-name="Path 102" d="M967.665,355.873l2.274.448h.007a1.2,1.2,0,1,1-.462,2.363l-.048-.007-2.268-.536a1.16,1.16,0,0,1,.489-2.268h.007" transform="translate(3080.067 406.385)" fill="#fff"/>
    <path id="Path_103" data-name="Path 103" d="M972.1,356.7l2.274.407h.014a1.356,1.356,0,1,1-.482,2.668l-.047-.014-2.281-.5a1.308,1.308,0,0,1,.509-2.566h.014" transform="translate(3083.226 407.01)" fill="#fff"/>
    <path id="Path_104" data-name="Path 104" d="M976.531,357.453l2.288.36h.007a1.5,1.5,0,0,1-.462,2.967l-.061-.007-2.288-.455a1.455,1.455,0,0,1,.5-2.865h.014" transform="translate(3086.397 407.574)" fill="#fff"/>
    <path id="Path_105" data-name="Path 105" d="M980.969,358.1l2.295.3h.014a1.65,1.65,0,0,1-.428,3.273l-.068-.007-2.3-.394a1.6,1.6,0,0,1,.475-3.171h.014" transform="translate(3089.581 408.065)" fill="#fff"/>
    <path id="Path_106" data-name="Path 106" d="M985.415,358.628l2.295.224.014.007a1.8,1.8,0,1,1-.353,3.578l-.068-.014-2.315-.319a1.75,1.75,0,0,1,.407-3.476h.02" transform="translate(3092.777 408.464)" fill="#fff"/>
    <path id="Path_107" data-name="Path 107" d="M989.857,359.009l2.288.143h.027a1.946,1.946,0,1,1-.251,3.884h-.075l-2.329-.238a1.9,1.9,0,0,1,.312-3.788h.027" transform="translate(3095.985 408.753)" fill="#fff"/>
    <path id="Path_108" data-name="Path 108" d="M994.288,359.227l2.295.054h.027a2.092,2.092,0,1,1-.1,4.182h-.075l-2.342-.149a2.046,2.046,0,0,1,.17-4.087h.027" transform="translate(3099.203 408.919)" fill="#fff"/>
    <path id="Path_109" data-name="Path 109" d="M998.718,359.287l2.295-.041h.027a2.241,2.241,0,1,1,.075,4.481h-.088l-2.349-.047a2.2,2.2,0,0,1,.007-4.393h.034" transform="translate(3102.43 408.934)" fill="#fff"/>
    <path id="Path_110" data-name="Path 110" d="M1003.135,359.192l2.288-.136h.027a2.39,2.39,0,1,1,.272,4.773h-.088l-2.349.048a2.345,2.345,0,0,1-.183-4.685h.034" transform="translate(3105.655 408.79)" fill="#fff"/>
    <path id="Path_111" data-name="Path 111" d="M1007.541,358.915l2.288-.21h.021a2.537,2.537,0,1,1,.482,5.051l-.1.007-2.342.129a2.493,2.493,0,0,1-.38-4.97l.034-.007" transform="translate(3108.878 408.521)" fill="#fff"/>
    <path id="Path_112" data-name="Path 112" d="M1011.943,358.492l2.281-.285.02-.007a2.686,2.686,0,1,1,.672,5.33l-.1.014-2.336.2a2.64,2.64,0,0,1-.57-5.248h.034" transform="translate(3112.092 408.138)" fill="#fff"/>
    <path id="Path_113" data-name="Path 113" d="M1016.33,357.925l2.275-.346.02-.007a2.834,2.834,0,0,1,.862,5.6.593.593,0,0,1-.109.014l-2.329.272a2.789,2.789,0,0,1-.747-5.527l.027-.007" transform="translate(3115.299 407.659)" fill="#fff"/>
    <path id="Path_114" data-name="Path 114" d="M1020.714,357.248l2.268-.4h.02a2.978,2.978,0,1,1,1.032,5.866l-.115.02-2.315.319a2.939,2.939,0,0,1-.91-5.8h.02" transform="translate(3118.496 407.107)" fill="#fff"/>
    <path id="Path_115" data-name="Path 115" d="M1025.091,356.476l2.275-.435.007-.007a3.129,3.129,0,1,1,1.188,6.144.7.7,0,0,1-.115.027l-2.308.353a3.085,3.085,0,0,1-1.059-6.077l.014-.007" transform="translate(3121.681 406.492)" fill="#fff"/>
    <path id="Path_116" data-name="Path 116" d="M1002.662,366.781a43,43,0,1,1-43-42.957,42.978,42.978,0,0,1,43,42.957" transform="translate(3043.368 382.56)" fill="#fff"/>
    <path id="Path_117" data-name="Path 117" d="M950.558,393.344a6.032,6.032,0,0,1-5.581-2.811l-19.832-31.8a6.785,6.785,0,0,1,2.24-9.118,6.307,6.307,0,0,1,8.955,1.677l13.748,22.072,18.141-36.914a6.8,6.8,0,0,1,8.738-3.395,6.251,6.251,0,0,1,2.838,8.6L956.363,389.4a7.069,7.069,0,0,1-5.574,3.924l-.231.02" transform="translate(3048.943 389.023)" fill="#f3d33f"/>
    <path id="Path_118" data-name="Path 118" d="M1086.416,405.165l-.76,2.112-.027.068a2.5,2.5,0,0,1-4.719-1.629l.754-2.261a2.525,2.525,0,0,1,4.793,1.589l-.014.048-.027.075" transform="translate(3164.699 440.782)" fill="#fff"/>
    <path id="Path_119" data-name="Path 119" d="M1084.943,409.142l-.6,2.186-.014.048a2.406,2.406,0,0,1-4.657-1.209l.57-2.3a2.435,2.435,0,0,1,4.725,1.175l-.014.041-.014.061" transform="translate(3163.828 444.004)" fill="#fff"/>
    <path id="Path_120" data-name="Path 120" d="M1083.762,413.259l-.462,2.234-.007.034a2.31,2.31,0,0,1-4.535-.876l.421-2.329a2.34,2.34,0,1,1,4.6.842l-.007.041-.014.054" transform="translate(3163.175 447.289)" fill="#fff"/>
    <path id="Path_121" data-name="Path 121" d="M1082.84,417.46l-.353,2.261-.007.027a2.215,2.215,0,0,1-4.386-.618l.3-2.336a2.246,2.246,0,0,1,4.454.577v.048l-.007.041" transform="translate(3162.698 450.614)" fill="#fff"/>
    <path id="Path_122" data-name="Path 122" d="M1082.119,421.719l-.245,2.281-.007.027a2.121,2.121,0,0,1-4.223-.407l.19-2.342a2.153,2.153,0,0,1,4.291.367v.041l-.007.034" transform="translate(3162.373 453.962)" fill="#fff"/>
    <path id="Path_123" data-name="Path 123" d="M1081.595,426.015l-.163,2.295v.027a2.034,2.034,0,0,1-4.06-.244l.109-2.336a2.059,2.059,0,0,1,4.114.19v.068" transform="translate(3162.177 457.328)" fill="#fff"/>
    <path id="Path_124" data-name="Path 124" d="M1081.228,430.35l-.088,2.3v.014a1.936,1.936,0,0,1-3.87-.088l.027-2.336a1.966,1.966,0,1,1,3.931.041v.068" transform="translate(3162.103 460.696)" fill="#fff"/>
    <path id="Path_125" data-name="Path 125" d="M1081.029,434.691l-.014,2.3v.02a1.844,1.844,0,0,1-3.687.027l-.047-2.336a1.871,1.871,0,1,1,3.741-.075l.007.041v.02" transform="translate(3162.111 464.071)" fill="#fff"/>
    <path id="Path_126" data-name="Path 126" d="M1080.973,439.047l.061,2.308v.014a1.753,1.753,0,0,1-3.5.129l-.115-2.329a1.781,1.781,0,0,1,3.558-.177v.054" transform="translate(3162.208 467.446)" fill="#fff"/>
    <path id="Path_127" data-name="Path 127" d="M1081.049,443.405l.122,2.3v.014a1.66,1.66,0,0,1-3.313.217l-.176-2.329a1.685,1.685,0,0,1,3.361-.258l.007.034v.02" transform="translate(3162.404 470.816)" fill="#fff"/>
    <path id="Path_128" data-name="Path 128" d="M1081.241,447.763l.19,2.3v.014a1.565,1.565,0,0,1-3.116.285l-.245-2.315a1.594,1.594,0,1,1,3.171-.333v.048" transform="translate(3162.688 474.182)" fill="#fff"/>
    <path id="Path_129" data-name="Path 129" d="M1081.56,452.12l.251,2.295v.007a1.47,1.47,0,0,1-2.919.353l-.312-2.308a1.5,1.5,0,1,1,2.974-.394l.007.027v.02" transform="translate(3163.061 477.54)" fill="#fff"/>
    <path id="Path_130" data-name="Path 130" d="M1082,456.462l.319,2.288v.014a1.367,1.367,0,0,1-1.175,1.548,1.381,1.381,0,0,1-1.548-1.141l-.373-2.308a1.4,1.4,0,1,1,2.77-.448l.007.027v.02" transform="translate(3163.529 480.887)" fill="#fff"/>
    <path id="Path_131" data-name="Path 131" d="M1082.569,460.79l.387,2.275.007.014a1.287,1.287,0,0,1-2.532.462l-.448-2.295a1.314,1.314,0,0,1,2.58-.5l.007.034v.014" transform="translate(3164.09 484.221)" fill="#fff"/>
    <path id="Path_132" data-name="Path 132" d="M1083.275,465.1l.469,2.254.007.014a1.192,1.192,0,0,1-2.329.509l-.53-2.274a1.219,1.219,0,1,1,2.376-.543l.007.02v.02" transform="translate(3164.757 487.535)" fill="#fff"/>
    <path id="Path_133" data-name="Path 133" d="M1135.642,503.932a35.145,35.145,0,1,1-35.142-35.108,35.129,35.129,0,0,1,35.142,35.108" transform="translate(3153.315 491.4)" fill="#fff"/>
    <path id="Path_134" data-name="Path 134" d="M1093.051,525.645a4.951,4.951,0,0,1-4.562-2.295l-16.2-26a5.547,5.547,0,0,1,1.826-7.455,5.167,5.167,0,0,1,7.319,1.371l11.236,18.046,14.828-30.172a5.557,5.557,0,0,1,7.142-2.777,5.113,5.113,0,0,1,2.315,7.027L1097.8,522.42a5.775,5.775,0,0,1-4.556,3.2l-.19.02" transform="translate(3157.87 496.618)" fill="#f3d33f"/>
    <path id="Path_135" data-name="Path 135" d="M1187.794,381.927c38.768,1.141,47.913,10.211,47.913,10.211l-21.747,27.029s-37.654-4.99-62.347-28.862a66.131,66.131,0,0,0,12.649-14.93,51.245,51.245,0,0,0,23.532,6.552" transform="translate(3217.088 421.142)" fill="#f3d33f"/>
    <g id="Group_23" data-name="Group 23" transform="translate(4346.007 738.621)" clip-path="url(#clip-path)">
      <g id="Group_22" data-name="Group 22" transform="translate(0.11 0.023)" clip-path="url(#clip-path-2)">
        <g id="Group_21" data-name="Group 21" transform="translate(-0.006 0.001)" clip-path="url(#clip-path-3)">
          <g id="Group_20" data-name="Group 20" transform="translate(-8.407 -4.314)" clip-path="url(#clip-path-4)">
            <path id="Path_136" data-name="Path 136" d="M1185.391,344.83l-8.521,75.512-42.936-4.834L1142.454,340Zm0,0" transform="translate(-1133.703 -339.629)" fill="url(#linear-gradient)"/>
          </g>
        </g>
      </g>
    </g>
    <path id="Path_141" data-name="Path 141" d="M1024.645,364.01c-7.849,69.164,42.21,131.626,111.808,139.5s132.38-41.8,140.229-110.959-42.21-131.62-111.808-139.509-132.38,41.8-140.229,110.966" transform="translate(3122.697 328.336)" fill="#fff"/>
    <path id="Path_142" data-name="Path 142" d="M1027.043,362.7c-7.584,66.862,40.811,127.247,108.094,134.865s127.974-40.4,135.564-107.273-40.811-127.247-108.094-134.865S1034.634,295.842,1027.043,362.7" transform="translate(3124.487 330.117)" fill="#ecc538"/>
    <path id="Path_143" data-name="Path 143" d="M1162.158,335.8l-.054-.007a.778.778,0,0,1-.726-.815,111.462,111.462,0,0,0-.041-14.129.776.776,0,0,1,1.548-.1,111.944,111.944,0,0,1,.041,14.319.773.773,0,0,1-.767.733" transform="translate(3224.234 379.558)" fill="#f7e057"/>
    <path id="Path_144" data-name="Path 144" d="M1206.616,334.707a.774.774,0,0,1-.726-.5,111.98,111.98,0,0,0-92.839-72.348,114.092,114.092,0,0,0-20.361-.482.779.779,0,0,1-.822-.72.77.77,0,0,1,.72-.821,115.757,115.757,0,0,1,20.626.482,113.994,113.994,0,0,1,94.122,73.346.767.767,0,0,1-.72,1.046" transform="translate(3172.934 333.767)" fill="#f7e057"/>
    <path id="Path_145" data-name="Path 145" d="M1032.789,360.15c-6.762,59.55,36.337,113.329,96.26,120.118s113.981-35.991,120.736-95.541-36.344-113.329-96.26-120.118S1039.544,300.6,1032.789,360.15" transform="translate(3128.784 336.956)" fill="#f3d33f"/>
    <path id="Path_146" data-name="Path 146" d="M1128.74,383.53a28.45,28.45,0,0,1-40.18,2.967,28.852,28.852,0,0,1-3.408-40.614,28.445,28.445,0,0,1,40.424-2.757A28.86,28.86,0,0,1,1128.74,383.53Zm28.176-16.974-5.6-1.093a45.827,45.827,0,0,0-.591-7.713l5.4-1.887a2.824,2.824,0,0,0,1.718-3.592l-3.2-9.268a2.811,2.811,0,0,0-3.571-1.772l-5.418,1.881a46.284,46.284,0,0,0-4.359-6.443l3.768-4.413a2.877,2.877,0,0,0-.306-4.019l-7.394-6.518a2.791,2.791,0,0,0-3.979.258l-3.775,4.427a44.777,44.777,0,0,0-6.966-3.483l1.052-5.764a2.915,2.915,0,0,0-2.268-3.381l-9.655-1.962a2.789,2.789,0,0,0-3.313,2.254l-1.052,5.771a44.934,44.934,0,0,0-7.76.489l-1.969-5.567a2.906,2.906,0,0,0-3.659-1.813l-9.3,3.177a2.83,2.83,0,0,0-1.724,3.659l1.962,5.52a43.725,43.725,0,0,0-6.464,4.393l-4.433-3.843a2.854,2.854,0,0,0-4.047.265l-6.4,7.489a2.9,2.9,0,0,0,.353,4.074l4.406,3.8a43.849,43.849,0,0,0-3.388,7.1l-5.635-1.1a2.81,2.81,0,0,0-3.334,2.268l-1.718,9.736a2.923,2.923,0,0,0,2.329,3.361l5.608,1.08a45.23,45.23,0,0,0,.672,7.9l-5.323,1.854a2.806,2.806,0,0,0-1.718,3.632l3.388,9.3a2.9,2.9,0,0,0,3.666,1.752l5.269-1.84a45.54,45.54,0,0,0,4.542,6.511l-3.605,4.237a2.829,2.829,0,0,0,.339,4l7.516,6.362a2.845,2.845,0,0,0,4.006-.306l3.6-4.223a44.847,44.847,0,0,0,7.108,3.408l-.984,5.438a2.844,2.844,0,0,0,2.281,3.286L1102.58,417a2.8,2.8,0,0,0,3.273-2.247l1-5.465a44.264,44.264,0,0,0,7.76-.611l1.874,5.248a2.794,2.794,0,0,0,3.578,1.711l9.111-3.218a2.8,2.8,0,0,0,1.7-3.578l-1.854-5.269a44.072,44.072,0,0,0,6.341-4.393l4.25,3.666a2.789,2.789,0,0,0,3.938-.305l6.267-7.346a2.812,2.812,0,0,0-.3-3.951l-4.277-3.707a44.321,44.321,0,0,0,3.306-6.959l5.547,1.066a2.778,2.778,0,0,0,3.252-2.234l1.786-9.546a2.83,2.83,0,0,0-2.22-3.306" transform="translate(3145.124 373.538)" fill="#fff"/>
    <path id="Path_147" data-name="Path 147" d="M1142.627,321.879c-5.465,6.409-15.378,7.054-22.167,1.426-6.817-5.656-7.9-15.493-2.383-21.95s15.493-7.041,22.262-1.337C1147.081,305.7,1148.093,315.477,1142.627,321.879ZM1158,312.809l-3.116-.618a24.76,24.76,0,0,0-.435-4.175l2.96-1a1.471,1.471,0,0,0,.9-1.942l-1.894-5.024a1.615,1.615,0,0,0-2-.964l-2.974.991a26.7,26.7,0,0,0-2.492-3.5l2.016-2.37a1.536,1.536,0,0,0-.224-2.173l-4.169-3.537a1.568,1.568,0,0,0-2.2.129l-2.023,2.376a25.735,25.735,0,0,0-3.89-1.9l.5-3.11a1.625,1.625,0,0,0-1.3-1.826l-5.35-1.086a1.48,1.48,0,0,0-1.792,1.2l-.509,3.11a25.582,25.582,0,0,0-4.271.238l-1.154-3.008a1.662,1.662,0,0,0-2.037-.984l-5.085,1.684a1.485,1.485,0,0,0-.9,1.969l1.147,2.974a24.169,24.169,0,0,0-3.5,2.342l-2.492-2.078a1.579,1.579,0,0,0-2.22.129l-3.429,4.013a1.548,1.548,0,0,0,.245,2.186l2.471,2.064a23.129,23.129,0,0,0-1.779,3.816l-3.11-.611a1.493,1.493,0,0,0-1.806,1.209l-.828,5.241a1.627,1.627,0,0,0,1.324,1.82l3.1.6a23.809,23.809,0,0,0,.462,4.264l-2.906.978a1.473,1.473,0,0,0-.9,1.955l1.976,5.038a1.659,1.659,0,0,0,2.044.964l2.879-.971a25.2,25.2,0,0,0,2.587,3.537l-1.942,2.274a1.52,1.52,0,0,0,.238,2.159l4.223,3.483a1.588,1.588,0,0,0,2.206-.143l1.935-2.274a25.135,25.135,0,0,0,3.965,1.881l-.475,2.94a1.6,1.6,0,0,0,1.3,1.792l5.316,1.012a1.5,1.5,0,0,0,1.786-1.209l.475-2.953a25.139,25.139,0,0,0,4.291-.292l1.093,2.858a1.621,1.621,0,0,0,2.01.944l5-1.7a1.466,1.466,0,0,0,.9-1.928l-1.1-2.865a22.953,22.953,0,0,0,3.449-2.356l2.41,2a1.556,1.556,0,0,0,2.179-.143l3.374-3.951a1.52,1.52,0,0,0-.224-2.146l-2.417-2.03a23.456,23.456,0,0,0,1.738-3.755l3.082.6a1.481,1.481,0,0,0,1.772-1.2l.862-5.167a1.585,1.585,0,0,0-1.276-1.792" transform="translate(3179.844 351.887)" fill="#fff"/>
    <path id="Path_148" data-name="Path 148" d="M1216.471,542.355s3.021,4.257,4.345,16.546a2.007,2.007,0,0,1-1.88,2.227l-21.862,1.107a1.287,1.287,0,0,1-1.31-1.636c1.086-3.85,4.488-13.28,12.866-19l7.842.754" transform="translate(3249.703 546.12)" fill="#333435"/>
    <g id="Group_27" data-name="Group 27" transform="translate(4457.844 1079.255)" clip-path="url(#clip-path-5)">
      <g id="Group_26" data-name="Group 26" transform="translate(0.128 0.251)" clip-path="url(#clip-path-6)">
        <g id="Group_25" data-name="Group 25" transform="translate(0.005)" clip-path="url(#clip-path-7)">
          <g id="Group_24" data-name="Group 24" transform="translate(-1.715 -1.256)" clip-path="url(#clip-path-8)">
            <path id="Path_149" data-name="Path 149" d="M1216.376,537.585l-1.7,15.045-12.71-1.433,1.7-15.045Zm0,0" transform="translate(-1201.942 -536.152)" fill="url(#linear-gradient-2)"/>
          </g>
        </g>
      </g>
    </g>
    <path id="Path_154" data-name="Path 154" d="M1193.709,542.469a30.488,30.488,0,0,1,4.63,15.283,3.866,3.866,0,0,1-3.755,3.911l-33.967,1.181a1.626,1.626,0,0,1-1.045-2.919c6.273-4.739,18.616-13.6,27.64-17.232l6.5-.224" transform="translate(3222.469 546.76)" fill="#333435"/>
    <g id="Group_31" data-name="Group 31" transform="translate(4408.379 1074.353)" clip-path="url(#clip-path-9)">
      <g id="Group_30" data-name="Group 30" transform="translate(0.059 0.115)" clip-path="url(#clip-path-10)">
        <g id="Group_29" data-name="Group 29" transform="translate(-0.001)" clip-path="url(#clip-path-11)">
          <g id="Group_28" data-name="Group 28" transform="translate(-2.686 -1.161)" clip-path="url(#clip-path-12)">
            <path id="Path_155" data-name="Path 155" d="M1184.039,533.3l2.8,20.287-11.1,1.521-2.791-20.28Zm0,0" transform="translate(-1172.932 -533.311)" fill="url(#linear-gradient-3)"/>
          </g>
        </g>
      </g>
    </g>
    <path id="Path_160" data-name="Path 160" d="M1251.544,437.219s8.215,9.064,8.84,18.922S1236.7,622.393,1236.7,622.393s-9.295.489-13.681-2.886c0,0,5.934-102.608,4.359-126.65,0,0-34.157,103.131-42.474,121.524,0,0-8.908.075-11.556-1.915,0,0,21.285-136.277,31.347-159.8l46.854-15.453" transform="translate(3233.192 469.076)" fill="#c6c9d3"/>
    <path id="Path_161" data-name="Path 161" d="M1205.425,476.664a1.324,1.324,0,0,0,1.242-.849l5.364-13.932,8.507-4.189a1.331,1.331,0,0,0-1.175-2.39l-8.976,4.42a1.324,1.324,0,0,0-.652.72l-5.554,14.414a1.33,1.33,0,0,0,.767,1.718,1.283,1.283,0,0,0,.475.088" transform="translate(3255.888 480.907)" fill="#a8abb2"/>
    <path id="Path_162" data-name="Path 162" d="M1181.774,395.577c15.161-13.029,41.66-16.709,56.868-17.727a13.771,13.771,0,0,1,14.312,10.381c4.678,18.78,17.632,67.718,20.259,76.17,2.159,6.939,4.461,13.735,5.934,17.992a4.876,4.876,0,0,1-2.994,6.2c-13.233,4.63-36.575,8.915-46.026,10.558a3.161,3.161,0,0,1-3.68-3.469,9.844,9.844,0,0,0-.822-5.2l-28.149-61.607c-24.306,21.5-43.473,21.556-57.411,14.679a110.028,110.028,0,0,0,7.373-22.134c21.876-1.256,34.334-25.841,34.334-25.841" transform="translate(3208.631 423.265)" fill="#f7e057"/>
    <g id="Group_35" data-name="Group 35" transform="translate(4320.775 831.541)" clip-path="url(#clip-path-13)">
      <g id="Group_34" data-name="Group 34" transform="translate(0.143 0.299)" clip-path="url(#clip-path-14)">
        <g id="Group_33" data-name="Group 33" clip-path="url(#clip-path-15)">
          <g id="Group_32" data-name="Group 32" transform="translate(-15.785 -15.826)" clip-path="url(#clip-path-16)">
            <path id="Path_163" data-name="Path 163" d="M1115.07,412.282l40.777-25.813,25.82,40.7-40.777,25.82Zm0,0" transform="translate(-1115.07 -386.469)" fill="url(#linear-gradient-4)"/>
          </g>
        </g>
      </g>
    </g>
    <g id="Group_39" data-name="Group 39" transform="translate(4283.278 824.435)" clip-path="url(#clip-path-17)">
      <g id="Group_38" data-name="Group 38" transform="translate(0.109 0.19)" clip-path="url(#clip-path-18)">
        <g id="Group_37" data-name="Group 37" clip-path="url(#clip-path-19)">
          <g id="Group_36" data-name="Group 36" transform="translate(-8.127 -22.663)" clip-path="url(#clip-path-20)">
            <path id="Path_168" data-name="Path 168" d="M1098.027,410.015l26.56-31.292L1158.44,407.4l-26.56,31.286Zm0,0" transform="translate(-1097.797 -378.247)" fill="url(#linear-gradient-5)"/>
          </g>
        </g>
      </g>
    </g>
    <g id="Group_43" data-name="Group 43" transform="translate(4410.141 771.333)" clip-path="url(#clip-path-21)">
      <g id="Group_42" data-name="Group 42" transform="translate(0.21 0.217)" clip-path="url(#clip-path-22)">
        <g id="Group_41" data-name="Group 41" clip-path="url(#clip-path-23)">
          <g id="Group_40" data-name="Group 40" transform="translate(-12.934 -9.661)" clip-path="url(#clip-path-24)">
            <path id="Path_173" data-name="Path 173" d="M1168.461,370.252l36.154-14.685,16.308,40.071-36.16,14.686Zm0,0" transform="translate(-1167.897 -355.566)" fill="url(#linear-gradient-6)"/>
          </g>
        </g>
      </g>
    </g>
    <g id="Group_47" data-name="Group 47" transform="translate(4400.679 748.746)" clip-path="url(#clip-path-25)">
      <g id="Group_46" data-name="Group 46" transform="translate(0.075 0.025)" clip-path="url(#clip-path-26)">
        <g id="Group_45" data-name="Group 45" transform="translate(0.007 0)" clip-path="url(#clip-path-27)">
          <g id="Group_44" data-name="Group 44" transform="translate(-3.218 -6.915)" clip-path="url(#clip-path-28)">
            <path id="Path_178" data-name="Path 178" d="M1171.476,346.68l33.662,2.689-3.055,38.231-33.669-2.689Zm0,0" transform="translate(-1168.061 -342.246)" fill="url(#linear-gradient-7)"/>
          </g>
        </g>
      </g>
    </g>
    <path id="Path_183" data-name="Path 183" d="M1195.87,367.072l-6.722,13.844a2.288,2.288,0,0,1-.319.482c-.808.91-3.8,3.816-6.579.577-2.532-2.933-4.888-5.581-7.258-6.28a2.166,2.166,0,0,0-2.607,1.263,92.9,92.9,0,0,0-4.4,13.735,2.14,2.14,0,0,0,1.473,2.492c3.2.991,10.008,2.886,15.847,3.123a2.154,2.154,0,0,0,1.942-1.032c1.983-3.3,8.066-13.314,10.191-15.847,2-2.369,6.165-1.833,7.9-1.48a2.127,2.127,0,0,0,1.629-.333c1.691-1.175,5-4.271,1.351-8.84a2.153,2.153,0,0,1,.4-3.076c1.948-1.46,4.169-4.189,1.643-8.161-2.573-4.04-6.579-3.9-9.1-3.286a2.151,2.151,0,0,1-2.465-1.236,1.706,1.706,0,0,0-1.657-1.018,2.114,2.114,0,0,1-2-2.41c.312-2.37-.2-5.459-4.175-7.2-7.054-3.1-12.418,3.449-13.464,8.663s6.8,8.134,11.59,8.317c3.632.136,5.907,4.013,6.789,5.859a2.123,2.123,0,0,1-.014,1.847" transform="translate(3229.133 395.818)" fill="#333435"/>
    <g id="Group_51" data-name="Group 51" transform="translate(4423.801 771.266)" clip-path="url(#clip-path-29)">
      <g id="Group_50" data-name="Group 50" transform="translate(0.272 0.088)" clip-path="url(#clip-path-30)">
        <g id="Group_49" data-name="Group 49" transform="translate(0 -0.007)" clip-path="url(#clip-path-31)">
          <g id="Group_48" data-name="Group 48" transform="translate(-0.645 -0.618)" clip-path="url(#clip-path-32)">
            <path id="Path_184" data-name="Path 184" d="M1195.479,372.322l-11.773.536-.523-11.576,11.766-.536Zm0,0" transform="translate(-1183.041 -360.651)" fill="url(#linear-gradient-8)"/>
          </g>
        </g>
      </g>
    </g>
    <path id="Path_189" data-name="Path 189" d="M1045.032,386.963l-1.731,1.48-.034.027a2.5,2.5,0,0,1-3.293-3.775l1.765-1.562a2.525,2.525,0,0,1,3.354,3.775l-.02.02-.041.034" transform="translate(3133.917 426.368)" fill="#fff"/>
    <path id="Path_190" data-name="Path 190" d="M1041.718,389.785l-1.663,1.568-.027.02a2.437,2.437,0,0,1-3.374-3.517l1.677-1.643a2.461,2.461,0,1,1,3.436,3.524l-.021.014-.027.034" transform="translate(3131.538 428.632)" fill="#fff"/>
    <path id="Path_191" data-name="Path 191" d="M1038.516,392.769l-1.609,1.636-.014.014a2.375,2.375,0,0,1-3.422-3.293l1.616-1.7a2.394,2.394,0,1,1,3.476,3.293l-.047.048" transform="translate(3129.252 431.001)" fill="#fff"/>
    <path id="Path_192" data-name="Path 192" d="M1035.421,395.87l-1.555,1.7-.014.014a2.31,2.31,0,0,1-3.429-3.1l1.548-1.752a2.33,2.33,0,0,1,3.49,3.089l-.02.02-.02.027" transform="translate(3127.048 433.457)" fill="#fff"/>
    <path id="Path_193" data-name="Path 193" d="M1032.411,399.08l-1.507,1.738-.014.014a2.244,2.244,0,0,1-3.415-2.913l1.507-1.786a2.263,2.263,0,1,1,3.47,2.906l-.041.041" transform="translate(3124.915 435.981)" fill="#fff"/>
    <path id="Path_194" data-name="Path 194" d="M1029.5,402.375l-1.467,1.779-.014.014a2.177,2.177,0,0,1-3.381-2.743l1.453-1.826a2.2,2.2,0,0,1,3.442,2.736l-.02.02-.014.02" transform="translate(3122.851 438.565)" fill="#fff"/>
    <path id="Path_195" data-name="Path 195" d="M1026.657,405.746l-1.426,1.813-.014.014a2.113,2.113,0,0,1-3.34-2.587l1.412-1.854a2.133,2.133,0,1,1,3.4,2.573l-.021.02-.014.02" transform="translate(3120.846 441.202)" fill="#fff"/>
    <path id="Path_196" data-name="Path 196" d="M1023.889,409.182l-1.385,1.84-.007.014a2.046,2.046,0,0,1-3.293-2.431l1.371-1.887a2.066,2.066,0,1,1,3.347,2.424l-.02.02-.014.02" transform="translate(3118.899 443.883)" fill="#fff"/>
    <path id="Path_197" data-name="Path 197" d="M1021.2,412.678l-1.351,1.874-.007.007a1.983,1.983,0,0,1-3.239-2.288l1.338-1.915a2,2,0,0,1,3.286,2.281l-.027.041" transform="translate(3117.007 446.607)" fill="#fff"/>
    <path id="Path_198" data-name="Path 198" d="M1018.584,416.224l-1.317,1.9-.007.014a1.916,1.916,0,0,1-3.171-2.152l1.3-1.942a1.934,1.934,0,0,1,3.218,2.145l-.014.02-.007.014" transform="translate(3115.17 449.37)" fill="#fff"/>
    <path id="Path_199" data-name="Path 199" d="M1016.026,419.827l-1.27,1.928-.007.007a1.85,1.85,0,0,1-3.1-2.016l1.256-1.962a1.868,1.868,0,0,1,3.15,2.01l-.014.02-.014.014" transform="translate(3113.386 452.171)" fill="#fff"/>
    <path id="Path_200" data-name="Path 200" d="M1013.546,423.485l-1.236,1.949-.007.007a1.784,1.784,0,0,1-3.028-1.887l1.215-1.982a1.805,1.805,0,0,1,3.082,1.881l-.027.034" transform="translate(3111.654 455.006)" fill="#fff"/>
    <path id="Path_201" data-name="Path 201" d="M1011.14,427.183l-1.2,1.976-.007.007a1.719,1.719,0,0,1-2.953-1.758l1.181-2.01a1.737,1.737,0,0,1,3,1.752l-.014.02-.007.014" transform="translate(3109.978 457.877)" fill="#fff"/>
    <path id="Path_202" data-name="Path 202" d="M1008.8,430.929l-1.161,2-.007.014a1.653,1.653,0,0,1-2.872-1.636l1.134-2.037a1.675,1.675,0,0,1,2.926,1.63l-.02.034" transform="translate(3108.358 460.78)" fill="#fff"/>
    <path id="Path_203" data-name="Path 203" d="M1006.537,434.722l-1.113,2.023-.007.007a1.586,1.586,0,0,1-2.79-1.507l1.093-2.057a1.605,1.605,0,0,1,2.838,1.5l-.007.02-.014.014" transform="translate(3106.796 463.719)" fill="#fff"/>
    <path id="Path_204" data-name="Path 204" d="M1004.36,438.563l-1.073,2.044-.007.014a1.523,1.523,0,0,1-2.709-1.392l1.052-2.084a1.539,1.539,0,0,1,2.75,1.385l-.007.014-.007.02" transform="translate(3105.298 466.693)" fill="#fff"/>
    <path id="Path_205" data-name="Path 205" d="M1002.264,442.451l-1.018,2.071-.007.007a1.455,1.455,0,0,1-2.621-1.263l1-2.111a1.476,1.476,0,0,1,2.668,1.263l-.007.014-.014.02" transform="translate(3103.868 469.701)" fill="#fff"/>
    <path id="Path_206" data-name="Path 206" d="M1000.274,446.386l-.971,2.091v.014a1.392,1.392,0,0,1-2.539-1.141l.944-2.139a1.41,1.41,0,1,1,2.58,1.141l-.007.014-.007.02" transform="translate(3102.516 472.744)" fill="#fff"/>
    <path id="Path_207" data-name="Path 207" d="M998.387,450.37l-.9,2.118v.014a1.326,1.326,0,0,1-2.451-1.012l.876-2.166a1.343,1.343,0,0,1,2.492,1l-.014.041" transform="translate(3101.25 475.827)" fill="#fff"/>
    <path id="Path_208" data-name="Path 208" d="M996.629,454.4l-.822,2.152-.007.014a1.261,1.261,0,0,1-2.363-.883l.8-2.193a1.279,1.279,0,0,1,2.4.876l-.007.014-.007.02" transform="translate(3100.088 478.95)" fill="#fff"/>
    <path id="Path_209" data-name="Path 209" d="M995.02,458.493l-.733,2.179-.007.02a1.193,1.193,0,0,1-2.268-.74l.706-2.227a1.214,1.214,0,0,1,2.315.733l-.007.014-.007.02" transform="translate(3099.048 482.118)" fill="#fff"/>
  </g>
</svg>
