<svg xmlns="http://www.w3.org/2000/svg" xmlns:xlink="http://www.w3.org/1999/xlink" width="642.67" height="644.53" viewBox="0 0 642.67 644.53">
  <defs>
    <clipPath id="clip-path">
      <path id="Path_215" data-name="Path 215" d="M1187.191,420.945h51.119v29.368h-51.119Zm0,0" transform="translate(-1187.191 -420.945)"/>
    </clipPath>
    <clipPath id="clip-path-2">
      <path id="Path_214" data-name="Path 214" d="M1190.943,420.945s19.772,23.695,39.679,4.452l7.688,17.85s-29.068,22.53-51.119-12.919Zm0,0" transform="translate(-1187.191 -420.945)"/>
    </clipPath>
    <clipPath id="clip-path-3">
      <path id="Path_213" data-name="Path 213" d="M1190.943,420.945s19.772,23.695,39.672,4.452l7.7,17.85s-29.068,22.53-51.119-12.919l3.751-9.382" transform="translate(-1187.191 -420.945)"/>
    </clipPath>
    <linearGradient id="linear-gradient" x1="-42.483" y1="-26.219" x2="-42.447" y2="-26.219" gradientUnits="objectBoundingBox">
      <stop offset="0" stop-color="#fff"/>
      <stop offset="0.031" stop-color="#fff"/>
      <stop offset="0.063" stop-color="#fefefe"/>
      <stop offset="0.094" stop-color="#fefefe"/>
      <stop offset="0.109" stop-color="#fefefe"/>
      <stop offset="0.125" stop-color="#fdfdfe"/>
      <stop offset="0.141" stop-color="#fdfdfe"/>
      <stop offset="0.156" stop-color="#fdfdfd"/>
      <stop offset="0.188" stop-color="#fcfcfd"/>
      <stop offset="0.219" stop-color="#fcfcfd"/>
      <stop offset="0.234" stop-color="#fcfcfd"/>
      <stop offset="0.25" stop-color="#fbfbfc"/>
      <stop offset="0.281" stop-color="#fbfbfc"/>
      <stop offset="0.313" stop-color="#fafafc"/>
      <stop offset="0.328" stop-color="#fafafc"/>
      <stop offset="0.344" stop-color="#fafafb"/>
      <stop offset="0.359" stop-color="#fafafb"/>
      <stop offset="0.375" stop-color="#f9f9fb"/>
      <stop offset="0.406" stop-color="#f9f9fb"/>
      <stop offset="0.438" stop-color="#f8f8fa"/>
      <stop offset="0.469" stop-color="#f8f8fa"/>
      <stop offset="0.484" stop-color="#f8f8fa"/>
      <stop offset="0.5" stop-color="#f7f7fa"/>
      <stop offset="0.516" stop-color="#f7f7fa"/>
      <stop offset="0.531" stop-color="#f7f7f9"/>
      <stop offset="0.563" stop-color="#f7f7f9"/>
      <stop offset="0.594" stop-color="#f6f6f9"/>
      <stop offset="0.609" stop-color="#f6f6f9"/>
      <stop offset="0.625" stop-color="#f5f5f8"/>
      <stop offset="0.656" stop-color="#f5f5f8"/>
      <stop offset="0.688" stop-color="#f5f5f8"/>
      <stop offset="0.703" stop-color="#f4f4f8"/>
      <stop offset="0.719" stop-color="#f4f4f7"/>
      <stop offset="0.734" stop-color="#f4f4f7"/>
      <stop offset="0.75" stop-color="#f3f3f7"/>
      <stop offset="0.781" stop-color="#f3f3f7"/>
      <stop offset="0.813" stop-color="#f3f3f7"/>
      <stop offset="0.844" stop-color="#f2f2f6"/>
      <stop offset="0.859" stop-color="#f2f2f6"/>
      <stop offset="0.875" stop-color="#f1f1f6"/>
      <stop offset="0.891" stop-color="#f1f1f6"/>
      <stop offset="0.906" stop-color="#f1f1f5"/>
      <stop offset="0.938" stop-color="#f0f0f5"/>
      <stop offset="0.969" stop-color="#f0f0f5"/>
      <stop offset="0.984" stop-color="#f0f0f5"/>
      <stop offset="1" stop-color="#efeff4"/>
    </linearGradient>
    <clipPath id="clip-path-4">
      <path id="Path_220" data-name="Path 220" d="M1214.93,381.219h23.352V415.1H1214.93Zm0,0" transform="translate(-1214.93 -381.219)"/>
    </clipPath>
    <clipPath id="clip-path-5">
      <path id="Path_219" data-name="Path 219" d="M1225.269,381.219s11.075,21.7,13.012,31.669a17.346,17.346,0,0,1-17.635-.479s-3.9-22.637-5.716-26.539Zm0,0" transform="translate(-1214.93 -381.219)"/>
    </clipPath>
    <clipPath id="clip-path-6">
      <path id="Path_218" data-name="Path 218" d="M1225.269,381.215s11.075,21.708,13.012,31.676a17.346,17.346,0,0,1-17.635-.479s-3.9-22.637-5.716-26.539l10.34-4.659" transform="translate(-1214.93 -381.215)"/>
    </clipPath>
    <linearGradient id="linear-gradient-2" x1="-95.172" y1="-20.585" x2="-95.094" y2="-20.585" gradientUnits="objectBoundingBox">
      <stop offset="0" stop-color="#fff"/>
      <stop offset="0.031" stop-color="#fff"/>
      <stop offset="0.063" stop-color="#fefeff"/>
      <stop offset="0.078" stop-color="#fefeff"/>
      <stop offset="0.094" stop-color="#fefefe"/>
      <stop offset="0.109" stop-color="#fefefe"/>
      <stop offset="0.125" stop-color="#fdfdfe"/>
      <stop offset="0.141" stop-color="#fdfdfe"/>
      <stop offset="0.156" stop-color="#fdfdfd"/>
      <stop offset="0.188" stop-color="#fcfcfd"/>
      <stop offset="0.219" stop-color="#fcfcfd"/>
      <stop offset="0.234" stop-color="#fcfcfd"/>
      <stop offset="0.25" stop-color="#fbfbfc"/>
      <stop offset="0.281" stop-color="#fbfbfc"/>
      <stop offset="0.313" stop-color="#fafafc"/>
      <stop offset="0.328" stop-color="#fafafc"/>
      <stop offset="0.344" stop-color="#fafafb"/>
      <stop offset="0.359" stop-color="#fafafb"/>
      <stop offset="0.375" stop-color="#f9f9fb"/>
      <stop offset="0.406" stop-color="#f9f9fb"/>
      <stop offset="0.438" stop-color="#f8f8fa"/>
      <stop offset="0.469" stop-color="#f8f8fa"/>
      <stop offset="0.484" stop-color="#f8f8fa"/>
      <stop offset="0.5" stop-color="#f7f7fa"/>
      <stop offset="0.516" stop-color="#f7f7fa"/>
      <stop offset="0.531" stop-color="#f7f7f9"/>
      <stop offset="0.563" stop-color="#f7f7f9"/>
      <stop offset="0.594" stop-color="#f6f6f9"/>
      <stop offset="0.609" stop-color="#f6f6f9"/>
      <stop offset="0.625" stop-color="#f5f5f8"/>
      <stop offset="0.656" stop-color="#f5f5f8"/>
      <stop offset="0.688" stop-color="#f5f5f8"/>
      <stop offset="0.703" stop-color="#f4f4f8"/>
      <stop offset="0.719" stop-color="#f4f4f7"/>
      <stop offset="0.734" stop-color="#f4f4f7"/>
      <stop offset="0.75" stop-color="#f3f3f7"/>
      <stop offset="0.781" stop-color="#f3f3f7"/>
      <stop offset="0.813" stop-color="#f3f3f7"/>
      <stop offset="0.844" stop-color="#f2f2f6"/>
      <stop offset="0.859" stop-color="#f2f2f6"/>
      <stop offset="0.875" stop-color="#f1f1f6"/>
      <stop offset="0.891" stop-color="#f1f1f6"/>
      <stop offset="0.906" stop-color="#f1f1f5"/>
      <stop offset="0.938" stop-color="#f0f0f5"/>
      <stop offset="0.969" stop-color="#f0f0f5"/>
      <stop offset="0.984" stop-color="#f0f0f5"/>
      <stop offset="1" stop-color="#efeff4"/>
    </linearGradient>
    <clipPath id="clip-path-7">
      <path id="Path_225" data-name="Path 225" d="M1201.328,492.8h70.219V645.361h-70.219Zm0,0" transform="translate(-1201.328 -492.797)"/>
    </clipPath>
    <clipPath id="clip-path-8">
      <path id="Path_224" data-name="Path 224" d="M1205.973,492.9c.064,1.615-2.765,14.405-4.309,21.229a11.263,11.263,0,0,0,1.208,8.067l53.334,89.848a12.139,12.139,0,0,1,1.4,3.494c.979,4.216,3.008,14.548,1.944,23.952l-2.751,5.731,11.926-2.708,2.6-32.069-3.38-2.065a16.1,16.1,0,0,1-6.488-7.61c-4.823-11.726-16.8-41.573-19.886-56.114-3.509-16.535-21.851-29.961-21.851-29.961l3.223-7.624Zm0,0" transform="translate(-1201.388 -492.902)"/>
    </clipPath>
    <clipPath id="clip-path-9">
      <path id="Path_223" data-name="Path 223" d="M1205.974,492.9c.057,1.615-2.765,14.405-4.309,21.229a11.227,11.227,0,0,0,1.208,8.067l53.334,89.848a12.139,12.139,0,0,1,1.4,3.494c.979,4.216,3.008,14.548,1.944,23.952l-2.751,5.731,11.926-2.708,2.594-32.069-3.373-2.065a16.071,16.071,0,0,1-6.5-7.61c-4.823-11.726-16.8-41.573-19.879-56.114-3.509-16.535-21.851-29.961-21.851-29.961l3.223-7.624-16.971-14.17" transform="translate(-1201.387 -492.902)"/>
    </clipPath>
    <clipPath id="clip-path-10">
      <path id="Path_222" data-name="Path 222" d="M1284.282,476.66l-118.216,65.1,80.6,146.641,118.216-65.1Zm0,0" transform="translate(-1166.066 -476.66)"/>
    </clipPath>
    <linearGradient id="linear-gradient-3" x1="-10.743" y1="-4.122" x2="-10.734" y2="-4.122" gradientUnits="objectBoundingBox">
      <stop offset="0" stop-color="#fff"/>
      <stop offset="0.125" stop-color="#fff"/>
      <stop offset="0.156" stop-color="#fefeff"/>
      <stop offset="0.188" stop-color="#fefefe"/>
      <stop offset="0.203" stop-color="#fefefe"/>
      <stop offset="0.219" stop-color="#fdfdfe"/>
      <stop offset="0.234" stop-color="#fdfdfe"/>
      <stop offset="0.25" stop-color="#fdfdfd"/>
      <stop offset="0.281" stop-color="#fcfcfd"/>
      <stop offset="0.313" stop-color="#fcfcfd"/>
      <stop offset="0.328" stop-color="#fcfcfd"/>
      <stop offset="0.344" stop-color="#fbfbfc"/>
      <stop offset="0.375" stop-color="#fbfbfc"/>
      <stop offset="0.406" stop-color="#fafafc"/>
      <stop offset="0.438" stop-color="#fafafb"/>
      <stop offset="0.453" stop-color="#fafafb"/>
      <stop offset="0.469" stop-color="#f9f9fb"/>
      <stop offset="0.5" stop-color="#f9f9fb"/>
      <stop offset="0.563" stop-color="#f8f8fa"/>
      <stop offset="0.578" stop-color="#f8f8fa"/>
      <stop offset="0.594" stop-color="#f7f7fa"/>
      <stop offset="0.609" stop-color="#f7f7fa"/>
      <stop offset="0.625" stop-color="#f7f7f9"/>
      <stop offset="0.641" stop-color="#f7f7f9"/>
      <stop offset="0.656" stop-color="#f6f6f9"/>
      <stop offset="0.688" stop-color="#f6f6f9"/>
      <stop offset="0.703" stop-color="#f6f6f9"/>
      <stop offset="0.719" stop-color="#f5f5f8"/>
      <stop offset="0.75" stop-color="#f5f5f8"/>
      <stop offset="0.766" stop-color="#f5f5f8"/>
      <stop offset="0.781" stop-color="#f4f4f8"/>
      <stop offset="0.813" stop-color="#f4f4f8"/>
      <stop offset="0.828" stop-color="#f4f4f7"/>
      <stop offset="0.844" stop-color="#f3f3f7"/>
      <stop offset="0.859" stop-color="#f3f3f7"/>
      <stop offset="0.875" stop-color="#f3f3f6"/>
      <stop offset="0.891" stop-color="#f3f3f6"/>
      <stop offset="0.906" stop-color="#f2f2f6"/>
      <stop offset="0.938" stop-color="#f2f2f6"/>
      <stop offset="0.953" stop-color="#f2f2f6"/>
      <stop offset="0.969" stop-color="#f1f1f5"/>
      <stop offset="1" stop-color="#f1f1f5"/>
    </linearGradient>
    <clipPath id="clip-path-11">
      <path id="Path_231" data-name="Path 231" d="M1215.219,499.359h37.75V641.684h-37.75Zm0,0" transform="translate(-1215.219 -499.359)"/>
    </clipPath>
    <clipPath id="clip-path-12">
      <path id="Path_230" data-name="Path 230" d="M1226.343,501.709s1.879,80.366,2.136,91.777-1.8,36.714-13.233,44.274l4.973,3.68a66.333,66.333,0,0,0,12.29-15.463c6.824-11.433,8.889-13.519,8.889-13.519l-2.265-4.645a10.2,10.2,0,0,1-.829-6.545c2.465-11.962,10.711-51.769,12.955-60.344,2.658-10.118,2.844-23.63-6.388-34.942S1226.343,501.709,1226.343,501.709Zm0,0" transform="translate(-1215.246 -499.542)"/>
    </clipPath>
    <clipPath id="clip-path-13">
      <path id="Path_229" data-name="Path 229" d="M1226.343,501.709s1.879,80.366,2.136,91.777-1.8,36.714-13.233,44.274l4.973,3.68a66.333,66.333,0,0,0,12.29-15.463c6.824-11.433,8.889-13.519,8.889-13.519l-2.272-4.645a10.24,10.24,0,0,1-.822-6.545c2.465-11.962,10.711-51.769,12.955-60.344,2.651-10.118,2.844-23.63-6.388-34.949s-18.528-4.266-18.528-4.266" transform="translate(-1215.246 -499.541)"/>
    </clipPath>
    <clipPath id="clip-path-14">
      <path id="Path_228" data-name="Path 228" d="M1288.823,503.754l-61.687-10.34L1202.184,642.52l61.695,10.34Zm0,0" transform="translate(-1202.184 -493.414)"/>
    </clipPath>
    <linearGradient id="linear-gradient-4" x1="-26.227" y1="-5.871" x2="-26.167" y2="-5.871" gradientUnits="objectBoundingBox">
      <stop offset="0" stop-color="#fff"/>
      <stop offset="0.5" stop-color="#fff"/>
      <stop offset="0.625" stop-color="#fff"/>
      <stop offset="0.656" stop-color="#fff"/>
      <stop offset="0.672" stop-color="#fff"/>
      <stop offset="0.68" stop-color="#fefefe"/>
      <stop offset="0.688" stop-color="#fefefe"/>
      <stop offset="0.703" stop-color="#fdfdfe"/>
      <stop offset="0.719" stop-color="#fdfdfd"/>
      <stop offset="0.734" stop-color="#fcfcfd"/>
      <stop offset="0.75" stop-color="#fbfbfc"/>
      <stop offset="0.766" stop-color="#fafafc"/>
      <stop offset="0.781" stop-color="#fafafb"/>
      <stop offset="0.797" stop-color="#f9f9fb"/>
      <stop offset="0.813" stop-color="#f8f8fa"/>
      <stop offset="0.828" stop-color="#f8f8fa"/>
      <stop offset="0.844" stop-color="#f7f7f9"/>
      <stop offset="0.875" stop-color="#f6f6f8"/>
      <stop offset="0.891" stop-color="#f5f5f8"/>
      <stop offset="0.898" stop-color="#f5f5f8"/>
      <stop offset="0.906" stop-color="#f4f4f8"/>
      <stop offset="0.938" stop-color="#f3f3f7"/>
      <stop offset="0.945" stop-color="#f3f3f7"/>
      <stop offset="0.953" stop-color="#f2f2f6"/>
      <stop offset="0.969" stop-color="#f1f1f6"/>
      <stop offset="0.984" stop-color="#f1f1f6"/>
      <stop offset="1" stop-color="#f0f0f5"/>
    </linearGradient>
    <clipPath id="clip-path-15">
      <path id="Path_237" data-name="Path 237" d="M1198.051,403.6h75.507v64.281h-75.507Zm0,0" transform="translate(-1198.051 -403.598)"/>
    </clipPath>
    <clipPath id="clip-path-16">
      <path id="Path_236" data-name="Path 236" d="M1254.838,411.43s4.587,65.6-37.764,32.655c0,0-6.252-5.917-10.768-6.638-2.429-.379-5.173-.643-7.188-.8a.909.909,0,0,0-.593,1.651,11.967,11.967,0,0,0,5.009,2.294c3.2.336-.207,2.672,3.272,8.8s8.446,3.816,8.446,3.816,48.525,49.74,58.215-37.014C1273.809,400.054,1258.3,400.912,1254.838,411.43Zm0,0" transform="translate(-1198.135 -403.761)"/>
    </clipPath>
    <clipPath id="clip-path-17">
      <path id="Path_235" data-name="Path 235" d="M1254.838,411.43s4.594,65.6-37.764,32.648c0,0-6.252-5.909-10.768-6.631-2.429-.386-5.173-.643-7.188-.8a.909.909,0,0,0-.593,1.651,11.954,11.954,0,0,0,5.016,2.294c3.187.336-.214,2.672,3.265,8.8s8.446,3.816,8.446,3.816,48.525,49.74,58.215-37.014c.343-16.135-15.17-15.277-18.628-4.759" transform="translate(-1198.135 -403.761)"/>
    </clipPath>
    <clipPath id="clip-path-18">
      <path id="Path_242" data-name="Path 242" d="M1182.621,416.148h14.82v20.743h-14.82Zm0,0" transform="translate(-1182.621 -416.148)"/>
    </clipPath>
    <clipPath id="clip-path-19">
      <path id="Path_241" data-name="Path 241" d="M1191.44,436.862s-9.689-14.112-8.567-15.849,9.618-4.223,11.611-4.809S1200.237,428.409,1191.44,436.862Zm0,0" transform="translate(-1182.783 -416.185)"/>
    </clipPath>
    <clipPath id="clip-path-20">
      <path id="Path_240" data-name="Path 240" d="M1191.44,436.865s-9.689-14.112-8.567-15.849,9.618-4.23,11.611-4.816,5.752,12.212-3.044,20.665" transform="translate(-1182.783 -416.181)"/>
    </clipPath>
    <linearGradient id="linear-gradient-5" x1="-145.977" y1="-36.698" x2="-145.848" y2="-36.698" gradientUnits="objectBoundingBox">
      <stop offset="0" stop-color="#fff"/>
      <stop offset="0.063" stop-color="#fff"/>
      <stop offset="0.094" stop-color="#fff"/>
      <stop offset="0.125" stop-color="#fefefe"/>
      <stop offset="0.156" stop-color="#fdfdfe"/>
      <stop offset="0.188" stop-color="#fdfdfd"/>
      <stop offset="0.219" stop-color="#fcfcfd"/>
      <stop offset="0.25" stop-color="#fcfcfd"/>
      <stop offset="0.313" stop-color="#fbfbfc"/>
      <stop offset="0.344" stop-color="#fafafc"/>
      <stop offset="0.375" stop-color="#f9f9fb"/>
      <stop offset="0.438" stop-color="#f9f9fb"/>
      <stop offset="0.469" stop-color="#f8f8fa"/>
      <stop offset="0.5" stop-color="#f7f7fa"/>
      <stop offset="0.563" stop-color="#f7f7f9"/>
      <stop offset="0.594" stop-color="#f6f6f9"/>
      <stop offset="0.625" stop-color="#f5f5f8"/>
      <stop offset="0.688" stop-color="#f5f5f8"/>
      <stop offset="0.719" stop-color="#f4f4f8"/>
      <stop offset="0.75" stop-color="#f3f3f7"/>
      <stop offset="0.781" stop-color="#f3f3f7"/>
      <stop offset="0.813" stop-color="#f2f2f6"/>
      <stop offset="0.875" stop-color="#f2f2f6"/>
      <stop offset="0.906" stop-color="#f1f1f5"/>
      <stop offset="0.938" stop-color="#f0f0f5"/>
      <stop offset="1" stop-color="#f0f0f4"/>
    </linearGradient>
    <clipPath id="clip-path-21">
      <path id="Path_246" data-name="Path 246" d="M1206.922,370.586h30.347v44.5h-30.347Zm0,0" transform="translate(-1206.922 -370.586)"/>
    </clipPath>
    <clipPath id="clip-path-22">
      <path id="Path_245" data-name="Path 245" d="M1207.054,377.711s-2.065,36.485,13.269,36.992,16.828-25.424,16.828-25.424-4.53-16.392-11.826-18.307S1207.054,377.711,1207.054,377.711Zm0,0" transform="translate(-1206.961 -370.697)"/>
    </clipPath>
    <clipPath id="clip-path-23">
      <path id="Path_244" data-name="Path 244" d="M1207.054,377.711s-2.065,36.485,13.269,37,16.828-25.431,16.828-25.431-4.53-16.392-11.833-18.307-18.264,6.738-18.264,6.738" transform="translate(-1206.961 -370.697)"/>
    </clipPath>
    <clipPath id="clip-path-24">
      <path id="Path_251" data-name="Path 251" d="M1220.926,375.605h10.733v13.769h-10.733Zm0,0" transform="translate(-1220.926 -375.605)"/>
    </clipPath>
    <clipPath id="clip-path-25">
      <path id="Path_250" data-name="Path 250" d="M1220.926,385.408s1.865-12.519,7.982-9-.45,13.219-5.23,12.612Zm0,0" transform="translate(-1220.926 -375.787)"/>
    </clipPath>
    <clipPath id="clip-path-26">
      <path id="Path_249" data-name="Path 249" d="M1220.926,385.408s1.865-12.519,7.982-9-.45,13.219-5.23,12.612l-2.751-3.616" transform="translate(-1220.926 -375.787)"/>
    </clipPath>
    <linearGradient id="linear-gradient-6" x1="-208.094" y1="-49.899" x2="-207.919" y2="-49.899" gradientUnits="objectBoundingBox">
      <stop offset="0" stop-color="#fff"/>
      <stop offset="0.063" stop-color="#fff"/>
      <stop offset="0.094" stop-color="#fefefe"/>
      <stop offset="0.125" stop-color="#fdfdfe"/>
      <stop offset="0.188" stop-color="#fdfdfd"/>
      <stop offset="0.219" stop-color="#fcfcfd"/>
      <stop offset="0.25" stop-color="#fbfbfc"/>
      <stop offset="0.313" stop-color="#fbfbfc"/>
      <stop offset="0.344" stop-color="#fafafc"/>
      <stop offset="0.375" stop-color="#f9f9fb"/>
      <stop offset="0.438" stop-color="#f9f9fb"/>
      <stop offset="0.469" stop-color="#f8f8fa"/>
      <stop offset="0.5" stop-color="#f7f7fa"/>
      <stop offset="0.563" stop-color="#f7f7f9"/>
      <stop offset="0.594" stop-color="#f6f6f9"/>
      <stop offset="0.625" stop-color="#f5f5f8"/>
      <stop offset="0.688" stop-color="#f5f5f8"/>
      <stop offset="0.719" stop-color="#f4f4f7"/>
      <stop offset="0.75" stop-color="#f3f3f7"/>
      <stop offset="0.813" stop-color="#f3f3f6"/>
      <stop offset="0.844" stop-color="#f2f2f6"/>
      <stop offset="0.875" stop-color="#f1f1f5"/>
      <stop offset="0.938" stop-color="#f1f1f5"/>
      <stop offset="0.969" stop-color="#f0f0f5"/>
      <stop offset="1" stop-color="#efeff4"/>
    </linearGradient>
  </defs>
  <g id="Group_47" data-name="Group 47" transform="translate(-2695.725 -433.783)">
    <path id="Path_85" data-name="Path 85" d="M1479.648,775.088c-13.067,13.746-25.419,22.6-35.189,29.615-114.78,82.31-250.6,58.317-279.471,52.46-42.625-8.658-125.02-25.382-184.594-95.4-90.124-105.924-76.087-272.809-6.18-382.973C987,358.638,1054.547,246.8,1191.828,228.864,1274.915,218,1371.762,239.9,1441.9,298.632c147.222,123.268,136.739,372.3,37.751,476.456" transform="translate(1783.099 208.331)" fill="#efeff4"/>
    <path id="Path_86" data-name="Path 86" d="M926.968,258.433c46.575,33.663,309.737,239.417,162.368,493.608,0,0-207.878-95.807-170-490.782.329-3.453,4.587-5.02,7.631-2.827" transform="translate(1781 234.237)" fill="#c6c9d3"/>
    <path id="Path_87" data-name="Path 87" d="M932.94,286.521c10.375,14.984,20.143,30.3,29.682,45.781s18.707,31.176,27.575,47.053q13.269,23.827,25.5,48.232c8.153,16.263,15.942,32.719,23.194,49.419s14.2,33.548,20.358,50.7c6.188,17.142,11.976,34.456,16.713,52.105,9.7,35.177,16.17,71.52,16.571,108.369a4.152,4.152,0,1,1-8.3.093v-.107c0-35.835-5.917-71.655-15.127-106.511-4.487-17.478-10.032-34.684-15.977-51.748-5.924-17.078-12.619-33.9-19.664-50.562-7.024-16.671-14.591-33.127-22.523-49.4s-16.228-32.391-24.866-48.311q-12.991-23.87-26.96-47.2c-9.332-15.52-18.929-30.933-29.054-45.9l-.014-.021a1.76,1.76,0,0,1,2.9-1.994" transform="translate(1793.449 256.931)" fill="#e8e8ef"/>
    <path id="Path_88" data-name="Path 88" d="M1456.517,520.855v30.962h-.05c-1.894,18.686-79.973,53-193.373,53.634-166.741.936-223.048-36.328-225.67-55.421h-.057V521.506l419.15-.65" transform="translate(1881.878 450.917)" fill="#979aa0"/>
    <path id="Path_89" data-name="Path 89" d="M1037.367,536.969c0,19.236,96.207,34.434,212.965,33.948,114.693-.486,206.185-15.977,206.185-34.606s-91.491-33.834-206.185-33.956c-116.758-.129-212.965,15.37-212.965,34.613" transform="translate(1881.878 435.576)" fill="#979aa0"/>
    <path id="Path_90" data-name="Path 90" d="M1038.254,535.545c0,19.1,95.471,34.213,211.365,33.763,113.871-.443,204.734-15.792,204.734-34.284s-90.863-33.627-204.734-33.777c-115.893-.157-211.365,15.2-211.365,34.3" transform="translate(1882.613 434.656)" fill="#979aa0"/>
    <path id="Path_91" data-name="Path 91" d="M1037.367,550.031V521.506l419.15-.65v30.962l-419.15-1.786" transform="translate(1881.878 450.917)" fill="#979aa0"/>
    <path id="Path_92" data-name="Path 92" d="M1037.367,536.969c0,19.236,96.207,34.434,212.965,33.948,114.693-.486,206.185-15.977,206.185-34.606s-91.491-33.834-206.185-33.956c-116.758-.129-212.965,15.37-212.965,34.613" transform="translate(1881.878 435.576)" fill="#d7d9e0"/>
    <path id="Path_93" data-name="Path 93" d="M1456.517,488.785V519.74h-.05c-1.894,18.686-79.973,51.376-193.373,50.79-179.7-.922-223.048-33.491-225.67-52.577h-.057V489.428l419.15-.643" transform="translate(1881.878 424.323)" fill="#979aa0"/>
    <path id="Path_94" data-name="Path 94" d="M1037.367,504.887c0,19.243,96.207,34.441,212.965,33.948,114.693-.479,206.185-15.963,206.185-34.6s-91.491-33.834-206.185-33.956c-116.758-.129-212.965,15.37-212.965,34.606" transform="translate(1881.878 409.379)" fill="#979aa0"/>
    <path id="Path_95" data-name="Path 95" d="M1038.254,503.471c0,19.1,95.471,34.213,211.365,33.763,113.871-.436,204.734-15.792,204.734-34.291s-90.863-33.62-204.734-33.77c-115.893-.157-211.365,15.2-211.365,34.3" transform="translate(1882.613 408.466)" fill="#979aa0"/>
    <path id="Path_96" data-name="Path 96" d="M1037.367,517.953V489.428l419.15-.643V519.74l-419.15-1.786" transform="translate(1881.878 424.71)" fill="#979aa0"/>
    <path id="Path_97" data-name="Path 97" d="M1037.367,504.887c0,19.243,96.207,34.441,212.965,33.948,114.693-.479,206.185-15.963,206.185-34.6s-91.491-33.834-206.185-33.956c-116.758-.129-212.965,15.37-212.965,34.606" transform="translate(1881.878 409.379)" fill="#d7d9e0"/>
    <path id="Path_98" data-name="Path 98" d="M1456.517,456.629V487.59h-.05c-1.894,18.686-79.973,51.376-193.373,50.79-179.7-.922-223.048-33.491-225.67-52.577h-.057V457.279l419.15-.65" transform="translate(1881.878 398.104)" fill="#979aa0"/>
    <path id="Path_99" data-name="Path 99" d="M1037.367,472.738c0,19.243,96.207,34.441,212.965,33.948,114.693-.486,206.185-15.97,206.185-34.6s-91.491-33.834-206.185-33.963c-116.758-.129-212.965,15.37-212.965,34.613" transform="translate(1881.878 382.893)" fill="#979aa0"/>
    <path id="Path_100" data-name="Path 100" d="M1038.254,471.319c0,19.093,95.471,34.206,211.365,33.763,113.871-.443,204.734-15.792,204.734-34.291s-90.863-33.62-204.734-33.77c-115.893-.157-211.365,15.2-211.365,34.3" transform="translate(1882.613 381.984)" fill="#979aa0"/>
    <path id="Path_101" data-name="Path 101" d="M1037.367,485.8V457.279l419.15-.65V487.59l-419.15-1.786" transform="translate(1881.878 398.214)" fill="#979aa0"/>
    <path id="Path_102" data-name="Path 102" d="M1037.367,472.738c0,19.243,96.207,34.441,212.965,33.948,114.693-.486,206.185-15.97,206.185-34.6s-91.491-33.834-206.185-33.963c-116.758-.129-212.965,15.37-212.965,34.613" transform="translate(1881.878 382.893)" fill="#d7d9e0"/>
    <path id="Path_103" data-name="Path 103" d="M1456.517,424.477v30.954h-.05c-1.894,18.693-79.973,51.376-193.373,50.79-179.7-.922-223.048-33.491-225.67-52.57h-.057V425.127l419.15-.65" transform="translate(1881.878 371.626)" fill="#979aa0"/>
    <path id="Path_104" data-name="Path 104" d="M1037.367,440.586c0,19.243,96.207,34.441,212.965,33.948,114.693-.486,206.185-15.97,206.185-34.606s-91.491-33.834-206.185-33.956c-116.758-.129-212.965,15.37-212.965,34.613" transform="translate(1881.878 356.411)" fill="#979aa0"/>
    <path id="Path_105" data-name="Path 105" d="M1038.254,439.159c0,19.1,95.471,34.213,211.365,33.763,113.871-.436,204.734-15.784,204.734-34.284s-90.863-33.62-204.734-33.77c-115.893-.157-211.365,15.191-211.365,34.291" transform="translate(1882.613 355.502)" fill="#979aa0"/>
    <path id="Path_106" data-name="Path 106" d="M1037.367,453.652V425.127l419.15-.65v30.954l-419.15-1.779" transform="translate(1881.878 371.721)" fill="#979aa0"/>
    <path id="Path_107" data-name="Path 107" d="M1037.367,440.586c0,19.243,96.207,34.441,212.965,33.948,114.693-.486,206.185-15.97,206.185-34.606s-91.491-33.834-206.185-33.956c-116.758-.129-212.965,15.37-212.965,34.613" transform="translate(1881.878 356.411)" fill="#d7d9e0"/>
    <path id="Path_108" data-name="Path 108" d="M1456.517,392.324v30.954h-.05c-1.894,18.686-79.973,51.376-193.373,50.79-179.7-.922-223.048-33.491-225.67-52.57h-.057V392.974l419.15-.65" transform="translate(1881.878 345.149)" fill="#979aa0"/>
    <path id="Path_109" data-name="Path 109" d="M1037.367,408.43c0,19.25,96.207,34.441,212.965,33.956,114.693-.486,206.185-15.97,206.185-34.606s-91.491-33.834-206.185-33.963c-116.758-.121-212.965,15.37-212.965,34.613" transform="translate(1881.878 329.926)" fill="#979aa0"/>
    <path id="Path_110" data-name="Path 110" d="M1038.254,407.01c0,19.1,95.471,34.213,211.365,33.763,113.871-.436,204.734-15.792,204.734-34.291s-90.863-33.62-204.734-33.77c-115.893-.15-211.365,15.2-211.365,34.3" transform="translate(1882.613 329.016)" fill="#979aa0"/>
    <path id="Path_111" data-name="Path 111" d="M1037.367,421.5V392.974l419.15-.65v30.954l-419.15-1.779" transform="translate(1881.878 345.228)" fill="#979aa0"/>
    <path id="Path_112" data-name="Path 112" d="M1037.367,408.43c0,19.25,96.207,34.441,212.965,33.956,114.693-.486,206.185-15.97,206.185-34.606s-91.491-33.834-206.185-33.963c-116.758-.121-212.965,15.37-212.965,34.613" transform="translate(1881.878 329.926)" fill="#d7d9e0"/>
    <path id="Path_113" data-name="Path 113" d="M1456.517,360.168v30.954l-.05.007c-1.894,18.686-79.973,51.369-193.373,50.79-179.7-.929-223.048-33.491-225.67-52.577h-.057V360.825l419.15-.657" transform="translate(1881.878 318.668)" fill="#979aa0"/>
    <path id="Path_114" data-name="Path 114" d="M1037.367,376.274c0,19.243,96.207,34.441,212.965,33.948,114.693-.486,206.185-15.97,206.185-34.6s-91.491-33.834-206.185-33.956c-116.758-.129-212.965,15.363-212.965,34.606" transform="translate(1881.878 303.447)" fill="#979aa0"/>
    <path id="Path_115" data-name="Path 115" d="M1038.254,374.858c0,19.093,95.471,34.213,211.365,33.763,113.871-.443,204.734-15.792,204.734-34.291s-90.863-33.62-204.734-33.77c-115.893-.157-211.365,15.2-211.365,34.3" transform="translate(1882.613 302.534)" fill="#979aa0"/>
    <path id="Path_116" data-name="Path 116" d="M1037.367,389.343V360.825l419.15-.657v30.954l-419.15-1.779" transform="translate(1881.878 318.731)" fill="#979aa0"/>
    <path id="Path_117" data-name="Path 117" d="M1037.367,376.274c0,19.243,96.207,34.441,212.965,33.948,114.693-.486,206.185-15.97,206.185-34.6s-91.491-33.834-206.185-33.956c-116.758-.129-212.965,15.363-212.965,34.606" transform="translate(1881.878 303.447)" fill="#d7d9e0"/>
    <path id="Path_118" data-name="Path 118" d="M1456.517,328.016V358.97h-.05c-1.894,18.686-79.973,51.376-193.373,50.79-179.7-.922-223.048-33.491-225.67-52.57h-.057V328.666l419.15-.65" transform="translate(1881.878 292.19)" fill="#979aa0"/>
    <path id="Path_119" data-name="Path 119" d="M1037.367,344.125c0,19.243,96.207,34.434,212.965,33.948,114.693-.479,206.185-15.97,206.185-34.6s-91.491-33.834-206.185-33.963c-116.758-.129-212.965,15.37-212.965,34.613" transform="translate(1881.878 276.962)" fill="#979aa0"/>
    <path id="Path_120" data-name="Path 120" d="M1038.254,342.7c0,19.1,95.471,34.22,211.365,33.77,113.871-.443,204.734-15.792,204.734-34.291s-90.863-33.62-204.734-33.77c-115.893-.157-211.365,15.2-211.365,34.291" transform="translate(1882.613 276.052)" fill="#979aa0"/>
    <path id="Path_121" data-name="Path 121" d="M1037.367,357.191V328.666l419.15-.65V358.97l-419.15-1.779" transform="translate(1881.878 292.238)" fill="#979aa0"/>
    <path id="Path_122" data-name="Path 122" d="M1037.367,344.125c0,19.243,96.207,34.434,212.965,33.948,114.693-.479,206.185-15.97,206.185-34.6s-91.491-33.834-206.185-33.963c-116.758-.129-212.965,15.37-212.965,34.613" transform="translate(1881.878 276.962)" fill="#d7d9e0"/>
    <path id="Path_123" data-name="Path 123" d="M966.67,226.948c48.275,38.8,319.977,276.069,142.654,570.473,0,0-219.175-110.257-151.135-567.182a5.247,5.247,0,0,1,8.482-3.291" transform="translate(1806.18 208)" fill="#d7d9e0"/>
    <path id="Path_124" data-name="Path 124" d="M966.788,259.544c10.84,17.914,20.865,36.221,30.576,54.728q14.523,27.76,27.667,56.235,13.13,28.457,24.8,57.579c1.908,4.866,3.908,9.689,5.731,14.591l5.523,14.677c3.494,9.854,7.074,19.679,10.275,29.64,3.373,9.9,6.317,19.943,9.354,29.954l4.216,15.12c1.458,5.03,2.594,10.14,3.908,15.206a607.181,607.181,0,0,1,12.219,61.637l1.157,7.781.872,7.817.872,7.824.436,3.909.279,3.93,1.086,15.713.393,15.756a357.982,357.982,0,0,1-4.83,62.909,3.215,3.215,0,1,1-6.338-1.086l.007-.021.007-.05a351.69,351.69,0,0,0,5.188-61.709l-.271-15.542-.958-15.52-.243-3.88-.407-3.866-.807-7.746-.807-7.739-1.079-7.71a605.427,605.427,0,0,0-11.668-61.209c-1.272-5.045-2.358-10.125-3.773-15.134l-4.08-15.063c-2.951-9.975-5.795-19.986-9.082-29.861-3.108-9.932-6.6-19.743-10.011-29.575l-5.388-14.663c-1.779-4.895-3.737-9.718-5.6-14.584q-11.394-29.079-24.288-57.572-12.894-28.468-27.182-56.278c-9.539-18.521-19.429-36.907-30.061-54.771l-.014-.021a1.361,1.361,0,0,1,2.329-1.408" transform="translate(1822.082 235.452)" fill="#efeff4"/>
    <path id="Path_125" data-name="Path 125" d="M994.527,268.176a28.526,28.526,0,0,0-26.667,27.752c-2.237,90.137-9.5,401.072-6.031,511.254a22.143,22.143,0,0,0,21.444,21.427c57.857,1.888,224.305,6.682,318.948,2.714a37.281,37.281,0,0,0,35.792-36.435c1.972-94.617,6.31-360.733-4.009-482.64a30.417,30.417,0,0,0-27.339-27.7c-63.016-6.3-230.372-21.669-312.138-16.376" transform="translate(1819.295 242.251)" fill="#333435"/>
    <path id="Path_126" data-name="Path 126" d="M1005.889,285.556a24.891,24.891,0,0,0-23.53,23.8c-3.166,74.056-13.134,320.42-9.968,411.526a25.763,25.763,0,0,0,24.238,24.859c54.713,3.208,195.052,10.275,275.3,3.844a28.955,28.955,0,0,0,26.567-27.346c4.066-75.557,15.749-304.957,12.712-395.041a28.461,28.461,0,0,0-25.91-27.389c-59.194-5.323-211.215-17.978-279.412-14.255" transform="translate(1828.028 255.234)" fill="#74767b"/>
    <path id="Path_127" data-name="Path 127" d="M1042.883,278.748a5.2,5.2,0,0,0,4.923,5.209c13.669.722,52.163,2.744,69.369,3.744a5.2,5.2,0,0,0,5.409-6.2l-.107-.572a5.205,5.205,0,0,0-4.637-4.209c-11.626-1.065-46.725-4.023-69.969-3.187a5.2,5.2,0,0,0-4.988,5.209" transform="translate(1886.933 247.481)" fill="#74767b"/>
    <path id="Path_128" data-name="Path 128" d="M1224.758,357.824a2.2,2.2,0,0,1-.1-4.394c2.365-.107,4.752-.314,7.088-.622a2.019,2.019,0,0,1,.293-.021,2.316,2.316,0,0,1,.636.093,2.2,2.2,0,0,1-.357,4.287c-2.458.322-4.973.55-7.46.657h-.1m-11.854-.293c-.072,0-.143-.007-.214-.007-2.472-.236-4.973-.586-7.424-1.029a2.2,2.2,0,0,1,.393-4.366,2.432,2.432,0,0,1,.393.036c2.33.422,4.709.757,7.053.979a2.234,2.234,0,0,1,.436.086,2.2,2.2,0,0,1-.636,4.3m-18.743-3.916a2.012,2.012,0,0,1-.643-.1l-.043-.007c-2.365-.772-4.723-1.665-7.01-2.637a2.2,2.2,0,0,1,.857-4.223,2.4,2.4,0,0,1,.636.093c.079.029.15.057.221.079,2.172.929,4.416,1.772,6.667,2.508a2.2,2.2,0,0,1-.686,4.287" transform="translate(2004.549 307.611)" fill="#aaadb3"/>
    <path id="Path_129" data-name="Path 129" d="M1190.712,355.778a2.183,2.183,0,0,1-1.136-.314c-2.129-1.279-4.23-2.672-6.238-4.137a2.2,2.2,0,1,1,2.572-3.558c1.915,1.386,3.909,2.708,5.931,3.93a2.2,2.2,0,0,1-1.129,4.08m-15.177-11.647a2.157,2.157,0,0,1-1.522-.615c-1.794-1.729-3.537-3.551-5.173-5.423a2.2,2.2,0,0,1,.207-3.1,2.154,2.154,0,0,1,2.087-.45,2.128,2.128,0,0,1,1.015.65c1.558,1.786,3.208,3.516,4.909,5.159a2.2,2.2,0,0,1-1.522,3.78" transform="translate(1990.659 297.542)" fill="#d7d9e0"/>
    <path id="Path_130" data-name="Path 130" d="M1172.562,353.146a2.192,2.192,0,0,1-1.836-.993c-1.372-2.086-2.658-4.252-3.844-6.438a2.209,2.209,0,0,1,1.929-3.251,2.16,2.16,0,0,1,.643.1,2.2,2.2,0,0,1,1.293,1.058c1.122,2.079,2.351,4.13,3.651,6.117a2.206,2.206,0,0,1-.629,3.044,2.228,2.228,0,0,1-1.208.364m-8.653-17.092a2.2,2.2,0,0,1-2.065-1.422c-.872-2.337-1.65-4.737-2.322-7.131a2.209,2.209,0,0,1,1.529-2.715,2.413,2.413,0,0,1,.593-.079,2.151,2.151,0,0,1,.636.1,2.194,2.194,0,0,1,1.479,1.508c.636,2.279,1.379,4.559,2.208,6.774a2.213,2.213,0,0,1-1.293,2.83,2.06,2.06,0,0,1-.765.136m-4.659-18.586a2.211,2.211,0,0,1-1.565-.65c-.057-2.408-.121-4.723-.2-6.96a28.57,28.57,0,0,0-.329-3.523,2.151,2.151,0,0,1,1.336-.536.54.54,0,0,1,.107-.007,2.362,2.362,0,0,1,.636.093,2.215,2.215,0,0,1,1.558,2.008c.107,2.358.322,4.745.636,7.088a2.2,2.2,0,0,1-1.886,2.472c-.1.007-.193.014-.293.014" transform="translate(1981.454 273.916)" fill="#656669"/>
    <path id="Path_131" data-name="Path 131" d="M1158.03,316.569a2.148,2.148,0,0,1-.615-1.25c-.329-2.472-.557-4.98-.672-7.467a2.156,2.156,0,0,1,.75-1.758,28.454,28.454,0,0,1,.336,3.516c.079,2.237.143,4.552.2,6.96" transform="translate(1981.125 274.189)" fill="#929499"/>
    <path id="Path_132" data-name="Path 132" d="M1159.082,315.316c-.057,0-.129-.007-.2-.014a2.2,2.2,0,0,1-1.979-2.394c.229-2.472.564-4.966,1.008-7.424a2.189,2.189,0,0,1,2.158-1.808,1.871,1.871,0,0,1,.393.036,2.557,2.557,0,0,1,.25.057,2.2,2.2,0,0,1,1.522,2.494c-.422,2.337-.743,4.709-.958,7.053a2.209,2.209,0,0,1-2.194,2m3.88-18.757a2.259,2.259,0,0,1-.643-.093l-.036-.021a2.2,2.2,0,0,1-1.415-2.772c.772-2.372,1.658-4.73,2.622-7.017a2.167,2.167,0,0,1,2.658-1.25,1.908,1.908,0,0,1,.214.079,2.195,2.195,0,0,1,1.172,2.88c-.915,2.172-1.751,4.416-2.487,6.674a2.207,2.207,0,0,1-2.087,1.522" transform="translate(1981.243 257.046)" fill="#656669"/>
    <path id="Path_133" data-name="Path 133" d="M1218.148,353.558a2.2,2.2,0,0,1-.579-4.323c1.093-.3,2.2-.636,3.273-.986a2.264,2.264,0,0,1,.679-.1,2.075,2.075,0,0,1,.636.093,2.2,2.2,0,0,1,.036,4.194c-1.129.364-2.294.715-3.444,1.036a2.176,2.176,0,0,1-.6.086" transform="translate(2029.977 308.853)" fill="#aaadb3"/>
    <path id="Path_134" data-name="Path 134" d="M1246.8,331.688a2.2,2.2,0,0,1-1.929-3.244c.536-1,1.064-2.029,1.565-3.044a2.188,2.188,0,0,1,1.972-1.236,2.141,2.141,0,0,1,.636.093,3.123,3.123,0,0,1,.329.129,2.2,2.2,0,0,1,1.008,2.944c-.521,1.072-1.079,2.151-1.651,3.2a2.167,2.167,0,0,1-1.929,1.158" transform="translate(2053.731 289.084)" fill="#d7d9e0"/>
    <path id="Path_135" data-name="Path 135" d="M1252.792,320.377c-1.372-.393-2.78-.779-4.237-1.158.286-1.015.55-2.051.793-3.073a2.194,2.194,0,0,1,2.137-1.686,2.142,2.142,0,0,1,.514.057c.036.014.086.021.129.036a2.2,2.2,0,0,1,1.493,2.615c-.257,1.072-.536,2.144-.829,3.208" transform="translate(2057.006 281.088)" fill="#f3f4f6"/>
    <path id="Path_136" data-name="Path 136" d="M1252.544,319.849q-2.069-.568-4.251-1.122c.164-.55.322-1.108.471-1.665,1.465.379,2.873.772,4.245,1.158-.15.543-.307,1.093-.465,1.629" transform="translate(2056.789 283.234)" fill="#aaadb3"/>
    <path id="Path_137" data-name="Path 137" d="M1250.1,322.882a2.265,2.265,0,0,1-.708-.121,2.2,2.2,0,0,1-1.393-2.78c.193-.586.372-1.172.557-1.765.021-.079.05-.157.071-.243q2.187.557,4.252,1.122c-.043.136-.079.264-.122.4-.186.622-.386,1.243-.586,1.865a2.207,2.207,0,0,1-2.072,1.522" transform="translate(2056.451 283.983)" fill="#d7d9e0"/>
    <path id="Path_138" data-name="Path 138" d="M1297.738,355.009c-.071,0-.143,0-.221-.007a2.2,2.2,0,0,1-1.965-2.408c.229-2.322.365-4.673.4-7a2.2,2.2,0,0,1,2.194-2.165h.036a2.116,2.116,0,0,1,.607.093,2.209,2.209,0,0,1,1.558,2.136c-.036,2.451-.178,4.923-.421,7.367a2.2,2.2,0,0,1-2.187,1.979m-.221-18.857a2.2,2.2,0,0,1-2.179-1.929c-.279-2.3-.672-4.63-1.143-6.91a2.2,2.2,0,0,1,1.693-2.608,2.462,2.462,0,0,1,.45-.043,2.156,2.156,0,0,1,.643.093,2.19,2.19,0,0,1,1.508,1.658c.5,2.4.915,4.845,1.208,7.274a2.192,2.192,0,0,1-1.908,2.451,1.728,1.728,0,0,1-.271.014m-4.359-18.335a2.192,2.192,0,0,1-2.065-1.458c-.786-2.194-1.672-4.373-2.637-6.5a2.208,2.208,0,0,1,1.086-2.915,2.179,2.179,0,0,1,.915-.2,2.234,2.234,0,0,1,2,1.293c1.015,2.229,1.944,4.53,2.772,6.831a2.207,2.207,0,0,1-1.329,2.815,2.229,2.229,0,0,1-.743.129m-8.253-16.942a2.2,2.2,0,0,1-1.858-1.022c-1.243-1.965-2.587-3.909-3.987-5.766a2.2,2.2,0,0,1,2.394-3.43,2.114,2.114,0,0,1,1.108.779c1.479,1.951,2.894,3.994,4.194,6.067a2.189,2.189,0,0,1-.679,3.03,2.147,2.147,0,0,1-1.172.343m-11.74-14.734a2.184,2.184,0,0,1-1.558-.643c-1.651-1.658-3.373-3.251-5.145-4.752a2.2,2.2,0,0,1,1.422-3.88,2.235,2.235,0,0,1,.643.1,2.078,2.078,0,0,1,.779.422c1.858,1.579,3.68,3.266,5.416,5a2.2,2.2,0,0,1-1.558,3.751m-14.67-11.8a2.213,2.213,0,0,1-1.179-.343c-1.965-1.25-4.009-2.429-6.067-3.5a2.2,2.2,0,0,1,1.022-4.152,2.138,2.138,0,0,1,.636.093,2.5,2.5,0,0,1,.379.157c2.172,1.129,4.316,2.372,6.388,3.687a2.2,2.2,0,0,1-1.179,4.059m-16.914-8.289a2.062,2.062,0,0,1-.743-.129c-2.165-.779-4.416-1.479-6.681-2.087a2.2,2.2,0,0,1,.564-4.323,2.007,2.007,0,0,1,.572.079c.986.257,1.958.536,2.922.829,1.379.422,2.758.879,4.109,1.365a2.2,2.2,0,0,1-.743,4.266m-43.488-3.809c-.986-.729-1.979-1.443-2.973-2.158a2.2,2.2,0,0,1,1.8-2.1c2.408-.436,4.866-.779,7.3-1.008.072-.007.143-.007.207-.007a2.407,2.407,0,0,1,.643.086,2.212,2.212,0,0,1,1.543,1.9,2.187,2.187,0,0,1-1.979,2.394c-2.179.214-4.38.514-6.545.893" transform="translate(2012.696 233.864)" fill="#f3f4f6"/>
    <path id="Path_139" data-name="Path 139" d="M1197.316,260.941a2.194,2.194,0,0,1-2.158-1.808,1.98,1.98,0,0,1-.036-.457c.993.715,1.987,1.429,2.973,2.158-.129.029-.257.05-.386.071a2.5,2.5,0,0,1-.393.036" transform="translate(2012.86 235.277)" fill="#e8e8ee"/>
    <path id="Path_140" data-name="Path 140" d="M1214.752,261.8a1.821,1.821,0,0,1-.279-.014c-2.308-.3-4.659-.493-6.974-.593a2.2,2.2,0,0,1,.086-4.395h.093c2.451.107,4.916.314,7.346.622a2.146,2.146,0,0,1,.371.079,2.2,2.2,0,0,1-.643,4.3" transform="translate(2021.212 233.722)" fill="#f3f4f6"/>
    <path id="Path_141" data-name="Path 141" d="M1189.29,264.656a2.2,2.2,0,0,1-.772-4.259c1.122-.422,2.272-.822,3.4-1.193a2.063,2.063,0,0,1,.686-.114,2.114,2.114,0,0,1,.636.1,2.2,2.2,0,0,1,.043,4.194c-1.072.35-2.158.736-3.222,1.129a2.106,2.106,0,0,1-.772.143" transform="translate(2006.215 235.62)" fill="#e8e8ee"/>
    <path id="Path_142" data-name="Path 142" d="M1191.639,284.586a1.026,1.026,0,0,0-.422,1.115l3.2,12.09a54.557,54.557,0,0,0-9.775,14.7l-12.376,1.715a1.016,1.016,0,0,0-.865.822l-2.894,14.713a1.04,1.04,0,0,0,.486,1.093l10.8,6.281a54.435,54.435,0,0,0,3.487,17.306l-7.546,9.975a1.019,1.019,0,0,0-.029,1.193l8.346,12.462a1.034,1.034,0,0,0,1.115.414l12.083-3.2a54.314,54.314,0,0,0,14.684,9.789l1.708,12.383a1.034,1.034,0,0,0,.822.865l14.706,2.9a1.034,1.034,0,0,0,1.086-.493l6.281-10.811a54.372,54.372,0,0,0,17.292-3.48l9.961,7.546a1.031,1.031,0,0,0,1.193.036l12.448-8.36a1.033,1.033,0,0,0,.422-1.115l-3.2-12.09a54.784,54.784,0,0,0,9.775-14.7l12.369-1.715a1.009,1.009,0,0,0,.865-.822l2.9-14.713a1.044,1.044,0,0,0-.493-1.093l-10.8-6.281a54.461,54.461,0,0,0-3.48-17.306l7.538-9.975a1.031,1.031,0,0,0,.036-1.193l-8.353-12.462a1.034,1.034,0,0,0-1.115-.414l-12.083,3.2a54.245,54.245,0,0,0-14.677-9.782l-1.715-12.39a1.033,1.033,0,0,0-.822-.865l-14.7-2.9a1.044,1.044,0,0,0-1.093.493l-6.274,10.811a54.567,54.567,0,0,0-17.292,3.48l-9.961-7.546a1.042,1.042,0,0,0-1.2-.036l-12.44,8.36" transform="translate(1990.612 243.843)" fill="#b9bcc5"/>
    <path id="Path_143" data-name="Path 143" d="M1215.313,322.871a11.556,11.556,0,1,0-8.832-.436,12.14,12.14,0,0,0,1.6.622A11.493,11.493,0,0,0,1215.313,322.871Zm2.551-24.523a15.04,15.04,0,1,1-2.065-.8,15.568,15.568,0,0,1,2.065.8" transform="translate(2013.719 266.6)" fill="#d7d9e0"/>
    <path id="Path_144" data-name="Path 144" d="M1232.326,286.653a37.21,37.21,0,0,0-3.694-.929l-1.186-.214a36.583,36.583,0,0,0-5.917-.486h-.757a.881.881,0,0,0-.822.629.8.8,0,0,0-.036.272.883.883,0,0,0,.893.865,35.34,35.34,0,0,1,35.292,42.144,35.889,35.889,0,0,1-.879,3.53,35.3,35.3,0,0,1-68.375-17.178q.354-1.769.872-3.48a35.242,35.242,0,0,1,7.538-13.348.822.822,0,0,0,.186-.336.875.875,0,0,0-1.486-.843,36.768,36.768,0,0,0-7.917,14.012c-.365,1.2-.672,2.422-.915,3.651a37.049,37.049,0,1,0,67.118-13.491,36.74,36.74,0,0,0-19.915-14.8" transform="translate(2003.824 256.79)" fill="#d7d9e0"/>
    <path id="Path_145" data-name="Path 145" d="M1131.389,248.68a1.379,1.379,0,0,1-.679-.179,1.362,1.362,0,0,1-.5-1.851c.572-1,1.186-1.994,1.815-2.965a1.368,1.368,0,0,1,1.143-.607,1.176,1.176,0,0,1,.386.057,1.155,1.155,0,0,1,.357.164,1.363,1.363,0,0,1,.386,1.879c-.6.915-1.186,1.865-1.729,2.822a1.34,1.34,0,0,1-1.179.679" transform="translate(1959.036 222.342)" fill="#e8e8ee"/>
    <path id="Path_146" data-name="Path 146" d="M1173.312,305.463a1.394,1.394,0,0,1-.164-.014,59.208,59.208,0,0,1-6.181-1.079c-.314-.071-.615-.143-.922-.222a1.36,1.36,0,0,1,.322-2.68,1.3,1.3,0,0,1,.329.043c.286.071.579.143.872.207a56.405,56.405,0,0,0,5.9,1.036,1.148,1.148,0,0,1,.236.05,1.359,1.359,0,0,1-.393,2.658m-13.684-3.387a1.234,1.234,0,0,1-.479-.086,57.408,57.408,0,0,1-6.574-2.994,1.353,1.353,0,0,1,.636-2.551,1.248,1.248,0,0,1,.393.057.871.871,0,0,1,.236.1,56.523,56.523,0,0,0,6.281,2.851,1.356,1.356,0,0,1-.493,2.622m-12.433-6.617a1.355,1.355,0,0,1-.779-.243,59.983,59.983,0,0,1-5.638-4.516,1.356,1.356,0,0,1-.093-1.915,1.337,1.337,0,0,1,1.008-.45,1.257,1.257,0,0,1,.393.064,1.272,1.272,0,0,1,.521.293,54.607,54.607,0,0,0,5.366,4.3,1.352,1.352,0,0,1-.779,2.465M1136.769,286a1.356,1.356,0,0,1-1.029-.472,58.9,58.9,0,0,1-4.366-5.759,1.354,1.354,0,0,1,1.122-2.108,1.547,1.547,0,0,1,.4.057,1.373,1.373,0,0,1,.736.543,54.672,54.672,0,0,0,4.166,5.495,1.365,1.365,0,0,1-.143,1.915,1.419,1.419,0,0,1-.886.329" transform="translate(1959.922 251.02)" fill="#656669"/>
    <path id="Path_147" data-name="Path 147" d="M1133.084,278.144c-1.043-.1-2.086-.193-3.151-.293-.807-1.715-1.529-3.48-2.165-5.266a1.357,1.357,0,0,1,.815-1.736,1.463,1.463,0,0,1,.457-.079,1.41,1.41,0,0,1,.393.057,1.352,1.352,0,0,1,.886.843,55.89,55.89,0,0,0,2.715,6.345c.014.036.036.086.05.129" transform="translate(1957.096 245.306)" fill="#e8e8ee"/>
    <path id="Path_148" data-name="Path 148" d="M1130.8,276.77a1.36,1.36,0,0,1-1.215-.743c-.229-.464-.457-.922-.672-1.386,1.065.1,2.115.193,3.151.293a1.348,1.348,0,0,1-.657,1.693,1.308,1.308,0,0,1-.607.143" transform="translate(1958.114 248.516)" fill="#656669"/>
    <path id="Path_149" data-name="Path 149" d="M1128.577,285.481a1.35,1.35,0,0,1-1.322-1.058,57.85,57.85,0,0,1-1.136-7.146,1.372,1.372,0,0,1,1.229-1.486h.122a1.161,1.161,0,0,1,.393.057,1.37,1.37,0,0,1,.965,1.172,56.43,56.43,0,0,0,1.072,6.81,1.353,1.353,0,0,1-1.029,1.622,1.313,1.313,0,0,1-.293.029m-1.336-14.034h-.043a1.367,1.367,0,0,1-1.315-1.4,59.177,59.177,0,0,1,.657-7.2,1.364,1.364,0,0,1,1.343-1.158,1.013,1.013,0,0,1,.207.014c.064.014.129.029.186.043a1.366,1.366,0,0,1,.95,1.508,55.3,55.3,0,0,0-.629,6.867,1.364,1.364,0,0,1-1.358,1.322m2.144-13.941a1.294,1.294,0,0,1-.372-.05,1.4,1.4,0,0,1-.936-1.679c.115-.4.229-.807.35-1.208.579-1.894,1.258-3.787,2.022-5.616a1.361,1.361,0,0,1,1.25-.836,1.544,1.544,0,0,1,.4.057c.043.014.079.036.129.05a1.36,1.36,0,0,1,.722,1.779c-.729,1.743-1.379,3.551-1.929,5.359-.114.379-.221.765-.336,1.15a1.355,1.355,0,0,1-1.3.993" transform="translate(1955.604 226.521)" fill="#e8e8ee"/>
    <path id="Path_150" data-name="Path 150" d="M1191.145,257.587q-1.618-1.061-3.251-2.087c-.207-.829-.436-1.651-.679-2.472a1.355,1.355,0,0,1,.907-1.693,1.44,1.44,0,0,1,.386-.057,1.413,1.413,0,0,1,.393.057,1.378,1.378,0,0,1,.915.915c.522,1.751.972,3.537,1.329,5.338" transform="translate(2006.272 229.142)" fill="#f3f4f6"/>
    <path id="Path_151" data-name="Path 151" d="M1189.759,258.852a1.361,1.361,0,0,1-1.336-1.129c-.236-1.386-.529-2.765-.865-4.137,1.086.693,2.165,1.386,3.244,2.094q.161.782.3,1.586a1.358,1.358,0,0,1-1.107,1.565,1.317,1.317,0,0,1-.236.021" transform="translate(2006.607 231.056)" fill="#e8e8ee"/>
    <path id="Path_152" data-name="Path 152" d="M1215.526,265.955a1.361,1.361,0,0,1-1.243-.807,57.232,57.232,0,0,0-3.094-6.038,1.356,1.356,0,0,1,.486-1.858,1.249,1.249,0,0,1,.686-.193,1.216,1.216,0,0,1,.393.057,1.386,1.386,0,0,1,.779.607,60.7,60.7,0,0,1,3.237,6.331,1.349,1.349,0,0,1-.7,1.786,1.3,1.3,0,0,1-.543.114m-7.052-11.933a1.354,1.354,0,0,1-1.079-.536,57.039,57.039,0,0,0-4.437-5.116,1.354,1.354,0,0,1,.965-2.308,1.291,1.291,0,0,1,.4.057,1.4,1.4,0,0,1,.572.343,60.663,60.663,0,0,1,4.659,5.373,1.361,1.361,0,0,1-.25,1.9,1.341,1.341,0,0,1-.829.286m-9.7-9.9a1.373,1.373,0,0,1-.85-.3,56.8,56.8,0,0,0-5.538-3.909,1.354,1.354,0,0,1,.715-2.508,1.247,1.247,0,0,1,.393.057,1.38,1.38,0,0,1,.314.143,57.914,57.914,0,0,1,5.816,4.094,1.364,1.364,0,0,1-.85,2.422m-11.8-7.281a1.349,1.349,0,0,1-.572-.121,56.284,56.284,0,0,0-6.317-2.444,1.358,1.358,0,0,1,.414-2.651,1.257,1.257,0,0,1,.393.064h.014a60.01,60.01,0,0,1,6.631,2.565,1.359,1.359,0,0,1,.665,1.8,1.341,1.341,0,0,1-1.229.786m-13.2-4.209a1.417,1.417,0,0,1-.25-.021,57.9,57.9,0,0,0-6.724-.872,1.355,1.355,0,0,1,.086-2.708h.093a58.288,58.288,0,0,1,7.045.915.844.844,0,0,1,.143.029,1.365,1.365,0,0,1,.936,1.558,1.347,1.347,0,0,1-1.329,1.1m-20.722-.129a1.376,1.376,0,0,1-1.343-1.122,1.362,1.362,0,0,1,1.1-1.579,58.522,58.522,0,0,1,7.06-.822h.072a1.135,1.135,0,0,1,.393.064,1.341,1.341,0,0,1,.965,1.222,1.358,1.358,0,0,1-1.279,1.429,55.942,55.942,0,0,0-6.731.779,1.5,1.5,0,0,1-.236.029" transform="translate(1976.885 210.655)" fill="#f3f4f6"/>
    <path id="Path_153" data-name="Path 153" d="M1147.573,234.14a1.358,1.358,0,0,1-.479-2.63c1.072-.407,2.172-.779,3.28-1.122a1.336,1.336,0,0,1,.4-.064,1.269,1.269,0,0,1,.4.064,1.342,1.342,0,0,1,.9.893,1.356,1.356,0,0,1-.9,1.7c-1.058.329-2.115.686-3.13,1.072a1.372,1.372,0,0,1-.471.086" transform="translate(1972.417 211.766)" fill="#f3f4f6"/>
    <path id="Path_154" data-name="Path 154" d="M1149.189,247.5a.691.691,0,0,0-.279.743l2.144,8.1a36.4,36.4,0,0,0-6.545,9.832l-8.274,1.143a.683.683,0,0,0-.579.557l-1.944,9.847a.7.7,0,0,0,.329.729l7.231,4.2a36.585,36.585,0,0,0,2.322,11.576l-5.045,6.674a.7.7,0,0,0-.021.8l5.588,8.339a.679.679,0,0,0,.743.279l8.089-2.137a36.434,36.434,0,0,0,9.818,6.545l1.15,8.289a.7.7,0,0,0,.55.579l9.839,1.936a.7.7,0,0,0,.729-.329l4.194-7.231a36.439,36.439,0,0,0,11.576-2.329l6.667,5.045a.687.687,0,0,0,.8.029l8.332-5.595a.693.693,0,0,0,.271-.75l-2.136-8.089a36.374,36.374,0,0,0,6.538-9.832l8.282-1.143a.7.7,0,0,0,.579-.55l1.937-9.854a.687.687,0,0,0-.329-.729l-7.224-4.2a36.526,36.526,0,0,0-2.329-11.583l5.045-6.674a.676.676,0,0,0,.021-.793l-5.588-8.339a.678.678,0,0,0-.75-.279l-8.074,2.137a36.562,36.562,0,0,0-9.832-6.545l-1.136-8.282a.7.7,0,0,0-.55-.586l-9.847-1.936a.672.672,0,0,0-.722.329l-4.2,7.231a36.4,36.4,0,0,0-11.569,2.329l-6.667-5.052a.687.687,0,0,0-.8-.021l-8.332,5.595" transform="translate(1961.993 217.364)" fill="#b9bcc5"/>
    <path id="Path_155" data-name="Path 155" d="M1169.334,269.142a7.55,7.55,0,1,0-10.047,3.6,7.886,7.886,0,0,0,1.029.407A7.56,7.56,0,0,0,1169.334,269.142Zm-2.437-12.519a10.319,10.319,0,1,1-1.422-.543,10.381,10.381,0,0,1,1.422.543" transform="translate(1977.396 232.756)" fill="#d7d9e0"/>
    <path id="Path_156" data-name="Path 156" d="M1176.967,248.482c-.822-.25-1.658-.457-2.522-.629a25.827,25.827,0,0,0-5.188-.486c-.071.007-.157.007-.229.007a1.364,1.364,0,0,0-1.279.957,1.67,1.67,0,0,0-.057.422,1.368,1.368,0,0,0,1.386,1.336,23.061,23.061,0,0,1,4.845.429c.086.021.171.036.257.057a22.633,22.633,0,0,1,10.068,4.895,23.1,23.1,0,0,1,4.116,4.573l.029.043.086.129a22.73,22.73,0,0,1,3.444,17.156,21.816,21.816,0,0,1-.572,2.287,22.847,22.847,0,0,1-44.259-11.118,22.113,22.113,0,0,1,.564-2.258,22.674,22.674,0,0,1,4.88-8.639,1.413,1.413,0,0,0,.286-.514,1.353,1.353,0,0,0-2.3-1.3,25.475,25.475,0,0,0-5.467,9.661c-.243.829-.457,1.672-.622,2.522a25.562,25.562,0,0,0,49.519,12.44c.25-.829.464-1.686.636-2.551a25.631,25.631,0,0,0-17.621-29.418" transform="translate(1970.497 225.899)" fill="#d7d9e0"/>
    <path id="Path_157" data-name="Path 157" d="M1020.5,552.526l-41.98-1.1a2.5,2.5,0,0,1-2.437-2.565l1.108-42.016a2.488,2.488,0,0,1,2.558-2.43l41.98,1.093a2.5,2.5,0,0,1,2.429,2.572l-1.1,42.016a2.488,2.488,0,0,1-2.558,2.43" transform="translate(1831.722 437.283)" fill="#f3d33f"/>
    <path id="Path_158" data-name="Path 158" d="M1049.316,553.286l-41.973-1.1a2.5,2.5,0,0,1-2.437-2.565l1.1-42.016a2.5,2.5,0,0,1,2.565-2.437l41.98,1.1a2.5,2.5,0,0,1,2.43,2.565l-1.1,42.016a2.5,2.5,0,0,1-2.565,2.437" transform="translate(1855.555 437.908)" fill="#f3d33f"/>
    <path id="Path_159" data-name="Path 159" d="M1077.308,554.021l-41.973-1.1a2.5,2.5,0,0,1-2.437-2.565l1.1-42.016a2.5,2.5,0,0,1,2.565-2.437l41.973,1.1a2.506,2.506,0,0,1,2.437,2.572l-1.1,42.009a2.5,2.5,0,0,1-2.565,2.437" transform="translate(1878.697 438.517)" fill="#f7e57e"/>
    <path id="Path_160" data-name="Path 160" d="M1105.719,554.407l-41.98-1.108a2.494,2.494,0,0,1-2.43-2.565l1.1-42.009a2.506,2.506,0,0,1,2.565-2.444l41.973,1.108a2.5,2.5,0,0,1,2.437,2.565l-1.1,42.016a2.5,2.5,0,0,1-2.565,2.437" transform="translate(1902.184 438.831)" fill="#f3d33f"/>
    <path id="Path_161" data-name="Path 161" d="M1136.746,555.517l-41.973-1.1a2.5,2.5,0,0,1-2.437-2.565l1.1-42.016A2.5,2.5,0,0,1,1096,507.4l41.98,1.1a2.5,2.5,0,0,1,2.429,2.565l-1.1,42.016a2.5,2.5,0,0,1-2.565,2.437" transform="translate(1927.835 439.758)" fill="#f3d33f"/>
    <path id="Path_162" data-name="Path 162" d="M1166.3,563.751l-41.98-1.1a2.494,2.494,0,0,1-2.43-2.565l1.1-42.016a2.5,2.5,0,0,1,2.565-2.437l41.973,1.108a2.5,2.5,0,0,1,2.437,2.565l-1.1,42.016a2.494,2.494,0,0,1-2.565,2.43" transform="translate(1952.272 446.586)" fill="#f3d33f"/>
    <path id="Path_163" data-name="Path 163" d="M1021.566,522.993l-41.98-1.1a2.5,2.5,0,0,1-2.429-2.565l1.1-42.016a2.5,2.5,0,0,1,2.565-2.437l41.973,1.1a2.5,2.5,0,0,1,2.429,2.572l-1.093,42.016a2.5,2.5,0,0,1-2.565,2.429" transform="translate(1832.613 413.21)" fill="#f7e57e"/>
    <path id="Path_164" data-name="Path 164" d="M1050.387,523.751l-41.973-1.1a2.5,2.5,0,0,1-2.429-2.572l1.1-42.009a2.493,2.493,0,0,1,2.558-2.437l41.98,1.1a2.494,2.494,0,0,1,2.429,2.565l-1.1,42.016a2.5,2.5,0,0,1-2.565,2.437" transform="translate(1856.446 413.834)" fill="#f3d33f"/>
    <path id="Path_165" data-name="Path 165" d="M1078.382,524.486l-41.973-1.1a2.5,2.5,0,0,1-2.437-2.565l1.1-42.016a2.5,2.5,0,0,1,2.565-2.437l41.973,1.1a2.5,2.5,0,0,1,2.437,2.565l-1.1,42.016a2.5,2.5,0,0,1-2.565,2.437" transform="translate(1879.585 414.439)" fill="#f3d33f"/>
    <path id="Path_166" data-name="Path 166" d="M1106.793,524.871l-41.98-1.108a2.5,2.5,0,0,1-2.429-2.565l1.1-42.016a2.509,2.509,0,0,1,2.565-2.437l41.973,1.108a2.5,2.5,0,0,1,2.437,2.565l-1.1,42.016a2.5,2.5,0,0,1-2.565,2.437" transform="translate(1903.072 414.752)" fill="#f3d33f"/>
    <path id="Path_167" data-name="Path 167" d="M1138.609,527.013l-41.98-1.1a2.5,2.5,0,0,1-2.429-2.565l1.1-42.016a2.5,2.5,0,0,1,2.565-2.437l41.973,1.1a2.5,2.5,0,0,1,2.437,2.565l-1.1,42.016a2.5,2.5,0,0,1-2.565,2.437" transform="translate(1929.375 416.522)" fill="#f7e57e"/>
    <path id="Path_168" data-name="Path 168" d="M1174.66,527.013l-41.973-1.1a2.5,2.5,0,0,1-2.437-2.565l1.1-42.016a2.5,2.5,0,0,1,2.565-2.437l41.98,1.1a2.5,2.5,0,0,1,2.429,2.565l-1.1,42.016a2.5,2.5,0,0,1-2.565,2.437" transform="translate(1959.18 416.522)" fill="#f3d33f"/>
    <path id="Path_169" data-name="Path 169" d="M1022.954,494.548l-41.973-1.1a2.49,2.49,0,0,1-2.43-2.565l1.1-42.016a2.5,2.5,0,0,1,2.558-2.437l41.98,1.1a2.5,2.5,0,0,1,2.429,2.572l-1.1,42.016a2.5,2.5,0,0,1-2.565,2.429" transform="translate(1833.766 389.776)" fill="#f3d33f"/>
    <path id="Path_170" data-name="Path 170" d="M1051.785,495.306l-41.973-1.1a2.5,2.5,0,0,1-2.437-2.565l1.1-42.016a2.5,2.5,0,0,1,2.565-2.437l41.98,1.1a2.5,2.5,0,0,1,2.429,2.565l-1.1,42.016a2.5,2.5,0,0,1-2.565,2.437" transform="translate(1857.596 390.4)" fill="#f3d33f"/>
    <path id="Path_171" data-name="Path 171" d="M1079.777,496.04l-41.98-1.1a2.5,2.5,0,0,1-2.43-2.565l1.1-42.016a2.5,2.5,0,0,1,2.565-2.437l41.973,1.1a2.5,2.5,0,0,1,2.437,2.565l-1.1,42.016a2.5,2.5,0,0,1-2.565,2.437" transform="translate(1880.738 391.005)" fill="#f3d33f"/>
    <path id="Path_172" data-name="Path 172" d="M1108.558,495.637h-41.987a2.505,2.505,0,0,1-2.5-2.508V451.106a2.505,2.505,0,0,1,2.5-2.508h41.987a2.507,2.507,0,0,1,2.508,2.508v42.023a2.507,2.507,0,0,1-2.508,2.508" transform="translate(1904.469 391.564)" fill="#f3d33f"/>
    <path id="Path_173" data-name="Path 173" d="M1136.746,497.536l-41.973-1.1a2.506,2.506,0,0,1-2.437-2.572l1.1-42.009a2.5,2.5,0,0,1,2.565-2.437l41.98,1.1a2.5,2.5,0,0,1,2.429,2.565l-1.1,42.016a2.5,2.5,0,0,1-2.565,2.437" transform="translate(1927.835 392.238)" fill="#f3d33f"/>
    <path id="Path_174" data-name="Path 174" d="M1167.324,498.344l-41.973-1.108a2.509,2.509,0,0,1-2.437-2.565l1.1-42.016a2.5,2.5,0,0,1,2.565-2.437l41.98,1.108a2.494,2.494,0,0,1,2.429,2.565l-1.1,42.009a2.51,2.51,0,0,1-2.565,2.444" transform="translate(1953.115 392.897)" fill="#f3d33f"/>
    <path id="Path_175" data-name="Path 175" d="M1023.746,466.056l-41.973-1.1a2.509,2.509,0,0,1-2.437-2.565l1.1-42.016A2.5,2.5,0,0,1,983,417.938l41.973,1.1a2.5,2.5,0,0,1,2.437,2.565l-1.1,42.016a2.5,2.5,0,0,1-2.565,2.437" transform="translate(1834.415 366.303)" fill="#f3d33f"/>
    <path id="Path_176" data-name="Path 176" d="M1052.574,466.807l-41.98-1.1a2.494,2.494,0,0,1-2.43-2.565l1.1-42.016a2.494,2.494,0,0,1,2.565-2.43l41.973,1.1a2.5,2.5,0,0,1,2.437,2.565l-1.1,42.016a2.494,2.494,0,0,1-2.565,2.43" transform="translate(1858.248 366.927)" fill="#f7e57e"/>
    <path id="Path_177" data-name="Path 177" d="M1080.566,467.551l-41.98-1.1a2.5,2.5,0,0,1-2.429-2.572l1.1-42.009a2.5,2.5,0,0,1,2.558-2.444l41.98,1.108a2.509,2.509,0,0,1,2.437,2.565l-1.1,42.016a2.509,2.509,0,0,1-2.565,2.437" transform="translate(1881.39 367.529)" fill="#f3d33f"/>
    <path id="Path_178" data-name="Path 178" d="M1108.972,467.927l-41.98-1.1a2.5,2.5,0,0,1-2.429-2.565l1.1-42.016a2.5,2.5,0,0,1,2.565-2.437l41.973,1.1a2.5,2.5,0,0,1,2.437,2.572l-1.1,42.009a2.5,2.5,0,0,1-2.565,2.437" transform="translate(1904.874 367.845)" fill="#f3d33f"/>
    <path id="Path_179" data-name="Path 179" d="M1142.273,470l-41.973-1.1a2.506,2.506,0,0,1-2.437-2.572l1.1-42.009a2.5,2.5,0,0,1,2.565-2.437l41.98,1.1a2.5,2.5,0,0,1,2.429,2.565l-1.1,42.016a2.5,2.5,0,0,1-2.565,2.437" transform="translate(1932.405 369.553)" fill="#f3d33f"/>
    <path id="Path_180" data-name="Path 180" d="M1174.05,470l-41.973-1.1a2.506,2.506,0,0,1-2.437-2.572l1.1-42.009a2.509,2.509,0,0,1,2.565-2.437l41.98,1.1a2.5,2.5,0,0,1,2.429,2.565l-1.1,42.016A2.5,2.5,0,0,1,1174.05,470" transform="translate(1958.676 369.553)" fill="#f3d33f"/>
    <path id="Path_181" data-name="Path 181" d="M1223.261,473.52l-41.98-1.108a2.494,2.494,0,0,1-2.429-2.565l1.1-42.016a2.509,2.509,0,0,1,2.565-2.437l41.973,1.108a2.5,2.5,0,0,1,2.437,2.565l-1.107,42.016a2.5,2.5,0,0,1-2.558,2.437" transform="translate(1999.359 372.447)" fill="#f3d33f"/>
    <path id="Path_182" data-name="Path 182" d="M1024.82,437.349l-41.973-1.1a2.5,2.5,0,0,1-2.437-2.565l1.1-42.023a2.494,2.494,0,0,1,2.565-2.43l41.973,1.1a2.5,2.5,0,0,1,2.437,2.565l-1.1,42.016a2.5,2.5,0,0,1-2.565,2.437" transform="translate(1835.303 342.653)" fill="#f3d33f"/>
    <path id="Path_183" data-name="Path 183" d="M1053.648,438.107l-41.973-1.1a2.506,2.506,0,0,1-2.437-2.572l1.1-42.016a2.494,2.494,0,0,1,2.565-2.43l41.973,1.1a2.5,2.5,0,0,1,2.437,2.565l-1.1,42.016a2.5,2.5,0,0,1-2.565,2.437" transform="translate(1859.136 343.277)" fill="#f3d33f"/>
    <path id="Path_184" data-name="Path 184" d="M1081.64,438.841l-41.98-1.1a2.509,2.509,0,0,1-2.429-2.572l1.1-42.009a2.5,2.5,0,0,1,2.565-2.437l41.973,1.1a2.5,2.5,0,0,1,2.437,2.565l-1.1,42.016a2.5,2.5,0,0,1-2.565,2.437" transform="translate(1882.278 343.883)" fill="#f3d33f"/>
    <path id="Path_185" data-name="Path 185" d="M1110.422,438.43h-41.987a2.5,2.5,0,0,1-2.5-2.5V393.9a2.5,2.5,0,0,1,2.5-2.5h41.987a2.5,2.5,0,0,1,2.5,2.5v42.03a2.5,2.5,0,0,1-2.5,2.5" transform="translate(1906.009 344.441)" fill="#f3d33f"/>
    <path id="Path_186" data-name="Path 186" d="M1138.609,440.337l-41.98-1.1a2.5,2.5,0,0,1-2.429-2.572l1.1-42.016a2.494,2.494,0,0,1,2.565-2.429l41.973,1.1a2.5,2.5,0,0,1,2.437,2.565l-1.1,42.016a2.5,2.5,0,0,1-2.565,2.437" transform="translate(1929.375 345.115)" fill="#f3d33f"/>
    <path id="Path_187" data-name="Path 187" d="M1167.437,441.091l-41.973-1.1a2.5,2.5,0,0,1-2.437-2.565l1.1-42.016a2.5,2.5,0,0,1,2.565-2.437l41.973,1.108a2.5,2.5,0,0,1,2.437,2.558l-1.1,42.016a2.5,2.5,0,0,1-2.565,2.437" transform="translate(1953.208 345.736)" fill="#f7e57e"/>
    <path id="Path_188" data-name="Path 188" d="M1025.894,409.036l-41.973-1.1a2.506,2.506,0,0,1-2.437-2.572l1.1-42.009a2.509,2.509,0,0,1,2.565-2.437l41.98,1.1a2.5,2.5,0,0,1,2.43,2.565l-1.1,42.016a2.5,2.5,0,0,1-2.565,2.437" transform="translate(1836.192 319.329)" fill="#f7e57e"/>
    <path id="Path_189" data-name="Path 189" d="M1028.687,380.005l-41.973-1.1a2.5,2.5,0,0,1-2.437-2.565l1.1-42.016a2.5,2.5,0,0,1,2.565-2.437l41.973,1.108a2.5,2.5,0,0,1,2.437,2.565l-1.1,42.009a2.5,2.5,0,0,1-2.565,2.437" transform="translate(1838.501 295.412)" fill="#f7e57e"/>
    <path id="Path_190" data-name="Path 190" d="M1029.761,349.575l-41.973-1.108a2.5,2.5,0,0,1-2.437-2.565l1.1-42.016a2.5,2.5,0,0,1,2.565-2.437l41.98,1.108a2.5,2.5,0,0,1,2.429,2.565l-1.1,42.016a2.5,2.5,0,0,1-2.565,2.437" transform="translate(1839.389 270.336)" fill="#f3d33f"/>
    <path id="Path_191" data-name="Path 191" d="M1054.722,409.794l-41.973-1.1a2.511,2.511,0,0,1-2.437-2.572l1.1-42.009a2.5,2.5,0,0,1,2.565-2.437l41.98,1.1a2.5,2.5,0,0,1,2.43,2.565l-1.1,42.016a2.5,2.5,0,0,1-2.565,2.437" transform="translate(1860.024 319.953)" fill="#f3d33f"/>
    <path id="Path_192" data-name="Path 192" d="M1059.73,375.521l-41.98-1.093a2.5,2.5,0,0,1-2.429-2.572l1.1-42.016a2.5,2.5,0,0,1,2.565-2.437l41.973,1.108a2.5,2.5,0,0,1,2.437,2.565l-1.107,42.016a2.492,2.492,0,0,1-2.558,2.43" transform="translate(1864.164 291.717)" fill="#f3d33f"/>
    <path id="Path_193" data-name="Path 193" d="M1088.1,379.79l-41.98-1.1a2.5,2.5,0,0,1-2.429-2.572l1.1-42.016a2.494,2.494,0,0,1,2.565-2.43l41.973,1.1a2.5,2.5,0,0,1,2.437,2.565l-1.1,42.016a2.509,2.509,0,0,1-2.565,2.437" transform="translate(1887.62 295.235)" fill="#f3d33f"/>
    <path id="Path_194" data-name="Path 194" d="M1101.719,349.282l-41.973-1.1a2.505,2.505,0,0,1-2.43-2.572l1.1-42.016a2.5,2.5,0,0,1,2.565-2.437l41.973,1.108a2.5,2.5,0,0,1,2.437,2.565l-1.1,42.016a2.511,2.511,0,0,1-2.573,2.437" transform="translate(1898.884 270.095)" fill="#f3d33f"/>
    <path id="Path_195" data-name="Path 195" d="M1135.355,342.239l-41.98-1.108a2.5,2.5,0,0,1-2.43-2.565l1.1-42.016a2.5,2.5,0,0,1,2.558-2.437l41.98,1.108a2.5,2.5,0,0,1,2.437,2.565l-1.1,42.016a2.514,2.514,0,0,1-2.565,2.437" transform="translate(1926.686 264.293)" fill="#f7e57e"/>
    <path id="Path_196" data-name="Path 196" d="M1148.246,376.825l-41.98-1.1a2.5,2.5,0,0,1-2.429-2.565l1.108-42.016a2.5,2.5,0,0,1,2.565-2.437l41.973,1.1a2.5,2.5,0,0,1,2.429,2.572l-1.1,42.009a2.5,2.5,0,0,1-2.565,2.437" transform="translate(1937.342 292.792)" fill="#f3d33f"/>
    <path id="Path_197" data-name="Path 197" d="M1065.75,343.931l-41.98-1.1a2.5,2.5,0,0,1-2.429-2.565l1.1-42.016a2.5,2.5,0,0,1,2.565-2.437l41.973,1.1a2.5,2.5,0,0,1,2.437,2.565l-1.108,42.016a2.5,2.5,0,0,1-2.558,2.437" transform="translate(1869.141 265.692)" fill="#f7e57e"/>
    <path id="Path_198" data-name="Path 198" d="M1037.961,319.154l-41.973-1.1a2.506,2.506,0,0,1-2.437-2.572l1.1-42.009a2.5,2.5,0,0,1,2.565-2.437l41.973,1.1a2.511,2.511,0,0,1,2.437,2.572l-1.1,42.009a2.5,2.5,0,0,1-2.565,2.437" transform="translate(1846.167 245.525)" fill="#f3d33f"/>
    <path id="Path_199" data-name="Path 199" d="M1084.5,305.743l-41.973-1.1a2.5,2.5,0,0,1-2.437-2.572l1.1-42.016a2.509,2.509,0,0,1,2.565-2.437l41.973,1.108a2.5,2.5,0,0,1,2.437,2.565l-1.1,42.016a2.5,2.5,0,0,1-2.565,2.437" transform="translate(1884.639 234.399)" fill="#f3d33f"/>
    <path id="Path_200" data-name="Path 200" d="M1082.715,410.522l-41.973-1.093a2.506,2.506,0,0,1-2.437-2.572l1.1-42.016a2.494,2.494,0,0,1,2.565-2.43l41.98,1.1a2.5,2.5,0,0,1,2.429,2.565l-1.1,42.016a2.494,2.494,0,0,1-2.565,2.43" transform="translate(1883.166 320.558)" fill="#f3d33f"/>
    <path id="Path_201" data-name="Path 201" d="M1111.128,410.907l-41.98-1.1a2.5,2.5,0,0,1-2.437-2.565l1.1-42.016a2.5,2.5,0,0,1,2.565-2.437l41.98,1.1a2.494,2.494,0,0,1,2.429,2.565l-1.1,42.016a2.494,2.494,0,0,1-2.558,2.437" transform="translate(1906.65 320.87)" fill="#f7e57e"/>
    <path id="Path_202" data-name="Path 202" d="M1117.777,376.825l-41.973-1.1a2.5,2.5,0,0,1-2.437-2.565l1.1-42.016a2.5,2.5,0,0,1,2.565-2.437l41.973,1.1a2.5,2.5,0,0,1,2.437,2.572l-1.1,42.009a2.5,2.5,0,0,1-2.565,2.437" transform="translate(1912.153 292.792)" fill="#f3d33f"/>
    <path id="Path_203" data-name="Path 203" d="M1140.585,409.036l-41.973-1.1a2.5,2.5,0,0,1-2.437-2.572l1.1-42.009a2.5,2.5,0,0,1,2.565-2.437l41.973,1.1a2.5,2.5,0,0,1,2.437,2.565l-1.1,42.016a2.5,2.5,0,0,1-2.565,2.437" transform="translate(1931.01 319.329)" fill="#f3d33f"/>
    <path id="Path_204" data-name="Path 204" d="M1203.027,440.939l-41.973-1.108a2.489,2.489,0,0,1-2.437-2.558l1.1-42.016a2.5,2.5,0,0,1,2.565-2.437l41.98,1.1a2.5,2.5,0,0,1,2.43,2.565l-1.108,42.016a2.494,2.494,0,0,1-2.558,2.437" transform="translate(1982.631 345.611)" fill="#f3d33f"/>
    <path id="Path_205" data-name="Path 205" d="M1202.257,554.818l-41.98-1.1a2.5,2.5,0,0,1-2.429-2.565l1.1-42.016a2.5,2.5,0,0,1,2.565-2.437l41.973,1.1a2.5,2.5,0,0,1,2.437,2.565l-1.1,42.016a2.5,2.5,0,0,1-2.565,2.437" transform="translate(1981.995 439.178)" fill="#f7e57e"/>
    <path id="Path_206" data-name="Path 206" d="M1199.859,385.642l-41.973-1.1a2.511,2.511,0,0,1-2.437-2.572l1.108-42.009a2.493,2.493,0,0,1,2.558-2.437l41.98,1.1a2.494,2.494,0,0,1,2.429,2.565l-1.1,42.016a2.5,2.5,0,0,1-2.565,2.437" transform="translate(1980.012 300.055)" fill="#f3d33f"/>
    <path id="Path_207" data-name="Path 207" d="M1168.1,346.618l-41.973-1.1a2.516,2.516,0,0,1-2.437-2.572l1.1-42.009a2.506,2.506,0,0,1,2.572-2.437l41.973,1.1a2.509,2.509,0,0,1,2.437,2.565l-1.108,42.016a2.5,2.5,0,0,1-2.565,2.437" transform="translate(1953.755 267.906)" fill="#f3d33f"/>
    <path id="Path_208" data-name="Path 208" d="M1169.672,408.789l-41.973-1.1a2.506,2.506,0,0,1-2.437-2.572l1.1-42.009a2.51,2.51,0,0,1,2.565-2.444l41.973,1.108a2.5,2.5,0,0,1,2.437,2.565l-1.1,42.016a2.5,2.5,0,0,1-2.565,2.437" transform="translate(1955.056 319.119)" fill="#f3d33f"/>
    <path id="Path_209" data-name="Path 209" d="M1305.284,491.331c-4.709-7.853-5.931-14.9-4.537-24.016,2.294-15.041.507-31.791-9.068-44.167-9.082-11.74-25.438-12.791-35.413-23.266-.064-.071-.293-.407-.629-.936a26.177,26.177,0,0,1-4.066-13.2c-.972-29.475-22.394-29.132-32.562-23.537-16.092,8.853-12.555,25.381-12.555,25.381,4.487,4.8,20.529-5.445,20.529-5.445l6.66,10.711c-1.886.822-3.916,1.751-6.124,2.837-15.106,7.41-16.72,65.324-8.217,74.585s10,18.107,1.422,33.263-3.623,34.949,42.037,51.362c7.389,2.665,18.521,2.951,25.824-.014,16.021-6.51,24.838-25.574,25.267-42.009.222-8.339-4.487-14.734-8.567-21.544" transform="translate(2021.821 317.71)" fill="#333435"/>
    <path id="Path_210" data-name="Path 210" d="M1272.972,452.968h-.014a.192.192,0,0,1-.178-.207c1.865-20.829-4.495-34.534-10.154-42.366-6.181-8.546-14.248-13.784-19.136-15.041-8.618-2.208-12.619-12.312-12.655-12.419a.191.191,0,0,1,.107-.25.2.2,0,0,1,.25.107c.043.107,3.973,10.025,12.39,12.183,3.823.979,12.2,5.288,19.357,15.2,5.7,7.882,12.1,21.672,10.225,42.623a.194.194,0,0,1-.193.172" transform="translate(2042.3 337.219)" fill="#5c5e61"/>
    <path id="Path_211" data-name="Path 211" d="M1249.877,473.848a.191.191,0,0,1-.064-.372c.179-.071,18.042-7.253,17.735-27.089a.2.2,0,0,1,.186-.2.214.214,0,0,1,.2.193c.314,20.115-17.807,27.382-17.985,27.46l-.072.007" transform="translate(2057.942 389.616)" fill="#5c5e61"/>
    <g id="Group_22" data-name="Group 22" transform="translate(3193.312 789.759)" clip-path="url(#clip-path)">
      <g id="Group_21" data-name="Group 21" clip-path="url(#clip-path-2)">
        <g id="Group_20" data-name="Group 20" clip-path="url(#clip-path-3)">
          <path id="Path_212" data-name="Path 212" d="M1187.191,420.945v29.368h51.119V420.945Zm0,0" transform="translate(-1187.191 -420.945)" fill="url(#linear-gradient)"/>
        </g>
      </g>
    </g>
    <path id="Path_216" data-name="Path 216" d="M1225.6,397.566c5.488-1.651,21.465-4.695,36.664,9.346a9.426,9.426,0,0,1,2.715,9.382c-4.087,15.041-14.855,59.487-5.416,78.715,0,0-16.635,18.364-34.792,3.558,0,0-8.146-35.535-18.822-51.133-7.36-10.768,11.754-40.444,16.585-47.611a5.652,5.652,0,0,1,3.065-2.258" transform="translate(2020.292 348.205)" fill="#f7e057"/>
    <g id="Group_25" data-name="Group 25" transform="translate(3244.052 717.292)" clip-path="url(#clip-path-4)">
      <g id="Group_24" data-name="Group 24" transform="translate(0 0)" clip-path="url(#clip-path-5)">
        <g id="Group_23" data-name="Group 23" transform="translate(0 -0.007)" clip-path="url(#clip-path-6)">
          <path id="Path_217" data-name="Path 217" d="M1214.93,381.219V415.1h23.352V381.219Zm0,0" transform="translate(-1214.93 -381.212)" fill="url(#linear-gradient-2)"/>
        </g>
      </g>
    </g>
    <g id="Group_29" data-name="Group 29" transform="translate(3219.171 920.447)" clip-path="url(#clip-path-7)">
      <g id="Group_28" data-name="Group 28" transform="translate(0.109 0.193)" clip-path="url(#clip-path-8)">
        <g id="Group_27" data-name="Group 27" transform="translate(-0.001)" clip-path="url(#clip-path-9)">
          <g id="Group_26" data-name="Group 26" transform="translate(-64.611 -29.711)" clip-path="url(#clip-path-10)">
            <path id="Path_221" data-name="Path 221" d="M1284.232,476.715l-118.037,65,80.544,146.541,118.037-65Zm0,0" transform="translate(-1165.959 -476.615)" fill="url(#linear-gradient-3)"/>
          </g>
        </g>
      </g>
    </g>
    <path id="Path_226" data-name="Path 226" d="M1258.5,579.3s-6.445-10.225-7.2-14.205-2.873-11-6.845-8.889c0,0-1.872,19.336-1.229,26.889s-8.532,7.31-8.532,7.31a8.555,8.555,0,0,0-4.38,2.215,2.151,2.151,0,0,0,1.443,3.616,51.565,51.565,0,0,0,12.783-.729,3.908,3.908,0,0,0,3.151-3.609l1.329-22.258,8.125,10.275,1.358-.615" transform="translate(2041.385 479.911)" fill="#333435"/>
    <g id="Group_33" data-name="Group 33" transform="translate(3244.581 932.451)" clip-path="url(#clip-path-11)">
      <g id="Group_32" data-name="Group 32" transform="translate(0.05 0.334)" clip-path="url(#clip-path-12)">
        <g id="Group_31" data-name="Group 31" transform="translate(0 -0.001)" clip-path="url(#clip-path-13)">
          <g id="Group_30" data-name="Group 30" transform="translate(-23.895 -11.208)" clip-path="url(#clip-path-14)">
            <path id="Path_227" data-name="Path 227" d="M1286.593,506.025,1226.77,496l-24.18,144.5,59.822,10.032Zm0,0" transform="translate(-1201.847 -491.27)" fill="url(#linear-gradient-4)"/>
          </g>
        </g>
      </g>
    </g>
    <path id="Path_232" data-name="Path 232" d="M1239.437,594.756a.7.7,0,0,0,.707-.607c.379-2.672,1.965-13.419,3.259-16.2,1.486-3.187,6.338-16.592,0-17.735,0,0-15.756,23.037-18.779,26.146a5.917,5.917,0,0,1-6.838,1.086,11.35,11.35,0,0,0-5.166,3.716,2.086,2.086,0,0,0,1.643,3.351l10.6.1a7.467,7.467,0,0,0,7-4.7c1.865-4.673,5.073-11.526,8.818-14.562l-1.944,18.621a.713.713,0,0,0,.693.786" transform="translate(2026.845 483.556)" fill="#333435"/>
    <path id="Path_233" data-name="Path 233" d="M1225.066,448.364s2.386,7.624-1.286,20.193L1200.992,548.2a2.467,2.467,0,0,0,1.543,3c6.81,2.451,29.225,9.368,59.8,7.26a3.476,3.476,0,0,0,3.173-2.708c2.015-9.082,8.889-40.058,10.3-46.424,5.395-24.252,10.625-47.325-15.877-63.138-12.212,5.238-22.809,5.231-34.87,2.172" transform="translate(2017.486 389.435)" fill="#5c5e61"/>
    <g id="Group_36" data-name="Group 36" transform="translate(3213.176 758.061)" clip-path="url(#clip-path-15)">
      <g id="Group_35" data-name="Group 35" transform="translate(0.154 0.298)" clip-path="url(#clip-path-16)">
        <g id="Group_34" data-name="Group 34" clip-path="url(#clip-path-17)">
          <path id="Path_234" data-name="Path 234" d="M1170.105,463.181l83.688,96.222,94.164-82.052-83.688-96.222Zm0,0" transform="translate(-1221.378 -422.528)" fill="#fff"/>
        </g>
      </g>
    </g>
    <path id="Path_238" data-name="Path 238" d="M1182.826,412.911l14.406-1.9a4.552,4.552,0,0,1,4.552,2.587l9.475,20.965c1.786,3.137.522,7.288-2.365,7.767l-11.569,1.493a2.845,2.845,0,0,1-2.872-1.772l-12.819-25.6c-.743-1.479-.122-3.323,1.193-3.537" transform="translate(2001.415 360.582)" fill="#333435"/>
    <g id="Group_39" data-name="Group 39" transform="translate(3185.133 781.023)" clip-path="url(#clip-path-18)">
      <g id="Group_38" data-name="Group 38" transform="translate(0.295 0.066)" clip-path="url(#clip-path-19)">
        <g id="Group_37" data-name="Group 37" transform="translate(0 -0.007)" clip-path="url(#clip-path-20)">
          <path id="Path_239" data-name="Path 239" d="M1182.621,416.148v20.743h14.82V416.148Zm0,0" transform="translate(-1182.916 -416.208)" fill="url(#linear-gradient-5)"/>
        </g>
      </g>
    </g>
    <g id="Group_42" data-name="Group 42" transform="translate(3229.404 697.884)" clip-path="url(#clip-path-21)">
      <g id="Group_41" data-name="Group 41" transform="translate(0.071 0.204)" clip-path="url(#clip-path-22)">
        <g id="Group_40" data-name="Group 40" clip-path="url(#clip-path-23)">
          <path id="Path_243" data-name="Path 243" d="M1194.453,409.213l43.759,27.961,30.226-47.389-43.766-27.961Zm0,0" transform="translate(-1217.333 -378.055)" fill="#fff"/>
        </g>
      </g>
    </g>
    <path id="Path_247" data-name="Path 247" d="M1212.17,370.708s-7,7.167-5.8,11.633,16.235-.207,19.943-2.315l12.412,13.226s-.379-19.593-8.946-25.624-17.606,3.08-17.606,3.08" transform="translate(2021.908 323.18)" fill="#333435"/>
    <g id="Group_45" data-name="Group 45" transform="translate(3255.021 707.078)" clip-path="url(#clip-path-24)">
      <g id="Group_44" data-name="Group 44" transform="translate(0 0.333)" clip-path="url(#clip-path-25)">
        <g id="Group_43" data-name="Group 43" clip-path="url(#clip-path-26)">
          <path id="Path_248" data-name="Path 248" d="M1220.926,375.605v13.769h10.733V375.605Zm0,0" transform="translate(-1220.926 -375.938)" fill="url(#linear-gradient-6)"/>
        </g>
      </g>
    </g>
  </g>
</svg>
